<svg width="25" height="24" viewBox="0 0 25 24" fill="none" xmlns="http://www.w3.org/2000/svg">
<path d="M2.33398 12C2.33398 7.83363 2.33398 5.75045 3.395 4.29008C3.73767 3.81844 4.15243 3.40368 4.62407 3.06102C6.08443 2 8.16762 2 12.334 2C16.5004 2 18.5835 2 20.0439 3.06102C20.5155 3.40368 20.9303 3.81844 21.273 4.29008C22.334 5.75045 22.334 7.83363 22.334 12C22.334 16.1664 22.334 18.2496 21.273 19.7099C20.9303 20.1816 20.5155 20.5963 20.0439 20.939C18.5835 22 16.5004 22 12.334 22C8.16762 22 6.08443 22 4.62407 20.939C4.15243 20.5963 3.73767 20.1816 3.395 19.7099C2.33398 18.2496 2.33398 16.1664 2.33398 12Z" fill="#AEB7C6"/>
<path d="M9.33398 9L15.334 15M9.33398 15L15.334 9" stroke="white" stroke-width="1.5" stroke-linecap="round"/>
</svg>
