<svg width="25" height="24" viewBox="0 0 25 24" fill="none" xmlns="http://www.w3.org/2000/svg">
<path d="M17.5411 15.7929C17.1506 15.4024 16.5174 15.4024 16.1269 15.7929C15.7364 16.1834 15.7364 16.8166 16.1269 17.2071L17.5411 15.7929ZM20.6269 21.7071C21.0174 22.0976 21.6506 22.0976 22.0411 21.7071C22.4316 21.3166 22.4316 20.6834 22.0411 20.2929L20.6269 21.7071ZM16.1269 17.2071L20.6269 21.7071L22.0411 20.2929L17.5411 15.7929L16.1269 17.2071ZM11.0483 17.4285C7.34008 17.4285 4.33398 14.4225 4.33398 10.7143H2.33398C2.33398 15.527 6.23551 19.4285 11.0483 19.4285V17.4285ZM17.7626 10.7143C17.7626 14.4225 14.7565 17.4285 11.0483 17.4285V19.4285C15.8611 19.4285 19.7626 15.527 19.7626 10.7143H17.7626ZM11.0483 4C14.7565 4 17.7626 7.00609 17.7626 10.7143H19.7626C19.7626 5.90151 15.8611 2 11.0483 2V4ZM11.0483 2C6.23551 2 2.33398 5.90151 2.33398 10.7143H4.33398C4.33398 7.00609 7.34008 4 11.0483 4V2Z" fill="#0072BC"/>
</svg>
