<svg width="126" height="18" viewBox="0 0 126 18" fill="none" xmlns="http://www.w3.org/2000/svg">
<path d="M15.5078 0.0234375V8.92969H13.0273V5.82422H9.82422V3.8125H13.0273V0.0234375H15.5078ZM9.60938 0.667969C9.60938 5.31641 6.81641 8.14844 1.58203 9.39844L0.761719 7.42578C4.63867 6.56641 6.5625 4.83789 6.93359 2.67969H1.73828V0.667969H9.60938ZM15.5078 9.61328V14.4766H6.21094V15.6484H15.8984V17.6211H3.71094V12.6406H13.0078V11.5664H3.69141V9.61328H15.5078ZM22.3148 1.27344C24.7172 1.27344 26.5043 3.25586 26.8656 6.44922H29.9516V0.0234375H32.4125V17.8359H29.9516V8.44141H26.8852C26.6215 11.8594 24.7953 13.9492 22.3148 13.9492C19.6195 13.9492 17.6859 11.5078 17.7055 7.60156C17.6859 3.73438 19.6195 1.27344 22.3148 1.27344ZM22.3148 3.51953C20.9867 3.51953 20.0688 4.96484 20.0883 7.60156C20.0688 10.2578 20.9867 11.6836 22.3148 11.6836C23.6625 11.6836 24.5414 10.2578 24.5414 7.60156C24.5414 4.96484 23.6625 3.51953 22.3148 3.51953ZM41.0164 4.04688C41.0164 7.38672 42.3641 10.6289 45.3328 11.918L43.8094 13.9102C41.8367 12.9434 40.5184 11.1758 39.7859 8.98828C39.0047 11.3125 37.6375 13.2168 35.6063 14.2227L34.0438 12.1914C37.0906 10.8242 38.4773 7.38672 38.4969 4.04688V1.39062H41.0164V4.04688ZM49.2977 0.0234375V17.8359H46.8367V7.62109H43.3406V5.60938H46.8367V0.0234375H49.2977ZM61.0953 4.49609C61.0953 7.36719 61.8961 10.3359 64.318 11.8984L62.9703 13.832C61.4371 12.9043 60.4605 11.3809 59.9039 9.55469C59.2594 11.5664 58.1949 13.2461 56.5836 14.2227L55.0602 12.3867C57.6969 10.7461 58.6734 7.62109 58.6734 4.61328V1.54688H61.0953V4.49609ZM70.8023 0.0234375V17.7969H68.4195V0.0234375H70.8023ZM67.0719 0.277344V16.9766H64.7477V8.05078H62.443V6.01953H64.7477V0.277344H67.0719ZM87.6875 0.0234375V17.7969H85.3438V0.0234375H87.6875ZM83.9766 0.414062V17.0156H81.6133V11.1562H79.0938V9.14453H81.6133V6.72266H79.4258C78.5957 9.65234 76.7988 12.1328 73.4688 14.1055L72.0039 12.3477C75.6074 10.2188 77.1895 7.63086 77.5312 4.14453H73.0391V2.13281H80.0117C80.0117 3.02148 79.9531 3.88086 79.8555 4.71094H81.6133V0.414062H83.9766ZM98.2742 1.27344C99.866 1.27344 101.194 2.15234 102.005 3.67578H105.911V0.0234375H108.372V17.8359H105.911V11.1758H102.2C101.399 12.9336 99.993 13.9492 98.2742 13.9492C95.5789 13.9492 93.6453 11.5078 93.6648 7.60156C93.6453 3.73438 95.5789 1.27344 98.2742 1.27344ZM98.2742 3.51953C96.9461 3.51953 96.0281 4.96484 96.0477 7.60156C96.0281 10.2578 96.9461 11.6836 98.2742 11.6836C99.6219 11.6836 100.501 10.2578 100.501 7.60156C100.501 4.96484 99.6219 3.51953 98.2742 3.51953ZM102.708 5.6875C102.815 6.27344 102.884 6.91797 102.884 7.60156C102.884 8.1582 102.835 8.68555 102.766 9.18359H105.911V5.6875H102.708ZM125.53 0.0234375V11.1758H123.167V6.44922H121.741V10.5898H119.417V0.355469H121.741V4.41797H123.167V0.0234375H125.53ZM118.89 1.85938V3.79297H110.159V1.85938H113.304V0.179688H115.784V1.85938H118.89ZM114.554 4.37891C116.82 4.37891 118.421 5.62891 118.441 7.48438C118.421 9.32031 116.82 10.5703 114.554 10.5703C112.327 10.5703 110.706 9.32031 110.706 7.48438C110.706 5.62891 112.327 4.37891 114.554 4.37891ZM114.554 6.17578C113.577 6.17578 112.933 6.66406 112.933 7.48438C112.933 8.30469 113.577 8.8125 114.554 8.79297C115.53 8.8125 116.175 8.30469 116.195 7.48438C116.175 6.66406 115.53 6.17578 114.554 6.17578ZM119.456 11.332C123.304 11.332 125.609 12.5039 125.628 14.5742C125.609 16.625 123.304 17.7969 119.456 17.7969C115.628 17.7969 113.304 16.625 113.304 14.5742C113.304 12.5039 115.628 11.332 119.456 11.332ZM119.456 13.207C117.054 13.207 115.784 13.6367 115.804 14.5742C115.784 15.4727 117.054 15.9219 119.456 15.9219C121.878 15.9219 123.109 15.4727 123.109 14.5742C123.109 13.6367 121.878 13.207 119.456 13.207Z" fill="black"/>
</svg>
