<svg width="84" height="15" viewBox="0 0 84 15" fill="none" xmlns="http://www.w3.org/2000/svg">
<path d="M5.11625 3.79688C5.11625 6.09375 5.75687 8.46875 7.69437 9.71875L6.61625 11.2656C5.38969 10.5234 4.60844 9.30469 4.16312 7.84375C3.6475 9.45312 2.79594 10.7969 1.50687 11.5781L0.288124 10.1094C2.3975 8.79688 3.17875 6.29688 3.17875 3.89062V1.4375H5.11625V3.79688ZM12.8819 0.21875V14.4375H10.9756V0.21875H12.8819ZM9.8975 0.421875V13.7812H8.03812V6.64062H6.19437V5.01562H8.03812V0.421875H9.8975ZM26.39 0.21875V14.4375H24.515V0.21875H26.39ZM23.4212 0.53125V13.8125H21.5306V9.125H19.515V7.51562H21.5306V5.57812H19.7806C19.1166 7.92188 17.6791 9.90625 15.015 11.4844L13.8431 10.0781C16.7259 8.375 17.9916 6.30469 18.265 3.51562H14.6712V1.90625H20.2494C20.2494 2.61719 20.2025 3.30469 20.1244 3.96875H21.5306V0.53125H23.4212ZM34.8594 1.21875C36.1328 1.21875 37.1953 1.92188 37.8438 3.14062H40.9688V0.21875H42.9375V14.4688H40.9688V9.14062H38C37.3594 10.5469 36.2344 11.3594 34.8594 11.3594C32.7031 11.3594 31.1562 9.40625 31.1719 6.28125C31.1562 3.1875 32.7031 1.21875 34.8594 1.21875ZM34.8594 3.01562C33.7969 3.01562 33.0625 4.17188 33.0781 6.28125C33.0625 8.40625 33.7969 9.54688 34.8594 9.54688C35.9375 9.54688 36.6406 8.40625 36.6406 6.28125C36.6406 4.17188 35.9375 3.01562 34.8594 3.01562ZM38.4062 4.75C38.4922 5.21875 38.5469 5.73438 38.5469 6.28125C38.5469 6.72656 38.5078 7.14844 38.4531 7.54688H40.9688V4.75H38.4062ZM56.6644 0.21875V9.14062H54.7738V5.35938H53.6331V8.67188H51.7738V0.484375H53.6331V3.73438H54.7738V0.21875H56.6644ZM51.3519 1.6875V3.23438H44.3675V1.6875H46.8831V0.34375H48.8675V1.6875H51.3519ZM47.8831 3.70312C49.6956 3.70312 50.9769 4.70312 50.9925 6.1875C50.9769 7.65625 49.6956 8.65625 47.8831 8.65625C46.1019 8.65625 44.805 7.65625 44.805 6.1875C44.805 4.70312 46.1019 3.70312 47.8831 3.70312ZM47.8831 5.14062C47.1019 5.14062 46.5863 5.53125 46.5863 6.1875C46.5863 6.84375 47.1019 7.25 47.8831 7.23438C48.6644 7.25 49.18 6.84375 49.1956 6.1875C49.18 5.53125 48.6644 5.14062 47.8831 5.14062ZM51.805 9.26562C54.8831 9.26562 56.7269 10.2031 56.7425 11.8594C56.7269 13.5 54.8831 14.4375 51.805 14.4375C48.7425 14.4375 46.8831 13.5 46.8831 11.8594C46.8831 10.2031 48.7425 9.26562 51.805 9.26562ZM51.805 10.7656C49.8831 10.7656 48.8675 11.1094 48.8831 11.8594C48.8675 12.5781 49.8831 12.9375 51.805 12.9375C53.7425 12.9375 54.7269 12.5781 54.7269 11.8594C54.7269 11.1094 53.7425 10.7656 51.805 10.7656ZM69.1725 0.21875V5.78125H71.2663V7.42188H69.1725V14.4375H67.2038V0.21875H69.1725ZM66.235 2.34375V3.9375H57.8756V2.34375H61.0944V0.4375H63.0944V2.34375H66.235ZM62.0944 4.73438C64.1725 4.73438 65.7194 6.14062 65.7194 8.125C65.7194 10.1094 64.1725 11.5156 62.0944 11.5156C60.0006 11.5156 58.4538 10.1094 58.4538 8.125C58.4538 6.14062 60.0006 4.73438 62.0944 4.73438ZM62.0944 6.34375C61.0944 6.35938 60.36 7.03125 60.36 8.125C60.36 9.23438 61.0944 9.89062 62.0944 9.875C63.0944 9.89062 63.8131 9.23438 63.8131 8.125C63.8131 7.03125 63.0944 6.35938 62.0944 6.34375ZM83.415 0.21875V14.4375H81.3994V0.21875H83.415ZM79.1494 1.70312C79.1494 6.01562 77.6338 9.59375 72.5556 12L71.5088 10.4062C75.1806 8.67188 76.7978 6.42188 77.1181 3.26562H72.2744V1.70312H79.1494Z" fill="white"/>
</svg>
