<svg width="243" height="72" viewBox="0 0 243 72" fill="none" xmlns="http://www.w3.org/2000/svg">
<path d="M18.9844 7.89844V29.0859H16.4766V18.2344H14.2266V28.0547H11.7656V8.27344H14.2266V16.0781H16.4766V7.89844H18.9844ZM9.67969 10.1953V23.625H1.35938V10.1953H9.67969ZM3.79688 12.2578V21.5625H7.24219V12.2578H3.79688ZM27.2053 8.57812C30.4163 8.57812 32.8069 10.5703 32.8303 13.3594C32.8069 16.1719 30.4163 18.1406 27.2053 18.1406C23.9709 18.1406 21.5803 16.1719 21.5803 13.3594C21.5803 10.5703 23.9709 8.57812 27.2053 8.57812ZM27.2053 10.7344C25.4241 10.7344 24.1116 11.7422 24.1116 13.3594C24.1116 15 25.4241 16.0312 27.2053 16.0312C28.9866 16.0312 30.2991 15 30.2991 13.3594C30.2991 11.7422 28.9866 10.7344 27.2053 10.7344ZM38.8538 7.89844V18.6094H36.2288V7.89844H38.8538ZM38.8538 19.5234V25.0547H27.3928V26.7656H39.4866V28.8281H24.8381V23.1328H36.2522V21.5625H24.7913V19.5234H38.8538ZM148.163 24.3984V26.5312H128.803V24.3984H137.147V20.2734H130.936V9.30469H133.538V12.7734H143.358V9.30469H145.959V20.2734H139.725V24.3984H148.163ZM133.538 18.1641H143.358V14.8594H133.538V18.1641ZM167.305 21.2812V29.0859H164.704V23.3672H152.376V21.2812H167.305ZM167.305 7.89844V20.2734H164.704V7.89844H167.305ZM154.673 10.7812C154.649 12.5742 154.977 14.8477 156.36 16.5469C157.673 14.8828 158.001 12.6211 158.001 10.7812V9.14062H160.462V10.7812C160.438 13.2891 161.188 16.125 163.673 17.5312L162.243 19.3828C160.731 18.4922 159.794 17.0625 159.243 15.3984C158.751 17.1094 157.86 18.6562 156.36 19.6172C154.813 18.6562 153.923 17.0742 153.43 15.3516C152.88 17.0156 151.954 18.4805 150.454 19.3828L149.001 17.5312C151.485 16.0312 152.188 13.1484 152.212 10.7812V9.14062H154.673V10.7812ZM193.005 7.89844V18.6094H190.403V14.7422H186.302V12.6094H190.403V7.89844H193.005ZM186.068 8.76562C186.091 14.2031 182.622 17.625 176.435 19.125L175.544 17.0391C180.337 15.9492 182.868 13.7227 183.278 10.875H176.716V8.76562H186.068ZM193.005 19.4531V25.0312H181.685V26.7891H193.568V28.875H179.083V23.0859H190.403V21.5156H179.06V19.4531H193.005ZM205.398 9.09375C209.874 9.09375 213.296 11.4609 213.296 15.0703C213.296 18.7266 209.874 21.0938 205.398 21.0938C200.945 21.0938 197.523 18.7266 197.546 15.0703C197.523 11.4609 200.945 9.09375 205.398 9.09375ZM205.398 11.2031C202.327 11.1797 200.054 12.7266 200.054 15.0703C200.054 17.4609 202.327 18.9609 205.398 18.9609C208.492 18.9609 210.742 17.4609 210.742 15.0703C210.742 12.7266 208.492 11.1797 205.398 11.2031ZM215.124 24.2812V26.4141H195.765V24.2812H215.124ZM227.142 9.67969V11.3672H231.408V7.92188H234.009V23.3438H231.408V18H227.142V19.8281H217.181V9.67969H227.142ZM219.783 11.7422V17.7891H224.564V11.7422H219.783ZM234.478 26.5547V28.6641H220.041V21.9141H222.689V26.5547H234.478ZM227.142 15.9141H231.408V13.5H227.142V15.9141ZM11.7422 45.6562C11.7422 48.3281 14.7188 51.0234 19.2422 51.6094L18.2109 53.7188C14.6133 53.1797 11.7539 51.4102 10.3828 49.0078C8.98828 51.4102 6.14062 53.1797 2.57812 53.7188L1.54688 51.6094C6.02344 51.0234 9 48.3281 9 45.6562V44.5781H11.7422V45.6562ZM20.0156 55.5469V57.7031H11.6016V65.0859H9.02344V57.7031H0.703125V55.5469H20.0156ZM28.9631 46.9453C28.9397 49.8281 30.6272 52.4531 33.9553 53.5078L32.5491 55.5469C30.2405 54.7383 28.6233 53.2031 27.7209 51.1875C26.7834 53.4961 25.0139 55.3125 22.4475 56.2031L21.0647 54.0938C24.5803 52.9453 26.3381 50.1094 26.3381 47.0625V45.0469H28.9631V46.9453ZM38.9475 43.8984V56.3672H36.3459V50.1328H32.1272V48H36.3459V43.8984H38.9475ZM31.7756 56.9297C36.2756 56.9297 39.0178 58.4297 39.0178 61.0078C39.0178 63.5859 36.2756 65.0625 31.7756 65.0625C27.2991 65.0625 24.5569 63.5859 24.5803 61.0078C24.5569 58.4297 27.2991 56.9297 31.7756 56.9297ZM31.7756 58.9453C28.8225 58.9453 27.1584 59.6719 27.1584 61.0078C27.1584 62.2969 28.8225 63.0234 31.7756 63.0234C34.7288 63.0234 36.4163 62.2969 36.4163 61.0078C36.4163 59.6719 34.7288 58.9453 31.7756 58.9453ZM58.6059 43.8984V52.3594H61.5356V54.5156H58.6059V65.0859H55.9809V43.8984H58.6059ZM48.0591 46.125C48.0356 51.6797 47.2622 56.3672 43.4419 60.4922L41.4028 59.0156C44.3911 55.8516 45.3638 52.5 45.5747 48.2578H42.2466V46.125H48.0591ZM53.9184 46.125C53.895 51.8203 53.3091 57.2578 49.4888 61.8516L47.4028 60.4219C50.4263 56.8242 51.27 52.8516 51.4575 48.2578H48.7622V46.125H53.9184ZM70.2019 49.9219C70.2019 53.3906 72.2409 57.0469 75.6628 58.4766L74.2331 60.5391C71.7253 59.4609 69.8972 57.2344 68.9362 54.5391C67.9519 57.4453 66.1003 59.8828 63.6159 61.0547L62.1159 59.0156C65.4675 57.4688 67.5534 53.5312 67.5534 49.9219V48.1406H62.8894V45.9844H74.8425V48.1406H70.2019V49.9219ZM79.8347 43.8984V65.0859H77.2097V43.8984H79.8347ZM182.587 43.8984V54.6094H179.985V50.7422H175.883V48.6094H179.985V43.8984H182.587ZM175.649 44.7656C175.673 50.2031 172.204 53.625 166.016 55.125L165.126 53.0391C169.919 51.9492 172.45 49.7227 172.86 46.875H166.298V44.7656H175.649ZM182.587 55.4531V61.0312H171.266V62.7891H183.149V64.875H168.665V59.0859H179.985V57.5156H168.641V55.4531H182.587ZM203.089 43.8984V65.1094H200.487V56.4141H196.62V54.2812H200.487V50.6484H196.69V48.5156H200.487V43.8984H203.089ZM195.495 45.7266V53.6484H188.698V58.1484C191.499 58.125 193.936 58.0078 196.784 57.5859L196.995 59.7188C193.737 60.2344 191.042 60.3047 187.761 60.3047H186.12V51.6094H192.94V47.8125H186.05V45.7266H195.495ZM225.208 60.375V62.5078H205.849V60.375H210.325V55.0078C208.638 54.0469 207.618 52.5352 207.63 50.6484C207.607 47.2734 210.935 45.0469 215.482 45.0469C220.052 45.0469 223.38 47.2734 223.38 50.6484C223.38 52.5 222.396 53.9883 220.755 54.9609V60.375H225.208ZM215.482 47.1094C212.318 47.1094 210.161 48.4453 210.185 50.6484C210.161 52.8281 212.318 54.1875 215.482 54.1875C218.646 54.1875 220.825 52.8281 220.825 50.6484C220.825 48.4453 218.646 47.1094 215.482 47.1094ZM212.903 60.375H218.107V55.9453C217.298 56.1328 216.419 56.2266 215.482 56.2266C214.568 56.2266 213.7 56.1328 212.903 55.9688V60.375ZM228.929 63.1875C227.921 63.1875 227.101 62.3672 227.101 61.3594C227.101 60.375 227.921 59.5547 228.929 59.5547C229.89 59.5547 230.734 60.375 230.734 61.3594C230.734 62.3672 229.89 63.1875 228.929 63.1875Z" fill="#282828"/>
<path d="M54.7566 10.0312V27H51.6862V13.0078H51.5925L47.6316 15.5391V12.75L51.8269 10.0312H54.7566ZM64.8994 27.2344C60.8213 27.2344 58.3838 24.0703 58.3838 18.5156C58.3838 12.9844 60.8213 9.79688 64.8994 9.79688C68.9541 9.79688 71.415 12.9844 71.415 18.5156C71.415 24.0703 68.9775 27.2344 64.8994 27.2344ZM64.8994 24.6797C67.0322 24.6797 68.3447 22.5938 68.3447 18.5156C68.3447 14.4609 67.0088 12.3281 64.8994 12.3281C62.79 12.3281 61.4541 14.4609 61.4541 18.5156C61.4541 22.5938 62.7666 24.6797 64.8994 24.6797ZM76.4719 25.3359L74.5031 31.8984H72.2766L73.4953 25.3359H76.4719ZM85.0444 27.2344C80.9662 27.2344 78.5287 24.0703 78.5287 18.5156C78.5287 12.9844 80.9662 9.79688 85.0444 9.79688C89.0991 9.79688 91.56 12.9844 91.56 18.5156C91.56 24.0703 89.1225 27.2344 85.0444 27.2344ZM85.0444 24.6797C87.1772 24.6797 88.4897 22.5938 88.4897 18.5156C88.4897 14.4609 87.1537 12.3281 85.0444 12.3281C82.935 12.3281 81.5991 14.4609 81.5991 18.5156C81.5991 22.5938 82.9116 24.6797 85.0444 24.6797ZM100.132 27.2344C96.0544 27.2344 93.6169 24.0703 93.6169 18.5156C93.6169 12.9844 96.0544 9.79688 100.132 9.79688C104.187 9.79688 106.648 12.9844 106.648 18.5156C106.648 24.0703 104.211 27.2344 100.132 27.2344ZM100.132 24.6797C102.265 24.6797 103.578 22.5938 103.578 18.5156C103.578 14.4609 102.242 12.3281 100.132 12.3281C98.0231 12.3281 96.6872 14.4609 96.6872 18.5156C96.6872 22.5938 97.9997 24.6797 100.132 24.6797ZM115.221 27.2344C111.143 27.2344 108.705 24.0703 108.705 18.5156C108.705 12.9844 111.143 9.79688 115.221 9.79688C119.275 9.79688 121.736 12.9844 121.736 18.5156C121.736 24.0703 119.299 27.2344 115.221 27.2344ZM115.221 24.6797C117.353 24.6797 118.666 22.5938 118.666 18.5156C118.666 14.4609 117.33 12.3281 115.221 12.3281C113.111 12.3281 111.775 14.4609 111.775 18.5156C111.775 22.5938 113.088 24.6797 115.221 24.6797Z" fill="#CDCDCD"/>
<path d="M94.8703 63.2344C91.3313 63.2344 88.7531 61.1484 88.6828 58.2188H92.1047C92.175 59.5547 93.3938 60.4453 94.8703 60.4453C96.6281 60.4453 97.8703 59.2031 97.8703 57.4453C97.8703 55.6406 96.6047 54.3984 94.8234 54.375C93.5578 54.375 92.6672 54.8438 92.1516 55.8047H88.9641L89.8781 46.0312H100.331V48.9141H92.7844L92.3156 53.2031H92.4563C93.0891 52.3594 94.3547 51.7734 95.8547 51.7734C98.9719 51.7734 101.292 54.0938 101.292 57.3516C101.292 60.7734 98.6906 63.2344 94.8703 63.2344ZM104.966 63.2109C103.865 63.2109 102.974 62.3203 102.997 61.2422C102.974 60.1641 103.865 59.2969 104.966 59.2969C105.997 59.2969 106.912 60.1641 106.912 61.2422C106.912 62.3203 105.997 63.2109 104.966 63.2109ZM115.297 63.2344C111.781 63.2109 108.453 61.125 108.453 54.9141C108.453 49.1953 111.195 45.7969 115.437 45.7969C118.859 45.7969 121.179 47.9531 121.531 50.7422H118.062C117.781 49.5469 116.797 48.8203 115.437 48.8203C113.14 48.8203 111.922 50.9062 111.898 54.2344H112.062C112.836 52.7344 114.523 51.8438 116.398 51.8438C119.445 51.8438 121.718 54.1406 121.718 57.3281C121.718 60.7734 119.117 63.2578 115.297 63.2344ZM115.273 60.4453C117.007 60.4453 118.297 59.1328 118.297 57.4219C118.297 55.7344 117.054 54.3984 115.32 54.3984C113.586 54.3984 112.273 55.7578 112.25 57.4219C112.273 59.0859 113.539 60.4453 115.273 60.4453ZM130.502 63.2344C126.26 63.2344 123.682 60.0703 123.682 54.5156C123.682 48.9609 126.26 45.7969 130.502 45.7969C134.744 45.7969 137.322 48.9844 137.322 54.5156C137.322 60.0938 134.744 63.2344 130.502 63.2344ZM130.502 60.3281C132.471 60.3281 133.736 58.4297 133.713 54.5156C133.713 50.6484 132.471 48.6797 130.502 48.6797C128.533 48.6797 127.291 50.6484 127.291 54.5156C127.268 58.4297 128.533 60.3281 130.502 60.3281ZM156.793 43.8516V59.5312H153.817V52.5469H148.52V50.2031H153.817V48.5625H148.52V46.2188H153.817V43.8516H156.793ZM157.309 62.3906V64.7812H142.613V58.125H145.613V62.3906H157.309ZM142.965 45.1875V54.3047C145.578 54.2812 148.016 54.1055 150.676 53.625L150.981 56.0391C147.793 56.6484 144.91 56.7656 141.723 56.7656H140.012V45.1875H142.965Z" fill="#FF802B"/>
<path d="M47 35L123 35" stroke="black" stroke-width="2"/>
</svg>
