<svg width="87" height="15" viewBox="0 0 87 15" fill="none" xmlns="http://www.w3.org/2000/svg">
<path d="M12.6356 0.21875V14.4375H10.7137V7.32812H9.38562V13.75H7.51062V0.453125H9.38562V5.71875H10.7137V0.21875H12.6356ZM2.94812 1.79688V9.21875C4.08875 9.19531 5.33875 9.09375 6.71375 8.82812L6.91687 10.5469C5.01062 10.875 3.38562 10.9688 1.91687 10.9688H0.948124V1.79688H2.94812ZM30.2456 8.17188V9.79688H24.6831V14.4531H22.7144V9.79688H17.23V8.17188H30.2456ZM23.6987 0.6875C26.7456 0.6875 28.8862 1.95312 28.8862 3.92188C28.8862 5.85938 26.7456 7.09375 23.6987 7.09375C20.6519 7.09375 18.5269 5.85938 18.5425 3.92188C18.5269 1.95312 20.6519 0.6875 23.6987 0.6875ZM23.6987 2.28125C21.7925 2.28125 20.5737 2.875 20.5894 3.92188C20.5737 4.9375 21.7925 5.51562 23.6987 5.51562C25.6206 5.51562 26.8237 4.9375 26.8237 3.92188C26.8237 2.875 25.6206 2.28125 23.6987 2.28125ZM43.7225 8.0625V9.65625H38.1912V14.4375H36.2225V9.65625H30.7537V8.0625H43.7225ZM42.5662 0.96875V2.53125H38.4256C38.6209 3.92188 40.1912 5.32031 43.1131 5.67188L42.3944 7.23438C39.8944 6.89844 38.1053 5.82812 37.2537 4.35938C36.3787 5.82812 34.6053 6.89844 32.1287 7.23438L31.3944 5.67188C34.2694 5.32031 35.8553 3.92188 36.0819 2.53125H31.9256V0.96875H42.5662ZM54.8794 1.39062V8.21875H48.0513V1.39062H54.8794ZM50.02 2.98438V6.65625H52.9106V2.98438H50.02ZM58.9106 0.21875V4.3125H60.8325V5.95312H58.9106V10.5938H56.9106V0.21875H58.9106ZM59.4263 12.5938V14.1875H49.6919V9.57812H51.6763V12.5938H59.4263ZM74.1375 5.76562V7.32812H61.1375V5.76562H74.1375ZM72.5906 3.42188V4.98438H62.7625V0.5H72.4813V2.09375H64.7469V3.42188H72.5906ZM72.5281 8.17188V11.8906H64.6063V12.7656H72.9031V14.3125H62.6531V10.4688H70.5594V9.67188H62.6375V8.17188H72.5281ZM86.5988 0.21875V14.4375H84.5831V0.21875H86.5988ZM82.3331 1.70312C82.3331 6.01562 80.8175 9.59375 75.7394 12L74.6925 10.4062C78.3644 8.67188 79.9816 6.42188 80.3019 3.26562H75.4581V1.70312H82.3331Z" fill="white"/>
</svg>
