<svg width="243" height="148" viewBox="0 0 243 148" fill="none" xmlns="http://www.w3.org/2000/svg">
<path d="M18.9844 7.89844V29.0859H16.4766V18.2344H14.2266V28.0547H11.7656V8.27344H14.2266V16.0781H16.4766V7.89844H18.9844ZM9.67969 10.1953V23.625H1.35938V10.1953H9.67969ZM3.79688 12.2578V21.5625H7.24219V12.2578H3.79688ZM27.2053 8.57812C30.4163 8.57812 32.8069 10.5703 32.8303 13.3594C32.8069 16.1719 30.4163 18.1406 27.2053 18.1406C23.9709 18.1406 21.5803 16.1719 21.5803 13.3594C21.5803 10.5703 23.9709 8.57812 27.2053 8.57812ZM27.2053 10.7344C25.4241 10.7344 24.1116 11.7422 24.1116 13.3594C24.1116 15 25.4241 16.0312 27.2053 16.0312C28.9866 16.0312 30.2991 15 30.2991 13.3594C30.2991 11.7422 28.9866 10.7344 27.2053 10.7344ZM38.8538 7.89844V18.6094H36.2288V7.89844H38.8538ZM38.8538 19.5234V25.0547H27.3928V26.7656H39.4866V28.8281H24.8381V23.1328H36.2522V21.5625H24.7913V19.5234H38.8538ZM54.7566 10.0312V27H51.6862V13.0078H51.5925L47.6316 15.5391V12.75L51.8269 10.0312H54.7566ZM64.8994 27.2344C60.8213 27.2344 58.3838 24.0703 58.3838 18.5156C58.3838 12.9844 60.8213 9.79688 64.8994 9.79688C68.9541 9.79688 71.415 12.9844 71.415 18.5156C71.415 24.0703 68.9775 27.2344 64.8994 27.2344ZM64.8994 24.6797C67.0322 24.6797 68.3447 22.5938 68.3447 18.5156C68.3447 14.4609 67.0088 12.3281 64.8994 12.3281C62.79 12.3281 61.4541 14.4609 61.4541 18.5156C61.4541 22.5938 62.7666 24.6797 64.8994 24.6797ZM76.4719 25.3359L74.5031 31.8984H72.2766L73.4953 25.3359H76.4719ZM85.0444 27.2344C80.9662 27.2344 78.5287 24.0703 78.5287 18.5156C78.5287 12.9844 80.9662 9.79688 85.0444 9.79688C89.0991 9.79688 91.56 12.9844 91.56 18.5156C91.56 24.0703 89.1225 27.2344 85.0444 27.2344ZM85.0444 24.6797C87.1772 24.6797 88.4897 22.5938 88.4897 18.5156C88.4897 14.4609 87.1537 12.3281 85.0444 12.3281C82.935 12.3281 81.5991 14.4609 81.5991 18.5156C81.5991 22.5938 82.9116 24.6797 85.0444 24.6797ZM100.132 27.2344C96.0544 27.2344 93.6169 24.0703 93.6169 18.5156C93.6169 12.9844 96.0544 9.79688 100.132 9.79688C104.187 9.79688 106.648 12.9844 106.648 18.5156C106.648 24.0703 104.211 27.2344 100.132 27.2344ZM100.132 24.6797C102.265 24.6797 103.578 22.5938 103.578 18.5156C103.578 14.4609 102.242 12.3281 100.132 12.3281C98.0231 12.3281 96.6872 14.4609 96.6872 18.5156C96.6872 22.5938 97.9997 24.6797 100.132 24.6797ZM115.221 27.2344C111.143 27.2344 108.705 24.0703 108.705 18.5156C108.705 12.9844 111.143 9.79688 115.221 9.79688C119.275 9.79688 121.736 12.9844 121.736 18.5156C121.736 24.0703 119.299 27.2344 115.221 27.2344ZM115.221 24.6797C117.353 24.6797 118.666 22.5938 118.666 18.5156C118.666 14.4609 117.33 12.3281 115.221 12.3281C113.111 12.3281 111.775 14.4609 111.775 18.5156C111.775 22.5938 113.088 24.6797 115.221 24.6797ZM148.163 24.3984V26.5312H128.803V24.3984H137.147V20.2734H130.936V9.30469H133.538V12.7734H143.358V9.30469H145.959V20.2734H139.725V24.3984H148.163ZM133.538 18.1641H143.358V14.8594H133.538V18.1641ZM167.305 21.2812V29.0859H164.704V23.3672H152.376V21.2812H167.305ZM167.305 7.89844V20.2734H164.704V7.89844H167.305ZM154.673 10.7812C154.649 12.5742 154.977 14.8477 156.36 16.5469C157.673 14.8828 158.001 12.6211 158.001 10.7812V9.14062H160.462V10.7812C160.438 13.2891 161.188 16.125 163.673 17.5312L162.243 19.3828C160.731 18.4922 159.794 17.0625 159.243 15.3984C158.751 17.1094 157.86 18.6562 156.36 19.6172C154.813 18.6562 153.923 17.0742 153.43 15.3516C152.88 17.0156 151.954 18.4805 150.454 19.3828L149.001 17.5312C151.485 16.0312 152.188 13.1484 152.212 10.7812V9.14062H154.673V10.7812ZM193.005 7.89844V18.6094H190.403V14.7422H186.302V12.6094H190.403V7.89844H193.005ZM186.068 8.76562C186.091 14.2031 182.622 17.625 176.435 19.125L175.544 17.0391C180.337 15.9492 182.868 13.7227 183.278 10.875H176.716V8.76562H186.068ZM193.005 19.4531V25.0312H181.685V26.7891H193.568V28.875H179.083V23.0859H190.403V21.5156H179.06V19.4531H193.005ZM205.398 9.09375C209.874 9.09375 213.296 11.4609 213.296 15.0703C213.296 18.7266 209.874 21.0938 205.398 21.0938C200.945 21.0938 197.523 18.7266 197.546 15.0703C197.523 11.4609 200.945 9.09375 205.398 9.09375ZM205.398 11.2031C202.327 11.1797 200.054 12.7266 200.054 15.0703C200.054 17.4609 202.327 18.9609 205.398 18.9609C208.492 18.9609 210.742 17.4609 210.742 15.0703C210.742 12.7266 208.492 11.1797 205.398 11.2031ZM215.124 24.2812V26.4141H195.765V24.2812H215.124ZM227.142 9.67969V11.3672H231.408V7.92188H234.009V23.3438H231.408V18H227.142V19.8281H217.181V9.67969H227.142ZM219.783 11.7422V17.7891H224.564V11.7422H219.783ZM234.478 26.5547V28.6641H220.041V21.9141H222.689V26.5547H234.478ZM227.142 15.9141H231.408V13.5H227.142V15.9141ZM11.7422 45.6562C11.7422 48.3281 14.7188 51.0234 19.2422 51.6094L18.2109 53.7188C14.6133 53.1797 11.7539 51.4102 10.3828 49.0078C8.98828 51.4102 6.14062 53.1797 2.57812 53.7188L1.54688 51.6094C6.02344 51.0234 9 48.3281 9 45.6562V44.5781H11.7422V45.6562ZM20.0156 55.5469V57.7031H11.6016V65.0859H9.02344V57.7031H0.703125V55.5469H20.0156ZM28.9631 46.9453C28.9397 49.8281 30.6272 52.4531 33.9553 53.5078L32.5491 55.5469C30.2405 54.7383 28.6233 53.2031 27.7209 51.1875C26.7834 53.4961 25.0139 55.3125 22.4475 56.2031L21.0647 54.0938C24.5803 52.9453 26.3381 50.1094 26.3381 47.0625V45.0469H28.9631V46.9453ZM38.9475 43.8984V56.3672H36.3459V50.1328H32.1272V48H36.3459V43.8984H38.9475ZM31.7756 56.9297C36.2756 56.9297 39.0178 58.4297 39.0178 61.0078C39.0178 63.5859 36.2756 65.0625 31.7756 65.0625C27.2991 65.0625 24.5569 63.5859 24.5803 61.0078C24.5569 58.4297 27.2991 56.9297 31.7756 56.9297ZM31.7756 58.9453C28.8225 58.9453 27.1584 59.6719 27.1584 61.0078C27.1584 62.2969 28.8225 63.0234 31.7756 63.0234C34.7288 63.0234 36.4163 62.2969 36.4163 61.0078C36.4163 59.6719 34.7288 58.9453 31.7756 58.9453ZM58.6059 43.8984V52.3594H61.5356V54.5156H58.6059V65.0859H55.9809V43.8984H58.6059ZM48.0591 46.125C48.0356 51.6797 47.2622 56.3672 43.4419 60.4922L41.4028 59.0156C44.3911 55.8516 45.3638 52.5 45.5747 48.2578H42.2466V46.125H48.0591ZM53.9184 46.125C53.895 51.8203 53.3091 57.2578 49.4888 61.8516L47.4028 60.4219C50.4263 56.8242 51.27 52.8516 51.4575 48.2578H48.7622V46.125H53.9184ZM70.2019 49.9219C70.2019 53.3906 72.2409 57.0469 75.6628 58.4766L74.2331 60.5391C71.7253 59.4609 69.8972 57.2344 68.9362 54.5391C67.9519 57.4453 66.1003 59.8828 63.6159 61.0547L62.1159 59.0156C65.4675 57.4688 67.5534 53.5312 67.5534 49.9219V48.1406H62.8894V45.9844H74.8425V48.1406H70.2019V49.9219ZM79.8347 43.8984V65.0859H77.2097V43.8984H79.8347ZM182.587 43.8984V54.6094H179.985V50.7422H175.883V48.6094H179.985V43.8984H182.587ZM175.649 44.7656C175.673 50.2031 172.204 53.625 166.016 55.125L165.126 53.0391C169.919 51.9492 172.45 49.7227 172.86 46.875H166.298V44.7656H175.649ZM182.587 55.4531V61.0312H171.266V62.7891H183.149V64.875H168.665V59.0859H179.985V57.5156H168.641V55.4531H182.587ZM203.089 43.8984V65.1094H200.487V56.4141H196.62V54.2812H200.487V50.6484H196.69V48.5156H200.487V43.8984H203.089ZM195.495 45.7266V53.6484H188.698V58.1484C191.499 58.125 193.936 58.0078 196.784 57.5859L196.995 59.7188C193.737 60.2344 191.042 60.3047 187.761 60.3047H186.12V51.6094H192.94V47.8125H186.05V45.7266H195.495ZM225.208 60.375V62.5078H205.849V60.375H210.325V55.0078C208.638 54.0469 207.618 52.5352 207.63 50.6484C207.607 47.2734 210.935 45.0469 215.482 45.0469C220.052 45.0469 223.38 47.2734 223.38 50.6484C223.38 52.5 222.396 53.9883 220.755 54.9609V60.375H225.208ZM215.482 47.1094C212.318 47.1094 210.161 48.4453 210.185 50.6484C210.161 52.8281 212.318 54.1875 215.482 54.1875C218.646 54.1875 220.825 52.8281 220.825 50.6484C220.825 48.4453 218.646 47.1094 215.482 47.1094ZM212.903 60.375H218.107V55.9453C217.298 56.1328 216.419 56.2266 215.482 56.2266C214.568 56.2266 213.7 56.1328 212.903 55.9688V60.375ZM228.929 63.1875C227.921 63.1875 227.101 62.3672 227.101 61.3594C227.101 60.375 227.921 59.5547 228.929 59.5547C229.89 59.5547 230.734 60.375 230.734 61.3594C230.734 62.3672 229.89 63.1875 228.929 63.1875Z" fill="#282828"/>
<path d="M94.8703 63.2344C91.3313 63.2344 88.7531 61.1484 88.6828 58.2188H92.1047C92.175 59.5547 93.3938 60.4453 94.8703 60.4453C96.6281 60.4453 97.8703 59.2031 97.8703 57.4453C97.8703 55.6406 96.6047 54.3984 94.8234 54.375C93.5578 54.375 92.6672 54.8438 92.1516 55.8047H88.9641L89.8781 46.0312H100.331V48.9141H92.7844L92.3156 53.2031H92.4563C93.0891 52.3594 94.3547 51.7734 95.8547 51.7734C98.9719 51.7734 101.292 54.0938 101.292 57.3516C101.292 60.7734 98.6906 63.2344 94.8703 63.2344ZM104.966 63.2109C103.865 63.2109 102.974 62.3203 102.997 61.2422C102.974 60.1641 103.865 59.2969 104.966 59.2969C105.997 59.2969 106.912 60.1641 106.912 61.2422C106.912 62.3203 105.997 63.2109 104.966 63.2109ZM115.297 63.2344C111.781 63.2109 108.453 61.125 108.453 54.9141C108.453 49.1953 111.195 45.7969 115.437 45.7969C118.859 45.7969 121.179 47.9531 121.531 50.7422H118.062C117.781 49.5469 116.797 48.8203 115.437 48.8203C113.14 48.8203 111.922 50.9062 111.898 54.2344H112.062C112.836 52.7344 114.523 51.8438 116.398 51.8438C119.445 51.8438 121.718 54.1406 121.718 57.3281C121.718 60.7734 119.117 63.2578 115.297 63.2344ZM115.273 60.4453C117.007 60.4453 118.297 59.1328 118.297 57.4219C118.297 55.7344 117.054 54.3984 115.32 54.3984C113.586 54.3984 112.273 55.7578 112.25 57.4219C112.273 59.0859 113.539 60.4453 115.273 60.4453ZM130.502 63.2344C126.26 63.2344 123.682 60.0703 123.682 54.5156C123.682 48.9609 126.26 45.7969 130.502 45.7969C134.744 45.7969 137.322 48.9844 137.322 54.5156C137.322 60.0938 134.744 63.2344 130.502 63.2344ZM130.502 60.3281C132.471 60.3281 133.736 58.4297 133.713 54.5156C133.713 50.6484 132.471 48.6797 130.502 48.6797C128.533 48.6797 127.291 50.6484 127.291 54.5156C127.268 58.4297 128.533 60.3281 130.502 60.3281ZM156.793 43.8516V59.5312H153.817V52.5469H148.52V50.2031H153.817V48.5625H148.52V46.2188H153.817V43.8516H156.793ZM157.309 62.3906V64.7812H142.613V58.125H145.613V62.3906H157.309ZM142.965 45.1875V54.3047C145.578 54.2812 148.016 54.1055 150.676 53.625L150.981 56.0391C147.793 56.6484 144.91 56.7656 141.723 56.7656H140.012V45.1875H142.965Z" fill="#FF802B"/>
<path d="M47 35L123 35" stroke="#282828" stroke-width="2"/>
<path d="M14.4141 111.709H12.2461V94.082H14.4141V111.709ZM17.0312 102.783H13.8574V100.986H17.0312V102.783ZM9.75586 95.9277C9.75586 97.7246 9.48568 99.3978 8.94531 100.947C8.41146 102.49 7.54883 103.91 6.35742 105.205C5.16602 106.494 3.62305 107.611 1.72852 108.555L0.507812 106.875C2.10286 106.068 3.42448 105.146 4.47266 104.111C5.52734 103.076 6.3151 101.914 6.83594 100.625C7.35677 99.3294 7.61719 97.8906 7.61719 96.3086V95.9277H9.75586ZM8.7207 97.7148H1.42578V95.9277H8.7207V97.7148ZM23.5891 97.2754C23.5891 98.3887 23.397 99.4336 23.0129 100.41C22.6288 101.38 22.0591 102.227 21.3039 102.949C20.5552 103.665 19.647 104.206 18.5793 104.57L17.4758 102.842C18.3937 102.536 19.1783 102.1 19.8293 101.533C20.4868 100.96 20.9816 100.309 21.3137 99.5801C21.6522 98.8444 21.8215 98.0762 21.8215 97.2754V96.0254H23.5891V97.2754ZM24.009 97.2656C24.009 97.9948 24.1652 98.6914 24.4777 99.3555C24.7902 100.013 25.2557 100.599 25.8742 101.113C26.4992 101.621 27.2577 102.015 28.1496 102.295L27.1242 104.004C26.0826 103.672 25.1939 103.174 24.4582 102.51C23.729 101.846 23.1757 101.064 22.798 100.166C22.4204 99.2676 22.2316 98.3008 22.2316 97.2656V96.0254H24.009V97.2656ZM27.6711 97.0605H18.091V95.3125H27.6711V97.0605ZM31.5969 104.609H29.4289V94.082H31.5969V104.609ZM34.0676 100.098H30.9816V98.3105H34.0676V100.098ZM25.8547 105C27.0721 105 28.1236 105.13 29.009 105.391C29.9009 105.651 30.5812 106.035 31.05 106.543C31.5253 107.044 31.7629 107.643 31.7629 108.34C31.7629 109.036 31.5253 109.639 31.05 110.146C30.5812 110.654 29.9009 111.042 29.009 111.309C28.1236 111.576 27.0721 111.709 25.8547 111.709C24.6307 111.709 23.5695 111.576 22.6711 111.309C21.7727 111.042 21.0793 110.654 20.591 110.146C20.1092 109.639 19.8684 109.036 19.8684 108.34C19.8684 107.643 20.1092 107.044 20.591 106.543C21.0728 106.035 21.7629 105.651 22.6613 105.391C23.5663 105.13 24.6307 105 25.8547 105ZM25.8547 106.699C25.0539 106.699 24.3671 106.761 23.7941 106.885C23.2277 107.002 22.7948 107.184 22.4953 107.432C22.2023 107.679 22.0559 107.982 22.0559 108.34C22.0559 108.691 22.2023 108.994 22.4953 109.248C22.7948 109.502 23.2277 109.694 23.7941 109.824C24.3605 109.948 25.0474 110.01 25.8547 110.01C26.6685 110.01 27.3553 109.948 27.9152 109.824C28.4816 109.694 28.9081 109.502 29.1945 109.248C29.481 108.994 29.6242 108.691 29.6242 108.34C29.6242 107.982 29.481 107.679 29.1945 107.432C28.9081 107.184 28.4816 107.002 27.9152 106.885C27.3488 106.761 26.662 106.699 25.8547 106.699ZM53.2477 106.855H51.0797V94.0918H53.2477V106.855ZM55.7379 100.85H52.5934V99.0527H55.7379V100.85ZM41.4996 102.1C43.5178 102.1 45.0836 102.064 46.1969 101.992C47.3102 101.921 48.4007 101.771 49.4684 101.543L49.7125 103.301C48.5927 103.516 47.4404 103.665 46.2555 103.75C45.0771 103.828 43.4918 103.867 41.4996 103.867H40.0543V102.1H41.4996ZM47.9742 97.2949H42.2223V103.066H40.0543V95.5371H47.9742V97.2949ZM53.941 111.406H41.9391V109.629H53.941V111.406ZM44.0973 110.508H41.9391V105.508H44.0973V110.508ZM71.1531 111.719H68.9559V94.082H71.1531V111.719ZM65.8895 95.957C65.8895 97.7995 65.6225 99.4889 65.0887 101.025C64.5613 102.555 63.6922 103.965 62.4813 105.254C61.2703 106.536 59.6655 107.653 57.6668 108.604L56.5145 106.865C58.2137 106.058 59.5939 105.14 60.6551 104.111C61.7163 103.083 62.4943 101.927 62.9891 100.645C63.4839 99.362 63.7313 97.9232 63.7313 96.3281V95.957H65.8895ZM64.7078 97.6758H57.4129V95.957H64.7078V97.6758ZM87.418 106.816H85.2207V94.082H87.418V106.816ZM89.8887 100.967H86.7734V99.1699H89.8887V100.967ZM82.623 95.4199C82.623 96.9629 82.2975 98.3626 81.6465 99.6191C80.9954 100.876 80.0482 101.956 78.8047 102.861C77.5677 103.766 76.0768 104.479 74.332 105L73.4141 103.271C74.8789 102.842 76.1224 102.288 77.1445 101.611C78.1732 100.928 78.9544 100.15 79.4883 99.2773C80.0221 98.4049 80.2891 97.4707 80.2891 96.4746V95.4199H82.623ZM81.4805 97.207H74.1758V95.4199H81.4805V97.207ZM88.0918 111.406H76.0801V109.629H88.0918V111.406ZM78.2676 110.4H76.0801V105.518H78.2676V110.4ZM103.961 95.5566C103.961 96.6634 103.655 97.6888 103.043 98.6328C102.431 99.5703 101.572 100.355 100.465 100.986C99.3585 101.611 98.102 102.035 96.6957 102.256L95.8363 100.498C97.0473 100.348 98.1247 100.023 99.0687 99.5215C100.019 99.0137 100.755 98.4147 101.276 97.7246C101.797 97.028 102.057 96.3053 102.057 95.5566V94.6484H103.961V95.5566ZM104.332 95.5566C104.332 96.2988 104.596 97.0215 105.123 97.7246C105.651 98.4212 106.39 99.0202 107.34 99.5215C108.291 100.023 109.371 100.348 110.582 100.498L109.723 102.256C108.31 102.035 107.051 101.608 105.944 100.977C104.843 100.345 103.984 99.5605 103.366 98.623C102.747 97.679 102.438 96.6569 102.438 95.5566V94.6484H104.332V95.5566ZM104.215 111.719H102.077V105.156H104.215V111.719ZM111.227 105.576H95.1527V103.789H111.227V105.576ZM118.293 96.709C118.293 97.8874 118.101 98.9811 117.716 99.9902C117.332 100.999 116.763 101.878 116.007 102.627C115.259 103.376 114.347 103.945 113.273 104.336L112.111 102.578C113.061 102.266 113.865 101.813 114.523 101.221C115.187 100.628 115.685 99.9479 116.017 99.1797C116.349 98.4049 116.515 97.5814 116.515 96.709V95.0391H118.293V96.709ZM118.693 96.6113C118.693 97.4251 118.849 98.1966 119.162 98.9258C119.474 99.6549 119.943 100.296 120.568 100.85C121.193 101.396 121.951 101.813 122.843 102.1L121.671 103.789C120.649 103.424 119.783 102.894 119.074 102.197C118.371 101.501 117.84 100.677 117.482 99.7266C117.124 98.776 116.945 97.7376 116.945 96.6113V95.0391H118.693V96.6113ZM127.013 104.463H124.845V94.082H127.013V104.463ZM121.046 104.941C122.296 104.941 123.371 105.075 124.269 105.342C125.174 105.602 125.867 105.99 126.349 106.504C126.831 107.012 127.072 107.624 127.072 108.34C127.072 109.043 126.831 109.648 126.349 110.156C125.867 110.664 125.174 111.048 124.269 111.309C123.371 111.576 122.296 111.709 121.046 111.709C119.81 111.709 118.739 111.576 117.834 111.309C116.935 111.048 116.242 110.664 115.754 110.156C115.272 109.648 115.031 109.043 115.031 108.34C115.031 107.624 115.272 107.012 115.754 106.504C116.242 105.99 116.935 105.602 117.834 105.342C118.739 105.075 119.81 104.941 121.046 104.941ZM121.046 106.631C120.233 106.631 119.536 106.696 118.957 106.826C118.377 106.95 117.938 107.142 117.638 107.402C117.339 107.656 117.189 107.969 117.189 108.34C117.189 108.685 117.339 108.984 117.638 109.238C117.938 109.492 118.377 109.684 118.957 109.814C119.536 109.945 120.233 110.01 121.046 110.01C121.873 110.01 122.573 109.945 123.146 109.814C123.726 109.684 124.162 109.492 124.455 109.238C124.754 108.984 124.904 108.685 124.904 108.34C124.904 107.969 124.754 107.656 124.455 107.402C124.162 107.142 123.726 106.95 123.146 106.826C122.573 106.696 121.873 106.631 121.046 106.631ZM125.187 99.2871H121.33V97.5098H125.187V99.2871ZM148.215 103.838H135.832V102.109H148.215V103.838ZM150.021 109.648H133.889V107.861H150.021V109.648ZM142.98 108.477H140.842V102.891H142.98V108.477ZM148.068 97.1387H138.01V102.9H135.832V95.4004H148.068V97.1387ZM156.892 97.9004C156.892 98.929 156.7 99.8926 156.316 100.791C155.932 101.689 155.365 102.464 154.616 103.115C153.874 103.76 152.982 104.242 151.941 104.561L150.876 102.871C151.781 102.604 152.553 102.22 153.191 101.719C153.835 101.211 154.323 100.625 154.655 99.9609C154.988 99.2969 155.154 98.61 155.154 97.9004V97.1973H156.892V97.9004ZM157.302 97.9004C157.302 98.5579 157.461 99.196 157.78 99.8145C158.106 100.426 158.585 100.973 159.216 101.455C159.854 101.93 160.622 102.295 161.521 102.549L160.505 104.268C159.463 103.962 158.568 103.493 157.82 102.861C157.071 102.23 156.501 101.488 156.111 100.635C155.726 99.7754 155.534 98.8639 155.534 97.9004V97.1973H157.302V97.9004ZM161.003 97.7734H151.452V96.0547H161.003V97.7734ZM157.331 96.8652H155.154V94.0332H157.331V96.8652ZM164.89 104.893H162.722V94.082H164.89V104.893ZM167.361 100.381H164.275V98.5547H167.361V100.381ZM164.89 111.758H162.722V107.432H153.122V105.674H164.89V111.758ZM178.303 102.48H175.198V100.732H178.303V102.48ZM183.284 111.719H181.194V94.082H183.284V111.719ZM179.651 110.889H177.59V94.3848H179.651V110.889ZM172.043 95.4199C172.825 95.4199 173.505 95.6738 174.084 96.1816C174.664 96.6895 175.113 97.4186 175.432 98.3691C175.751 99.3197 175.911 100.436 175.911 101.719C175.911 102.995 175.751 104.111 175.432 105.068C175.113 106.019 174.664 106.751 174.084 107.266C173.505 107.78 172.825 108.037 172.043 108.037C171.275 108.037 170.601 107.78 170.022 107.266C169.449 106.751 169.003 106.019 168.684 105.068C168.371 104.111 168.215 102.995 168.215 101.719C168.215 100.43 168.371 99.3132 168.684 98.3691C169.003 97.4186 169.452 96.6895 170.032 96.1816C170.611 95.6738 171.282 95.4199 172.043 95.4199ZM172.043 97.4707C171.666 97.4707 171.34 97.6335 171.067 97.959C170.793 98.2845 170.585 98.7663 170.442 99.4043C170.305 100.036 170.237 100.807 170.237 101.719C170.237 102.624 170.305 103.395 170.442 104.033C170.585 104.665 170.793 105.143 171.067 105.469C171.347 105.794 171.672 105.957 172.043 105.957C172.427 105.957 172.756 105.794 173.03 105.469C173.31 105.143 173.524 104.665 173.674 104.033C173.824 103.395 173.899 102.624 173.899 101.719C173.899 100.807 173.824 100.036 173.674 99.4043C173.524 98.7663 173.31 98.2845 173.03 97.959C172.756 97.6335 172.427 97.4707 172.043 97.4707ZM14.9219 133.838H2.53906V132.109H14.9219V133.838ZM16.7285 139.648H0.595703V137.861H16.7285V139.648ZM9.6875 138.477H7.54883V132.891H9.6875V138.477ZM14.7754 127.139H4.7168V132.9H2.53906V125.4H14.7754V127.139ZM31.4504 130.537H27.1535V128.77H31.4504V130.537ZM32.4562 137.002H30.2883V124.102H32.4562V137.002ZM32.9055 141.406H20.8742V139.629H32.9055V141.406ZM23.052 140.625H20.8742V135.859H23.052V140.625ZM23.7258 127.598C23.7258 128.704 23.5337 129.746 23.1496 130.723C22.7655 131.699 22.1991 132.555 21.4504 133.291C20.7082 134.02 19.8098 134.57 18.7551 134.941L17.632 133.184C18.5435 132.884 19.3247 132.445 19.9758 131.865C20.6268 131.286 21.1184 130.632 21.4504 129.902C21.7824 129.167 21.9484 128.398 21.9484 127.598V126.357H23.7258V127.598ZM24.1555 127.617C24.1555 128.34 24.315 129.043 24.634 129.727C24.953 130.41 25.425 131.025 26.05 131.572C26.675 132.119 27.427 132.539 28.3059 132.832L27.2219 134.561C26.1932 134.209 25.3176 133.685 24.5949 132.988C23.8723 132.285 23.3221 131.471 22.9445 130.547C22.5734 129.622 22.3879 128.646 22.3879 127.617V126.357H24.1555V127.617ZM27.8176 127.129H18.2668V125.371H27.8176V127.129ZM43.3598 128.633H34.727V126.895H43.3598V128.633ZM39.0629 129.561C39.8116 129.561 40.4756 129.736 41.0551 130.088C41.641 130.433 42.1 130.918 42.432 131.543C42.7641 132.168 42.9301 132.881 42.9301 133.682C42.9301 134.482 42.7641 135.199 42.432 135.83C42.1 136.455 41.641 136.947 41.0551 137.305C40.4756 137.663 39.8116 137.842 39.0629 137.842C38.3272 137.842 37.6664 137.663 37.0805 137.305C36.501 136.947 36.0453 136.452 35.7133 135.82C35.3812 135.189 35.2152 134.476 35.2152 133.682C35.2152 132.894 35.3812 132.184 35.7133 131.553C36.0453 130.921 36.501 130.433 37.0805 130.088C37.6664 129.736 38.3272 129.561 39.0629 129.561ZM39.0629 131.367C38.6918 131.361 38.3598 131.455 38.0668 131.65C37.7738 131.846 37.546 132.119 37.3832 132.471C37.2204 132.816 37.1391 133.219 37.1391 133.682C37.1391 134.144 37.2204 134.551 37.3832 134.902C37.5525 135.254 37.7803 135.521 38.0668 135.703C38.3598 135.885 38.6918 135.977 39.0629 135.977C39.4405 135.977 39.7758 135.885 40.0687 135.703C40.3617 135.521 40.5928 135.254 40.7621 134.902C40.9314 134.551 41.016 134.144 41.016 133.682C41.016 133.219 40.9314 132.816 40.7621 132.471C40.5928 132.119 40.3617 131.846 40.0687 131.65C39.7758 131.455 39.4405 131.361 39.0629 131.367ZM49.932 141.719H47.8617V124.082H49.932V141.719ZM48.5453 133.096H45.4496V131.348H48.5453V133.096ZM46.143 140.928H44.102V124.463H46.143V140.928ZM40.1371 127.979H37.9984V124.59H40.1371V127.979ZM72.5496 139.609H56.4168V137.832H72.5496V139.609ZM65.5086 138.301H63.3699V133.867H65.5086V138.301ZM60.3621 128.145H68.5359V125.254H70.6941V134.385H58.1844V125.254H60.3621V128.145ZM68.5359 132.646V129.873H60.3621V132.646H68.5359ZM79.7617 128.32C79.7617 129.792 79.5599 131.182 79.1562 132.49C78.7591 133.792 78.1764 134.938 77.4082 135.928C76.64 136.917 75.7155 137.669 74.6348 138.184L73.3066 136.367C74.2637 135.944 75.0938 135.322 75.7969 134.502C76.5 133.675 77.0371 132.728 77.4082 131.66C77.7858 130.586 77.9746 129.473 77.9746 128.32V125.498H79.7617V128.32ZM80.1621 128.32C80.1621 129.414 80.3444 130.472 80.709 131.494C81.0736 132.516 81.6009 133.428 82.291 134.229C82.9876 135.029 83.8014 135.632 84.7324 136.035L83.4434 137.773C82.4017 137.285 81.4967 136.566 80.7285 135.615C79.9603 134.658 79.3743 133.555 78.9707 132.305C78.5671 131.055 78.3652 129.727 78.3652 128.32V125.498H80.1621V128.32ZM88.1797 141.768H85.9824V124.082H88.1797V141.768ZM98.3898 125.332C98.3898 126.784 98.1457 128.096 97.6574 129.268C97.1757 130.433 96.4432 131.462 95.4602 132.354C94.4771 133.245 93.2336 134.007 91.7297 134.639L90.6457 133.037C91.9022 132.529 92.9406 131.937 93.7609 131.26C94.5878 130.583 95.1997 129.814 95.5969 128.955C95.994 128.089 96.1926 127.132 96.1926 126.084V125.332H98.3898ZM97.0422 127.09H91.4953V125.332H97.0422V127.09ZM105.675 134.189H103.605V124.102H105.675V134.189ZM100.402 130.586H96.4172V128.838H100.402V130.586ZM102.052 133.945H99.9914V124.453H102.052V133.945ZM96.5246 135.693C96.5246 136.559 96.3781 137.38 96.0852 138.154C95.7922 138.929 95.3462 139.619 94.7473 140.225C94.1483 140.83 93.4159 141.296 92.55 141.621L91.4563 140.029C92.205 139.769 92.8365 139.411 93.3508 138.955C93.8651 138.499 94.2525 137.988 94.5129 137.422C94.7733 136.855 94.9035 136.279 94.9035 135.693V134.746H96.5246V135.693ZM96.9738 135.693C96.9738 136.292 97.0845 136.878 97.3059 137.451C97.5337 138.024 97.882 138.545 98.3508 139.014C98.826 139.482 99.412 139.863 100.109 140.156L99.2004 141.768C98.3345 141.436 97.6184 140.954 97.052 140.322C96.4921 139.697 96.0786 138.984 95.8117 138.184C95.5513 137.383 95.4211 136.553 95.4211 135.693V134.746H96.9738V135.693ZM102.95 135.693C102.95 136.501 102.817 137.301 102.55 138.096C102.283 138.883 101.87 139.606 101.31 140.264C100.75 140.921 100.047 141.423 99.2004 141.768L98.2824 140.156C98.966 139.837 99.5389 139.43 100.001 138.936C100.47 138.441 100.818 137.91 101.046 137.344C101.28 136.771 101.398 136.221 101.398 135.693V134.746H102.95V135.693ZM103.517 135.693C103.517 136.312 103.644 136.904 103.898 137.471C104.158 138.037 104.545 138.545 105.06 138.994C105.574 139.443 106.202 139.788 106.945 140.029L105.9 141.621C105.014 141.309 104.265 140.859 103.654 140.273C103.048 139.688 102.599 139.004 102.306 138.223C102.013 137.435 101.866 136.592 101.866 135.693V134.746H103.517V135.693ZM112.487 125.371C113.359 125.371 114.134 125.628 114.811 126.143C115.495 126.65 116.028 127.376 116.412 128.32C116.803 129.258 116.998 130.352 116.998 131.602C116.998 132.858 116.803 133.958 116.412 134.902C116.028 135.84 115.495 136.566 114.811 137.08C114.134 137.594 113.359 137.852 112.487 137.852C111.608 137.852 110.827 137.598 110.143 137.09C109.459 136.576 108.922 135.846 108.532 134.902C108.148 133.958 107.955 132.858 107.955 131.602C107.955 130.352 108.148 129.258 108.532 128.32C108.922 127.376 109.459 126.65 110.143 126.143C110.827 125.628 111.608 125.371 112.487 125.371ZM112.487 127.324C112.005 127.318 111.575 127.487 111.198 127.832C110.827 128.177 110.54 128.672 110.338 129.316C110.136 129.954 110.036 130.716 110.036 131.602C110.036 132.487 110.136 133.255 110.338 133.906C110.54 134.551 110.827 135.042 111.198 135.381C111.575 135.713 112.005 135.879 112.487 135.879C112.968 135.879 113.395 135.713 113.766 135.381C114.144 135.042 114.433 134.551 114.635 133.906C114.837 133.255 114.938 132.487 114.938 131.602C114.938 130.71 114.837 129.945 114.635 129.307C114.433 128.662 114.147 128.171 113.776 127.832C113.411 127.487 112.982 127.318 112.487 127.324ZM122.457 141.768H120.309V124.082H122.457V141.768ZM121.246 132.334H116.334V130.576H121.246V132.334ZM130.627 138.164H128.488V133.105H130.627V138.164ZM137.16 138.164H134.972V133.105H137.16V138.164ZM140.89 139.6H124.757V137.812H140.89V139.6ZM132.795 125.029C134.058 125.029 135.184 125.225 136.173 125.615C137.17 125.999 137.951 126.546 138.517 127.256C139.084 127.965 139.367 128.779 139.367 129.697C139.367 130.622 139.084 131.436 138.517 132.139C137.957 132.842 137.179 133.385 136.183 133.77C135.194 134.154 134.064 134.349 132.795 134.355C131.525 134.349 130.392 134.154 129.396 133.77C128.407 133.385 127.629 132.842 127.062 132.139C126.502 131.436 126.222 130.622 126.222 129.697C126.222 128.779 126.502 127.965 127.062 127.256C127.629 126.546 128.41 125.999 129.406 125.615C130.402 125.225 131.532 125.029 132.795 125.029ZM132.795 126.768C131.916 126.761 131.141 126.875 130.47 127.109C129.806 127.344 129.285 127.682 128.908 128.125C128.537 128.568 128.351 129.092 128.351 129.697C128.351 130.296 128.537 130.82 128.908 131.27C129.285 131.712 129.806 132.057 130.47 132.305C131.141 132.546 131.916 132.666 132.795 132.666C133.66 132.666 134.429 132.546 135.099 132.305C135.77 132.057 136.291 131.712 136.662 131.27C137.039 130.82 137.228 130.296 137.228 129.697C137.228 129.092 137.039 128.571 136.662 128.135C136.291 127.692 135.77 127.354 135.099 127.119C134.435 126.878 133.667 126.761 132.795 126.768ZM144.831 135.664C144.837 134.857 144.912 134.206 145.055 133.711C145.205 133.216 145.414 132.819 145.68 132.52C145.947 132.214 146.312 131.924 146.774 131.65C147.243 131.357 147.604 131.035 147.858 130.684C148.112 130.332 148.239 129.935 148.239 129.492C148.239 129.134 148.158 128.822 147.995 128.555C147.832 128.281 147.601 128.073 147.302 127.93C147.009 127.78 146.686 127.705 146.335 127.705C145.996 127.705 145.68 127.777 145.387 127.92C145.095 128.057 144.854 128.271 144.665 128.564C144.476 128.857 144.372 129.212 144.352 129.629H141.911C141.937 128.783 142.149 128.063 142.546 127.471C142.943 126.872 143.47 126.423 144.128 126.123C144.785 125.817 145.521 125.664 146.335 125.664C147.22 125.664 147.998 125.82 148.669 126.133C149.346 126.439 149.87 126.878 150.241 127.451C150.612 128.018 150.798 128.685 150.798 129.453C150.798 130.215 150.619 130.869 150.261 131.416C149.909 131.956 149.401 132.432 148.737 132.842C148.346 133.07 148.037 133.307 147.809 133.555C147.582 133.802 147.409 134.092 147.292 134.424C147.175 134.756 147.113 135.169 147.106 135.664V135.85H144.831V135.664ZM146.032 140.156C145.759 140.156 145.505 140.088 145.27 139.951C145.036 139.808 144.85 139.622 144.714 139.395C144.583 139.16 144.518 138.906 144.518 138.633C144.518 138.366 144.583 138.118 144.714 137.891C144.85 137.656 145.036 137.474 145.27 137.344C145.505 137.207 145.759 137.139 146.032 137.139C146.292 137.139 146.54 137.207 146.774 137.344C147.009 137.474 147.194 137.656 147.331 137.891C147.468 138.118 147.536 138.366 147.536 138.633C147.536 138.906 147.468 139.16 147.331 139.395C147.194 139.622 147.009 139.808 146.774 139.951C146.54 140.088 146.292 140.156 146.032 140.156Z" fill="#282828"/>
</svg>
