<svg width="268" height="23" viewBox="0 0 268 23" fill="none" xmlns="http://www.w3.org/2000/svg">
<path d="M17.5547 0.828125V6.07812H20.4375V8.58594H17.5547V13.6953H14.5547V0.828125H17.5547ZM17.5547 14.6328V21.9219H3.60938V14.6328H17.5547ZM6.5625 16.9766V19.5312H14.6016V16.9766H6.5625ZM13.2891 2.75V5.11719H0.632812V2.75H5.48438V0.710938H8.46094V2.75H13.2891ZM6.96094 5.77344C10.0547 5.77344 12.2109 7.34375 12.2109 9.59375C12.2109 11.9141 10.0547 13.4609 6.96094 13.4609C3.82031 13.4609 1.66406 11.9141 1.66406 9.59375C1.66406 7.34375 3.82031 5.77344 6.96094 5.77344ZM6.96094 8.02344C5.53125 8.02344 4.57031 8.58594 4.59375 9.59375C4.57031 10.6719 5.53125 11.2578 6.96094 11.2578C8.39062 11.2578 9.375 10.6719 9.375 9.59375C9.375 8.58594 8.39062 8.02344 6.96094 8.02344ZM26.385 3.26562C26.3616 8.58594 25.8459 13.3672 23.1272 17.5859L20.8069 16.3672C22.9983 13.0508 23.6545 9.81641 23.8069 5.67969H21.51V3.26562H26.385ZM31.1663 3.26562C31.1545 5.14062 31.1194 7.00391 30.9553 8.82031H32.7834V1.29688H35.5959V21.2188H32.7834V11.2344H30.6506C30.1936 13.8477 29.385 16.3555 27.9084 18.6641L25.635 17.3984C28.0139 13.7656 28.5061 10.0039 28.6116 5.67969H26.9944V3.26562H31.1663ZM39.7913 0.828125V22.1562H36.9319V0.828125H39.7913ZM64.905 0.828125V11.5156H61.9284V7.78906H58.0847V5.375H61.9284V0.828125H64.905ZM57.8269 1.60156C57.8269 7.17969 54.4753 10.5781 48.1941 12.0781L47.2097 9.71094C51.862 8.67969 54.1706 6.60547 54.6159 4.01562H48.3816V1.60156H57.8269ZM64.905 12.3359V18.1719H53.7487V19.5781H65.3737V21.9453H50.7487V15.9688H61.905V14.6797H50.7253V12.3359H64.905ZM73.3134 2.32812C76.1963 2.32812 78.3408 4.70703 78.7744 8.53906H82.4775V0.828125H85.4306V22.2031H82.4775V10.9297H78.7978C78.4814 15.0312 76.29 17.5391 73.3134 17.5391C70.0791 17.5391 67.7588 14.6094 67.7822 9.92188C67.7588 5.28125 70.0791 2.32812 73.3134 2.32812ZM73.3134 5.02344C71.7197 5.02344 70.6181 6.75781 70.6416 9.92188C70.6181 13.1094 71.7197 14.8203 73.3134 14.8203C74.9306 14.8203 75.9853 13.1094 75.9853 9.92188C75.9853 6.75781 74.9306 5.02344 73.3134 5.02344ZM95.9953 5.65625C95.9953 9.66406 97.6125 13.5547 101.175 15.1016L99.3469 17.4922C96.9797 16.332 95.3977 14.2109 94.5188 11.5859C93.5813 14.375 91.9406 16.6602 89.5031 17.8672L87.6281 15.4297C91.2844 13.7891 92.9484 9.66406 92.9719 5.65625V2.46875H95.9953V5.65625ZM105.933 0.828125V22.2031H102.98V9.94531H98.7844V7.53125H102.98V0.828125H105.933ZM120.57 6.19531C120.57 9.64062 121.531 13.2031 124.437 15.0781L122.82 17.3984C120.98 16.2852 119.808 14.457 119.14 12.2656C118.367 14.6797 117.09 16.6953 115.156 17.8672L113.328 15.6641C116.492 13.6953 117.664 9.94531 117.664 6.33594V2.65625H120.57V6.19531ZM132.218 0.828125V22.1562H129.359V0.828125H132.218ZM127.742 1.13281V21.1719H124.953V10.4609H122.187V8.02344H124.953V1.13281H127.742ZM152.721 0.828125V22.1562H149.908V0.828125H152.721ZM148.268 1.29688V21.2188H145.432V14.1875H142.408V11.7734H145.432V8.86719H142.807C141.81 12.3828 139.654 15.3594 135.658 17.7266L133.9 15.6172C138.225 13.0625 140.123 9.95703 140.533 5.77344H135.143V3.35938H143.51C143.51 4.42578 143.439 5.45703 143.322 6.45312H145.432V1.29688H148.268ZM174.231 10.3906V12.6172H154.707V10.3906H174.231ZM171.887 13.6719V18.7109H159.934V19.9297H172.52V21.9688H156.957V16.8125H168.934V15.7344H156.934V13.6719H171.887ZM171.863 1.20312V6.21875H160.121V7.36719H172.238V9.38281H157.145V4.32031H168.863V3.24219H157.098V1.20312H171.863ZM186.407 2.32812C188.317 2.32812 189.911 3.38281 190.883 5.21094H195.571V0.828125H198.524V22.2031H195.571V14.2109H191.118C190.157 16.3203 188.469 17.5391 186.407 17.5391C183.173 17.5391 180.852 14.6094 180.876 9.92188C180.852 5.28125 183.173 2.32812 186.407 2.32812ZM186.407 5.02344C184.813 5.02344 183.712 6.75781 183.735 9.92188C183.712 13.1094 184.813 14.8203 186.407 14.8203C188.024 14.8203 189.079 13.1094 189.079 9.92188C189.079 6.75781 188.024 5.02344 186.407 5.02344ZM191.727 7.625C191.856 8.32812 191.938 9.10156 191.938 9.92188C191.938 10.5898 191.88 11.2227 191.798 11.8203H195.571V7.625H191.727ZM219.354 0.828125V14.2109H216.518V8.53906H214.807V13.5078H212.018V1.22656H214.807V6.10156H216.518V0.828125H219.354ZM211.386 3.03125V5.35156H200.909V3.03125H204.682V1.01562H207.659V3.03125H211.386ZM206.182 6.05469C208.901 6.05469 210.823 7.55469 210.847 9.78125C210.823 11.9844 208.901 13.4844 206.182 13.4844C203.511 13.4844 201.565 11.9844 201.565 9.78125C201.565 7.55469 203.511 6.05469 206.182 6.05469ZM206.182 8.21094C205.011 8.21094 204.237 8.79688 204.237 9.78125C204.237 10.7656 205.011 11.375 206.182 11.3516C207.354 11.375 208.128 10.7656 208.151 9.78125C208.128 8.79688 207.354 8.21094 206.182 8.21094ZM212.065 14.3984C216.682 14.3984 219.448 15.8047 219.472 18.2891C219.448 20.75 216.682 22.1562 212.065 22.1562C207.472 22.1562 204.682 20.75 204.682 18.2891C204.682 15.8047 207.472 14.3984 212.065 14.3984ZM212.065 16.6484C209.182 16.6484 207.659 17.1641 207.682 18.2891C207.659 19.3672 209.182 19.9062 212.065 19.9062C214.972 19.9062 216.448 19.3672 216.448 18.2891C216.448 17.1641 214.972 16.6484 212.065 16.6484ZM231.818 4.08594V6.45312H221.505V4.08594H225.208V1.41406H228.161V4.08594H231.818ZM226.708 7.41406C229.427 7.41406 231.372 9.52344 231.396 12.4766C231.372 15.4531 229.427 17.5625 226.708 17.5625C223.989 17.5625 221.997 15.4531 221.997 12.4766C221.997 9.52344 223.989 7.41406 226.708 7.41406ZM226.708 9.89844C225.466 9.89844 224.622 10.8594 224.622 12.4766C224.622 14.0938 225.466 15.0312 226.708 15.0312C227.903 15.0312 228.747 14.0938 228.771 12.4766C228.747 10.8594 227.903 9.89844 226.708 9.89844ZM239.974 0.828125V22.1562H237.138V11.8906H235.403V21.2422H232.614V1.25H235.403V9.5H237.138V0.828125H239.974ZM261.554 17.2109V19.6719H242.031V17.2109H246.39V11.9844C244.738 11 243.742 9.48828 243.742 7.60156C243.742 4.15625 247.117 1.85938 251.757 1.85938C256.374 1.85938 259.773 4.15625 259.796 7.60156C259.785 9.44141 258.812 10.9414 257.218 11.9375V17.2109H261.554ZM251.757 4.22656C248.71 4.22656 246.695 5.44531 246.695 7.60156C246.695 9.6875 248.71 10.9766 251.757 10.9766C254.781 10.9766 256.82 9.6875 256.843 7.60156C256.82 5.44531 254.781 4.22656 251.757 4.22656ZM249.343 17.2109H254.195V13.0625C253.433 13.2148 252.613 13.2969 251.757 13.2969C250.902 13.2969 250.093 13.2266 249.343 13.0625V17.2109ZM267.384 3.03125L267.08 14.9141H264.08L263.775 3.03125H267.384ZM265.603 20.2109C264.502 20.2109 263.611 19.3203 263.634 18.2422C263.611 17.1641 264.502 16.2969 265.603 16.2969C266.634 16.2969 267.548 17.1641 267.548 18.2422C267.548 19.3203 266.634 20.2109 265.603 20.2109Z" fill="#282828"/>
</svg>
