<svg width="226" height="12" viewBox="0 0 226 12" fill="none" xmlns="http://www.w3.org/2000/svg">
<path d="M3.1875 1.10547C4.83984 1.10547 6.04688 2.59375 6.05859 4.94922C6.04688 7.33984 4.83984 8.82812 3.1875 8.82812C1.51172 8.82812 0.292969 7.33984 0.304688 4.94922C0.292969 2.59375 1.51172 1.10547 3.1875 1.10547ZM3.1875 2.62891C2.4375 2.62891 1.93359 3.41406 1.94531 4.94922C1.93359 6.50781 2.4375 7.29297 3.1875 7.29297C3.94922 7.29297 4.42969 6.50781 4.44141 4.94922C4.42969 3.41406 3.94922 2.62891 3.1875 2.62891ZM8.8125 0.367188V4.35156H10.3359V5.74609H8.8125V11.125H7.125V0.367188H8.8125ZM19.5675 0.367188V6.83594H17.88V0.367188H19.5675ZM19.5675 7.28125V11.125H17.88V8.61719H12.1378V7.28125H19.5675ZM16.8839 0.953125V2.30078H14.8331C14.8976 3.4668 15.6066 4.68555 17.3292 5.20703L16.462 6.50781C15.2843 6.15039 14.4757 5.41211 14.0011 4.49219C13.503 5.49414 12.6593 6.29688 11.4113 6.69531L10.5441 5.39453C12.296 4.83789 13.0402 3.54297 13.1105 2.30078H10.9894V0.953125H16.8839ZM29.4877 1.38672V2.69922H27.4134C27.4662 3.68945 28.1517 4.70312 29.8627 5.14844L29.1009 6.44922C27.888 6.14453 27.0677 5.50586 26.5814 4.67969C26.1068 5.59375 25.2806 6.30273 24.0267 6.625L23.2298 5.32422C24.9466 4.87305 25.6556 3.78906 25.7142 2.69922H23.64V1.38672H25.7142V0.332031H27.4134V1.38672H29.4877ZM31.9134 0.367188V2.82812H33.308V4.19922H31.9134V6.64844H30.2259V0.367188H31.9134ZM31.9134 7.08203V11.0078H24.8119V7.08203H31.9134ZM26.4759 8.40625V9.66016H30.2494V8.40625H26.4759ZM36.5864 1.10547C37.5415 1.10547 38.3442 1.61523 38.8481 2.51172H41.0513V0.367188H42.7153V11.1484H41.0513V7.16406H38.9653C38.4848 8.22461 37.6235 8.82812 36.5864 8.82812C34.9341 8.82812 33.7505 7.33984 33.7622 4.94922C33.7505 2.59375 34.9341 1.10547 36.5864 1.10547ZM36.5864 2.62891C35.8716 2.62891 35.3677 3.41406 35.3794 4.94922C35.3677 6.50781 35.8716 7.29297 36.5864 7.29297C37.3247 7.29297 37.7934 6.50781 37.7934 4.94922C37.7934 3.41406 37.3247 2.62891 36.5864 2.62891ZM39.3169 3.87109C39.3696 4.20508 39.3989 4.56836 39.3989 4.94922C39.3989 5.25977 39.3813 5.55273 39.3403 5.82812H41.0513V3.87109H39.3169ZM52.3805 0.367188V4.50391H53.9039V5.89844H52.3805V11.125H50.7164V0.367188H52.3805ZM50.0836 1.9375V3.27344H43.7906V1.9375H46.1227V0.542969H47.8102V1.9375H50.0836ZM46.9664 3.78906C48.5367 3.78906 49.732 4.86719 49.7438 6.37891C49.732 7.90234 48.5367 8.96875 46.9664 8.96875C45.3492 8.96875 44.1656 7.90234 44.1773 6.37891C44.1656 4.86719 45.3492 3.78906 46.9664 3.78906ZM46.9664 5.14844C46.275 5.16016 45.7828 5.60547 45.7945 6.37891C45.7828 7.17578 46.275 7.59766 46.9664 7.59766C47.6344 7.59766 48.1148 7.17578 48.1266 6.37891C48.1148 5.60547 47.6344 5.16016 46.9664 5.14844ZM58.3659 3.17969C58.3659 4.89062 59.1159 6.75391 60.9909 7.51562L60.0886 8.83984C58.8405 8.32422 58.0144 7.31641 57.5339 6.08594C57.0652 7.43359 56.2155 8.54688 54.9558 9.10938L53.9948 7.78516C55.8581 6.96484 56.6433 4.99609 56.6433 3.17969V2.75781H54.4402V1.38672H60.5222V2.75781H58.3659V3.17969ZM63.1355 0.367188V11.125H61.4362V0.367188H63.1355ZM67.3045 0.859375C68.9803 0.859375 70.2108 1.91406 70.2108 3.36719C70.2108 4.85547 68.9803 5.89844 67.3045 5.89844C65.6522 5.89844 64.3748 4.85547 64.3866 3.36719C64.3748 1.91406 65.6522 0.859375 67.3045 0.859375ZM67.3045 2.24219C66.5663 2.24219 66.0155 2.65234 66.0272 3.36719C66.0155 4.10547 66.5663 4.52734 67.3045 4.52734C68.0311 4.52734 68.5819 4.10547 68.5819 3.36719C68.5819 2.65234 68.0311 2.24219 67.3045 2.24219ZM72.9178 0.367188V2.54688H74.3123V3.92969H72.9178V5.66406H71.2303V0.367188H72.9178ZM66.9061 6.66016V9.46094C67.4627 9.41992 67.9608 9.33789 68.453 9.17969L68.6873 10.4805C67.8319 10.7969 67.0116 10.8438 65.8866 10.8438H65.2538V6.66016H66.9061ZM73.7264 6.66016V7.87891H68.3241V6.66016H70.2225V5.95703H71.8631V6.66016H73.7264ZM71.0194 8.08984C72.2616 8.08984 73.117 8.6875 73.1288 9.625C73.117 10.5508 72.2616 11.1367 71.0194 11.125C69.7538 11.1367 68.91 10.5508 68.91 9.625C68.91 8.6875 69.7538 8.08984 71.0194 8.08984ZM71.0194 9.25C70.6678 9.25 70.41 9.36719 70.41 9.625C70.41 9.88281 70.6678 9.98828 71.0194 9.98828C71.3592 9.98828 71.617 9.88281 71.617 9.625C71.617 9.36719 71.3592 9.25 71.0194 9.25ZM84.4111 5.81641V7.14062H74.6025V5.81641H84.4111ZM83.2861 9.60156V10.9492H75.7627V7.79688H77.4502V9.60156H83.2861ZM79.5009 0.683594C81.8681 0.683594 83.4384 1.52734 83.4502 2.89844C83.4384 4.29297 81.8681 5.14844 79.5009 5.16016C77.122 5.14844 75.5517 4.29297 75.5517 2.89844C75.5517 1.52734 77.122 0.683594 79.5009 0.683594ZM79.5009 2.00781C78.083 2.01953 77.2978 2.3125 77.3095 2.89844C77.2978 3.51953 78.083 3.78906 79.5009 3.78906C80.9072 3.78906 81.7041 3.51953 81.7041 2.89844C81.7041 2.3125 80.9072 2.01953 79.5009 2.00781ZM97.2258 6.78906V8.16016H93.1477V11.1367H91.4602V8.16016H87.4172V6.78906H97.2258ZM96.3469 1.57422V2.89844H93.2063C93.4172 3.73047 94.466 4.73828 96.7336 4.98438L96.1242 6.29688C94.2844 6.10352 93.0129 5.38867 92.3156 4.46875C91.6184 5.40039 90.341 6.09766 88.4836 6.29688L87.8742 4.98438C90.1594 4.73242 91.2082 3.74219 91.425 2.89844H88.2844V1.57422H91.4602V0.390625H93.1477V1.57422H96.3469ZM103.809 1.57422V2.89844H101.723C101.729 4.0293 102.397 5.25391 104.196 5.80469L103.387 7.10547C102.203 6.77148 101.389 6.06836 100.914 5.18359C100.434 6.14453 99.6077 6.90039 98.3714 7.26953L97.5628 5.95703C99.3499 5.42969 100.03 4.13477 100.035 2.89844H97.9613V1.57422H100.035V0.4375H101.735V1.57422H103.809ZM106.774 0.378906V8.33594H105.098V4.80859H103.457V3.46094H105.098V0.378906H106.774ZM107.02 9.60156V10.9492H99.5667V7.66797H101.254V9.60156H107.02ZM116.626 0.671875V4H110.767V4.75H116.884V6.07422H109.056V2.73438H114.892V2.01953H109.033V0.671875H116.626ZM117.74 6.78906V8.125H113.65V11.1484H111.951V8.125H107.908V6.78906H117.74ZM127.206 0.378906V8.32422H125.518V0.378906H127.206ZM127.475 9.60156V10.9492H119.917V7.62109H121.628V9.60156H127.475ZM123.971 1.17578V2.51172H120.444V3.37891H123.655V4.65625H120.444V5.52344C122.213 5.52344 123.385 5.50586 124.698 5.28906L124.85 6.57812C123.338 6.84766 121.956 6.87109 119.694 6.87109H118.745V1.17578H123.971ZM134.548 10.1172C132.614 10.1172 131.243 9.05078 131.22 7.52734H133.235C133.247 8.08984 133.809 8.48828 134.559 8.48828C135.309 8.48828 135.848 8.05469 135.837 7.44531C135.848 6.83594 135.274 6.39062 134.384 6.39062H133.563V4.96094H134.384C135.157 4.96094 135.696 4.55078 135.696 3.94141C135.696 3.36719 135.239 2.95703 134.559 2.95703C133.868 2.95703 133.317 3.35547 133.305 3.95312H131.384C131.407 2.45312 132.743 1.39844 134.571 1.39844C136.387 1.39844 137.63 2.44141 137.618 3.82422C137.63 4.77344 136.927 5.44141 135.954 5.58203V5.64062C137.255 5.79297 137.946 6.54297 137.934 7.59766C137.946 9.0625 136.528 10.1172 134.548 10.1172ZM147.916 0.367188V11.125H146.31V5.71094H145.478V10.668H143.92V0.648438H145.478V4.35156H146.31V0.367188H147.916ZM143.31 1.67969C143.31 4.76172 142.432 7.17578 139.42 8.94531L138.447 7.78516C140.539 6.53711 141.447 5.07812 141.67 3.01562H139.033V1.67969H143.31ZM158.694 5.13672V6.36719H148.862V5.13672H158.694ZM157.534 6.80078V9.42578H151.651V9.90625H157.839V11.043H149.976V8.37109H155.858V7.94922H149.964V6.80078H157.534ZM157.534 0.53125V3.14453H151.745V3.60156H157.71V4.72656H150.069V2.08984H155.835V1.65625H150.058V0.53125H157.534ZM170.349 0.378906V3.40234H171.65V4.77344H170.349V7.72656H168.661V0.378906H170.349ZM161.548 6.25C162.31 6.25 163.171 6.24414 164.068 6.22656V5.67578C162.931 5.49414 162.216 4.93164 162.216 4.11719C162.216 3.12109 163.283 2.51172 164.888 2.51172C166.493 2.51172 167.56 3.12109 167.56 4.11719C167.56 4.92578 166.863 5.48242 165.743 5.66406V6.16797C166.587 6.12695 167.425 6.0625 168.216 5.96875L168.333 7.11719C166.083 7.50391 163.611 7.53906 161.724 7.53906L161.548 6.25ZM170.349 8.11328V11.125H168.661V9.40234H162.931V8.11328H170.349ZM167.958 1.10547V2.32422H161.829V1.10547H164.068V0.285156H165.743V1.10547H167.958ZM164.888 3.625C164.197 3.625 163.833 3.75391 163.833 4.11719C163.833 4.45703 164.197 4.64453 164.888 4.63281C165.568 4.64453 165.943 4.45703 165.943 4.11719C165.943 3.75391 165.568 3.625 164.888 3.625ZM180.975 0.378906V8.06641H179.288V0.378906H180.975ZM181.245 9.60156V10.9492H173.686V7.29297H175.397V9.60156H181.245ZM175.057 1.04688C176.721 1.04688 178.034 2.19531 178.034 3.77734C178.034 5.39453 176.721 6.53125 175.057 6.53125C173.393 6.53125 172.069 5.39453 172.08 3.77734C172.069 2.19531 173.393 1.04688 175.057 1.04688ZM175.057 2.51172C174.295 2.5 173.721 2.96875 173.721 3.77734C173.721 4.62109 174.295 5.06641 175.057 5.06641C175.784 5.06641 176.358 4.62109 176.358 3.77734C176.358 2.96875 175.784 2.5 175.057 2.51172ZM187.312 1.9375V3.27344H182.179V1.9375H183.937V0.660156H185.601V1.9375H187.312ZM184.781 3.68359C186.164 3.68359 187.148 4.75 187.148 6.26172C187.148 7.78516 186.164 8.86328 184.781 8.86328C183.398 8.86328 182.39 7.78516 182.39 6.26172C182.39 4.75 183.398 3.68359 184.781 3.68359ZM184.781 5.07812C184.23 5.06641 183.867 5.5 183.867 6.26172C183.867 7.03516 184.23 7.43359 184.781 7.43359C185.296 7.43359 185.671 7.03516 185.671 6.26172C185.671 5.5 185.296 5.06641 184.781 5.07812ZM191.531 0.367188V11.125H189.925V6.03906H189.234V10.6797H187.664V0.566406H189.234V4.69141H189.925V0.367188H191.531ZM202.274 8.54688V9.91797H192.442V8.54688H196.508V6.66016H193.45V1.03516H195.137V2.61719H199.532V1.03516H201.219V6.66016H198.173V8.54688H202.274ZM195.137 5.32422H199.532V3.94141H195.137V5.32422ZM206.22 2.95703C206.22 4.71484 206.584 6.49609 208.084 7.46875L207.17 8.76953C206.291 8.23633 205.734 7.38672 205.412 6.36719C205.031 7.50391 204.422 8.45312 203.49 9.01562L202.47 7.76172C204.088 6.74219 204.58 4.85547 204.58 3.03906V1.25781H206.22V2.95703ZM212.045 0.367188V11.125H210.428V0.367188H212.045ZM209.783 0.507812V10.6445H208.213V5.28906H206.959V3.91797H208.213V0.507812H209.783ZM222.776 8.53516V9.90625H212.944V8.53516H215.065V5.98047C214.263 5.4707 213.776 4.70898 213.776 3.76562C213.776 2.00781 215.499 0.847656 217.843 0.847656C220.186 0.847656 221.932 2.00781 221.932 3.76562C221.932 4.69141 221.458 5.44141 220.679 5.94531V8.53516H222.776ZM217.843 2.17188C216.378 2.16016 215.44 2.73438 215.452 3.76562C215.44 4.78516 216.378 5.38281 217.843 5.38281C219.296 5.38281 220.257 4.78516 220.257 3.76562C220.257 2.73438 219.296 2.16016 217.843 2.17188ZM216.729 8.53516H218.968V6.58984C218.61 6.6543 218.235 6.68359 217.843 6.68359C217.45 6.68359 217.081 6.6543 216.729 6.58984V8.53516ZM225.867 1.51562L225.691 7.41016H224.016L223.84 1.51562H225.867ZM224.848 10.1172C224.262 10.1172 223.781 9.64844 223.793 9.05078C223.781 8.47656 224.262 8.00781 224.848 8.00781C225.41 8.00781 225.902 8.47656 225.914 9.05078C225.902 9.64844 225.41 10.1172 224.848 10.1172Z" fill="white"/>
</svg>
