<svg width="24" height="24" viewBox="0 0 24 24" fill="none" xmlns="http://www.w3.org/2000/svg">
<path fill-rule="evenodd" clip-rule="evenodd" d="M16.8926 4.33928C16.791 4.28061 16.677 4.2466 16.5598 4.23999L16.5203 4.23773C16.1103 4.2141 15.2981 4.1673 14.5638 4.55285C13.9325 4.88429 13.462 5.46779 13.227 6.34997C12.5147 6.02295 11.648 5.52086 10.9376 4.90609C9.87742 3.98867 9.44487 3.08714 9.75513 2.26202C9.86757 1.96302 9.77827 1.62561 9.53264 1.42137C9.28701 1.21713 8.93898 1.19089 8.6655 1.35599C7.41536 2.11071 5.4829 3.63445 3.91422 5.3675C3.38177 5.95574 2.88102 6.57921 2.46024 7.21568C2.39446 7.28504 2.34427 7.3644 2.30999 7.44902C2.16827 7.67521 2.0373 7.9027 1.91922 8.13049C1.43207 9.07024 1.12391 10.0932 1.27493 11.0829L1.27498 11.0832C1.43554 12.132 1.99854 12.8969 2.84477 13.5915C3.64884 14.2515 4.78126 14.9053 6.18311 15.7146L6.241 15.748L17.2582 22.1088C18.1488 22.623 19.3362 22.8762 20.3833 22.6918C20.9156 22.5981 21.4467 22.3845 21.8756 21.9954C22.1606 21.7368 22.3827 21.4165 22.5285 21.0405C22.6595 20.9165 22.7464 20.745 22.7605 20.5508C22.7687 20.4391 22.752 20.3313 22.715 20.2329C23.0027 17.7169 21.8081 15.0696 20.5468 12.5867L20.6063 12.5708C21.0064 12.4635 21.2439 12.0523 21.1367 11.6522C21.0294 11.2521 20.6182 11.0147 20.2181 11.1219L19.8442 11.222C19.6343 10.8165 19.4265 10.414 19.2248 10.0145L19.4847 9.94485C19.8848 9.83765 20.1222 9.4264 20.015 9.0263C19.9078 8.6262 19.4965 8.38876 19.0964 8.49597L18.5565 8.64065C17.9595 7.35198 17.4791 6.09294 17.2578 4.85771C17.2189 4.64019 17.086 4.45092 16.8946 4.34043L16.8926 4.33928ZM17.0871 9.03435C16.5919 7.93838 16.1675 6.82877 15.9074 5.72784C15.6715 5.73975 15.4522 5.78055 15.2611 5.88091C15.0075 6.01404 14.6384 6.3453 14.5696 7.43578C14.5551 7.6657 14.4358 7.87621 14.2459 8.00669C14.0561 8.13718 13.8168 8.17317 13.5969 8.1043C12.6782 7.81651 11.1483 7.07216 9.95599 6.04035C9.2006 5.38664 8.45924 4.50279 8.22592 3.47141C7.22335 4.2233 6.04262 5.25131 5.0263 6.37411C4.63501 6.8064 4.2744 7.24589 3.96044 7.6824C7.01135 11.1241 9.14988 12.7504 12.621 13.5176L12.6211 13.5176L12.6581 13.5258C13.216 13.6491 13.662 13.7477 14.0041 13.8405C14.3403 13.9316 14.664 14.0385 14.9216 14.2114L14.9238 14.2128C15.1897 14.3926 15.4476 14.7081 15.7037 15.0468C15.9801 15.4126 16.3333 15.9169 16.7879 16.5669C17.732 17.9149 19.1972 19.2327 21.2558 19.6393C21.3204 17.7159 20.3814 15.5656 19.1567 13.1624C19.1265 13.1029 19.096 13.0434 19.0654 12.9836L18.266 13.1978C17.8659 13.3051 17.4546 13.0676 17.3474 12.6675C17.2402 12.2674 17.4776 11.8562 17.8777 11.749L18.3597 11.6198C18.1533 11.221 17.9465 10.8178 17.744 10.4113L17.1443 10.572C16.7442 10.6792 16.3329 10.4417 16.2257 10.0416C16.1185 9.64152 16.356 9.23027 16.7561 9.12306L17.0871 9.03435ZM20.6441 21.0413C18.2691 20.4716 16.6017 18.9158 15.5593 17.4274L15.559 17.427C15.0976 16.7674 14.7629 16.2898 14.5071 15.9513C14.3796 15.7827 14.2806 15.6604 14.2023 15.5735C14.1242 15.4866 14.0873 15.4583 14.0839 15.4557C14.0441 15.4297 13.9271 15.3737 13.6116 15.2882C13.3045 15.2049 12.8882 15.1128 12.2973 14.9822C8.51011 14.1452 6.14187 12.3477 3.14908 9.02566C2.8077 9.74358 2.68202 10.3595 2.75771 10.8562C2.84454 11.4235 3.13029 11.8852 3.79649 12.4321C4.49382 13.0045 5.51741 13.5982 6.991 14.449L18.0082 20.8098C18.625 21.1659 19.4575 21.3318 20.1233 21.2146C20.3268 21.1787 20.5005 21.1192 20.6441 21.0413Z" fill="black"/>
</svg>
