<svg width="273" height="160" viewBox="0 0 273 160" fill="none" xmlns="http://www.w3.org/2000/svg">
<rect width="273" height="160" rx="26" fill="white"/>
<path d="M50.7 50.956C50.7 54.652 49.92 57.472 48.36 59.416C46.8 61.36 44.448 62.332 41.304 62.332C38.208 62.332 35.82 61.348 34.14 59.38C32.46 57.412 31.62 54.604 31.62 50.956V46.924C31.62 43.276 32.448 40.48 34.104 38.536C35.784 36.568 38.148 35.584 41.196 35.584C44.268 35.584 46.62 36.568 48.252 38.536C49.884 40.48 50.7 43.276 50.7 46.924V50.956ZM46.056 46.888C46.056 45.4 45.912 44.2 45.624 43.288C45.36 42.376 45 41.68 44.544 41.2C44.112 40.696 43.596 40.36 42.996 40.192C42.42 40.024 41.82 39.94 41.196 39.94C40.596 39.94 39.996 40.024 39.396 40.192C38.82 40.36 38.292 40.696 37.812 41.2C37.356 41.704 36.984 42.412 36.696 43.324C36.408 44.236 36.264 45.424 36.264 46.888V50.992C36.264 52.48 36.408 53.68 36.696 54.592C37.008 55.504 37.404 56.212 37.884 56.716C38.364 57.22 38.904 57.556 39.504 57.724C40.104 57.892 40.704 57.976 41.304 57.976C41.928 57.976 42.528 57.892 43.104 57.724C43.68 57.556 44.184 57.232 44.616 56.752C45.048 56.248 45.396 55.54 45.66 54.628C45.924 53.716 46.056 52.504 46.056 50.992V46.888ZM63.3402 48.652C64.0842 47.884 64.6722 47.212 65.1042 46.636C65.5362 46.06 65.8602 45.544 66.0762 45.088C66.2922 44.632 66.4242 44.212 66.4722 43.828C66.5202 43.444 66.5442 43.072 66.5442 42.712V42.424C66.5442 41.728 66.2562 41.104 65.6802 40.552C65.1282 39.976 64.1802 39.688 62.8362 39.688C62.3562 39.688 61.8762 39.736 61.3962 39.832C60.9402 39.928 60.4842 40.108 60.0282 40.372C59.5722 40.636 59.1162 41.008 58.6602 41.488C58.2282 41.968 57.7962 42.58 57.3642 43.324L53.9082 41.056C54.2202 40.504 54.6042 39.904 55.0602 39.256C55.5402 38.608 56.1282 38.02 56.8242 37.492C57.5442 36.94 58.3842 36.484 59.3442 36.124C60.3282 35.764 61.4802 35.584 62.8002 35.584C64.2642 35.584 65.5242 35.764 66.5802 36.124C67.6362 36.484 68.5002 36.976 69.1722 37.6C69.8682 38.2 70.3722 38.908 70.6842 39.724C71.0202 40.516 71.1882 41.356 71.1882 42.244V42.604C71.1882 44.02 70.8642 45.376 70.2162 46.672C69.5922 47.944 68.6682 49.192 67.4442 50.416L59.8122 58.12H72.1602V61.936H53.8002V58.48L63.3402 48.652Z" fill="#ECECEC"/>
<rect x="189" y="30" width="54" height="26" rx="13" fill="#F58220"/>
<path d="M202.134 37.27H206.054C208.173 37.27 209.232 38.0913 209.232 39.734V40.028C209.232 40.252 209.204 40.4713 209.148 40.686C209.101 40.8913 209.013 41.0873 208.882 41.274C208.761 41.4513 208.597 41.61 208.392 41.75C208.187 41.8807 207.935 41.9833 207.636 42.058C208.252 42.1513 208.747 42.3847 209.12 42.758C209.503 43.122 209.694 43.654 209.694 44.354V44.704C209.694 45.5347 209.433 46.188 208.91 46.664C208.387 47.1307 207.58 47.364 206.488 47.364H202.134V37.27ZM203.912 45.88H205.536C205.928 45.88 206.269 45.866 206.558 45.838C206.857 45.8007 207.099 45.7353 207.286 45.642C207.482 45.5393 207.627 45.3993 207.72 45.222C207.813 45.0447 207.86 44.8067 207.86 44.508V44.2C207.86 43.9387 207.813 43.724 207.72 43.556C207.636 43.3787 207.491 43.2387 207.286 43.136C207.081 43.024 206.81 42.9493 206.474 42.912C206.147 42.8653 205.746 42.842 205.27 42.842H203.912V45.88ZM203.912 38.754V41.386H205.228C205.573 41.386 205.881 41.3767 206.152 41.358C206.432 41.3393 206.661 41.288 206.838 41.204C207.025 41.12 207.165 40.994 207.258 40.826C207.361 40.6487 207.412 40.4013 207.412 40.084V39.832C207.412 39.4027 207.244 39.118 206.908 38.978C206.581 38.8287 206.04 38.754 205.284 38.754H203.912ZM215.954 42.814V42.478C215.954 42.2727 215.921 42.0767 215.856 41.89C215.8 41.7033 215.702 41.54 215.562 41.4C215.422 41.26 215.245 41.148 215.03 41.064C214.815 40.98 214.554 40.938 214.246 40.938C213.658 40.938 213.215 41.092 212.916 41.4C212.627 41.708 212.482 42.0813 212.482 42.52V42.814H215.954ZM217.452 46.65C217.079 46.902 216.64 47.1027 216.136 47.252C215.632 47.4013 215.016 47.476 214.288 47.476C213.84 47.476 213.406 47.4153 212.986 47.294C212.566 47.182 212.188 46.9907 211.852 46.72C211.525 46.44 211.259 46.0713 211.054 45.614C210.858 45.1473 210.76 44.5687 210.76 43.878V43.08C210.76 42.4547 210.849 41.918 211.026 41.47C211.213 41.0127 211.465 40.6393 211.782 40.35C212.099 40.0513 212.468 39.832 212.888 39.692C213.317 39.552 213.779 39.482 214.274 39.482C214.759 39.482 215.207 39.552 215.618 39.692C216.038 39.832 216.397 40.0467 216.696 40.336C216.995 40.616 217.228 40.9707 217.396 41.4C217.564 41.82 217.648 42.31 217.648 42.87V44.144H212.482C212.482 44.76 212.645 45.2267 212.972 45.544C213.299 45.852 213.77 46.006 214.386 46.006C214.843 46.006 215.249 45.9593 215.604 45.866C215.959 45.7633 216.332 45.6 216.724 45.376L217.452 46.65ZM221.722 45.978C222.124 45.978 222.441 45.9267 222.674 45.824C222.917 45.712 223.038 45.5067 223.038 45.208V45.124C223.038 44.9933 223.02 44.886 222.982 44.802C222.954 44.7087 222.884 44.6293 222.772 44.564C222.66 44.4987 222.497 44.438 222.282 44.382C222.077 44.326 221.792 44.2607 221.428 44.186C220.962 44.0927 220.56 43.9853 220.224 43.864C219.898 43.7333 219.627 43.5747 219.412 43.388C219.207 43.2013 219.053 42.9773 218.95 42.716C218.857 42.4547 218.81 42.142 218.81 41.778V41.638C218.81 41.3767 218.862 41.12 218.964 40.868C219.076 40.6067 219.249 40.3733 219.482 40.168C219.725 39.9627 220.033 39.7993 220.406 39.678C220.789 39.5473 221.251 39.482 221.792 39.482C222.24 39.482 222.712 39.524 223.206 39.608C223.71 39.692 224.186 39.8833 224.634 40.182L223.878 41.456C223.617 41.2787 223.323 41.1527 222.996 41.078C222.679 41.0033 222.352 40.966 222.016 40.966C221.466 40.966 221.088 41.0313 220.882 41.162C220.677 41.2833 220.574 41.4467 220.574 41.652V41.736C220.574 41.876 220.593 41.988 220.63 42.072C220.668 42.156 220.738 42.2307 220.84 42.296C220.943 42.352 221.088 42.4033 221.274 42.45C221.461 42.4967 221.704 42.548 222.002 42.604C222.488 42.7067 222.908 42.814 223.262 42.926C223.626 43.038 223.92 43.1873 224.144 43.374C224.378 43.5513 224.55 43.78 224.662 44.06C224.774 44.3307 224.83 44.6713 224.83 45.082V45.236C224.83 45.5347 224.76 45.8193 224.62 46.09C224.49 46.3607 224.294 46.5987 224.032 46.804C223.771 47.0093 223.449 47.1727 223.066 47.294C222.684 47.4153 222.25 47.476 221.764 47.476C221.12 47.476 220.509 47.392 219.93 47.224C219.361 47.056 218.89 46.8227 218.516 46.524L219.3 45.18C219.646 45.4133 220.014 45.6047 220.406 45.754C220.798 45.9033 221.237 45.978 221.722 45.978ZM226.702 41.106H225.47V39.65H226.702V37.676H228.466V39.65H230.412V41.106H228.466V45.166C228.466 45.4927 228.531 45.7073 228.662 45.81C228.802 45.9127 228.989 45.964 229.222 45.964C229.399 45.964 229.572 45.95 229.74 45.922C229.917 45.8847 230.109 45.824 230.314 45.74L230.594 47.154C230.435 47.2287 230.216 47.2987 229.936 47.364C229.665 47.4387 229.357 47.476 229.012 47.476C228.573 47.476 228.205 47.4247 227.906 47.322C227.607 47.2193 227.369 47.07 227.192 46.874C227.015 46.678 226.889 46.44 226.814 46.16C226.739 45.8707 226.702 45.544 226.702 45.18V41.106Z" fill="white"/>
<path d="M31.474 85.524H35.786V82.818H38.602V85.524H42.716V87.9H38.602V89.594C38.602 90.0193 38.6313 90.408 38.69 90.76C38.7487 91.112 38.8367 91.4493 38.954 91.772C39.086 92.08 39.2547 92.3807 39.46 92.674C39.6653 92.9673 39.9147 93.2753 40.208 93.598C40.3987 93.818 40.6187 94.06 40.868 94.324C41.132 94.5733 41.4033 94.8373 41.682 95.116C41.9607 95.38 42.2393 95.6513 42.518 95.93C42.8113 96.194 43.0973 96.4507 43.376 96.7L41.594 98.548C41.1247 98.108 40.6553 97.6607 40.186 97.206C39.7167 96.7367 39.2767 96.2893 38.866 95.864C38.426 95.4093 38.0593 95.0207 37.766 94.698C37.4873 94.3607 37.3113 94.104 37.238 93.928H37.194C37.0913 94.1333 36.8787 94.4267 36.556 94.808C36.2333 95.1893 35.8887 95.5707 35.522 95.952C35.1113 96.3773 34.686 96.8173 34.246 97.272C33.806 97.712 33.278 98.2107 32.662 98.768L30.836 96.898C32.0387 95.8273 33.124 94.764 34.092 93.708C34.4147 93.3413 34.686 93.004 34.906 92.696C35.126 92.388 35.302 92.08 35.434 91.772C35.566 91.4493 35.654 91.1193 35.698 90.782C35.7567 90.43 35.786 90.034 35.786 89.594V87.9H31.474V85.524ZM47.864 103.168H45.07V82.708H47.864V103.168ZM66.6774 89.968H69.4934V92.388H66.6774V103.168H63.8834V82.708H66.6774V89.968ZM56.2714 98.35C55.3474 98.35 54.5554 98.2033 53.8954 97.91C53.2354 97.6167 52.6854 97.206 52.2454 96.678C51.8201 96.15 51.5048 95.5267 51.2994 94.808C51.1088 94.0893 51.0134 93.2973 51.0134 92.432V89.99C51.0134 89.1393 51.1088 88.3547 51.2994 87.636C51.5048 86.9027 51.8201 86.272 52.2454 85.744C52.6854 85.216 53.2354 84.8053 53.8954 84.512C54.5554 84.2187 55.3474 84.072 56.2714 84.072C57.1954 84.072 57.9874 84.2187 58.6474 84.512C59.3074 84.8053 59.8501 85.216 60.2754 85.744C60.7154 86.272 61.0308 86.9027 61.2214 87.636C61.4268 88.3547 61.5294 89.1393 61.5294 89.99V92.432C61.5294 93.2973 61.4268 94.0893 61.2214 94.808C61.0308 95.5267 60.7154 96.15 60.2754 96.678C59.8501 97.206 59.3074 97.6167 58.6474 97.91C57.9874 98.2033 57.1954 98.35 56.2714 98.35ZM56.2714 86.514C55.3474 86.514 54.6801 86.8367 54.2694 87.482C53.8734 88.1273 53.6754 89.0733 53.6754 90.32V92.102C53.6754 93.3487 53.8734 94.2947 54.2694 94.94C54.6801 95.5853 55.3474 95.908 56.2714 95.908C57.1954 95.908 57.8554 95.5853 58.2514 94.94C58.6621 94.2947 58.8674 93.3487 58.8674 92.102V90.32C58.8674 89.0733 58.6621 88.1273 58.2514 87.482C57.8554 86.8367 57.1954 86.514 56.2714 86.514ZM81.0029 94.896V98.24H88.9889V100.594H70.2449V98.24H78.2309V94.896H72.7749V84.116H75.5469V87.394H83.6869V84.116H86.4589V94.896H81.0029ZM83.6869 92.564V89.748H75.5469V92.564H83.6869ZM94.0303 95.974H107.032V103.19H94.0303V95.974ZM96.0763 94.896C95.299 94.896 94.6096 94.8153 94.0083 94.654C93.407 94.478 92.901 94.2433 92.4903 93.95C92.0796 93.6567 91.7643 93.3047 91.5443 92.894C91.3243 92.4833 91.2143 92.0433 91.2143 91.574V90.914C91.2143 90.4447 91.3243 90.012 91.5443 89.616C91.7643 89.2053 92.0796 88.8533 92.4903 88.56C92.901 88.252 93.407 88.0173 94.0083 87.856C94.6096 87.68 95.299 87.592 96.0763 87.592C96.839 87.592 97.521 87.68 98.1223 87.856C98.7383 88.0173 99.2516 88.252 99.6623 88.56C100.073 88.8533 100.388 89.2053 100.608 89.616C100.828 90.012 100.938 90.4447 100.938 90.914V91.574C100.938 92.0433 100.828 92.4833 100.608 92.894C100.388 93.3047 100.073 93.6567 99.6623 93.95C99.2516 94.2433 98.7383 94.478 98.1223 94.654C97.521 94.8153 96.839 94.896 96.0763 94.896ZM104.26 91.398H101.796V89.022H104.26V82.708H107.032V95.05H104.26V91.398ZM97.4403 84.644H101.972V86.954H90.1803V84.644H94.6683V82.444H97.4403V84.644ZM96.7803 100.924H104.282V98.24H96.7803V100.924ZM96.0763 89.748C95.3283 89.748 94.7636 89.8873 94.3823 90.166C94.0156 90.43 93.8323 90.7233 93.8323 91.046V91.442C93.8323 91.7647 94.0156 92.0653 94.3823 92.344C94.7636 92.608 95.3283 92.74 96.0763 92.74C96.8243 92.74 97.3816 92.608 97.7483 92.344C98.1296 92.0653 98.3203 91.7647 98.3203 91.442V91.046C98.3203 90.7233 98.1296 90.43 97.7483 90.166C97.3816 89.8873 96.8243 89.748 96.0763 89.748Z" fill="#212121"/>
<path d="M41.152 128.24V113.488H42.736V128.24H41.152ZM31.584 124.368V114.688H33.152V118.176H36.88V114.688H38.448V124.368H31.584ZM33.152 123.008H36.88V119.52H33.152V123.008ZM56.5145 123.248V128.272H46.8505V123.248H48.4185V124.4H54.9465V123.248H56.5145ZM51.6825 120.704C51.0425 120.704 50.4505 120.661 49.9065 120.576C49.3625 120.491 48.8932 120.368 48.4985 120.208C48.1038 120.037 47.7945 119.835 47.5705 119.6C47.3465 119.355 47.2345 119.072 47.2345 118.752V118.32C47.2345 118 47.3465 117.717 47.5705 117.472C47.7945 117.227 48.1038 117.024 48.4985 116.864C48.8932 116.693 49.3625 116.565 49.9065 116.48C50.4505 116.395 51.0425 116.352 51.6825 116.352C52.3225 116.352 52.9145 116.395 53.4585 116.48C54.0025 116.565 54.4718 116.693 54.8665 116.864C55.2612 117.024 55.5705 117.227 55.7945 117.472C56.0185 117.717 56.1305 118 56.1305 118.32V118.752C56.1305 119.072 56.0185 119.355 55.7945 119.6C55.5705 119.835 55.2612 120.037 54.8665 120.208C54.4718 120.368 54.0025 120.491 53.4585 120.576C52.9145 120.661 52.3225 120.704 51.6825 120.704ZM58.4505 121.28V122.592H44.9145V121.28H58.4505ZM46.3065 114.576H50.8825V113.216H52.4665V114.576H57.0585V115.872H46.3065V114.576ZM51.6825 117.616C50.7758 117.616 50.0665 117.696 49.5545 117.856C49.0532 118.005 48.8025 118.208 48.8025 118.464V118.592C48.8025 118.848 49.0532 119.056 49.5545 119.216C50.0665 119.365 50.7758 119.44 51.6825 119.44C52.5892 119.44 53.2932 119.365 53.7945 119.216C54.3065 119.056 54.5625 118.848 54.5625 118.592V118.464C54.5625 118.208 54.3065 118.005 53.7945 117.856C53.2932 117.696 52.5892 117.616 51.6825 117.616ZM54.9465 126.928V125.696H48.4185V126.928H54.9465ZM63.301 114.016C63.909 114.016 64.4423 114.117 64.901 114.32C65.3597 114.523 65.7437 114.789 66.053 115.12C66.373 115.44 66.6077 115.803 66.757 116.208C66.917 116.613 66.997 117.013 66.997 117.408V118.224C66.997 118.619 66.917 119.019 66.757 119.424C66.6077 119.829 66.373 120.197 66.053 120.528C65.7437 120.848 65.3597 121.109 64.901 121.312C64.4423 121.515 63.909 121.616 63.301 121.616C62.693 121.616 62.1597 121.515 61.701 121.312C61.2423 121.109 60.853 120.848 60.533 120.528C60.2237 120.197 59.989 119.829 59.829 119.424C59.6797 119.019 59.605 118.619 59.605 118.224V117.408C59.605 117.013 59.6797 116.613 59.829 116.208C59.989 115.803 60.2237 115.44 60.533 115.12C60.853 114.789 61.2423 114.523 61.701 114.32C62.1597 114.117 62.693 114.016 63.301 114.016ZM70.085 124.016V120.368H67.765V119.008H70.085V116.816H67.765V115.456H70.085V113.488H71.637V124.016H70.085ZM64.005 126.704H71.989V128.08H62.421V123.184H64.005V126.704ZM63.301 120.224C63.653 120.224 63.9623 120.16 64.229 120.032C64.5063 119.904 64.7357 119.744 64.917 119.552C65.109 119.349 65.253 119.12 65.349 118.864C65.445 118.608 65.493 118.352 65.493 118.096V117.536C65.493 117.28 65.445 117.024 65.349 116.768C65.253 116.512 65.109 116.288 64.917 116.096C64.7357 115.893 64.5063 115.728 64.229 115.6C63.9623 115.472 63.653 115.408 63.301 115.408C62.949 115.408 62.6343 115.472 62.357 115.6C62.0903 115.728 61.861 115.893 61.669 116.096C61.4877 116.288 61.349 116.512 61.253 116.768C61.157 117.024 61.109 117.28 61.109 117.536V118.096C61.109 118.352 61.157 118.608 61.253 118.864C61.349 119.12 61.4877 119.349 61.669 119.552C61.861 119.744 62.0903 119.904 62.357 120.032C62.6343 120.16 62.949 120.224 63.301 120.224ZM88.1995 128.24V113.488H89.7835V128.24H88.1995ZM82.1835 120.864C82.1088 121.045 81.9968 121.227 81.8475 121.408C81.7088 121.589 81.5115 121.819 81.2555 122.096C80.9248 122.459 80.5462 122.853 80.1195 123.28C79.6928 123.696 79.2075 124.155 78.6635 124.656L77.6235 123.584C78.5942 122.72 79.4368 121.893 80.1515 121.104C80.3968 120.827 80.5995 120.571 80.7595 120.336C80.9195 120.101 81.0422 119.872 81.1275 119.648C81.2235 119.413 81.2875 119.179 81.3195 118.944C81.3622 118.699 81.3835 118.432 81.3835 118.144V114.544H82.9835V118.144C82.9835 118.464 83.0048 118.752 83.0475 119.008C83.0902 119.253 83.1595 119.493 83.2555 119.728C83.3515 119.952 83.4795 120.181 83.6395 120.416C83.8102 120.64 84.0182 120.885 84.2635 121.152C84.6048 121.525 84.9622 121.893 85.3355 122.256C85.7088 122.608 86.1355 122.997 86.6155 123.424L85.5915 124.512C85.0368 124 84.5675 123.557 84.1835 123.184C83.8102 122.8 83.4688 122.443 83.1595 122.112C82.9355 121.867 82.7328 121.637 82.5515 121.424C82.3808 121.211 82.2635 121.024 82.1995 120.864H82.1835ZM104.922 116.688H101.738C101.738 116.891 101.743 117.083 101.754 117.264C101.775 117.445 101.813 117.621 101.866 117.792C101.93 117.963 102.015 118.128 102.122 118.288C102.239 118.448 102.389 118.603 102.57 118.752C103.349 119.392 104.266 120.027 105.322 120.656L104.442 121.808C103.962 121.509 103.509 121.205 103.082 120.896C102.666 120.587 102.261 120.277 101.866 119.968C101.621 119.776 101.434 119.627 101.306 119.52C101.178 119.403 101.082 119.285 101.018 119.168H101.002C100.949 119.296 100.831 119.461 100.65 119.664C100.469 119.856 100.25 120.059 99.994 120.272C99.6527 120.56 99.2473 120.88 98.778 121.232C98.3087 121.584 97.818 121.931 97.306 122.272L96.362 121.104C96.9273 120.752 97.45 120.395 97.93 120.032C98.4207 119.659 98.8207 119.339 99.13 119.072C99.5353 118.709 99.802 118.336 99.93 117.952C100.069 117.568 100.143 117.147 100.154 116.688H96.922V115.328H100.154V113.584H101.738V115.328H104.922V116.688ZM106.714 128.24V113.488H108.282V128.24H106.714ZM105.914 124.944C105.242 125.008 104.554 125.067 103.85 125.12C103.146 125.163 102.399 125.2 101.61 125.232C100.831 125.264 99.994 125.291 99.098 125.312C98.2127 125.323 97.2473 125.328 96.202 125.328V123.952C96.938 123.963 97.626 123.968 98.266 123.968C98.906 123.957 99.5193 123.947 100.106 123.936V121.536H101.722V123.888C102.458 123.856 103.151 123.819 103.802 123.776C104.463 123.733 105.119 123.68 105.77 123.616L105.914 124.944ZM123.068 128.24H121.516V120H119.772V127.52H118.22V113.792H119.772V118.624H121.516V113.488H123.068V128.24ZM116.492 116.272H112.412V122.912H113.228C113.591 122.912 113.932 122.907 114.252 122.896C114.572 122.885 114.887 122.869 115.196 122.848C115.506 122.827 115.826 122.8 116.156 122.768C116.487 122.725 116.839 122.672 117.212 122.608L117.372 123.936C116.956 124 116.567 124.059 116.204 124.112C115.842 124.155 115.484 124.192 115.132 124.224C114.78 124.245 114.423 124.261 114.06 124.272C113.708 124.283 113.324 124.288 112.908 124.288H110.812V114.896H116.492V116.272ZM129.135 116.432C129.306 116.197 129.492 115.973 129.695 115.76C129.908 115.547 130.148 115.365 130.415 115.216C130.692 115.056 130.996 114.933 131.327 114.848C131.668 114.752 132.058 114.704 132.495 114.704C133.028 114.704 133.508 114.773 133.935 114.912C134.362 115.051 134.724 115.248 135.023 115.504C135.332 115.749 135.567 116.053 135.727 116.416C135.898 116.768 135.983 117.157 135.983 117.584V117.744C135.983 117.968 135.956 118.208 135.903 118.464C135.85 118.72 135.754 118.965 135.615 119.2C135.476 119.435 135.29 119.653 135.055 119.856C134.82 120.059 134.527 120.224 134.175 120.352C134.954 120.491 135.535 120.8 135.919 121.28C136.314 121.76 136.511 122.336 136.511 123.008V123.248C136.511 123.675 136.431 124.091 136.271 124.496C136.122 124.891 135.882 125.248 135.551 125.568C135.231 125.877 134.815 126.123 134.303 126.304C133.791 126.496 133.183 126.592 132.479 126.592C131.807 126.592 131.156 126.485 130.527 126.272C129.908 126.069 129.327 125.749 128.783 125.312L129.567 124.048C130.132 124.453 130.634 124.741 131.071 124.912C131.508 125.072 131.978 125.152 132.479 125.152C132.895 125.152 133.258 125.104 133.567 125.008C133.876 124.901 134.132 124.763 134.335 124.592C134.538 124.421 134.687 124.224 134.783 124C134.879 123.765 134.927 123.52 134.927 123.264V123.056C134.927 122.672 134.863 122.357 134.735 122.112C134.618 121.856 134.452 121.653 134.239 121.504C134.026 121.355 133.77 121.248 133.471 121.184C133.183 121.12 132.874 121.088 132.543 121.088H131.119V119.712H132.479C132.842 119.712 133.146 119.659 133.391 119.552C133.636 119.435 133.834 119.285 133.983 119.104C134.132 118.923 134.239 118.715 134.303 118.48C134.378 118.245 134.415 118.005 134.415 117.76V117.632C134.415 117.376 134.362 117.157 134.255 116.976C134.159 116.784 134.026 116.624 133.855 116.496C133.684 116.368 133.482 116.272 133.247 116.208C133.012 116.144 132.767 116.112 132.511 116.112C132.031 116.112 131.615 116.203 131.263 116.384C130.911 116.565 130.58 116.859 130.271 117.264L129.135 116.432ZM146.485 122.944C146.485 123.371 146.41 123.803 146.261 124.24C146.111 124.667 145.877 125.056 145.557 125.408C145.237 125.76 144.821 126.043 144.309 126.256C143.797 126.48 143.183 126.592 142.469 126.592C141.679 126.592 140.965 126.485 140.325 126.272C139.685 126.069 139.093 125.749 138.549 125.312L139.333 124.048C139.887 124.485 140.415 124.779 140.917 124.928C141.429 125.077 141.957 125.152 142.501 125.152C142.917 125.152 143.274 125.088 143.573 124.96C143.882 124.832 144.133 124.667 144.325 124.464C144.527 124.251 144.671 124.011 144.757 123.744C144.853 123.477 144.901 123.211 144.901 122.944V122.752C144.901 121.984 144.698 121.413 144.293 121.04C143.887 120.656 143.317 120.464 142.581 120.464C142.09 120.464 141.653 120.555 141.269 120.736C140.895 120.917 140.581 121.131 140.325 121.376H139.109L139.477 114.88H145.733V116.24H140.917L140.741 119.84C140.997 119.648 141.322 119.483 141.717 119.344C142.122 119.205 142.565 119.136 143.045 119.136C143.589 119.136 144.074 119.232 144.501 119.424C144.927 119.605 145.285 119.861 145.573 120.192C145.871 120.512 146.095 120.891 146.245 121.328C146.405 121.755 146.485 122.213 146.485 122.704V122.944ZM150.122 126.4L157.018 114.88H158.442L151.562 126.4H150.122ZM150.778 114.704C151.589 114.704 152.224 114.944 152.682 115.424C153.152 115.904 153.386 116.565 153.386 117.408V118.08C153.386 118.923 153.152 119.584 152.682 120.064C152.224 120.544 151.589 120.784 150.778 120.784C149.968 120.784 149.328 120.544 148.858 120.064C148.4 119.584 148.17 118.923 148.17 118.08V117.408C148.17 116.565 148.4 115.904 148.858 115.424C149.328 114.944 149.968 114.704 150.778 114.704ZM150.778 119.696C151.685 119.696 152.138 119.147 152.138 118.048V117.44C152.138 116.341 151.685 115.792 150.778 115.792C149.872 115.792 149.418 116.341 149.418 117.44V118.048C149.418 119.147 149.872 119.696 150.778 119.696ZM157.802 120.464C158.613 120.464 159.248 120.704 159.706 121.184C160.176 121.664 160.41 122.325 160.41 123.168V123.84C160.41 124.683 160.176 125.344 159.706 125.824C159.248 126.304 158.613 126.544 157.802 126.544C156.992 126.544 156.352 126.304 155.882 125.824C155.424 125.344 155.194 124.683 155.194 123.84V123.168C155.194 122.325 155.424 121.664 155.882 121.184C156.352 120.704 156.992 120.464 157.802 120.464ZM157.802 125.456C158.709 125.456 159.162 124.907 159.162 123.808V123.2C159.162 122.101 158.709 121.552 157.802 121.552C156.896 121.552 156.442 122.101 156.442 123.2V123.808C156.442 124.907 156.896 125.456 157.802 125.456ZM168.211 128.336V124.656H175.731V123.52H168.131V122.24H177.267V125.904H169.747V127.056H177.683V128.336H168.211ZM170.035 121.376C169.395 121.376 168.851 121.312 168.403 121.184C167.966 121.045 167.614 120.869 167.347 120.656C167.081 120.432 166.889 120.187 166.771 119.92C166.654 119.653 166.595 119.387 166.595 119.12V118.8C166.595 118.533 166.654 118.267 166.771 118C166.889 117.733 167.081 117.493 167.347 117.28C167.614 117.056 167.966 116.88 168.403 116.752C168.851 116.613 169.395 116.544 170.035 116.544C170.675 116.544 171.214 116.613 171.651 116.752C172.099 116.891 172.457 117.067 172.723 117.28C172.99 117.493 173.182 117.733 173.299 118C173.417 118.267 173.475 118.533 173.475 118.8V119.12C173.475 119.387 173.417 119.653 173.299 119.92C173.182 120.187 172.99 120.432 172.723 120.656C172.457 120.869 172.099 121.045 171.651 121.184C171.214 121.312 170.675 121.376 170.035 121.376ZM179.363 118.208H177.267V121.504H175.699V113.488H177.267V116.832H179.363V118.208ZM174.259 116.032H165.795V114.72H169.251V113.2H170.819V114.72H174.259V116.032ZM170.035 120.128C170.398 120.128 170.702 120.091 170.947 120.016C171.203 119.941 171.406 119.851 171.555 119.744C171.705 119.637 171.811 119.525 171.875 119.408C171.95 119.28 171.987 119.163 171.987 119.056V118.864C171.987 118.757 171.955 118.645 171.891 118.528C171.827 118.4 171.715 118.283 171.555 118.176C171.406 118.069 171.203 117.979 170.947 117.904C170.702 117.829 170.398 117.792 170.035 117.792C169.662 117.792 169.353 117.829 169.107 117.904C168.862 117.979 168.659 118.069 168.499 118.176C168.35 118.283 168.243 118.4 168.179 118.528C168.115 118.645 168.083 118.757 168.083 118.864V119.056C168.083 119.163 168.115 119.28 168.179 119.408C168.254 119.525 168.366 119.637 168.515 119.744C168.665 119.851 168.862 119.941 169.107 120.016C169.363 120.091 169.673 120.128 170.035 120.128ZM184.614 126.704H192.55V128.08H183.03V123.184H184.614V126.704ZM190.678 124.016V113.488H192.246V124.016H190.678ZM186.518 117.52C186.518 117.275 186.475 117.029 186.39 116.784C186.305 116.539 186.171 116.32 185.99 116.128C185.819 115.925 185.595 115.765 185.318 115.648C185.051 115.52 184.726 115.456 184.342 115.456C183.958 115.456 183.627 115.52 183.35 115.648C183.073 115.765 182.843 115.925 182.662 116.128C182.491 116.32 182.363 116.539 182.278 116.784C182.203 117.029 182.166 117.275 182.166 117.52V118.224C182.166 118.469 182.209 118.715 182.294 118.96C182.379 119.205 182.507 119.429 182.678 119.632C182.859 119.824 183.083 119.984 183.35 120.112C183.627 120.229 183.958 120.288 184.342 120.288C184.726 120.288 185.051 120.229 185.318 120.112C185.595 119.984 185.819 119.824 185.99 119.632C186.171 119.429 186.305 119.205 186.39 118.96C186.475 118.715 186.518 118.469 186.518 118.224V117.52ZM180.646 117.456C180.646 117.093 180.721 116.715 180.87 116.32C181.019 115.915 181.249 115.547 181.558 115.216C181.867 114.885 182.251 114.613 182.71 114.4C183.169 114.187 183.713 114.08 184.342 114.08C184.961 114.08 185.499 114.187 185.958 114.4C186.427 114.613 186.817 114.885 187.126 115.216C187.435 115.547 187.665 115.915 187.814 116.32C187.963 116.715 188.038 117.093 188.038 117.456V118.288C188.038 118.651 187.963 119.035 187.814 119.44C187.665 119.835 187.435 120.197 187.126 120.528C186.817 120.859 186.427 121.131 185.958 121.344C185.499 121.557 184.961 121.664 184.342 121.664C183.713 121.664 183.169 121.557 182.71 121.344C182.251 121.131 181.867 120.859 181.558 120.528C181.249 120.197 181.019 119.835 180.87 119.44C180.721 119.035 180.646 118.651 180.646 118.288V117.456Z" fill="#757575"/>
</svg>
