<svg width="273" height="160" viewBox="0 0 273 160" fill="none" xmlns="http://www.w3.org/2000/svg">
<rect width="273" height="160" rx="26" fill="white"/>
<path d="M50.7 50.956C50.7 54.652 49.92 57.472 48.36 59.416C46.8 61.36 44.448 62.332 41.304 62.332C38.208 62.332 35.82 61.348 34.14 59.38C32.46 57.412 31.62 54.604 31.62 50.956V46.924C31.62 43.276 32.448 40.48 34.104 38.536C35.784 36.568 38.148 35.584 41.196 35.584C44.268 35.584 46.62 36.568 48.252 38.536C49.884 40.48 50.7 43.276 50.7 46.924V50.956ZM46.056 46.888C46.056 45.4 45.912 44.2 45.624 43.288C45.36 42.376 45 41.68 44.544 41.2C44.112 40.696 43.596 40.36 42.996 40.192C42.42 40.024 41.82 39.94 41.196 39.94C40.596 39.94 39.996 40.024 39.396 40.192C38.82 40.36 38.292 40.696 37.812 41.2C37.356 41.704 36.984 42.412 36.696 43.324C36.408 44.236 36.264 45.424 36.264 46.888V50.992C36.264 52.48 36.408 53.68 36.696 54.592C37.008 55.504 37.404 56.212 37.884 56.716C38.364 57.22 38.904 57.556 39.504 57.724C40.104 57.892 40.704 57.976 41.304 57.976C41.928 57.976 42.528 57.892 43.104 57.724C43.68 57.556 44.184 57.232 44.616 56.752C45.048 56.248 45.396 55.54 45.66 54.628C45.924 53.716 46.056 52.504 46.056 50.992V46.888ZM64.1322 61.936V41.164L58.2282 44.548L55.9962 40.804L64.6722 35.98H68.7402V61.936H64.1322Z" fill="#ECECEC"/>
<rect x="191" y="30" width="52" height="26" rx="13" fill="#F58220"/>
<path d="M210.112 42.842H205.926V47.364H204.134V37.27H205.926V41.358H210.112V37.27H211.904V47.364H210.112V42.842ZM217.935 37.116C218.504 37.116 219.046 37.2 219.559 37.368C220.082 37.5267 220.539 37.7833 220.931 38.138C221.323 38.4833 221.631 38.9313 221.855 39.482C222.088 40.0327 222.205 40.7 222.205 41.484V43.15C222.205 43.9433 222.088 44.62 221.855 45.18C221.631 45.7307 221.323 46.1787 220.931 46.524C220.548 46.8693 220.096 47.1213 219.573 47.28C219.06 47.4387 218.514 47.518 217.935 47.518C217.356 47.518 216.806 47.4387 216.283 47.28C215.77 47.1213 215.317 46.8693 214.925 46.524C214.542 46.1787 214.234 45.7307 214.001 45.18C213.777 44.62 213.665 43.9433 213.665 43.15V41.484C213.665 40.7 213.777 40.0327 214.001 39.482C214.234 38.9313 214.547 38.4833 214.939 38.138C215.331 37.7833 215.784 37.5267 216.297 37.368C216.82 37.2 217.366 37.116 217.935 37.116ZM217.935 45.88C218.28 45.88 218.602 45.838 218.901 45.754C219.2 45.6607 219.461 45.502 219.685 45.278C219.909 45.054 220.082 44.7507 220.203 44.368C220.334 43.9853 220.399 43.5047 220.399 42.926V41.708C220.399 41.1293 220.334 40.6487 220.203 40.266C220.082 39.8833 219.909 39.58 219.685 39.356C219.461 39.132 219.2 38.978 218.901 38.894C218.602 38.8007 218.28 38.754 217.935 38.754C217.599 38.754 217.282 38.8007 216.983 38.894C216.684 38.978 216.423 39.132 216.199 39.356C215.975 39.58 215.798 39.8833 215.667 40.266C215.536 40.6487 215.471 41.1293 215.471 41.708V42.926C215.471 43.5047 215.536 43.9853 215.667 44.368C215.798 44.7507 215.975 45.054 216.199 45.278C216.423 45.502 216.684 45.6607 216.983 45.754C217.282 45.838 217.599 45.88 217.935 45.88ZM230.576 37.27V38.782H227.622V47.364H225.83V38.782H222.862V37.27H230.576Z" fill="white"/>
<path d="M34.18 95.072H46.874V103.168H34.18V95.072ZM36.93 100.858H44.124V97.382H36.93V100.858ZM46.874 87.108H49.558V89.528H46.874V94.148H44.102V82.708H46.874V87.108ZM36.314 93.334C35.4927 93.334 34.7593 93.2093 34.114 92.96C33.4833 92.696 32.9407 92.3587 32.486 91.948C32.046 91.5227 31.7087 91.0387 31.474 90.496C31.2393 89.9387 31.122 89.3593 31.122 88.758V87.966C31.122 87.3793 31.2393 86.8073 31.474 86.25C31.7087 85.6927 32.046 85.2087 32.486 84.798C32.9407 84.3727 33.4833 84.0353 34.114 83.786C34.7593 83.522 35.4927 83.39 36.314 83.39C37.1207 83.39 37.8467 83.522 38.492 83.786C39.1373 84.0353 39.68 84.3727 40.12 84.798C40.5747 85.2087 40.9193 85.6927 41.154 86.25C41.3887 86.8073 41.506 87.3793 41.506 87.966V88.758C41.506 89.3593 41.3887 89.9387 41.154 90.496C40.9193 91.0387 40.5747 91.5227 40.12 91.948C39.68 92.3587 39.1373 92.696 38.492 92.96C37.8467 93.2093 37.1207 93.334 36.314 93.334ZM36.314 85.744C35.9033 85.744 35.5367 85.81 35.214 85.942C34.906 86.074 34.642 86.25 34.422 86.47C34.202 86.69 34.0333 86.9393 33.916 87.218C33.8133 87.482 33.762 87.7533 33.762 88.032V88.692C33.762 88.9707 33.8133 89.2493 33.916 89.528C34.0333 89.792 34.202 90.034 34.422 90.254C34.642 90.474 34.906 90.65 35.214 90.782C35.5367 90.914 35.9033 90.98 36.314 90.98C36.7247 90.98 37.084 90.914 37.392 90.782C37.7147 90.65 37.986 90.474 38.206 90.254C38.426 90.034 38.5873 89.792 38.69 89.528C38.8073 89.2493 38.866 88.9707 38.866 88.692V88.032C38.866 87.7533 38.8073 87.482 38.69 87.218C38.5873 86.9393 38.426 86.69 38.206 86.47C37.986 86.25 37.7147 86.074 37.392 85.942C37.084 85.81 36.7247 85.744 36.314 85.744ZM61.1994 94.896V98.24H69.1854V100.594H50.4414V98.24H58.4274V94.896H52.9714V84.116H55.7434V87.394H63.8834V84.116H66.6554V94.896H61.1994ZM63.8834 92.564V89.748H55.7434V92.564H63.8834ZM74.2269 95.974H87.2289V103.19H74.2269V95.974ZM76.2729 94.896C75.4955 94.896 74.8062 94.8153 74.2049 94.654C73.6035 94.478 73.0975 94.2433 72.6869 93.95C72.2762 93.6567 71.9609 93.3047 71.7409 92.894C71.5209 92.4833 71.4109 92.0433 71.4109 91.574V90.914C71.4109 90.4447 71.5209 90.012 71.7409 89.616C71.9609 89.2053 72.2762 88.8533 72.6869 88.56C73.0975 88.252 73.6035 88.0173 74.2049 87.856C74.8062 87.68 75.4955 87.592 76.2729 87.592C77.0355 87.592 77.7175 87.68 78.3189 87.856C78.9349 88.0173 79.4482 88.252 79.8589 88.56C80.2695 88.8533 80.5849 89.2053 80.8049 89.616C81.0249 90.012 81.1349 90.4447 81.1349 90.914V91.574C81.1349 92.0433 81.0249 92.4833 80.8049 92.894C80.5849 93.3047 80.2695 93.6567 79.8589 93.95C79.4482 94.2433 78.9349 94.478 78.3189 94.654C77.7175 94.8153 77.0355 94.896 76.2729 94.896ZM84.4569 91.398H81.9929V89.022H84.4569V82.708H87.2289V95.05H84.4569V91.398ZM77.6369 84.644H82.1689V86.954H70.3769V84.644H74.8649V82.444H77.6369V84.644ZM76.9769 100.924H84.4789V98.24H76.9769V100.924ZM76.2729 89.748C75.5249 89.748 74.9602 89.8873 74.5789 90.166C74.2122 90.43 74.0289 90.7233 74.0289 91.046V91.442C74.0289 91.7647 74.2122 92.0653 74.5789 92.344C74.9602 92.608 75.5249 92.74 76.2729 92.74C77.0209 92.74 77.5782 92.608 77.9449 92.344C78.3262 92.0653 78.5169 91.7647 78.5169 91.442V91.046C78.5169 90.7233 78.3262 90.43 77.9449 90.166C77.5782 89.8873 77.0209 89.748 76.2729 89.748Z" fill="#212121"/>
<path d="M42.16 122.496V128.224H33.168V122.496H42.16ZM38.24 117.888C38.24 118.208 38.1653 118.555 38.016 118.928C37.8773 119.301 37.6587 119.648 37.36 119.968C37.0613 120.288 36.6773 120.555 36.208 120.768C35.7493 120.971 35.2053 121.072 34.576 121.072C33.9467 121.072 33.3973 120.971 32.928 120.768C32.4693 120.555 32.0907 120.288 31.792 119.968C31.4933 119.648 31.2693 119.301 31.12 118.928C30.9813 118.555 30.912 118.208 30.912 117.888V117.2C30.912 116.88 30.9813 116.533 31.12 116.16C31.2693 115.787 31.4933 115.44 31.792 115.12C32.0907 114.8 32.4693 114.539 32.928 114.336C33.3973 114.123 33.9467 114.016 34.576 114.016C35.2053 114.016 35.7493 114.123 36.208 114.336C36.6773 114.539 37.0613 114.8 37.36 115.12C37.6587 115.44 37.8773 115.787 38.016 116.16C38.1653 116.533 38.24 116.88 38.24 117.2V117.888ZM34.736 126.88H40.592V123.84H34.736V126.88ZM44.256 118.24H42.16V121.776H40.592V113.488H42.16V116.864H44.256V118.24ZM36.72 117.28C36.72 117.067 36.672 116.848 36.576 116.624C36.4907 116.4 36.3573 116.197 36.176 116.016C35.9947 115.835 35.7707 115.685 35.504 115.568C35.2373 115.451 34.928 115.392 34.576 115.392C34.224 115.392 33.9147 115.451 33.648 115.568C33.3813 115.685 33.1573 115.835 32.976 116.016C32.7947 116.197 32.656 116.4 32.56 116.624C32.4747 116.848 32.432 117.067 32.432 117.28V117.808C32.432 118.021 32.4747 118.24 32.56 118.464C32.656 118.688 32.7947 118.891 32.976 119.072C33.1573 119.253 33.3813 119.403 33.648 119.52C33.9147 119.637 34.224 119.696 34.576 119.696C34.928 119.696 35.2373 119.637 35.504 119.52C35.7707 119.403 35.9947 119.253 36.176 119.072C36.3573 118.891 36.4907 118.688 36.576 118.464C36.672 118.24 36.72 118.021 36.72 117.808V117.28ZM53.6025 119.232C53.5492 119.371 53.4158 119.557 53.2025 119.792C52.9998 120.027 52.7758 120.256 52.5305 120.48C52.1892 120.789 51.7998 121.109 51.3625 121.44C50.9358 121.771 50.4985 122.091 50.0505 122.4L49.1225 121.264C49.6345 120.901 50.1252 120.544 50.5945 120.192C51.0638 119.829 51.4372 119.515 51.7145 119.248C51.9065 119.067 52.0665 118.885 52.1945 118.704C52.3332 118.523 52.4398 118.336 52.5145 118.144C52.5998 117.941 52.6585 117.723 52.6905 117.488C52.7332 117.253 52.7545 116.992 52.7545 116.704V115.792H49.6185V114.432H57.3145V115.792H54.3545V116.64C54.3545 117.152 54.4078 117.579 54.5145 117.92C54.6212 118.251 54.8452 118.565 55.1865 118.864C55.5705 119.205 55.9758 119.536 56.4025 119.856C56.8292 120.165 57.2772 120.475 57.7465 120.784L56.8505 121.936C56.4345 121.648 56.0398 121.365 55.6665 121.088C55.2932 120.8 54.9145 120.496 54.5305 120.176C54.2852 119.973 54.0825 119.797 53.9225 119.648C53.7732 119.488 53.6718 119.349 53.6185 119.232H53.6025ZM53.3465 126.704H61.2825V128.08H51.7625V123.104H53.3465V126.704ZM59.4105 124V113.488H60.9785V124H59.4105ZM72.053 121.12C71.4877 121.195 70.9597 121.253 70.469 121.296C69.9783 121.339 69.4343 121.376 68.837 121.408C68.2397 121.429 67.5463 121.445 66.757 121.456C65.9677 121.467 64.997 121.472 63.845 121.472V114.448H70.677V115.808H65.397V120.112C66.2183 120.112 66.9117 120.107 67.477 120.096C68.053 120.085 68.5757 120.069 69.045 120.048C69.5143 120.027 69.9677 120 70.405 119.968C70.8423 119.925 71.3383 119.872 71.893 119.808L72.053 121.12ZM76.901 118.704H74.805V124.016H73.237V113.488H74.805V117.328H76.901V118.704ZM67.381 126.704H75.205V128.08H65.797V123.184H67.381V126.704ZM88.1995 128.24V113.488H89.7835V128.24H88.1995ZM78.6315 124.368V114.688H80.1995V118.176H83.9275V114.688H85.4955V124.368H78.6315ZM80.1995 123.008H83.9275V119.52H80.1995V123.008ZM105.498 120.944V122.288H91.962V120.944H105.498ZM95.498 126.704H103.834V128.08H93.914V123.632H95.498V126.704ZM95.578 114.064V117.904H103.562V119.248H94.01V114.064H95.578ZM112.14 128.336V124.672H120.236V123.584H112.06V122.288H116.172V120.896H110.204V119.584H123.74V120.896H117.772V122.288H121.788V125.936H113.692V127.04H122.22V128.336H112.14ZM121.772 118.576H112.172V113.824H121.772V118.576ZM120.22 115.136H113.724V117.264H120.22V115.136ZM138.143 121.92V123.232H124.607V121.92H130.575V120.496H126.559V116.624H134.559V115.328H126.479V114.032H136.111V117.872H128.111V119.2H136.399V120.496H132.175V121.92H138.143ZM128.143 126.72H136.479V128.096H126.559V124.176H128.143V126.72ZM147.778 121.216C147.703 121.397 147.591 121.584 147.442 121.776C147.292 121.968 147.09 122.203 146.834 122.48C146.503 122.843 146.135 123.232 145.73 123.648C145.324 124.053 144.85 124.507 144.306 125.008L143.266 123.936C143.746 123.499 144.183 123.083 144.578 122.688C144.983 122.293 145.367 121.893 145.73 121.488C145.996 121.2 146.21 120.939 146.37 120.704C146.53 120.469 146.652 120.24 146.738 120.016C146.823 119.792 146.882 119.563 146.914 119.328C146.946 119.093 146.962 118.827 146.962 118.528V117.008H143.666V115.632H146.962V113.536H148.562V115.632H151.73V117.008H148.562V118.528C148.562 118.848 148.578 119.125 148.61 119.36C148.642 119.595 148.7 119.819 148.786 120.032C148.882 120.245 149.015 120.469 149.186 120.704C149.356 120.928 149.586 121.195 149.874 121.504C150.215 121.877 150.562 122.235 150.914 122.576C151.276 122.917 151.698 123.296 152.178 123.712L151.138 124.784C150.594 124.283 150.14 123.856 149.778 123.504C149.415 123.141 149.079 122.795 148.77 122.464C148.546 122.219 148.343 121.989 148.162 121.776C147.98 121.563 147.858 121.376 147.794 121.216H147.778ZM153.634 128.24V113.488H155.218V128.24H153.634ZM159.156 122.4V117.84H167.252V116H159.092V114.656H168.82V119.184H160.724V121.056H169.172V122.4H167.06V124.928H170.788V126.272H157.252V124.928H161.108V122.4H159.156ZM162.66 124.928H165.508V122.4H162.66V124.928ZM182.295 128.24V113.488H183.879V128.24H182.295ZM172.727 124.368V114.688H174.295V118.176H178.023V114.688H179.591V124.368H172.727ZM174.295 123.008H178.023V119.52H174.295V123.008ZM197.721 128.24H196.185V113.488H197.721V118.944H199.881V120.32H197.721V128.24ZM189.961 124.512C190.43 123.957 190.825 123.472 191.145 123.056C191.476 122.629 191.753 122.245 191.977 121.904C192.201 121.563 192.377 121.253 192.505 120.976C192.633 120.688 192.729 120.4 192.793 120.112C192.868 119.813 192.91 119.499 192.921 119.168C192.942 118.837 192.953 118.464 192.953 118.048V116.224H191.129V114.864H194.441V118.08C194.441 118.592 194.43 119.045 194.409 119.44C194.388 119.835 194.34 120.203 194.265 120.544C194.201 120.875 194.094 121.205 193.945 121.536C193.806 121.856 193.609 122.208 193.353 122.592C193.108 122.965 192.798 123.381 192.425 123.84C192.052 124.299 191.598 124.837 191.065 125.456L189.961 124.512ZM185.993 123.152C186.452 122.672 186.841 122.251 187.161 121.888C187.492 121.515 187.764 121.179 187.977 120.88C188.201 120.571 188.372 120.283 188.489 120.016C188.617 119.749 188.713 119.472 188.777 119.184C188.852 118.896 188.894 118.592 188.905 118.272C188.926 117.941 188.937 117.568 188.937 117.152V116.224H186.569V114.864H190.457V117.184C190.457 117.696 190.446 118.149 190.425 118.544C190.404 118.928 190.356 119.291 190.281 119.632C190.217 119.963 190.11 120.283 189.961 120.592C189.812 120.891 189.609 121.216 189.353 121.568C189.108 121.909 188.798 122.288 188.425 122.704C188.052 123.12 187.598 123.6 187.065 124.144L185.993 123.152ZM205.371 120.976C205.297 121.157 205.185 121.344 205.035 121.536C204.886 121.728 204.683 121.963 204.427 122.24C204.097 122.603 203.729 122.992 203.323 123.408C202.918 123.813 202.443 124.267 201.899 124.768L200.859 123.696C201.339 123.259 201.777 122.843 202.171 122.448C202.577 122.053 202.961 121.653 203.323 121.248C203.59 120.96 203.803 120.699 203.963 120.464C204.123 120.229 204.246 120 204.331 119.776C204.417 119.552 204.475 119.323 204.507 119.088C204.539 118.853 204.555 118.587 204.555 118.288V116.192H201.387V114.816H209.243V116.192H206.155V118.288C206.155 118.608 206.171 118.885 206.203 119.12C206.235 119.355 206.294 119.579 206.379 119.792C206.475 120.005 206.609 120.229 206.779 120.464C206.95 120.688 207.179 120.955 207.467 121.264C207.809 121.637 208.155 121.995 208.507 122.336C208.87 122.677 209.291 123.056 209.771 123.472L208.731 124.544C208.187 124.043 207.734 123.616 207.371 123.264C207.009 122.901 206.673 122.555 206.363 122.224C206.139 121.979 205.937 121.749 205.755 121.536C205.574 121.323 205.451 121.136 205.387 120.976H205.371ZM211.243 128.24V113.488H212.827V128.24H211.243ZM215.838 125.232H217.662V127.072H215.838V125.232ZM216.078 123.584L215.854 114.256H217.646L217.422 123.584H216.078Z" fill="#757575"/>
</svg>
