<svg width="479" height="485" viewBox="0 0 479 485" fill="none" xmlns="http://www.w3.org/2000/svg">
<path d="M99.9111 45.3856L107.911 37.3857L115.911 45.3856L107.911 53.3855L99.9111 45.3856Z" fill="#A6B1C0"/>
<path d="M477.74 244.574C477.74 376.801 371.014 483.985 239.37 483.985C107.726 483.985 1 376.801 1 244.574C1 112.347 107.726 5.16309 239.37 5.16309C371.014 5.16309 477.74 112.347 477.74 244.574Z" stroke="#A6B1C0" stroke-width="2"/>
<path d="M453.924 159.948L461.924 151.948L469.924 159.948L461.924 167.948L453.924 159.948Z" fill="#102E56"/>
<path d="M432.948 372.259L440.948 364.259L448.948 372.259L440.948 380.259L432.948 372.259Z" fill="#102E56"/>
<path d="M47.71 397.236L55.7099 389.236L63.7098 397.236L55.7099 405.236L47.71 397.236Z" fill="#102E56"/>
<path d="M270.592 7.9999L278.592 0L286.592 7.9999L278.592 15.9998L270.592 7.9999Z" fill="#102E56"/>
<path d="M404.599 79.073L413.479 72.0627L420.49 80.9425L411.61 87.9529L404.599 79.073Z" fill="#102E56"/>
<path d="M398.113 72.8855L406.993 65.8752L414.003 74.755L405.123 81.7654L398.113 72.8855Z" fill="#102E56"/>
<path d="M415.611 93.1785L424.491 86.1681L431.501 95.048L422.621 102.058L415.611 93.1785Z" fill="#102E56"/>
<path d="M22.8145 128.725L30.8144 120.726L38.8143 128.725L30.8144 136.725L22.8145 128.725Z" fill="#102E56"/>
<path d="M305.979 16.3261L313.978 8.32617L321.978 16.3261L313.978 24.326L305.979 16.3261Z" fill="#102E56"/>
</svg>
