<svg width="161" height="17" viewBox="0 0 161 17" fill="none" xmlns="http://www.w3.org/2000/svg">
<path d="M12.2012 0.121094V3.91797H14.3281V5.74609H12.2012V9.38477H9.91602V0.121094H12.2012ZM6.92773 9.66602C10.2148 9.66602 12.3242 10.8613 12.3242 12.8652C12.3242 14.9219 10.2148 16.1172 6.92773 16.1172C3.57031 16.1172 1.44336 14.9219 1.44336 12.8652C1.44336 10.8613 3.57031 9.66602 6.92773 9.66602ZM6.92773 11.4414C4.81836 11.4414 3.64062 11.9336 3.6582 12.8652C3.64062 13.832 4.81836 14.3418 6.92773 14.3418C8.94922 14.3418 10.1445 13.832 10.1445 12.8652C10.1445 11.9336 8.94922 11.4414 6.92773 11.4414ZM7.22656 1.19336V2.98633H2.26953V6.71289C5.23145 6.69531 6.85742 6.60742 8.65039 6.2207L8.84375 8.01367C6.875 8.45312 4.99414 8.50586 1.37305 8.52344H0.0371094V1.19336H7.22656ZM28.2458 0.138672V11.8105H25.9958V0.138672H28.2458ZM28.6677 14.043V15.8359H17.5231V10.6855H19.7907V14.043H28.6677ZM20.986 2.56445C20.9684 4.67383 22.0934 6.74805 24.7302 7.5918L23.5876 9.34961C21.7858 8.75195 20.5378 7.55664 19.8259 6.02734C19.1139 7.6709 17.8307 8.98926 15.9587 9.63086L14.7985 7.85547C17.488 6.95898 18.6481 4.72656 18.6481 2.56445V1.01758H20.986V2.56445ZM37.5228 0.349609C41.1966 0.349609 43.3236 1.31641 43.3412 3.07422C43.3236 4.84961 41.1966 5.81641 37.5228 5.81641C33.8314 5.81641 31.6869 4.84961 31.6869 3.07422C31.6869 1.31641 33.8314 0.349609 37.5228 0.349609ZM37.5228 1.98438C35.1673 1.98438 34.0248 2.37109 34.0423 3.07422C34.0248 3.86523 35.1673 4.16406 37.5228 4.16406C39.8959 4.16406 41.0209 3.86523 41.0209 3.07422C41.0209 2.37109 39.8959 1.98438 37.5228 1.98438ZM44.8177 6.57227V8.34766H30.2279V6.57227H44.8177ZM43.0423 9.2793V13.3574H34.1302V14.3242H43.4642V16.0117H31.933V11.793H40.8275V10.9141H31.9154V9.2793H43.0423ZM54.7937 0.789062C57.237 0.771484 59.0124 2.16016 59.0124 4.18164C59.0124 6.18555 57.237 7.5918 54.7937 7.57422C52.3503 7.5918 50.5749 6.18555 50.5925 4.18164C50.5749 2.16016 52.3503 0.771484 54.7937 0.789062ZM54.7937 2.58203C53.5984 2.58203 52.7546 3.16211 52.7546 4.18164C52.7546 5.18359 53.5984 5.76367 54.7937 5.74609C56.0241 5.76367 56.8855 5.18359 56.8855 4.18164C56.8855 3.16211 56.0241 2.58203 54.7937 2.58203ZM63.0554 0.138672V16.1172H60.8405V0.138672H63.0554ZM49.6081 8.55859C52.4382 8.55859 56.4636 8.48828 59.8737 7.97852L60.0144 9.63086C58.696 9.89453 57.3425 10.0615 56.0066 10.1582V15.6426H53.7741V10.2988C52.3679 10.3604 51.0407 10.3691 49.8894 10.3867L49.6081 8.55859ZM77.641 0.138672V5.04297H79.8031V6.87109H77.641V12.0742H75.391V0.138672H77.641ZM74.4418 1.80859V3.58398H64.9496V1.80859H68.5883V0.103516H70.8207V1.80859H74.4418ZM69.6957 4.14648C72.016 4.14648 73.6332 5.39453 73.6332 7.24023C73.6332 9.08594 72.016 10.2988 69.6957 10.2988C67.3578 10.2988 65.723 9.08594 65.723 7.24023C65.723 5.39453 67.3578 4.14648 69.6957 4.14648ZM69.6957 5.85156C68.6234 5.86914 67.9027 6.36133 67.9203 7.24023C67.9027 8.11914 68.6234 8.59375 69.6957 8.59375C70.768 8.59375 71.5062 8.11914 71.5062 7.24023C71.5062 6.36133 70.768 5.86914 69.6957 5.85156ZM78.2211 14.043V15.8359H67.2699V11.1602H69.5023V14.043H78.2211ZM97.7771 0.138672V11.8281H95.5447V6.60742H92.6795V4.76172H95.5447V0.138672H97.7771ZM92.8201 1.31641C92.8201 5.60547 90.0955 8.76953 85.4197 10.2285L84.5056 8.45312C87.8191 7.41602 89.9548 5.50879 90.3767 3.14453H85.3318V1.31641H92.8201ZM98.1814 14.043V15.8359H87.2302V10.6504H89.5154V14.043H98.1814ZM112.363 0.121094V3.88281H114.525V5.71094H112.363V9.40234H110.113V0.121094H112.363ZM107.898 1.17578C107.915 5.44727 105.226 8.43555 100.462 9.75391L99.5659 7.94336C103.09 7.00293 105.112 5.19238 105.455 2.96875H100.322V1.17578H107.898ZM107.142 9.5957C110.394 9.5957 112.539 10.8613 112.539 12.8652C112.539 14.8867 110.394 16.1348 107.142 16.1348C103.89 16.1348 101.71 14.8867 101.728 12.8652C101.71 10.8613 103.89 9.5957 107.142 9.5957ZM107.142 11.3359C105.121 11.3359 103.925 11.8809 103.943 12.8652C103.925 13.832 105.121 14.3945 107.142 14.377C109.128 14.3945 110.324 13.832 110.324 12.8652C110.324 11.8809 109.128 11.3359 107.142 11.3359ZM121.095 3.74219C121.095 6.74805 122.308 9.66602 124.98 10.8262L123.609 12.6191C121.833 11.749 120.647 10.1582 119.987 8.18945C119.284 10.2812 118.054 11.9951 116.226 12.9004L114.819 11.0723C117.562 9.8418 118.81 6.74805 118.827 3.74219V1.35156H121.095V3.74219ZM128.548 0.121094V16.1523H126.333V6.95898H123.187V5.14844H126.333V0.121094H128.548ZM143.819 0.121094V16.1523H141.552V0.121094H143.819ZM133.466 1.38672V5.28906H136.911V1.38672H139.126V12.4082H131.216V1.38672H133.466ZM133.466 10.5977H136.911V7.0293H133.466V10.5977ZM154.221 2.23047C154.221 4.56836 156.295 7.08203 159.916 7.69727L158.932 9.56055C156.146 9.00684 154.072 7.44238 153.043 5.37695C151.98 7.4248 149.906 8.99805 147.137 9.56055L146.17 7.69727C149.721 7.06445 151.813 4.55078 151.831 2.23047V1.07031H154.221V2.23047ZM160.444 12.3027V14.1484H145.801V12.3027H160.444Z" fill="#212121"/>
</svg>
