<svg width="177" height="17" viewBox="0 0 177 17" fill="none" xmlns="http://www.w3.org/2000/svg">
<path d="M13.0957 0.621094V6.75586H15.3633V8.60156H13.0957V16.582H10.8457V0.621094H13.0957ZM8.82422 2.25586C8.80664 7.03711 6.94336 11.1855 1.56445 13.8223L0.298828 12.0996C4.08691 10.2012 6.11719 7.65234 6.53906 4.08398H1.21289V2.25586H8.82422ZM29.1227 1.20117V2.97656H24.7458C25.0973 4.14551 26.7497 5.2793 29.8259 5.56055L29.0173 7.31836C26.0114 7.01953 23.9811 5.87695 23.1286 4.29492C22.2848 5.86816 20.2897 7.01953 17.2927 7.31836L16.5016 5.56055C19.5339 5.2793 21.1774 4.13672 21.529 2.97656H17.1872V1.20117H29.1227ZM30.4411 8.4082V10.2012H15.8512V8.4082H22.0212V6.31641H24.236V8.4082H30.4411ZM28.6657 11.3438V16.6172H26.4333V13.1367H17.4684V11.3438H28.6657ZM36.4134 1.69336C38.9447 1.67578 40.8431 3.32812 40.8431 5.61328C40.8431 7.91602 38.9447 9.55078 36.4134 9.55078C33.8822 9.55078 31.9662 7.91602 31.9662 5.61328C31.9662 3.32812 33.8822 1.67578 36.4134 1.69336ZM36.4134 3.62695C35.1478 3.62695 34.181 4.36523 34.1986 5.61328C34.181 6.87891 35.1478 7.59961 36.4134 7.59961C37.6791 7.59961 38.6459 6.87891 38.6634 5.61328C38.6459 4.36523 37.6966 3.62695 36.4134 3.62695ZM44.6752 0.621094V16.6523H42.4427V0.621094H44.6752ZM31.2982 11.5547C34.1459 11.5723 38.1009 11.5195 41.5287 11.0449L41.7045 12.6621C38.1537 13.3477 34.3568 13.3828 31.5619 13.3828L31.2982 11.5547ZM64.0554 0.638672V12.3281H61.823V7.10742H58.9577V5.26172H61.823V0.638672H64.0554ZM59.0984 1.81641C59.0984 6.10547 56.3737 9.26953 51.698 10.7285L50.7839 8.95312C54.0974 7.91602 56.2331 6.00879 56.655 3.64453H51.6101V1.81641H59.0984ZM64.4597 14.543V16.3359H53.5085V11.1504H55.7937V14.543H64.4597ZM78.641 0.621094V4.38281H80.8031V6.21094H78.641V9.90234H76.391V0.621094H78.641ZM74.1762 1.67578C74.1937 5.94727 71.5043 8.93555 66.7406 10.2539L65.8441 8.44336C69.3686 7.50293 71.39 5.69238 71.7328 3.46875H66.6V1.67578H74.1762ZM73.4203 10.0957C76.6723 10.0957 78.8168 11.3613 78.8168 13.3652C78.8168 15.3867 76.6723 16.6348 73.4203 16.6348C70.1684 16.6348 67.9887 15.3867 68.0062 13.3652C67.9887 11.3613 70.1684 10.0957 73.4203 10.0957ZM73.4203 11.8359C71.3988 11.8359 70.2035 12.3809 70.2211 13.3652C70.2035 14.332 71.3988 14.8945 73.4203 14.877C75.4066 14.8945 76.602 14.332 76.602 13.3652C76.602 12.3809 75.4066 11.8359 73.4203 11.8359ZM94.3692 7.77539V9.55078H89.7286V12.9609H95.9688V14.7891H81.3262V12.9609H87.4962V9.55078H83.0489V1.74609H94.2462V3.53906H85.2989V7.77539H94.3692ZM108.177 2.48438V4.22461H105.716C105.725 5.81543 106.639 7.38867 108.652 8.07422L107.65 9.72656C106.235 9.25195 105.277 8.35547 104.714 7.21289C104.152 8.49609 103.185 9.5332 101.726 10.0957L100.654 8.46094C102.684 7.65234 103.581 5.93848 103.589 4.22461H101.111V2.48438H103.589V0.902344H105.716V2.48438H108.177ZM114.417 0.638672V10.5H112.29V6.31641H111.007V9.99023H108.898V0.919922H111.007V4.52344H112.29V0.638672H114.417ZM108.951 10.6406C112.343 10.6406 114.488 11.7656 114.505 13.6641C114.488 15.5273 112.343 16.6172 108.951 16.6172C105.54 16.6172 103.414 15.5273 103.414 13.6641C103.414 11.7656 105.54 10.6406 108.951 10.6406ZM108.951 12.3457C106.859 12.3457 105.646 12.7852 105.664 13.6641C105.646 14.4902 106.859 14.9121 108.951 14.9121C111.025 14.9121 112.238 14.4902 112.238 13.6641C112.238 12.7852 111.025 12.3457 108.951 12.3457ZM124.239 2.29102C124.239 3.12598 124.178 3.94336 124.064 4.73438H127.298V0.603516H129.53V16.6172H127.298V10.8691H123.431V9.07617H127.298V6.50977H123.677C122.78 9.48047 120.785 12.0117 117.032 13.8574L115.872 12.082C119.704 10.1309 121.585 7.59082 121.954 4.04883H116.646V2.29102H124.239ZM146.014 9.44531V11.2383H139.792V16.6172H137.577V11.2383H131.425V9.44531H146.014ZM144.714 1.46484V3.22266H140.055C140.275 4.78711 142.042 6.36035 145.329 6.75586L144.52 8.51367C141.708 8.13574 139.695 6.93164 138.737 5.2793C137.753 6.93164 135.758 8.13574 132.971 8.51367L132.145 6.75586C135.38 6.36035 137.164 4.78711 137.419 3.22266H132.743V1.46484H144.714ZM151.934 4.64648C151.934 7.23047 152.655 9.90234 154.834 11.3086L153.622 13.0488C152.242 12.2139 151.363 10.8428 150.862 9.19922C150.282 11.0098 149.324 12.5215 147.874 13.4004L146.502 11.748C148.875 10.2715 149.754 7.45898 149.754 4.75195V1.99219H151.934V4.64648ZM160.67 0.621094V16.6172H158.526V0.621094H160.67ZM157.313 0.849609V15.8789H155.221V7.8457H153.147V6.01758H155.221V0.849609H157.313ZM176.82 12.9082V14.7539H162.178V12.9082H165.447V8.98828C164.208 8.25 163.461 7.11621 163.461 5.70117C163.461 3.11719 165.992 1.39453 169.473 1.39453C172.936 1.39453 175.485 3.11719 175.502 5.70117C175.493 7.08105 174.764 8.20605 173.569 8.95312V12.9082H176.82ZM169.473 3.16992C167.188 3.16992 165.676 4.08398 165.676 5.70117C165.676 7.26562 167.188 8.23242 169.473 8.23242C171.74 8.23242 173.27 7.26562 173.287 5.70117C173.27 4.08398 171.74 3.16992 169.473 3.16992ZM167.662 12.9082H171.301V9.79688C170.73 9.91113 170.114 9.97266 169.473 9.97266C168.831 9.97266 168.225 9.91992 167.662 9.79688V12.9082Z" fill="#212121"/>
</svg>
