<svg width="198" height="52" viewBox="0 0 198 52" fill="none" xmlns="http://www.w3.org/2000/svg">
<path d="M44.81 11.84V17.626H34.668V19.166H45.426V21.366H31.984V15.536H42.126V14.018H31.874V11.84H44.81ZM28.134 9.574C29.7033 9.002 30.9573 8.51067 31.896 8.1C32.8346 7.68933 33.5533 7.308 34.052 6.956C34.5653 6.58933 34.8953 6.22267 35.042 5.856C35.2033 5.47467 35.284 5.03467 35.284 4.536V3.854H28.992V1.522H38.056V4.866H42.038V0.708H44.81V10.916H42.038V7.154H37.506C37.2566 7.594 36.912 7.99733 36.472 8.364C36.0466 8.73067 35.4893 9.09 34.8 9.442C34.1253 9.794 33.3186 10.1533 32.38 10.52C31.4413 10.8867 30.3486 11.29 29.102 11.73L28.134 9.574ZM53.6574 16.35C52.7187 16.35 51.9121 16.2033 51.2374 15.91C50.5774 15.6167 50.0347 15.206 49.6094 14.678C49.1841 14.15 48.8687 13.5267 48.6634 12.808C48.4727 12.0893 48.3774 11.2973 48.3774 10.432V7.99C48.3774 7.13933 48.4727 6.35467 48.6634 5.636C48.8687 4.90267 49.1841 4.272 49.6094 3.744C50.0347 3.216 50.5774 2.80533 51.2374 2.512C51.9121 2.21867 52.7187 2.072 53.6574 2.072C54.5667 2.072 55.3514 2.21867 56.0114 2.512C56.6714 2.79067 57.2141 3.18667 57.6394 3.7C58.0647 4.19867 58.3801 4.8 58.5854 5.504C58.8054 6.19333 58.9227 6.94867 58.9374 7.77H62.1054V0.708H64.8994V21.168H62.1054V10.168H58.9374V10.432C58.9374 11.2973 58.8347 12.0893 58.6294 12.808C58.4387 13.5267 58.1307 14.15 57.7054 14.678C57.2801 15.206 56.7301 15.6167 56.0554 15.91C55.3954 16.2033 54.5961 16.35 53.6574 16.35ZM53.6574 4.514C52.7187 4.514 52.0441 4.83667 51.6334 5.482C51.2374 6.12733 51.0394 7.07333 51.0394 8.32V10.102C51.0394 11.3487 51.2374 12.2947 51.6334 12.94C52.0441 13.5853 52.7187 13.908 53.6574 13.908C54.5961 13.908 55.2634 13.5853 55.6594 12.94C56.0701 12.2947 56.2754 11.3487 56.2754 10.102V8.32C56.2754 7.07333 56.0701 6.12733 55.6594 5.482C55.2634 4.83667 54.5961 4.514 53.6574 4.514ZM77.8828 6.868H81.9088V0.708H84.7028V21.168H81.9088V9.288H77.8828V6.868ZM76.6068 11.004C77.0762 11.5173 77.5895 12.0527 78.1468 12.61C78.7042 13.1527 79.2688 13.6807 79.8408 14.194L78.0588 16.064C77.5602 15.5947 77.0762 15.1327 76.6068 14.678C76.1375 14.2087 75.6975 13.7613 75.2868 13.336C74.8615 12.9107 74.5022 12.5293 74.2088 12.192C73.9155 11.84 73.7322 11.5687 73.6588 11.378H73.6148C73.5415 11.5833 73.3362 11.884 72.9988 12.28C72.6762 12.6613 72.3315 13.0427 71.9648 13.424C71.5542 13.8493 71.1215 14.2893 70.6668 14.744C70.2122 15.184 69.6695 15.6973 69.0388 16.284L67.2128 14.392C68.4595 13.2773 69.5595 12.1993 70.5128 11.158C70.8355 10.806 71.0995 10.4687 71.3048 10.146C71.5248 9.82333 71.7008 9.49333 71.8328 9.156C71.9648 8.81867 72.0602 8.46667 72.1188 8.1C72.1775 7.73333 72.2068 7.32267 72.2068 6.868V2.16H75.0448V6.868C75.0448 7.308 75.0595 7.704 75.0888 8.056C75.1328 8.408 75.2135 8.74533 75.3308 9.068C75.4482 9.376 75.6022 9.69133 75.7928 10.014C75.9982 10.322 76.2695 10.652 76.6068 11.004ZM103.56 9.464H100.81V7.044H103.56V1.126H106.2V20.178H103.56V9.464ZM96.1463 2.336H98.8963V7.264C98.8963 7.68933 98.9183 8.07067 98.9623 8.408C99.0209 8.73067 99.1016 9.03867 99.2043 9.332C99.3216 9.61067 99.4609 9.88933 99.6223 10.168C99.7836 10.432 99.9816 10.7033 100.216 10.982C100.627 11.4953 101.074 12.0233 101.558 12.566C102.057 13.094 102.563 13.6147 103.076 14.128L101.25 15.822C100.282 14.8247 99.4683 13.9447 98.8083 13.182C98.1629 12.434 97.7816 11.9207 97.6643 11.642H97.6423C97.5836 11.8033 97.4443 12.038 97.2243 12.346C97.0189 12.6393 96.7769 12.9473 96.4983 13.27C96.3516 13.446 96.1756 13.6513 95.9703 13.886C95.7649 14.106 95.5376 14.348 95.2883 14.612C95.0536 14.876 94.8043 15.1473 94.5403 15.426C94.2909 15.69 94.0416 15.9393 93.7923 16.174L91.9223 14.37C92.3916 13.9007 92.8829 13.3873 93.3963 12.83C93.9096 12.2727 94.3789 11.73 94.8043 11.202C95.0683 10.8793 95.2809 10.5713 95.4423 10.278C95.6183 9.98467 95.7576 9.69133 95.8603 9.398C95.9629 9.10467 96.0363 8.78933 96.0803 8.452C96.1243 8.1 96.1463 7.704 96.1463 7.264V2.336ZM110.358 21.168H107.718V0.708H110.358V21.168ZM120.68 5.526H123.32V1.126H125.938V20.178H123.32V13.402H120.614V11.07H123.32V7.836H120.68C120.65 8.74533 120.54 9.552 120.35 10.256C120.174 10.9453 119.836 11.62 119.338 12.28C118.839 12.94 118.142 13.6367 117.248 14.37C116.368 15.0887 115.224 15.932 113.816 16.9L112.232 14.788C113.508 13.9373 114.527 13.2113 115.29 12.61C116.052 11.994 116.632 11.4073 117.028 10.85C117.424 10.2927 117.68 9.71333 117.798 9.112C117.93 8.51067 117.996 7.79933 117.996 6.978V5.086H112.782V2.688H120.68V5.526ZM130.14 21.168H127.5V0.708H130.14V21.168ZM138.129 16.35C137.205 16.35 136.413 16.2033 135.753 15.91C135.093 15.6167 134.543 15.206 134.103 14.678C133.678 14.15 133.362 13.5267 133.157 12.808C132.966 12.0893 132.871 11.2973 132.871 10.432V7.99C132.871 7.13933 132.966 6.35467 133.157 5.636C133.362 4.90267 133.678 4.272 134.103 3.744C134.543 3.216 135.093 2.80533 135.753 2.512C136.413 2.21867 137.205 2.072 138.129 2.072C139.434 2.072 140.476 2.358 141.253 2.93C142.045 3.502 142.61 4.272 142.947 5.24H146.621V0.708H149.393V21.168H146.621V13.16H142.969C142.632 14.1427 142.067 14.92 141.275 15.492C140.498 16.064 139.449 16.35 138.129 16.35ZM138.129 4.514C137.205 4.514 136.538 4.83667 136.127 5.482C135.731 6.12733 135.533 7.07333 135.533 8.32V10.102C135.533 11.3487 135.731 12.2947 136.127 12.94C136.538 13.5853 137.205 13.908 138.129 13.908C139.053 13.908 139.713 13.5853 140.109 12.94C140.52 12.2947 140.725 11.3487 140.725 10.102V8.32C140.725 7.07333 140.52 6.12733 140.109 5.482C139.713 4.83667 139.053 4.514 138.129 4.514ZM143.387 7.616V10.784H146.621V7.616H143.387ZM155.469 2.93V0.729999H158.153V2.93H161.387V5.24H151.817V2.93H155.469ZM156.811 13.138C156.121 13.138 155.505 13.05 154.963 12.874C154.435 12.698 153.987 12.4633 153.621 12.17C153.254 11.8767 152.968 11.5393 152.763 11.158C152.572 10.762 152.477 10.344 152.477 9.904V9.068C152.477 8.628 152.572 8.21733 152.763 7.836C152.968 7.44 153.254 7.09533 153.621 6.802C153.987 6.50867 154.435 6.274 154.963 6.098C155.505 5.922 156.121 5.834 156.811 5.834C157.485 5.834 158.094 5.922 158.637 6.098C159.179 6.274 159.634 6.50867 160.001 6.802C160.367 7.09533 160.646 7.44 160.837 7.836C161.042 8.21733 161.145 8.628 161.145 9.068V9.904C161.145 10.344 161.042 10.762 160.837 11.158C160.646 11.5393 160.367 11.8767 160.001 12.17C159.634 12.4633 159.179 12.698 158.637 12.874C158.094 13.05 157.485 13.138 156.811 13.138ZM156.811 7.946C156.195 7.946 155.725 8.08533 155.403 8.364C155.08 8.64267 154.919 8.958 154.919 9.31V9.662C154.919 10.014 155.08 10.3293 155.403 10.608C155.725 10.8867 156.195 11.026 156.811 11.026C157.427 11.026 157.896 10.8867 158.219 10.608C158.541 10.3293 158.703 10.014 158.703 9.662V9.31C158.703 8.958 158.541 8.64267 158.219 8.364C157.896 8.08533 157.427 7.946 156.811 7.946ZM165.061 5.79H166.711V0.708H169.351V13.512H166.711V8.188H165.061V12.654H162.443V0.971999H165.061V5.79ZM162.861 21.806C161.907 21.806 161.027 21.7253 160.221 21.564C159.429 21.4027 158.739 21.168 158.153 20.86C157.581 20.552 157.126 20.1707 156.789 19.716C156.466 19.2613 156.305 18.7407 156.305 18.154V17.274C156.305 16.6873 156.466 16.1667 156.789 15.712C157.126 15.2573 157.581 14.876 158.153 14.568C158.739 14.26 159.429 14.0253 160.221 13.864C161.027 13.7027 161.907 13.622 162.861 13.622C163.799 13.622 164.672 13.7027 165.479 13.864C166.285 14.0253 166.975 14.26 167.547 14.568C168.133 14.876 168.588 15.2573 168.911 15.712C169.248 16.1667 169.417 16.6873 169.417 17.274V18.154C169.417 18.7407 169.248 19.2613 168.911 19.716C168.588 20.1707 168.133 20.552 167.547 20.86C166.975 21.168 166.285 21.4027 165.479 21.564C164.672 21.7253 163.799 21.806 162.861 21.806ZM162.861 15.866C162.362 15.866 161.878 15.9027 161.409 15.976C160.954 16.0493 160.551 16.1593 160.199 16.306C159.847 16.438 159.561 16.6067 159.341 16.812C159.135 17.0173 159.033 17.2447 159.033 17.494V17.934C159.033 18.1833 159.135 18.4107 159.341 18.616C159.561 18.8213 159.847 18.99 160.199 19.122C160.551 19.2687 160.954 19.3787 161.409 19.452C161.878 19.5253 162.362 19.562 162.861 19.562C163.359 19.562 163.836 19.5253 164.291 19.452C164.76 19.3787 165.171 19.2687 165.523 19.122C165.875 18.99 166.153 18.8213 166.359 18.616C166.579 18.4107 166.689 18.1833 166.689 17.934V17.494C166.689 17.2447 166.579 17.0173 166.359 16.812C166.153 16.6067 165.875 16.438 165.523 16.306C165.171 16.1593 164.76 16.0493 164.291 15.976C163.836 15.9027 163.359 15.866 162.861 15.866ZM0.987523 41.29C2.14619 40.806 3.13619 40.3733 3.95752 39.992C4.79352 39.596 5.49019 39.2293 6.04752 38.892C6.61952 38.5547 7.07419 38.232 7.41152 37.924C7.74886 37.6013 8.00552 37.2713 8.18152 36.934C8.35752 36.582 8.47486 36.2153 8.53352 35.834C8.59219 35.438 8.62152 34.9907 8.62152 34.492V33.458H1.66952V32.094H10.1395V34.624C10.1395 34.8733 10.1322 35.1153 10.1175 35.35C10.1029 35.57 10.0809 35.7827 10.0515 35.988H15.2875V30.884H16.8275V42.214H15.2875V37.352H9.69952C9.49419 37.8067 9.20086 38.232 8.81952 38.628C8.43819 39.0093 7.92486 39.398 7.27952 39.794C6.64886 40.19 5.87152 40.6153 4.94752 41.07C4.02352 41.51 2.91619 42.0013 1.62552 42.544L0.987523 41.29ZM4.52952 43.402H16.8935V44.766H6.06952V49.584H17.2675V50.948H4.52952V43.402ZM36.499 50.992H34.937V30.884H36.499V50.992ZM20.989 45.162C22.6756 44.194 24.0176 43.3653 25.015 42.676C26.0123 41.972 26.7676 41.3193 27.281 40.718C27.7943 40.102 28.1243 39.486 28.271 38.87C28.4323 38.254 28.513 37.5353 28.513 36.714V34.184H21.209V32.776H30.031V36.736C30.031 37.4107 29.9943 38.0193 29.921 38.562C29.8476 39.1047 29.701 39.618 29.481 40.102C29.2756 40.586 28.9823 41.0553 28.601 41.51C28.2196 41.9647 27.721 42.4413 27.105 42.94C26.5036 43.4387 25.763 43.974 24.883 44.546C24.0176 45.1033 22.991 45.7267 21.803 46.416L20.989 45.162ZM49.7244 41.62H40.7484V32.138H49.7244V41.62ZM48.2284 33.502H42.2444V40.256H48.2284V33.502ZM55.5544 36.758H58.6344V38.122H55.5544V45.272H54.0144V30.884H55.5544V36.758ZM45.0824 49.386H56.1704V50.75H43.5204V44.128H45.0824V49.386ZM77.9538 38.584H80.7698V30.884H82.3098V50.992H80.7698V39.97H77.9538V50.002H76.4138V31.302H77.9538V38.584ZM70.0558 45.866C69.3518 45.866 68.7285 45.756 68.1858 45.536C67.6432 45.3013 67.1812 45.0007 66.7998 44.634C66.4332 44.2673 66.1545 43.8493 65.9638 43.38C65.7732 42.9107 65.6778 42.4267 65.6778 41.928V41.004C65.6778 40.5053 65.7732 40.0213 65.9638 39.552C66.1545 39.0827 66.4332 38.6647 66.7998 38.298C67.1812 37.9313 67.6432 37.638 68.1858 37.418C68.7285 37.1833 69.3518 37.066 70.0558 37.066C70.7598 37.066 71.3832 37.1833 71.9258 37.418C72.4685 37.638 72.9232 37.9313 73.2898 38.298C73.6712 38.6647 73.9572 39.0827 74.1478 39.552C74.3385 40.0213 74.4338 40.5053 74.4338 41.004V41.928C74.4338 42.412 74.3385 42.896 74.1478 43.38C73.9572 43.8493 73.6712 44.2673 73.2898 44.634C72.9232 45.0007 72.4685 45.3013 71.9258 45.536C71.3832 45.756 70.7598 45.866 70.0558 45.866ZM70.0558 38.43C69.6158 38.43 69.2125 38.5107 68.8458 38.672C68.4938 38.8187 68.1858 39.0167 67.9218 39.266C67.6725 39.5153 67.4818 39.8013 67.3498 40.124C67.2178 40.4467 67.1518 40.7767 67.1518 41.114V41.818C67.1518 42.1553 67.2178 42.4853 67.3498 42.808C67.4818 43.1307 67.6725 43.4167 67.9218 43.666C68.1858 43.9153 68.4938 44.1207 68.8458 44.282C69.2125 44.4287 69.6158 44.502 70.0558 44.502C70.4958 44.502 70.8918 44.4287 71.2438 44.282C71.6105 44.1207 71.9185 43.9153 72.1678 43.666C72.4318 43.4167 72.6298 43.1307 72.7618 42.808C72.8938 42.4853 72.9598 42.1553 72.9598 41.818V41.114C72.9598 40.7767 72.8938 40.4467 72.7618 40.124C72.6298 39.8013 72.4318 39.5153 72.1678 39.266C71.9185 39.0167 71.6105 38.8187 71.2438 38.672C70.8918 38.5107 70.4958 38.43 70.0558 38.43ZM64.9078 34.404H69.2638V31.456H70.8038V34.404H74.8738V35.768H64.9078V34.404ZM100.683 41.708H94.6553V46.812H103.125V48.154H84.6453V46.812H93.1153V41.708H87.3073V32.644H100.463V33.986H88.8693V40.366H100.683V41.708ZM121.565 37.616V31.302H123.105V50.002H121.565V39.024H117.891V37.616H121.565ZM113.931 32.49H115.493V37C115.493 37.528 115.507 37.9827 115.537 38.364C115.581 38.7307 115.654 39.068 115.757 39.376C115.859 39.684 115.999 39.9847 116.175 40.278C116.351 40.5713 116.578 40.894 116.857 41.246C117.223 41.7153 117.663 42.236 118.177 42.808C118.705 43.38 119.284 43.974 119.915 44.59L118.881 45.602C118.323 45.0447 117.788 44.48 117.275 43.908C116.776 43.336 116.336 42.8373 115.955 42.412C115.617 42.0307 115.339 41.686 115.119 41.378C114.913 41.0553 114.789 40.8353 114.745 40.718H114.723C114.693 40.8353 114.583 41.0407 114.393 41.334C114.202 41.6273 113.938 41.9793 113.601 42.39C113.19 42.874 112.721 43.3947 112.193 43.952C111.679 44.5093 111.071 45.14 110.367 45.844L109.311 44.81C109.633 44.502 109.956 44.1867 110.279 43.864C110.616 43.5267 110.924 43.204 111.203 42.896C111.496 42.588 111.76 42.2947 111.995 42.016C112.244 41.7373 112.457 41.488 112.633 41.268C112.897 40.9307 113.109 40.6153 113.271 40.322C113.447 40.014 113.579 39.6987 113.667 39.376C113.769 39.0533 113.835 38.7013 113.865 38.32C113.909 37.9387 113.931 37.4987 113.931 37V32.49ZM127.043 50.992H125.503V30.884H127.043V50.992ZM129.84 45.36C130.823 44.7 131.666 44.1133 132.37 43.6C133.074 43.072 133.661 42.588 134.13 42.148C134.614 41.6933 134.995 41.268 135.274 40.872C135.553 40.4613 135.765 40.0433 135.912 39.618C136.059 39.178 136.154 38.7087 136.198 38.21C136.242 37.6967 136.264 37.1173 136.264 36.472V34.272H130.214V32.886H137.782V36.01H141.28V31.302H142.82V50.002H141.28V42.61H137.782V41.246H141.28V37.374H137.76C137.731 38.3273 137.613 39.156 137.408 39.86C137.217 40.564 136.865 41.2533 136.352 41.928C135.839 42.588 135.127 43.2847 134.218 44.018C133.323 44.7367 132.15 45.5873 130.698 46.57L129.84 45.36ZM146.78 50.992H145.24V30.884H146.78V50.992ZM165.352 43.204C166.173 43.204 166.95 43.292 167.684 43.468C168.432 43.6293 169.084 43.8713 169.642 44.194C170.199 44.5167 170.639 44.9127 170.962 45.382C171.284 45.8367 171.446 46.35 171.446 46.922V47.78C171.446 48.352 171.284 48.8653 170.962 49.32C170.639 49.7893 170.199 50.1853 169.642 50.508C169.084 50.8307 168.432 51.08 167.684 51.256C166.95 51.432 166.173 51.52 165.352 51.52C164.53 51.52 163.746 51.432 162.998 51.256C162.264 51.08 161.619 50.8307 161.062 50.508C160.504 50.1853 160.064 49.7893 159.742 49.32C159.419 48.8653 159.258 48.352 159.258 47.78V46.922C159.258 46.3353 159.419 45.8147 159.742 45.36C160.064 44.8907 160.504 44.4947 161.062 44.172C161.619 43.8493 162.264 43.6073 162.998 43.446C163.746 43.2847 164.53 43.204 165.352 43.204ZM165.352 50.2C165.938 50.2 166.503 50.1413 167.046 50.024C167.603 49.9213 168.094 49.76 168.52 49.54C168.96 49.3347 169.304 49.078 169.554 48.77C169.818 48.4767 169.95 48.132 169.95 47.736V46.988C169.95 46.592 169.818 46.2473 169.554 45.954C169.304 45.646 168.96 45.3893 168.52 45.184C168.094 44.964 167.603 44.8027 167.046 44.7C166.503 44.5827 165.938 44.524 165.352 44.524C164.765 44.524 164.193 44.5827 163.636 44.7C163.093 44.8027 162.602 44.964 162.162 45.184C161.736 45.3893 161.392 45.646 161.128 45.954C160.878 46.2473 160.754 46.592 160.754 46.988V47.736C160.754 48.132 160.878 48.4767 161.128 48.77C161.392 49.078 161.736 49.3347 162.162 49.54C162.602 49.76 163.093 49.9213 163.636 50.024C164.193 50.1413 164.765 50.2 165.352 50.2ZM161.084 38.012C161.04 38.1733 160.856 38.4227 160.534 38.76C160.226 39.0973 159.837 39.4713 159.368 39.882C159.177 40.058 158.942 40.256 158.664 40.476C158.4 40.696 158.114 40.9233 157.806 41.158C157.512 41.3927 157.212 41.6273 156.904 41.862C156.61 42.0967 156.339 42.302 156.09 42.478L155.144 41.378C155.804 40.9087 156.464 40.4173 157.124 39.904C157.784 39.376 158.385 38.848 158.928 38.32C159.192 38.056 159.412 37.8067 159.588 37.572C159.764 37.3373 159.896 37.1027 159.984 36.868C160.086 36.6333 160.152 36.3913 160.182 36.142C160.226 35.878 160.248 35.5993 160.248 35.306V33.502H155.716V32.16H166.122V33.502H161.81V35.24C161.81 35.5627 161.824 35.8487 161.854 36.098C161.883 36.3473 161.949 36.5893 162.052 36.824C162.169 37.0587 162.33 37.3007 162.536 37.55C162.756 37.7847 163.042 38.056 163.394 38.364C163.746 38.6573 164.208 39.0167 164.78 39.442C165.352 39.8673 165.953 40.2927 166.584 40.718L165.682 41.818C165.242 41.51 164.78 41.18 164.296 40.828C163.826 40.4613 163.423 40.146 163.086 39.882C162.572 39.4567 162.125 39.0753 161.744 38.738C161.362 38.4007 161.15 38.1587 161.106 38.012H161.084ZM171.336 42.742H169.796V37.396H165.594V36.032H169.796V30.884H171.336V42.742ZM182.889 41.268V38.892H177.169V31.346H178.687V33.92H188.631V31.346H190.149V38.892H184.429V41.268H192.899V42.588H174.419V41.268H182.889ZM176.773 44.832H190.237V51.146H188.697V46.174H176.773V44.832ZM178.687 37.572H188.631V35.196H178.687V37.572ZM195.476 47.032H197.588V49.188H195.476V47.032ZM195.894 44.744L195.63 32.292H197.434L197.17 44.744H195.894Z" fill="#212121"/>
</svg>
