<svg width="204" height="17" viewBox="0 0 204 17" fill="none" xmlns="http://www.w3.org/2000/svg">
<path d="M15.0645 10.2012V12.0293H8.85938V16.6348H6.64453V12.0293H0.474609V10.2012H15.0645ZM13.7285 2.4668V4.22461H8.92969C9.18457 5.63086 10.9863 7.21289 14.291 7.58203L13.4824 9.33984C10.7754 9.03223 8.81543 7.9248 7.76953 6.45703C6.73242 7.94238 4.75488 9.03223 2.02148 9.33984L1.21289 7.58203C4.51758 7.21289 6.33691 5.63965 6.60938 4.22461H1.79297V2.4668H6.64453V0.638672H8.85938V2.4668H13.7285ZM21.7399 4.38281C21.7399 6.17578 22.9177 8.02148 25.5192 8.8125L24.447 10.5527C22.654 10.043 21.3884 8.94434 20.6677 7.54688C19.9557 9.05859 18.6813 10.2451 16.8356 10.8164L15.7458 9.05859C18.3473 8.28516 19.5075 6.33398 19.5075 4.38281V4.25977H16.2907V2.50195H19.5075V0.726562H21.7751V2.50195H24.9743V4.25977H21.7399V4.38281ZM29.3337 0.638672V12.5039H27.1012V7.10742H24.447V5.29688H27.1012V0.638672H29.3337ZM29.7204 14.543V16.3359H18.7165V11.4844H20.9665V14.543H29.7204ZM44.1654 1.11328V5.87695H35.2181V7.21289H44.5345V9.00586H32.9505V4.18945H41.8627V2.92383H32.8978V1.11328H44.1654ZM45.8529 10.2012V11.9941H39.6302V16.6523H37.3802V11.9941H31.2103V10.2012H45.8529ZM59.9991 0.638672V12.4688H57.7491V0.638672H59.9991ZM60.4209 14.543V16.3359H49.2764V11.4141H51.544V14.543H60.4209ZM55.2354 1.83398V3.62695H49.7334V5.13867H54.7608V6.86133H49.7334V8.39062C52.5459 8.39062 54.3301 8.35547 56.3604 8.02148L56.5889 9.74414C54.3037 10.1484 52.2823 10.1836 48.8545 10.1836H47.4834V1.83398H55.2354ZM69.2761 0.849609C72.9499 0.849609 75.0769 1.81641 75.0945 3.57422C75.0769 5.34961 72.9499 6.31641 69.2761 6.31641C65.5847 6.31641 63.4402 5.34961 63.4402 3.57422C63.4402 1.81641 65.5847 0.849609 69.2761 0.849609ZM69.2761 2.48438C66.9206 2.48438 65.778 2.87109 65.7956 3.57422C65.778 4.36523 66.9206 4.66406 69.2761 4.66406C71.6491 4.66406 72.7741 4.36523 72.7741 3.57422C72.7741 2.87109 71.6491 2.48438 69.2761 2.48438ZM76.571 7.07227V8.84766H61.9812V7.07227H76.571ZM74.7956 9.7793V13.8574H65.8835V14.8242H75.2175V16.5117H63.6862V12.293H72.5808V11.4141H63.6687V9.7793H74.7956ZM86.5645 15.1758C83.7696 15.1758 81.7657 13.6289 81.713 11.4141H84.3848C84.4376 12.3633 85.3516 12.9961 86.5821 12.9961C87.8477 12.9961 88.7618 12.2754 88.7442 11.2559C88.7618 10.2188 87.8302 9.48047 86.336 9.48047H85.1583V7.5293H86.336C87.5841 7.5293 88.463 6.84375 88.463 5.8418C88.463 4.875 87.7247 4.20703 86.5997 4.20703C85.4747 4.20703 84.543 4.83984 84.5079 5.80664H81.9766C82.0118 3.60938 83.9981 2.09766 86.5997 2.09766C89.254 2.09766 91.0294 3.66211 91.0118 5.68359C91.0294 7.10742 90.0274 8.12695 88.6036 8.37305V8.47852C90.4669 8.70703 91.504 9.84961 91.4864 11.4316C91.504 13.6113 89.4298 15.1758 86.5645 15.1758ZM106.441 0.621094V16.6172H104.279V8.47852H102.82V15.9141H100.728V1.04297H102.82V6.68555H104.279V0.621094H106.441ZM99.6033 2.58984C99.5857 7.05469 98.2498 10.7109 93.7498 13.3301L92.449 11.7832C95.7097 9.86719 97.1072 7.52051 97.4236 4.38281H93.2576V2.58984H99.6033ZM118.228 3.78516C118.228 5.70117 119.405 7.65234 122.042 8.44336L120.9 10.2012C119.107 9.63867 117.841 8.4873 117.12 7.03711C116.391 8.61035 115.09 9.87598 113.218 10.5L112.058 8.74219C114.712 7.88086 115.942 5.80664 115.942 3.78516V3.55664H112.655V1.76367H121.444V3.55664H118.228V3.78516ZM125.382 0.638672V12.2051H123.132V0.638672H125.382ZM125.804 14.543V16.3359H114.659V11.1504H116.927V14.543H125.804ZM141.11 0.621094V10.6582H138.983V6.4043H137.7V10.1309H135.608V0.919922H137.7V4.57617H138.983V0.621094H141.11ZM135.134 2.27344V4.01367H127.276V2.27344H130.106V0.761719H132.339V2.27344H135.134ZM131.231 4.54102C133.27 4.54102 134.712 5.66602 134.729 7.33594C134.712 8.98828 133.27 10.1133 131.231 10.1133C129.227 10.1133 127.768 8.98828 127.768 7.33594C127.768 5.66602 129.227 4.54102 131.231 4.54102ZM131.231 6.1582C130.352 6.1582 129.772 6.59766 129.772 7.33594C129.772 8.07422 130.352 8.53125 131.231 8.51367C132.11 8.53125 132.69 8.07422 132.708 7.33594C132.69 6.59766 132.11 6.1582 131.231 6.1582ZM135.643 10.7988C139.106 10.7988 141.18 11.8535 141.198 13.7168C141.18 15.5625 139.106 16.6172 135.643 16.6172C132.198 16.6172 130.106 15.5625 130.106 13.7168C130.106 11.8535 132.198 10.7988 135.643 10.7988ZM135.643 12.4863C133.481 12.4863 132.339 12.873 132.356 13.7168C132.339 14.5254 133.481 14.9297 135.643 14.9297C137.823 14.9297 138.93 14.5254 138.93 13.7168C138.93 12.873 137.823 12.4863 135.643 12.4863ZM157.331 7.88086V9.69141H151.143V10.8691C153.929 11.0801 155.573 12.082 155.59 13.7344C155.573 15.5801 153.481 16.6172 150.018 16.6172C146.502 16.6172 144.411 15.5801 144.411 13.7344C144.411 12.0732 146.072 11.0713 148.911 10.8691V9.69141H142.741V7.88086H157.331ZM150.018 12.5215C147.803 12.5391 146.678 12.9258 146.696 13.7344C146.678 14.5078 147.803 14.9297 150.018 14.9297C152.18 14.9297 153.323 14.5078 153.34 13.7344C153.323 12.9258 152.18 12.5391 150.018 12.5215ZM156.012 1.30664V3.06445H151.67C152.048 4.18945 153.674 5.27051 156.715 5.52539L155.924 7.2832C152.91 6.99316 150.871 5.85059 150.018 4.29492C149.174 5.85059 147.17 6.99316 144.129 7.2832L143.391 5.52539C146.353 5.27051 147.988 4.18066 148.401 3.06445H144.077V1.30664H156.012ZM171.512 0.621094V16.6523H169.244V0.621094H171.512ZM162.828 1.74609C165.236 1.74609 167.029 3.96094 167.029 7.44141C167.029 10.957 165.236 13.1543 162.828 13.1543C160.367 13.1543 158.574 10.957 158.592 7.44141C158.574 3.96094 160.367 1.74609 162.828 1.74609ZM162.828 3.76758C161.58 3.76758 160.754 5.06836 160.754 7.44141C160.754 9.83203 161.58 11.1152 162.828 11.1152C164.041 11.1152 164.867 9.83203 164.867 7.44141C164.867 5.06836 164.041 3.76758 162.828 3.76758ZM187.363 0.621094V16.6172H185.219V0.621094H187.363ZM184.023 0.849609V15.8789H181.914V8.32031H180.631C180.42 11.4668 179.084 13.3652 177.115 13.3652C175.006 13.3652 173.635 11.1504 173.635 7.54688C173.635 3.96094 175.006 1.76367 177.115 1.76367C179.04 1.76367 180.358 3.55664 180.613 6.54492H181.914V0.849609H184.023ZM177.115 3.87305C176.219 3.87305 175.691 5.10352 175.709 7.54688C175.691 10.0078 176.219 11.2207 177.115 11.2031C178.029 11.2207 178.574 10.0078 178.574 7.54688C178.574 5.10352 178.029 3.87305 177.115 3.87305ZM203.513 12.9082V14.7539H188.871V12.9082H192.14V8.98828C190.901 8.25 190.154 7.11621 190.154 5.70117C190.154 3.11719 192.685 1.39453 196.166 1.39453C199.628 1.39453 202.177 3.11719 202.195 5.70117C202.186 7.08105 201.457 8.20605 200.261 8.95312V12.9082H203.513ZM196.166 3.16992C193.88 3.16992 192.369 4.08398 192.369 5.70117C192.369 7.26562 193.88 8.23242 196.166 8.23242C198.433 8.23242 199.962 7.26562 199.98 5.70117C199.962 4.08398 198.433 3.16992 196.166 3.16992ZM194.355 12.9082H197.994V9.79688C197.422 9.91113 196.807 9.97266 196.166 9.97266C195.524 9.97266 194.917 9.91992 194.355 9.79688V12.9082Z" fill="#212121"/>
</svg>
