<svg width="157" height="17" viewBox="0 0 157 17" fill="none" xmlns="http://www.w3.org/2000/svg">
<path d="M7.08684 4.98047C7.08684 7.56445 8.4052 10.3242 11.0947 11.4492L9.88176 13.207C7.99211 12.4072 6.69133 10.8164 5.97942 8.86523C5.24992 10.9834 3.92278 12.7412 2.04192 13.6113L0.758713 11.8359C3.41301 10.6582 4.7841 7.6875 4.7841 4.98047V3.99609H1.39153V2.16797H10.4267V3.99609H7.08684V4.98047ZM14.2763 0.621094V16.6172H12.0087V0.621094H14.2763ZM29.1432 1.55273V2.99414C29.1432 4.48828 29.1432 6.12305 28.7389 8.35547H30.8482V10.166H24.608V16.6348H22.358V10.166H16.2584V8.35547H26.4713C26.8756 6.29004 26.9107 4.72559 26.9107 3.3457H17.9283V1.55273H29.1432ZM45.1175 0.621094V8.84766H42.885V7.24805H39.9319V8.39062H32.3206V1.30664H34.5706V3.16992H37.7171V1.30664H39.9319V2.66016H42.885V0.621094H45.1175ZM45.1175 9.44531V13.7168H36.7327V14.6836H45.5921V16.4414H34.4827V12.082H42.885V11.168H34.4651V9.44531H45.1175ZM34.5706 6.63281H37.7171V4.875H34.5706V6.63281ZM39.9319 5.56055H42.885V4.33008H39.9319V5.56055ZM55.3922 1.74609C56.8248 1.74609 58.0202 2.53711 58.7496 3.9082H62.2653V0.621094H64.4801V16.6523H62.2653V10.6582H58.9254C58.2047 12.2402 56.9391 13.1543 55.3922 13.1543C52.9664 13.1543 51.2262 10.957 51.2438 7.44141C51.2262 3.96094 52.9664 1.74609 55.3922 1.74609ZM55.3922 3.76758C54.1969 3.76758 53.3707 5.06836 53.3883 7.44141C53.3707 9.83203 54.1969 11.1152 55.3922 11.1152C56.6051 11.1152 57.3961 9.83203 57.3961 7.44141C57.3961 5.06836 56.6051 3.76758 55.3922 3.76758ZM59.3825 5.71875C59.4791 6.24609 59.5407 6.82617 59.5407 7.44141C59.5407 7.94238 59.4967 8.41699 59.4352 8.86523H62.2653V5.71875H59.3825ZM80.1029 0.621094V10.6582H77.9759V6.4043H76.6927V10.1309H74.6009V0.919922H76.6927V4.57617H77.9759V0.621094H80.1029ZM74.1263 2.27344V4.01367H66.2689V2.27344H69.0989V0.761719H71.3314V2.27344H74.1263ZM70.2239 4.54102C72.263 4.54102 73.7044 5.66602 73.722 7.33594C73.7044 8.98828 72.263 10.1133 70.2239 10.1133C68.22 10.1133 66.7611 8.98828 66.7611 7.33594C66.7611 5.66602 68.22 4.54102 70.2239 4.54102ZM70.2239 6.1582C69.345 6.1582 68.765 6.59766 68.765 7.33594C68.765 8.07422 69.345 8.53125 70.2239 8.51367C71.1029 8.53125 71.6829 8.07422 71.7005 7.33594C71.6829 6.59766 71.1029 6.1582 70.2239 6.1582ZM74.6361 10.7988C78.0989 10.7988 80.1732 11.8535 80.1907 13.7168C80.1732 15.5625 78.0989 16.6172 74.6361 16.6172C71.1907 16.6172 69.0989 15.5625 69.0989 13.7168C69.0989 11.8535 71.1907 10.7988 74.6361 10.7988ZM74.6361 12.4863C72.4739 12.4863 71.3314 12.873 71.3489 13.7168C71.3314 14.5254 72.4739 14.9297 74.6361 14.9297C76.8157 14.9297 77.9232 14.5254 77.9232 13.7168C77.9232 12.873 76.8157 12.4863 74.6361 12.4863ZM87.6396 4.98047C87.6221 7.42383 88.9229 10.2363 91.5596 11.4492L90.3115 13.207C88.5273 12.3896 87.2529 10.7549 86.5498 8.83008C85.8291 10.9482 84.5195 12.7412 82.665 13.6113L81.3643 11.8359C84.0361 10.5879 85.3721 7.61719 85.3896 4.98047V3.99609H81.9971V2.16797H90.8564V3.99609H87.6396V4.98047ZM94.3545 0.621094V6.7207H96.71V8.60156H94.3545V16.6172H92.1045V0.621094H94.3545ZM111.735 6.86133V8.61914H97.11V6.86133H111.735ZM109.995 4.22461V5.98242H98.9382V0.9375H109.872V2.73047H101.171V4.22461H109.995ZM109.924 9.56836V13.752H101.012V14.7363H110.346V16.4766H98.8151V12.1523H107.71V11.2559H98.7975V9.56836H109.924ZM130.201 0.638672V10.3945H128.074V6.33398H126.686V9.86719H124.594V0.919922H126.686V4.54102H128.074V0.638672H130.201ZM123.188 1.71094V6.43945H119.268V7.81055C121.017 7.80176 122.317 7.72266 123.838 7.45898L124.031 9.23438C122.168 9.56836 120.586 9.62109 118.213 9.62109H117.106V4.78711H121.025V3.46875H117.088V1.71094H123.188ZM124.734 10.5703C128.109 10.5703 130.272 11.7129 130.289 13.5762C130.272 15.4746 128.109 16.6172 124.734 16.6172C121.342 16.6172 119.197 15.4746 119.197 13.5762C119.197 11.7129 121.342 10.5703 124.734 10.5703ZM124.734 12.293C122.643 12.293 121.43 12.7324 121.447 13.5762C121.43 14.4727 122.643 14.9121 124.734 14.9121C126.809 14.9121 128.022 14.4727 128.022 13.5762C128.022 12.7324 126.809 12.293 124.734 12.293ZM140.48 1.57031C140.463 6 138.336 8.93555 132.939 10.4824L132.131 8.70703C134.425 8.0918 135.919 7.23047 136.859 6.17578L132.412 6.50977L132.095 4.76953L137.808 4.57617C137.94 4.18066 138.028 3.76758 138.09 3.3457H132.904V1.57031H140.48ZM145.226 0.638672V10.0605H142.976V0.638672H145.226ZM139.795 10.3066C143.152 10.3066 145.279 11.4668 145.279 13.4707C145.279 15.4746 143.152 16.5996 139.795 16.5996C136.384 16.5996 134.258 15.4746 134.258 13.4707C134.258 11.4668 136.384 10.3066 139.795 10.3066ZM139.795 12.0645C137.633 12.0645 136.525 12.5391 136.525 13.4707C136.525 14.3848 137.633 14.8945 139.795 14.8945C141.904 14.8945 143.047 14.3848 143.047 13.4707C143.047 12.5391 141.904 12.0645 139.795 12.0645ZM150.847 2.27344L150.619 11.1855H148.369L148.14 2.27344H150.847ZM149.511 15.1582C148.685 15.1582 148.017 14.4902 148.035 13.6816C148.017 12.873 148.685 12.2227 149.511 12.2227C150.285 12.2227 150.97 12.873 150.97 13.6816C150.97 14.4902 150.285 15.1582 149.511 15.1582ZM156.187 2.27344L155.958 11.1855H153.708L153.48 2.27344H156.187ZM154.851 15.1582C154.024 15.1582 153.357 14.4902 153.374 13.6816C153.357 12.873 154.024 12.2227 154.851 12.2227C155.624 12.2227 156.31 12.873 156.31 13.6816C156.31 14.4902 155.624 15.1582 154.851 15.1582Z" fill="#212121"/>
</svg>
