<svg width="129" height="38" viewBox="0 0 129 38" fill="none" xmlns="http://www.w3.org/2000/svg">
<path d="M1.00195 15L0.984375 13.084L5.55469 8.88281C6.75 7.74023 7.38281 7.03711 7.38281 6.03516C7.38281 4.91016 6.52148 4.20703 5.36133 4.20703C4.16602 4.20703 3.39258 4.96289 3.39258 6.17578H0.878906C0.861328 3.67969 2.70703 2.09766 5.39648 2.09766C8.12109 2.09766 9.93164 3.64453 9.93164 5.85938C9.93164 7.30078 9.22852 8.49609 6.60938 10.8691L4.67578 12.75V12.8203H10.1074V15H1.00195ZM16.7477 15.1758C13.5661 15.1758 11.6325 12.8027 11.6325 8.63672C11.6325 4.4707 13.5661 2.09766 16.7477 2.09766C19.9294 2.09766 21.863 4.48828 21.863 8.63672C21.863 12.8203 19.9294 15.1758 16.7477 15.1758ZM16.7477 12.9961C18.2243 12.9961 19.1735 11.5723 19.1559 8.63672C19.1559 5.73633 18.2243 4.25977 16.7477 4.25977C15.2712 4.25977 14.3395 5.73633 14.3395 8.63672C14.322 11.5723 15.2712 12.9961 16.7477 12.9961ZM23.5111 15L23.4935 13.084L28.0638 8.88281C29.2591 7.74023 29.892 7.03711 29.892 6.03516C29.892 4.91016 29.0306 4.20703 27.8705 4.20703C26.6752 4.20703 25.9017 4.96289 25.9017 6.17578H23.388C23.3705 3.67969 25.2162 2.09766 27.9056 2.09766C30.6302 2.09766 32.4408 3.64453 32.4408 5.85938C32.4408 7.30078 31.7377 8.49609 29.1185 10.8691L27.1849 12.75V12.8203H32.6166V15H23.5111ZM33.8252 12.75V10.6582L39.2041 2.27344H42.5264V10.623H44.1436V12.75H42.5264V15H40.0127V12.75H33.8252ZM36.4971 10.623H40.0479V5.17383H39.9248L36.4971 10.5176V10.623ZM58.6413 0.638672V12.3984H56.4089V7.16016H52.4362V5.40234H56.4089V4.17188H52.4362V2.41406H56.4089V0.638672H58.6413ZM59.028 14.543V16.3359H48.0066V11.3438H50.2566V14.543H59.028ZM48.2702 1.64062V8.47852C50.2302 8.46094 52.0583 8.3291 54.0534 7.96875L54.282 9.7793C51.8913 10.2363 49.7292 10.3242 47.3386 10.3242H46.0554V1.64062H48.2702ZM69.8126 15.1758C66.9122 15.1758 64.8204 13.6465 64.8204 11.5723C64.8204 9.97266 66.0509 8.67188 67.6329 8.42578V8.33789C66.2618 8.07422 65.3126 6.91406 65.3126 5.52539C65.3126 3.53906 67.211 2.09766 69.8126 2.09766C72.4141 2.09766 74.3126 3.53906 74.3302 5.52539C74.3126 6.93164 73.3458 8.07422 72.0098 8.33789V8.42578C73.5567 8.67188 74.8048 9.97266 74.8048 11.5723C74.8048 13.6465 72.713 15.1758 69.8126 15.1758ZM69.8126 13.1543C71.1485 13.1543 72.045 12.3984 72.045 11.3086C72.045 10.2012 71.1134 9.39258 69.8126 9.39258C68.5118 9.39258 67.5626 10.2012 67.5802 11.3086C67.5626 12.3984 68.4591 13.1543 69.8126 13.1543ZM69.8126 7.5293C70.9376 7.5293 71.7462 6.80859 71.7462 5.78906C71.7462 4.80469 70.9552 4.10156 69.8126 4.10156C68.67 4.10156 67.8966 4.78711 67.8966 5.78906C67.8966 6.80859 68.6876 7.5293 69.8126 7.5293ZM89.4607 0.638672V9.90234H87.2107V9.39258H84.3103V8.03906H87.2107V0.638672H89.4607ZM75.908 6.26367C79.0017 6.28125 82.8337 6.24609 86.2615 5.92969L86.367 7.31836C84.9519 7.51172 83.5017 7.63477 82.0779 7.70508V9.9375H79.863V7.79297C78.5535 7.82812 77.2966 7.82812 76.1365 7.81055L75.908 6.26367ZM89.4607 10.377V14.1211H80.4607V14.9473H89.8298V16.5117H78.2634V12.6797H87.2283V11.8887H78.1931V10.377H89.4607ZM81.0584 0.849609C83.4314 0.849609 85.0662 1.81641 85.0837 3.25781C85.0662 4.75195 83.4314 5.64844 81.0584 5.64844C78.615 5.64844 76.9978 4.75195 76.9978 3.25781C76.9978 1.81641 78.615 0.849609 81.0584 0.849609ZM81.0584 2.32617C79.8455 2.30859 79.1072 2.67773 79.1248 3.25781C79.1072 3.85547 79.8455 4.18945 81.0584 4.18945C82.2361 4.18945 82.992 3.85547 82.992 3.25781C82.992 2.67773 82.2361 2.30859 81.0584 2.32617ZM101.265 2.27344V15H98.6105V4.78711H98.5402L95.6222 6.61523V4.27734L98.7687 2.27344H101.265ZM108.96 15.1758C106.323 15.1582 103.827 13.5938 103.827 8.93555C103.827 4.64648 105.884 2.09766 109.065 2.09766C111.632 2.09766 113.372 3.71484 113.636 5.80664H111.034C110.823 4.91016 110.085 4.36523 109.065 4.36523C107.343 4.36523 106.429 5.92969 106.411 8.42578H106.534C107.114 7.30078 108.38 6.63281 109.786 6.63281C112.071 6.63281 113.776 8.35547 113.776 10.7461C113.776 13.3301 111.825 15.1934 108.96 15.1758ZM108.942 13.084C110.243 13.084 111.21 12.0996 111.21 10.8164C111.21 9.55078 110.278 8.54883 108.977 8.54883C107.677 8.54883 106.692 9.56836 106.675 10.8164C106.692 12.0645 107.641 13.084 108.942 13.084ZM119.45 1.0957C121.875 1.0957 123.721 2.60742 123.721 4.75195C123.721 6.86133 121.875 8.39062 119.45 8.39062C116.971 8.39062 115.143 6.86133 115.143 4.75195C115.143 2.60742 116.971 1.0957 119.45 1.0957ZM119.45 2.92383C118.219 2.92383 117.305 3.5918 117.323 4.75195C117.305 5.89453 118.219 6.58008 119.45 6.58008C120.663 6.58008 121.559 5.89453 121.559 4.75195C121.559 3.5918 120.663 2.92383 119.45 2.92383ZM128.291 0.621094V8.63672H126.041V0.621094H128.291ZM128.291 9.30469V13.6465H119.784V14.6836H128.731V16.4414H117.586V12.0117H126.059V11.0273H117.551V9.30469H128.291ZM13.957 21.6387V33.3281H11.7246V28.1074H8.85938V26.2617H11.7246V21.6387H13.957ZM9 22.8164C9 27.1055 6.27539 30.2695 1.59961 31.7285L0.685547 29.9531C3.99902 28.916 6.13477 27.0088 6.55664 24.6445H1.51172V22.8164H9ZM14.3613 35.543V37.3359H3.41016V32.1504H5.69531V35.543H14.3613ZM28.5427 21.6211V25.3828H30.7048V27.2109H28.5427V30.9023H26.2927V21.6211H28.5427ZM24.0778 22.6758C24.0954 26.9473 21.4059 29.9355 16.6423 31.2539L15.7458 29.4434C19.2702 28.5029 21.2917 26.6924 21.6345 24.4688H16.5016V22.6758H24.0778ZM23.322 31.0957C26.5739 31.0957 28.7184 32.3613 28.7184 34.3652C28.7184 36.3867 26.5739 37.6348 23.322 37.6348C20.07 37.6348 17.8903 36.3867 17.9079 34.3652C17.8903 32.3613 20.07 31.0957 23.322 31.0957ZM23.322 32.8359C21.3005 32.8359 20.1052 33.3809 20.1227 34.3652C20.1052 35.332 21.3005 35.8945 23.322 35.877C25.3083 35.8945 26.5036 35.332 26.5036 34.3652C26.5036 33.3809 25.3083 32.8359 23.322 32.8359ZM48.6436 21.6211V37.6172H46.376V21.6211H48.6436ZM43.8448 23.291C43.8448 28.1426 42.1397 32.168 36.4268 34.875L35.2491 33.082C39.3799 31.1309 41.1993 28.5996 41.5596 25.0488H36.1104V23.291H43.8448ZM65.198 30.1992V31.9922H50.5554V30.1992H56.7605V29.0391H52.3835V24.6445H61.1726V23.6602H52.3484V21.9199H63.4226V26.2617H54.6159V27.3164H63.7214V29.0391H58.9929V30.1992H65.198ZM63.5105 32.9062V37.5469H61.2429V34.6641H52.1902V32.9062H63.5105ZM79.3441 21.6211V37.6523H77.0766V21.6211H79.3441ZM70.6605 22.7461C73.0687 22.7461 74.8617 24.9609 74.8617 28.4414C74.8617 31.957 73.0687 34.1543 70.6605 34.1543C68.1996 34.1543 66.4066 31.957 66.4242 28.4414C66.4066 24.9609 68.1996 22.7461 70.6605 22.7461ZM70.6605 24.7676C69.4125 24.7676 68.5863 26.0684 68.5863 28.4414C68.5863 30.832 69.4125 32.1152 70.6605 32.1152C71.8734 32.1152 72.6996 30.832 72.6996 28.4414C72.6996 26.0684 71.8734 24.7676 70.6605 24.7676ZM95.1954 21.6211V37.6172H93.0509V21.6211H95.1954ZM91.8555 21.8496V36.8789H89.7462V29.3203H88.463C88.252 32.4668 86.9161 34.3652 84.9473 34.3652C82.838 34.3652 81.4669 32.1504 81.4669 28.5469C81.4669 24.9609 82.838 22.7637 84.9473 22.7637C86.8721 22.7637 88.1905 24.5566 88.4454 27.5449H89.7462V21.8496H91.8555ZM84.9473 24.873C84.0509 24.873 83.5235 26.1035 83.5411 28.5469C83.5235 31.0078 84.0509 32.2207 84.9473 32.2031C85.8614 32.2207 86.4063 31.0078 86.4063 28.5469C86.4063 26.1035 85.8614 24.873 84.9473 24.873ZM111.345 33.9082V35.7539H96.7029V33.9082H99.9724V29.9883C98.7332 29.25 97.9861 28.1162 97.9861 26.7012C97.9861 24.1172 100.517 22.3945 103.998 22.3945C107.461 22.3945 110.01 24.1172 110.027 26.7012C110.018 28.0811 109.289 29.2061 108.094 29.9531V33.9082H111.345ZM103.998 24.1699C101.713 24.1699 100.201 25.084 100.201 26.7012C100.201 28.2656 101.713 29.2324 103.998 29.2324C106.265 29.2324 107.795 28.2656 107.812 26.7012C107.795 25.084 106.265 24.1699 103.998 24.1699ZM102.187 33.9082H105.826V30.7969C105.255 30.9111 104.639 30.9727 103.998 30.9727C103.356 30.9727 102.75 30.9199 102.187 30.7969V33.9082Z" fill="#212121"/>
</svg>
