<svg width="95" height="120" viewBox="0 0 95 120" fill="none" xmlns="http://www.w3.org/2000/svg">
<path d="M93.953 63.8593C91.9986 96.3598 64.0518 121.209 31.6493 119.249C23.7218 118.77 16.1162 116.748 9.05097 113.23C6.08225 111.751 4.8696 108.135 6.33655 105.157C7.81137 102.179 11.4163 100.963 14.3855 102.434C20.0008 105.231 26.0509 106.841 32.3645 107.223C58.1543 108.783 80.4074 89.0096 81.9634 63.1339C83.5194 37.2583 63.805 14.9458 38.0074 13.3851C28.1906 12.7912 18.6096 15.2389 10.3074 20.4663C7.4987 22.238 3.78898 21.3875 2.03052 18.5708C0.264189 15.7536 1.11212 12.0327 3.92032 10.2689C14.3577 3.69663 26.3941 0.620879 38.7301 1.36718C71.1326 3.32747 95.9069 31.3666 93.9525 63.8672L93.953 63.8593Z" fill="white" stroke="white"/>
</svg>
