<svg width="87" height="25" viewBox="0 0 87 25" fill="none" xmlns="http://www.w3.org/2000/svg">
<path fill-rule="evenodd" clip-rule="evenodd" d="M7.07187 6.66406C7.43086 6.66406 7.72187 6.92523 7.72187 7.2474V17.7474C7.72187 18.0696 7.43086 18.3307 7.07187 18.3307C6.71289 18.3307 6.42188 18.0696 6.42188 17.7474V7.2474C6.42188 6.92523 6.71289 6.66406 7.07187 6.66406Z" fill="#171717"/>
<path fill-rule="evenodd" clip-rule="evenodd" d="M1.17187 12.4359C1.17187 12.077 1.43312 11.7859 1.75537 11.7859L12.2584 11.7859C12.5806 11.7859 12.8419 12.077 12.8419 12.4359C12.8419 12.7949 12.5806 13.0859 12.2584 13.0859L1.75538 13.0859C1.43312 13.0859 1.17187 12.7949 1.17187 12.4359Z" fill="#171717"/>
<path d="M32.6634 10.1367V11.5312H27.8645V12.5566H31.2552V15.9883H24.3782V16.7949H31.6106V18.1758H22.6282V14.7031H29.5188V13.9238H22.6009V12.5566H26.1145V11.5312H21.3157V10.1367H24.3235C24.6585 9.08398 24.7405 8.29102 24.761 7.60742H22.3274V6.21289H26.4563V7.01953C26.4563 7.80566 26.4563 8.84473 26.1009 10.1367H29.2454C29.553 9.08398 29.635 8.27051 29.6692 7.60742H27.222V6.21289H31.3509V6.88281C31.3509 7.66211 31.3509 8.74902 30.9954 10.1367H32.6634ZM39.8482 6.45898V7.82617H35.5689V8.7832H39.4791V10.1504H35.5689V11.1074C37.7564 11.1006 39.1441 11.0391 40.7232 10.7793L40.9009 12.1465C39.1236 12.4336 37.5513 12.4883 34.8853 12.4746H33.8189V6.45898H39.8482ZM43.5533 5.81641V12.7617H41.8033V5.81641H43.5533ZM36.9498 13.2676V14.3203H41.817V13.2676H43.5533V18.1211H35.2271V13.2676H36.9498ZM36.9498 16.7266H41.817V15.6738H36.9498V16.7266ZM54.1632 6.91016V8.33203H50.253V13.8555C52.0646 13.835 53.3702 13.7529 54.8331 13.4863L55.0109 14.8945C53.3019 15.2227 51.798 15.291 49.5011 15.2773H48.4894V6.91016H54.1632ZM58.4152 5.81641V18.2852H56.6788V11.5449H53.548V10.123H56.6788V5.81641H58.4152ZM74.0563 15.3867V16.8086H62.6677V15.3867H67.4665V13.0898H63.8708V6.60938H65.6208V8.53711H71.0485V6.60938H72.7848V13.0898H69.2028V15.3867H74.0563ZM65.6208 11.6953H71.0485V9.93164H65.6208V11.6953ZM84.9463 5.81641V18.2578H83.1826V5.81641H84.9463ZM81.2138 7.11523C81.2138 10.8887 79.8877 14.0195 75.4443 16.125L74.5283 14.7305C77.7412 13.2129 79.1562 11.2441 79.4365 8.48242H75.1982V7.11523H81.2138Z" fill="#171717"/>
</svg>
