<svg width="184" height="39" viewBox="0 0 184 39" fill="none" xmlns="http://www.w3.org/2000/svg">
<rect x="184" y="28" width="184" height="28" rx="14" transform="rotate(-180 184 28)" fill="#6A5ACD"/>
<path d="M21.4326 9.85925V11.078C21.4326 12.5507 21.4326 14.1503 21.0137 16.5751L19.7822 16.4608C20.2393 14.1884 20.2393 12.5126 20.2393 11.078V10.8495H13.5361V9.85925H21.4326ZM22.791 17.4637V18.4667H12.4189V17.4637H22.791ZM33.9218 14.2899V15.2548H29.3007V16.537H28.1073V15.2548H23.5116V14.2899H33.9218ZM26.0634 15.9149V17.0702H31.4208V15.9149H32.6141V19.9393H24.87V15.9149H26.0634ZM26.0634 18.9999H31.4208V17.9843H26.0634V18.9999ZM32.6141 8.9198V11.6239H26.038V12.576H32.8427V13.4901H24.8446V10.7479H31.4081V9.84656H24.8192V8.9198H32.6141ZM41.1139 10.913C41.1139 11.9921 41.9772 13.0966 43.3991 13.579L42.8786 14.4677C41.7677 14.0995 40.9806 13.3632 40.568 12.4745C40.1491 13.4393 39.3683 14.2645 38.2575 14.6835L37.6989 13.7694C39.1207 13.2235 39.9713 12.0302 39.9713 10.913V10.8749H37.9909V9.92273H39.9713V8.75476H41.1139V9.92273H43.069V10.8749H41.1139V10.913ZM47.3727 8.71667V14.7596H46.2301V12.1952H44.9352V14.6708H43.7799V8.9198H44.9352V11.2177H46.2301V8.71667H47.3727ZM47.3727 15.2294V17.9716H40.9616V19.0253H47.8043V19.9393H39.7682V17.0829H46.192V16.1434H39.7428V15.2294H47.3727ZM58.1987 8.71667V17.0829H57.0054V8.71667H58.1987ZM58.5161 18.8602V19.8378H50.6831V16.4227H51.8892V18.8602H58.5161ZM54.5806 9.50378V12.8934H50.5562V14.5311C52.6509 14.5248 54.0728 14.455 55.7612 14.1503L55.8882 15.1405C54.0982 15.4579 52.5874 15.5214 50.3277 15.5214H49.3755V11.9794H53.3872V10.4686H49.3501V9.50378H54.5806ZM64.0736 12.0555C64.0736 13.9598 65.3178 15.9276 67.0697 16.6766L66.4096 17.6161C65.0702 17.0258 64.0038 15.7753 63.477 14.2518C62.9501 15.8768 61.8773 17.2606 60.557 17.9081L59.8588 16.9559C61.5727 16.1561 62.8422 14.0106 62.8549 12.0555V10.8495H60.2523V9.84656H66.6635V10.8495H64.0736V12.0555ZM69.3041 8.70398V20.079H68.098V8.70398H69.3041ZM80.7776 8.70398V20.079H79.6223V8.70398H80.7776ZM78.4671 8.9198V19.5204H77.3118V14.036H76.0296C75.928 16.2577 74.9759 17.6415 73.5667 17.6288C72.0813 17.6415 71.1165 16.08 71.1165 13.6171C71.1165 11.1542 72.0813 9.60535 73.5667 9.61804C74.9505 9.60535 75.8899 10.9193 76.0296 13.0585H77.3118V8.9198H78.4671ZM73.5667 10.7479C72.7415 10.7479 72.2337 11.8016 72.2337 13.6171C72.2337 15.4325 72.7415 16.4862 73.5667 16.4862C74.4046 16.4862 74.9251 15.4325 74.9251 13.6171C74.9251 11.8016 74.4046 10.7479 73.5667 10.7479ZM89.125 11.0526C89.125 12.3729 90.1534 13.5917 91.8926 14.0868L91.334 15.0262C90.0201 14.639 89.0489 13.8392 88.5411 12.8046C88.0459 13.9471 87.0494 14.8295 85.6973 15.2421L85.1133 14.3026C86.8526 13.7948 87.9317 12.4872 87.9317 11.0526V10.9384H85.4561V9.97351H87.9317V8.6532H89.1377V9.97351H91.6006V10.9384H89.125V11.0526ZM94.0762 8.70398V11.5223H95.7266V12.5253H94.0762V15.4198H92.8702V8.70398H94.0762ZM94.0762 15.9276V19.9393H86.8145V15.9276H94.0762ZM87.9952 16.8798V18.9618H92.8829V16.8798H87.9952ZM99.329 9.55457C100.364 9.55457 101.221 10.1512 101.728 11.1796H104.534V8.70398H105.727V20.1044H104.534V15.7372H101.805C101.316 16.8798 100.421 17.5399 99.329 17.5399C97.6279 17.5399 96.4345 15.9911 96.4472 13.5409C96.4345 11.1034 97.6279 9.55457 99.329 9.55457ZM99.329 10.6337C98.3007 10.6337 97.5898 11.7509 97.5898 13.5409C97.5898 15.3436 98.3007 16.4608 99.329 16.4608C100.357 16.4608 101.068 15.3436 101.068 13.5409C101.068 11.7509 100.357 10.6337 99.329 10.6337ZM102.071 12.1698C102.154 12.5887 102.211 13.0458 102.211 13.5409C102.211 13.9725 102.173 14.3724 102.097 14.7469H104.534V12.1698H102.071ZM112.973 10.5829V11.5604H107.324V10.5829H109.558V9.03406H110.752V10.5829H112.973ZM110.155 12.246C111.602 12.246 112.618 13.3251 112.631 14.8612C112.618 16.41 111.602 17.5018 110.155 17.5018C108.733 17.5018 107.679 16.41 107.692 14.8612C107.679 13.3251 108.733 12.246 110.155 12.246ZM110.155 13.2489C109.33 13.2489 108.759 13.9218 108.759 14.8612C108.759 15.826 109.33 16.4735 110.155 16.4735C110.968 16.4735 111.564 15.826 111.564 14.8612C111.564 13.9218 110.968 13.2489 110.155 13.2489ZM117.087 8.70398V20.079H115.944V14.4296H114.637V19.5458H113.494V8.95789H114.637V13.4393H115.944V8.70398H117.087ZM128.865 17.6669V18.6698H118.455V17.6669H123.038V15.3309H119.648V9.47839H120.854V11.4335H126.44V9.47839H127.633V15.3309H124.231V17.6669H128.865ZM120.854 14.3534H126.44V12.411H120.854V14.3534ZM133.026 11.8143C133.026 13.6298 133.788 15.5721 135.311 16.4989L134.638 17.4257C133.572 16.7845 132.848 15.6483 132.467 14.328C132.042 15.7753 131.261 17.0067 130.157 17.6796L129.408 16.7782C131.02 15.8134 131.858 13.8075 131.858 11.8651V9.745H133.026V11.8143ZM139.348 8.70398V20.079H138.193V8.70398H139.348ZM136.987 8.9198V19.5204H135.844V13.7059H134.08V12.703H135.844V8.9198H136.987ZM151.076 17.6542V18.6571H140.665V17.6542H143.154V14.6835C142.221 14.1693 141.656 13.3505 141.656 12.3348C141.656 10.5448 143.408 9.36414 145.845 9.36414C148.295 9.36414 150.047 10.5448 150.047 12.3348C150.047 13.3378 149.501 14.1439 148.587 14.6581V17.6542H151.076ZM145.845 10.329C144.055 10.329 142.824 11.1034 142.824 12.3348C142.824 13.5536 144.055 14.3534 145.845 14.3534C147.622 14.3534 148.879 13.5536 148.879 12.3348C148.879 11.1034 147.622 10.329 145.845 10.329ZM144.347 17.6542H147.369V15.1151C146.905 15.2357 146.391 15.2928 145.845 15.2928C145.312 15.2928 144.804 15.2357 144.347 15.1278V17.6542ZM153.866 9.80847L153.751 16.3466H152.494L152.38 9.80847H153.866ZM153.129 19.0887C152.634 19.0887 152.215 18.6825 152.228 18.1874C152.215 17.6923 152.634 17.286 153.129 17.286C153.612 17.286 154.031 17.6923 154.031 18.1874C154.031 18.6825 153.612 19.0887 153.129 19.0887Z" fill="white"/>
<path fill-rule="evenodd" clip-rule="evenodd" d="M165.494 19.9999C155.777 15.0081 158.899 9.04624 162.478 8.99988C163.554 8.99988 164.679 9.53351 165.494 10.8399C166.317 9.53351 167.442 8.99988 168.517 8.99988H168.566C172.096 9.04624 175.218 15.0081 165.493 19.9999H165.494Z" fill="white"/>
<path d="M29.6883 36.3397C28.9027 37.5768 27.0973 37.5768 26.3117 36.3397L20.4248 27.0703C19.5792 25.7388 20.5358 23.9981 22.1131 23.9981L33.8869 23.9981C35.4642 23.9981 36.4208 25.7388 35.5752 27.0703L29.6883 36.3397Z" fill="#6A5ACD"/>
</svg>
