<svg width="306" height="196" viewBox="0 0 306 196" fill="none" xmlns="http://www.w3.org/2000/svg">
<rect y="12" width="306" height="184" rx="20" fill="white"/>
<path d="M20.008 155.872C20.112 155.696 20.24 155.528 20.392 155.368C20.544 155.208 20.72 155.068 20.92 154.948C21.128 154.82 21.36 154.72 21.616 154.648C21.88 154.568 22.176 154.528 22.504 154.528C22.896 154.528 23.248 154.58 23.56 154.684C23.88 154.788 24.148 154.936 24.364 155.128C24.588 155.312 24.76 155.54 24.88 155.812C25 156.076 25.06 156.368 25.06 156.688V156.808C25.06 156.976 25.036 157.156 24.988 157.348C24.94 157.532 24.86 157.712 24.748 157.888C24.636 158.064 24.484 158.228 24.292 158.38C24.1 158.532 23.86 158.656 23.572 158.752C24.172 158.856 24.624 159.092 24.928 159.46C25.24 159.828 25.396 160.264 25.396 160.768V160.948C25.396 161.26 25.344 161.564 25.24 161.86C25.136 162.156 24.968 162.424 24.736 162.664C24.512 162.896 24.212 163.084 23.836 163.228C23.468 163.372 23.02 163.444 22.492 163.444C21.988 163.444 21.5 163.364 21.028 163.204C20.564 163.052 20.128 162.812 19.72 162.484L20.14 161.812C20.564 162.116 20.96 162.336 21.328 162.472C21.704 162.608 22.092 162.676 22.492 162.676C22.868 162.676 23.188 162.624 23.452 162.52C23.716 162.416 23.928 162.284 24.088 162.124C24.256 161.956 24.376 161.772 24.448 161.572C24.528 161.364 24.568 161.16 24.568 160.96V160.804C24.568 160.476 24.5 160.208 24.364 160C24.236 159.784 24.072 159.616 23.872 159.496C23.68 159.368 23.464 159.28 23.224 159.232C22.992 159.184 22.772 159.16 22.564 159.16H21.592V158.44H22.6C22.872 158.44 23.108 158.392 23.308 158.296C23.508 158.192 23.672 158.06 23.8 157.9C23.936 157.74 24.036 157.564 24.1 157.372C24.172 157.172 24.208 156.98 24.208 156.796V156.7C24.208 156.268 24.056 155.928 23.752 155.68C23.456 155.424 23.044 155.296 22.516 155.296C22.172 155.296 21.84 155.368 21.52 155.512C21.2 155.648 20.916 155.912 20.668 156.304L20.008 155.872ZM30.1073 158.812C30.3473 158.532 30.5393 158.292 30.6833 158.092C30.8273 157.892 30.9353 157.716 31.0073 157.564C31.0873 157.404 31.1393 157.264 31.1633 157.144C31.1953 157.024 31.2113 156.908 31.2113 156.796V156.7C31.2113 156.268 31.0673 155.928 30.7793 155.68C30.4993 155.424 30.0953 155.296 29.5673 155.296C29.1833 155.296 28.8233 155.388 28.4873 155.572C28.1513 155.756 27.8433 156.1 27.5633 156.604L26.8913 156.184C26.9953 156 27.1233 155.812 27.2753 155.62C27.4273 155.42 27.6113 155.24 27.8273 155.08C28.0433 154.92 28.2913 154.788 28.5713 154.684C28.8593 154.58 29.1833 154.528 29.5433 154.528C29.9273 154.528 30.2753 154.58 30.5873 154.684C30.8993 154.788 31.1633 154.936 31.3793 155.128C31.5953 155.312 31.7633 155.54 31.8833 155.812C32.0033 156.076 32.0633 156.368 32.0633 156.688V156.808C32.0633 157.04 32.0233 157.268 31.9433 157.492C31.8633 157.708 31.7553 157.92 31.6193 158.128C31.4913 158.336 31.3393 158.544 31.1633 158.752C30.9873 158.96 30.8073 159.172 30.6233 159.388L27.9353 162.544H32.3753V163.312H26.8793V162.592L30.1073 158.812ZM39.7866 157.336V153.892H40.6266V164.092H39.7866V158.104H37.7826V157.336H39.7866ZM35.6226 154.54H36.4746V157C36.4746 157.288 36.4826 157.536 36.4986 157.744C36.5226 157.944 36.5626 158.128 36.6186 158.296C36.6746 158.464 36.7506 158.628 36.8466 158.788C36.9426 158.948 37.0666 159.124 37.2186 159.316C37.4186 159.572 37.6586 159.856 37.9386 160.168C38.2266 160.48 38.5426 160.804 38.8866 161.14L38.3226 161.692C38.0186 161.388 37.7266 161.08 37.4466 160.768C37.1746 160.456 36.9346 160.184 36.7266 159.952C36.5426 159.744 36.3906 159.556 36.2706 159.388C36.1586 159.212 36.0906 159.092 36.0666 159.028H36.0546C36.0386 159.092 35.9786 159.204 35.8746 159.364C35.7706 159.524 35.6266 159.716 35.4426 159.94C35.2186 160.204 34.9626 160.488 34.6746 160.792C34.3946 161.096 34.0626 161.44 33.6786 161.824L33.1026 161.26C33.2786 161.092 33.4546 160.92 33.6306 160.744C33.8146 160.56 33.9826 160.384 34.1346 160.216C34.2946 160.048 34.4386 159.888 34.5666 159.736C34.7026 159.584 34.8186 159.448 34.9146 159.328C35.0586 159.144 35.1746 158.972 35.2626 158.812C35.3586 158.644 35.4306 158.472 35.4786 158.296C35.5346 158.12 35.5706 157.928 35.5866 157.72C35.6106 157.512 35.6226 157.272 35.6226 157V154.54ZM42.7746 164.632H41.9346V153.664H42.7746V164.632ZM45.4045 159.712C45.4045 160.624 45.5245 161.528 45.7645 162.424C46.0045 163.32 46.4325 164.192 47.0485 165.04H46.2805C45.6805 164.328 45.2365 163.52 44.9485 162.616C44.6605 161.712 44.5165 160.724 44.5165 159.652V159.172C44.5165 158.1 44.6605 157.116 44.9485 156.22C45.2365 155.324 45.6805 154.52 46.2805 153.808H47.0485C46.4565 154.608 46.0325 155.452 45.7765 156.34C45.5285 157.22 45.4045 158.144 45.4045 159.112V159.712ZM56.6302 164.644H55.8022V160.036H53.1502C52.9742 160.644 52.6702 161.112 52.2382 161.44C51.8142 161.76 51.2782 161.92 50.6302 161.92C49.7822 161.92 49.1182 161.644 48.6382 161.092C48.1662 160.532 47.9302 159.748 47.9302 158.74V157.612C47.9302 156.612 48.1662 155.836 48.6382 155.284C49.1182 154.724 49.7822 154.444 50.6302 154.444C51.2702 154.444 51.8022 154.608 52.2262 154.936C52.6582 155.256 52.9662 155.716 53.1502 156.316H55.8022V153.664H56.6302V164.644ZM52.5022 157.768C52.5022 157.312 52.4582 156.924 52.3702 156.604C52.2822 156.284 52.1542 156.024 51.9862 155.824C51.8262 155.616 51.6302 155.468 51.3982 155.38C51.1662 155.284 50.9102 155.236 50.6302 155.236C50.3502 155.236 50.0942 155.284 49.8622 155.38C49.6302 155.468 49.4302 155.616 49.2622 155.824C49.1022 156.024 48.9782 156.284 48.8902 156.604C48.8022 156.924 48.7582 157.312 48.7582 157.768V158.596C48.7582 159.052 48.8022 159.444 48.8902 159.772C48.9782 160.092 49.1022 160.356 49.2622 160.564C49.4302 160.764 49.6302 160.912 49.8622 161.008C50.0942 161.096 50.3502 161.14 50.6302 161.14C50.9102 161.14 51.1662 161.096 51.3982 161.008C51.6302 160.912 51.8262 160.764 51.9862 160.564C52.1542 160.356 52.2822 160.092 52.3702 159.772C52.4582 159.444 52.5022 159.052 52.5022 158.596V157.768ZM53.3302 158.74C53.3302 158.828 53.3262 158.916 53.3182 159.004C53.3182 159.092 53.3142 159.18 53.3062 159.268H55.8022V157.084H53.3062C53.3142 157.172 53.3182 157.264 53.3182 157.36C53.3262 157.448 53.3302 157.536 53.3302 157.624V158.74ZM59.7401 159.112C59.7401 158.144 59.6121 157.22 59.3561 156.34C59.1081 155.452 58.6881 154.608 58.0961 153.808H58.8641C59.4641 154.52 59.9081 155.324 60.1961 156.22C60.4841 157.116 60.6281 158.1 60.6281 159.172V159.652C60.6281 160.724 60.4841 161.712 60.1961 162.616C59.9081 163.52 59.4641 164.328 58.8641 165.04H58.0961C58.7121 164.192 59.1401 163.32 59.3801 162.424C59.6201 161.528 59.7401 160.624 59.7401 159.712V159.112Z" fill="#8A8989"/>
<path d="M81.732 163.312V155.716L79.644 156.988L79.26 156.316L81.936 154.66H82.572V163.312H81.732ZM91.4953 159.652C91.4953 160.876 91.2633 161.816 90.7993 162.472C90.3353 163.12 89.5833 163.444 88.5433 163.444C87.5193 163.444 86.7753 163.116 86.3113 162.46C85.8473 161.804 85.6153 160.868 85.6153 159.652V158.308C85.6153 157.1 85.8513 156.168 86.3233 155.512C86.7953 154.856 87.5353 154.528 88.5433 154.528C89.5673 154.528 90.3153 154.856 90.7873 155.512C91.2593 156.16 91.4953 157.092 91.4953 158.308V159.652ZM90.6313 158.296C90.6313 157.224 90.4553 156.456 90.1033 155.992C89.7593 155.52 89.2393 155.284 88.5433 155.284C87.8793 155.284 87.3673 155.52 87.0073 155.992C86.6553 156.464 86.4793 157.232 86.4793 158.296V159.664C86.4793 160.736 86.6553 161.508 87.0073 161.98C87.3673 162.452 87.8793 162.688 88.5433 162.688C89.2313 162.688 89.7513 162.456 90.1033 161.992C90.4553 161.52 90.6313 160.744 90.6313 159.664V158.296ZM100.575 155.032V153.664H101.403V161.512H100.575V157.756H97.2626V157.024H100.575V155.764H97.2626V155.032H100.575ZM93.9146 154.3V159.052C94.4986 159.052 95.0106 159.048 95.4506 159.04C95.8906 159.032 96.3026 159.02 96.6866 159.004C97.0786 158.98 97.4626 158.952 97.8386 158.92C98.2146 158.88 98.6306 158.828 99.0866 158.764L99.1826 159.52C98.7106 159.584 98.2786 159.636 97.8866 159.676C97.4946 159.716 97.0786 159.748 96.6386 159.772C96.1986 159.788 95.6946 159.8 95.1266 159.808C94.5666 159.816 93.8786 159.82 93.0626 159.82V154.3H93.9146ZM95.5226 163.756H101.679V164.5H94.6706V161.068H95.5226V163.756ZM108.449 159.52H103.553V154.348H108.449V159.52ZM107.633 155.092H104.369V158.776H107.633V155.092ZM111.629 156.868H113.309V157.612H111.629V161.512H110.789V153.664H111.629V156.868ZM105.917 163.756H111.965V164.5H105.065V160.888H105.917V163.756ZM122.718 164.632H121.866V153.664H122.718V164.632ZM114.258 161.452C115.178 160.924 115.91 160.472 116.454 160.096C116.998 159.712 117.41 159.356 117.69 159.028C117.97 158.692 118.15 158.356 118.23 158.02C118.318 157.684 118.362 157.292 118.362 156.844V155.464H114.378V154.696H119.19V156.856C119.19 157.224 119.17 157.556 119.13 157.852C119.09 158.148 119.01 158.428 118.89 158.692C118.778 158.956 118.618 159.212 118.41 159.46C118.202 159.708 117.93 159.968 117.594 160.24C117.266 160.512 116.862 160.804 116.382 161.116C115.91 161.42 115.35 161.76 114.702 162.136L114.258 161.452Z" fill="#8A8989"/>
<path d="M144.732 163.312V155.716L142.644 156.988L142.26 156.316L144.936 154.66H145.572V163.312H144.732ZM154.495 159.652C154.495 160.876 154.263 161.816 153.799 162.472C153.335 163.12 152.583 163.444 151.543 163.444C150.519 163.444 149.775 163.116 149.311 162.46C148.847 161.804 148.615 160.868 148.615 159.652V158.308C148.615 157.1 148.851 156.168 149.323 155.512C149.795 154.856 150.535 154.528 151.543 154.528C152.567 154.528 153.315 154.856 153.787 155.512C154.259 156.16 154.495 157.092 154.495 158.308V159.652ZM153.631 158.296C153.631 157.224 153.455 156.456 153.103 155.992C152.759 155.52 152.239 155.284 151.543 155.284C150.879 155.284 150.367 155.52 150.007 155.992C149.655 156.464 149.479 157.232 149.479 158.296V159.664C149.479 160.736 149.655 161.508 150.007 161.98C150.367 162.452 150.879 162.688 151.543 162.688C152.231 162.688 152.751 162.456 153.103 161.992C153.455 161.52 153.631 160.744 153.631 159.664V158.296ZM163.575 155.032V153.664H164.403V161.512H163.575V157.756H160.263V157.024H163.575V155.764H160.263V155.032H163.575ZM156.915 154.3V159.052C157.499 159.052 158.011 159.048 158.451 159.04C158.891 159.032 159.303 159.02 159.687 159.004C160.079 158.98 160.463 158.952 160.839 158.92C161.215 158.88 161.631 158.828 162.087 158.764L162.183 159.52C161.711 159.584 161.279 159.636 160.887 159.676C160.495 159.716 160.079 159.748 159.639 159.772C159.199 159.788 158.695 159.8 158.127 159.808C157.567 159.816 156.879 159.82 156.063 159.82V154.3H156.915ZM158.523 163.756H164.679V164.5H157.671V161.068H158.523V163.756ZM174.629 159.844V164.608H168.041V159.844H168.869V161.392H173.801V159.844H174.629ZM173.801 163.852V162.136H168.869V163.852H173.801ZM167.525 154.264V157.864C168.109 157.864 168.621 157.86 169.061 157.852C169.501 157.844 169.913 157.832 170.297 157.816C170.689 157.792 171.073 157.764 171.449 157.732C171.825 157.692 172.241 157.64 172.697 157.576L172.793 158.332C172.321 158.396 171.889 158.448 171.497 158.488C171.105 158.528 170.689 158.56 170.249 158.584C169.809 158.6 169.305 158.612 168.737 158.62C168.177 158.628 167.489 158.632 166.673 158.632V154.264H167.525ZM174.629 156.04H176.309V156.784H174.629V159.196H173.789V153.664H174.629V156.04Z" fill="#8A8989"/>
<path d="M72 152V166" stroke="#DCDCDC"/>
<path d="M135 152V166" stroke="#DCDCDC"/>
<path d="M21.608 67.208H26.312V64.256H29.384V67.208H33.872V69.8H29.384V71.648C29.384 72.112 29.416 72.536 29.48 72.92C29.544 73.304 29.64 73.672 29.768 74.024C29.912 74.36 30.096 74.688 30.32 75.008C30.544 75.328 30.816 75.664 31.136 76.016C31.344 76.256 31.584 76.52 31.856 76.808C32.144 77.08 32.44 77.368 32.744 77.672C33.048 77.96 33.352 78.256 33.656 78.56C33.976 78.848 34.288 79.128 34.592 79.4L32.648 81.416C32.136 80.936 31.624 80.448 31.112 79.952C30.6 79.44 30.12 78.952 29.672 78.488C29.192 77.992 28.792 77.568 28.472 77.216C28.168 76.848 27.976 76.568 27.896 76.376H27.848C27.736 76.6 27.504 76.92 27.152 77.336C26.8 77.752 26.424 78.168 26.024 78.584C25.576 79.048 25.112 79.528 24.632 80.024C24.152 80.504 23.576 81.048 22.904 81.656L20.912 79.616C22.224 78.448 23.408 77.288 24.464 76.136C24.816 75.736 25.112 75.368 25.352 75.032C25.592 74.696 25.784 74.36 25.928 74.024C26.072 73.672 26.168 73.312 26.216 72.944C26.28 72.56 26.312 72.128 26.312 71.648V69.8H21.608V67.208ZM39.488 86.456H36.44V64.136H39.488V86.456ZM59.7718 72.056H62.8438V74.696H59.7718V86.456H56.7238V64.136H59.7718V72.056ZM48.4198 81.2C47.4118 81.2 46.5478 81.04 45.8278 80.72C45.1078 80.4 44.5078 79.952 44.0278 79.376C43.5638 78.8 43.2198 78.12 42.9958 77.336C42.7878 76.552 42.6838 75.688 42.6838 74.744V72.08C42.6838 71.152 42.7878 70.296 42.9958 69.512C43.2198 68.712 43.5638 68.024 44.0278 67.448C44.5078 66.872 45.1078 66.424 45.8278 66.104C46.5478 65.784 47.4118 65.624 48.4198 65.624C49.4278 65.624 50.2918 65.784 51.0118 66.104C51.7318 66.424 52.3238 66.872 52.7878 67.448C53.2678 68.024 53.6118 68.712 53.8198 69.512C54.0438 70.296 54.1558 71.152 54.1558 72.08V74.744C54.1558 75.688 54.0438 76.552 53.8198 77.336C53.6118 78.12 53.2678 78.8 52.7878 79.376C52.3238 79.952 51.7318 80.4 51.0118 80.72C50.2918 81.04 49.4278 81.2 48.4198 81.2ZM48.4198 68.288C47.4118 68.288 46.6838 68.64 46.2358 69.344C45.8038 70.048 45.5878 71.08 45.5878 72.44V74.384C45.5878 75.744 45.8038 76.776 46.2358 77.48C46.6838 78.184 47.4118 78.536 48.4198 78.536C49.4278 78.536 50.1478 78.184 50.5798 77.48C51.0278 76.776 51.2518 75.744 51.2518 74.384V72.44C51.2518 71.08 51.0278 70.048 50.5798 69.344C50.1478 68.64 49.4278 68.288 48.4198 68.288ZM75.1595 77.432V81.08H83.8715V83.648H63.4235V81.08H72.1355V77.432H66.1835V65.672H69.2075V69.248H78.0875V65.672H81.1115V77.432H75.1595ZM78.0875 74.888V71.816H69.2075V74.888H78.0875ZM89.1312 78.608H103.315V86.48H89.1312V78.608ZM91.3632 77.432C90.5152 77.432 89.7632 77.344 89.1072 77.168C88.4512 76.976 87.8992 76.72 87.4512 76.4C87.0032 76.08 86.6592 75.696 86.4192 75.248C86.1792 74.8 86.0592 74.32 86.0592 73.808V73.088C86.0592 72.576 86.1792 72.104 86.4192 71.672C86.6592 71.224 87.0032 70.84 87.4512 70.52C87.8992 70.184 88.4512 69.928 89.1072 69.752C89.7632 69.56 90.5152 69.464 91.3632 69.464C92.1952 69.464 92.9392 69.56 93.5952 69.752C94.2672 69.928 94.8272 70.184 95.2752 70.52C95.7232 70.84 96.0672 71.224 96.3072 71.672C96.5472 72.104 96.6672 72.576 96.6672 73.088V73.808C96.6672 74.32 96.5472 74.8 96.3072 75.248C96.0672 75.696 95.7232 76.08 95.2752 76.4C94.8272 76.72 94.2672 76.976 93.5952 77.168C92.9392 77.344 92.1952 77.432 91.3632 77.432ZM100.291 73.616H97.6032V71.024H100.291V64.136H103.315V77.6H100.291V73.616ZM92.8512 66.248H97.7952V68.768H84.9312V66.248H89.8272V63.848H92.8512V66.248ZM92.1312 84.008H100.315V81.08H92.1312V84.008ZM91.3632 71.816C90.5472 71.816 89.9312 71.968 89.5152 72.272C89.1152 72.56 88.9152 72.88 88.9152 73.232V73.664C88.9152 74.016 89.1152 74.344 89.5152 74.648C89.9312 74.936 90.5472 75.08 91.3632 75.08C92.1792 75.08 92.7872 74.936 93.1872 74.648C93.6032 74.344 93.8112 74.016 93.8112 73.664V73.232C93.8112 72.88 93.6032 72.56 93.1872 72.272C92.7872 71.968 92.1792 71.816 91.3632 71.816Z" fill="black"/>
<path d="M29.758 114.96V102.052H31.144V114.96H29.758ZM21.386 111.572V103.102H22.758V106.154H26.02V103.102H27.392V111.572H21.386ZM22.758 110.382H26.02V107.33H22.758V110.382ZM43.0602 110.592V114.988H34.6042V110.592H35.9762V111.6H41.6882V110.592H43.0602ZM38.8322 108.366C38.2722 108.366 37.7542 108.329 37.2782 108.254C36.8022 108.179 36.3915 108.072 36.0462 107.932C35.7009 107.783 35.4302 107.605 35.2342 107.4C35.0382 107.185 34.9402 106.938 34.9402 106.658V106.28C34.9402 106 35.0382 105.753 35.2342 105.538C35.4302 105.323 35.7009 105.146 36.0462 105.006C36.3915 104.857 36.8022 104.745 37.2782 104.67C37.7542 104.595 38.2722 104.558 38.8322 104.558C39.3922 104.558 39.9102 104.595 40.3862 104.67C40.8622 104.745 41.2729 104.857 41.6182 105.006C41.9635 105.146 42.2342 105.323 42.4302 105.538C42.6262 105.753 42.7242 106 42.7242 106.28V106.658C42.7242 106.938 42.6262 107.185 42.4302 107.4C42.2342 107.605 41.9635 107.783 41.6182 107.932C41.2729 108.072 40.8622 108.179 40.3862 108.254C39.9102 108.329 39.3922 108.366 38.8322 108.366ZM44.7542 108.87V110.018H32.9102V108.87H44.7542ZM34.1282 103.004H38.1322V101.814H39.5182V103.004H43.5362V104.138H34.1282V103.004ZM38.8322 105.664C38.0389 105.664 37.4182 105.734 36.9702 105.874C36.5315 106.005 36.3122 106.182 36.3122 106.406V106.518C36.3122 106.742 36.5315 106.924 36.9702 107.064C37.4182 107.195 38.0389 107.26 38.8322 107.26C39.6255 107.26 40.2415 107.195 40.6802 107.064C41.1282 106.924 41.3522 106.742 41.3522 106.518V106.406C41.3522 106.182 41.1282 106.005 40.6802 105.874C40.2415 105.734 39.6255 105.664 38.8322 105.664ZM41.6882 113.812V112.734H35.9762V113.812H41.6882ZM48.8584 102.514C49.3904 102.514 49.857 102.603 50.2584 102.78C50.6597 102.957 50.9957 103.191 51.2664 103.48C51.5464 103.76 51.7517 104.077 51.8824 104.432C52.0224 104.787 52.0924 105.137 52.0924 105.482V106.196C52.0924 106.541 52.0224 106.891 51.8824 107.246C51.7517 107.601 51.5464 107.923 51.2664 108.212C50.9957 108.492 50.6597 108.721 50.2584 108.898C49.857 109.075 49.3904 109.164 48.8584 109.164C48.3264 109.164 47.8597 109.075 47.4584 108.898C47.057 108.721 46.7164 108.492 46.4364 108.212C46.1657 107.923 45.9604 107.601 45.8204 107.246C45.6897 106.891 45.6244 106.541 45.6244 106.196V105.482C45.6244 105.137 45.6897 104.787 45.8204 104.432C45.9604 104.077 46.1657 103.76 46.4364 103.48C46.7164 103.191 47.057 102.957 47.4584 102.78C47.8597 102.603 48.3264 102.514 48.8584 102.514ZM54.7944 111.264V108.072H52.7644V106.882H54.7944V104.964H52.7644V103.774H54.7944V102.052H56.1524V111.264H54.7944ZM49.4744 113.616H56.4604V114.82H48.0884V110.536H49.4744V113.616ZM48.8584 107.946C49.1664 107.946 49.437 107.89 49.6704 107.778C49.913 107.666 50.1137 107.526 50.2724 107.358C50.4404 107.181 50.5664 106.98 50.6504 106.756C50.7344 106.532 50.7764 106.308 50.7764 106.084V105.594C50.7764 105.37 50.7344 105.146 50.6504 104.922C50.5664 104.698 50.4404 104.502 50.2724 104.334C50.1137 104.157 49.913 104.012 49.6704 103.9C49.437 103.788 49.1664 103.732 48.8584 103.732C48.5504 103.732 48.275 103.788 48.0324 103.9C47.799 104.012 47.5984 104.157 47.4304 104.334C47.2717 104.502 47.1504 104.698 47.0664 104.922C46.9824 105.146 46.9404 105.37 46.9404 105.594V106.084C46.9404 106.308 46.9824 106.532 47.0664 106.756C47.1504 106.98 47.2717 107.181 47.4304 107.358C47.5984 107.526 47.799 107.666 48.0324 107.778C48.275 107.89 48.5504 107.946 48.8584 107.946ZM67.1446 114.96V102.052H68.5306V114.96H67.1446ZM61.8806 108.506C61.8152 108.665 61.7172 108.823 61.5866 108.982C61.4652 109.141 61.2926 109.341 61.0686 109.584C60.7792 109.901 60.4479 110.247 60.0746 110.62C59.7012 110.984 59.2766 111.385 58.8006 111.824L57.8906 110.886C58.7399 110.13 59.4772 109.407 60.1026 108.716C60.3172 108.473 60.4946 108.249 60.6346 108.044C60.7746 107.839 60.8819 107.638 60.9566 107.442C61.0406 107.237 61.0966 107.031 61.1246 106.826C61.1619 106.611 61.1806 106.378 61.1806 106.126V102.976H62.5806V106.126C62.5806 106.406 62.5992 106.658 62.6366 106.882C62.6739 107.097 62.7346 107.307 62.8186 107.512C62.9026 107.708 63.0146 107.909 63.1546 108.114C63.3039 108.31 63.4859 108.525 63.7006 108.758C63.9992 109.085 64.3119 109.407 64.6386 109.724C64.9652 110.032 65.3386 110.373 65.7586 110.746L64.8626 111.698C64.3772 111.25 63.9666 110.863 63.6306 110.536C63.3039 110.2 63.0052 109.887 62.7346 109.598C62.5386 109.383 62.3612 109.183 62.2026 108.996C62.0532 108.809 61.9506 108.646 61.8946 108.506H61.8806Z" fill="black"/>
<path d="M57 0.5L63.5 13H56.5L57 0.5Z" fill="#977558"/>
<path d="M23 4C23 1.79086 24.7909 0 27 0H57V33.075L23 42V4Z" fill="#4D4135"/>
<path d="M32.056 18.512C32.3867 18.1707 32.648 17.872 32.84 17.616C33.032 17.36 33.176 17.1307 33.272 16.928C33.368 16.7253 33.4267 16.5387 33.448 16.368C33.4693 16.1973 33.48 16.032 33.48 15.872V15.744C33.48 15.4347 33.352 15.1573 33.096 14.912C32.8507 14.656 32.4293 14.528 31.832 14.528C31.6187 14.528 31.4053 14.5493 31.192 14.592C30.9893 14.6347 30.7867 14.7147 30.584 14.832C30.3813 14.9493 30.1787 15.1147 29.976 15.328C29.784 15.5413 29.592 15.8133 29.4 16.144L27.864 15.136C28.0027 14.8907 28.1733 14.624 28.376 14.336C28.5893 14.048 28.8507 13.7867 29.16 13.552C29.48 13.3067 29.8533 13.104 30.28 12.944C30.7173 12.784 31.2293 12.704 31.816 12.704C32.4667 12.704 33.0267 12.784 33.496 12.944C33.9653 13.104 34.3493 13.3227 34.648 13.6C34.9573 13.8667 35.1813 14.1813 35.32 14.544C35.4693 14.896 35.544 15.2693 35.544 15.664V15.824C35.544 16.4533 35.4 17.056 35.112 17.632C34.8347 18.1973 34.424 18.752 33.88 19.296L30.488 22.72H35.976V24.416H27.816V22.88L32.056 18.512ZM41.9939 18.24C41.3965 18.24 40.8579 18.1653 40.3779 18.016C39.9085 17.856 39.5032 17.6427 39.1619 17.376C38.8205 17.0987 38.5592 16.7787 38.3779 16.416C38.1965 16.0427 38.1059 15.648 38.1059 15.232V14.72C38.1059 14.304 38.1965 13.9147 38.3779 13.552C38.5592 13.1787 38.8205 12.8587 39.1619 12.592C39.5032 12.3147 39.9085 12.1013 40.3779 11.952C40.8579 11.792 41.3965 11.712 41.9939 11.712C42.5805 11.712 43.1139 11.792 43.5939 11.952C44.0739 12.1013 44.4845 12.3147 44.8259 12.592C45.1672 12.8587 45.4285 13.1787 45.6099 13.552C45.7912 13.9147 45.8819 14.304 45.8819 14.72V15.232C45.8819 15.648 45.7912 16.0427 45.6099 16.416C45.4285 16.7787 45.1672 17.0987 44.8259 17.376C44.4845 17.6427 44.0739 17.856 43.5939 18.016C43.1139 18.1653 42.5805 18.24 41.9939 18.24ZM49.6419 26.304H47.6419V11.424H49.6419V26.304ZM37.3699 19.296C38.5965 19.296 39.6899 19.2907 40.6499 19.28C41.6205 19.2693 42.4845 19.2533 43.2419 19.232C44.0099 19.2107 44.6872 19.184 45.2739 19.152C45.8605 19.12 46.3939 19.0773 46.8739 19.024L47.0179 20.736C46.5272 20.8 45.9565 20.8533 45.3059 20.896C44.6552 20.928 43.8979 20.9547 43.0339 20.976V25.872H41.0339V21.008C40.4899 21.0187 39.9139 21.024 39.3059 21.024C38.7085 21.024 38.0632 21.024 37.3699 21.024V19.296ZM41.9939 13.376C41.7059 13.376 41.4392 13.4187 41.1939 13.504C40.9485 13.5787 40.7352 13.6853 40.5539 13.824C40.3832 13.952 40.2499 14.1067 40.1539 14.288C40.0579 14.4587 40.0099 14.64 40.0099 14.832V15.12C40.0099 15.312 40.0579 15.4987 40.1539 15.68C40.2499 15.8507 40.3832 16.0053 40.5539 16.144C40.7352 16.272 40.9485 16.3787 41.1939 16.464C41.4392 16.5387 41.7059 16.576 41.9939 16.576C42.2819 16.576 42.5485 16.5387 42.7939 16.464C43.0392 16.3787 43.2472 16.272 43.4179 16.144C43.5992 16.0053 43.7379 15.8507 43.8339 15.68C43.9299 15.4987 43.9779 15.312 43.9779 15.12V14.832C43.9779 14.64 43.9299 14.4587 43.8339 14.288C43.7379 14.1067 43.5992 13.952 43.4179 13.824C43.2472 13.6853 43.0392 13.5787 42.7939 13.504C42.5485 13.4187 42.2819 13.376 41.9939 13.376Z" fill="white"/>
</svg>
