<svg width="17" height="17" viewBox="0 0 17 17" fill="none" xmlns="http://www.w3.org/2000/svg">
<path d="M12.7828 0H4.21829C3.10008 0.000856973 2.02788 0.443389 1.23703 1.23047C0.446184 2.01755 0.0012919 3.08488 0 4.19819V12.8018C0.0012919 13.9151 0.446184 14.9824 1.23703 15.7695C2.02788 16.5566 3.10008 16.9991 4.21829 17H12.7828C13.9008 16.9989 14.9727 16.5562 15.7634 15.7691C16.554 14.9821 16.9987 13.9149 17 12.8018V4.19819C16.9987 3.08506 16.554 2.0179 15.7634 1.23085C14.9727 0.443801 13.9008 0.00114269 12.7828 0ZM16.1869 12.8018C16.1859 13.7003 15.8269 14.5617 15.1887 15.197C14.5505 15.8323 13.6853 16.1896 12.7828 16.1905H4.21829C3.31582 16.1896 2.45055 15.8323 1.81236 15.197C1.17416 14.5617 0.815175 13.7003 0.81417 12.8018V4.19819C0.815175 3.29967 1.17416 2.43825 1.81236 1.80296C2.45055 1.16766 3.31582 0.810381 4.21829 0.809524H12.7828C13.6853 0.810381 14.5505 1.16766 15.1887 1.80296C15.8269 2.43825 16.1859 3.29967 16.1869 4.19819V12.8018Z" fill="#565656"/>
<path d="M8.49777 2.98242C7.23803 2.98399 6.03034 3.48293 5.13957 4.36979C4.2488 5.25666 3.74767 6.45906 3.74609 7.71328C3.74609 7.82063 3.78893 7.92358 3.86517 7.99949C3.94141 8.0754 4.04481 8.11804 4.15264 8.11804H12.8429C12.9507 8.11804 13.0541 8.0754 13.1304 7.99949C13.2066 7.92358 13.2494 7.82063 13.2494 7.71328C13.2479 6.45906 12.7467 5.25666 11.856 4.36979C10.9652 3.48293 9.75751 2.98399 8.49777 2.98242ZM8.71025 7.30852L9.461 6.40131C9.52965 6.31851 9.56245 6.21195 9.55218 6.10507C9.54191 5.99819 9.48942 5.89975 9.40626 5.83141C9.32309 5.76306 9.21606 5.73041 9.10871 5.74063C9.00136 5.75085 8.90249 5.80311 8.83384 5.88591L7.65595 7.30852H4.57978C4.68057 6.34383 5.13682 5.45054 5.86041 4.80117C6.584 4.1518 7.52361 3.79241 8.49777 3.79241C9.47193 3.79241 10.4115 4.1518 11.1351 4.80117C11.8587 5.45054 12.315 6.34383 12.4158 7.30852H8.71025Z" fill="#565656"/>
</svg>
