<svg width="200" height="23" viewBox="0 0 200 23" fill="none" xmlns="http://www.w3.org/2000/svg">
<path d="M2.7168 2.1875V6.7207H5.42383V2.1875H7.91602V7.55859H9.87109V0.748047H12.4492V19.1172H9.87109V9.79297H7.91602V15.3359H0.138672V2.1875H2.7168ZM2.7168 13.1016H5.42383V8.89062H2.7168V13.1016ZM16.5312 0.425781V19.9766H13.9102V0.425781H16.5312ZM34.5893 0.425781V19.9766H31.8608V0.425781H34.5893ZM21.9135 2.29492V12.8008C24.5561 12.7686 27.392 12.5215 30.2709 11.9629L30.6147 14.2188C27.1772 14.9277 23.9545 15.1641 20.9252 15.1426H19.2065V2.29492H21.9135ZM54.6239 15.4648V17.6992H36.7274V15.4648H44.2684V11.8555H38.618V1.67188H41.368V4.70117H49.8973V1.67188H52.6259V11.8555H46.997V15.4648H54.6239ZM41.368 9.66406H49.8973V6.89258H41.368V9.66406ZM71.6937 0.425781V20.0195H68.9652V0.425781H71.6937ZM65.6351 2.05859V9.59961H59.1898V13.1875C62.1654 13.1768 64.7005 13.0049 67.5687 12.543L67.805 14.7559C64.5823 15.3145 61.682 15.4434 58.1155 15.4434H56.3538V7.42969H62.8421V4.27148H56.3323V2.05859H65.6351ZM90.2244 0.425781V11.4043H87.4959V0.425781H90.2244ZM77.742 1.54297V8.13867C80.7068 8.11719 83.2205 7.90234 85.8416 7.34375L86.1638 9.55664C83.113 10.2012 80.1912 10.4375 76.6892 10.4375H74.992V1.54297H77.742ZM90.2244 12.1992V19.7402H77.1619V12.1992H90.2244ZM79.8474 14.3477V17.5918H87.5388V14.3477H79.8474ZM96.5734 16.4102L94.7258 22.5332H92.4484L93.5227 16.4102H96.5734ZM117.758 0.425781V6.0332H120.4V8.31055H117.758V14.6699H115.008V0.425781H117.758ZM118.467 17.4414V19.6328H105.082V13.166H107.811V17.4414H118.467ZM107.746 1.69336C110.732 1.69336 113.074 3.75586 113.074 6.65625C113.074 9.51367 110.732 11.6191 107.746 11.6191C104.738 11.6191 102.375 9.51367 102.375 6.65625C102.375 3.75586 104.738 1.69336 107.746 1.69336ZM107.746 4.07812C106.264 4.05664 105.061 5.02344 105.082 6.65625C105.061 8.24609 106.264 9.23438 107.746 9.23438C109.25 9.23438 110.389 8.24609 110.41 6.65625C110.389 5.02344 109.25 4.05664 107.746 4.07812ZM124.709 1.43555V9.10547C127.523 9.07324 129.639 8.93359 131.992 8.48242L132.293 10.6953C129.564 11.2109 127.072 11.3398 123.548 11.3398H121.937V1.43555H124.709ZM137.298 0.425781V12.1777H134.57V7.66602H129.779V5.58203H134.57V4.29297H129.779V2.1875H134.57V0.425781H137.298ZM130.617 12.3926C134.785 12.3926 137.341 13.8105 137.363 16.2168C137.341 18.6016 134.785 19.998 130.617 19.998C126.449 19.998 123.892 18.6016 123.892 16.2168C123.892 13.8105 126.449 12.3926 130.617 12.3926ZM130.617 14.541C128.017 14.541 126.621 15.0996 126.621 16.2168C126.621 17.291 128.017 17.8711 130.617 17.8711C133.216 17.8711 134.634 17.291 134.634 16.2168C134.634 15.0996 133.216 14.541 130.617 14.541ZM154.819 0.425781V8.07422H157.698V10.3301H154.819V19.9766H152.112V0.425781H154.819ZM150.78 3.34766V5.53906H139.286V3.34766H143.712V0.726562H146.462V3.34766H150.78ZM145.087 6.63477C147.944 6.63477 150.071 8.56836 150.071 11.2969C150.071 14.0254 147.944 15.959 145.087 15.959C142.208 15.959 140.081 14.0254 140.081 11.2969C140.081 8.56836 142.208 6.63477 145.087 6.63477ZM145.087 8.84766C143.712 8.86914 142.702 9.79297 142.702 11.2969C142.702 12.8223 143.712 13.7246 145.087 13.7031C146.462 13.7246 147.45 12.8223 147.45 11.2969C147.45 9.79297 146.462 8.86914 145.087 8.84766ZM164.241 5.3457C164.241 8.50391 165.121 11.7695 167.786 13.4883L166.303 15.6152C164.617 14.5947 163.542 12.9189 162.93 10.9102C162.221 13.123 161.05 14.9707 159.278 16.0449L157.602 14.0254C160.502 12.2207 161.577 8.7832 161.577 5.47461V2.10156H164.241V5.3457ZM174.918 0.425781V19.9766H172.297V0.425781H174.918ZM170.815 0.705078V19.0742H168.258V9.25586H165.723V7.02148H168.258V0.705078H170.815ZM194.437 15.4434V17.6992H176.541V15.4434H180.537V10.6523C179.022 9.75 178.109 8.36426 178.109 6.63477C178.109 3.47656 181.203 1.37109 185.457 1.37109C189.689 1.37109 192.805 3.47656 192.826 6.63477C192.815 8.32129 191.924 9.69629 190.463 10.6094V15.4434H194.437ZM185.457 3.54102C182.664 3.54102 180.816 4.6582 180.816 6.63477C180.816 8.54688 182.664 9.72852 185.457 9.72852C188.228 9.72852 190.098 8.54688 190.119 6.63477C190.098 4.6582 188.228 3.54102 185.457 3.54102ZM183.244 15.4434H187.691V11.6406C186.993 11.7803 186.241 11.8555 185.457 11.8555C184.673 11.8555 183.931 11.791 183.244 11.6406V15.4434ZM197.65 18.1934C196.64 18.1934 195.824 17.377 195.845 16.3887C195.824 15.4004 196.64 14.6055 197.65 14.6055C198.595 14.6055 199.433 15.4004 199.433 16.3887C199.433 17.377 198.595 18.1934 197.65 18.1934Z" fill="black"/>
</svg>
