<svg width="194" height="19" viewBox="0 0 194 19" fill="none" xmlns="http://www.w3.org/2000/svg">
<path d="M2.37891 2.625V6.74609H4.83984V2.625H7.10547V7.50781H8.88281V1.31641H11.2266V18.0156H8.88281V9.53906H7.10547V14.5781H0.0351562V2.625H2.37891ZM2.37891 12.5469H4.83984V8.71875H2.37891V12.5469ZM14.9375 1.02344V18.7969H12.5547V1.02344H14.9375ZM31.3539 1.02344V18.7969H28.8734V1.02344H31.3539ZM19.8305 2.72266V12.2734C22.2328 12.2441 24.8109 12.0195 27.4281 11.5117L27.7406 13.5625C24.6156 14.207 21.6859 14.4219 18.932 14.4023H17.3695V2.72266H19.8305ZM49.5672 14.6953V16.7266H33.2977V14.6953H40.1531V11.4141H35.0164V2.15625H37.5164V4.91016H45.2703V2.15625H47.7508V11.4141H42.6336V14.6953H49.5672ZM37.5164 9.42188H45.2703V6.90234H37.5164V9.42188ZM65.0852 1.02344V18.8359H62.6047V1.02344H65.0852ZM59.5773 2.50781V9.36328H53.718V12.625C56.423 12.6152 58.7277 12.459 61.3352 12.0391L61.55 14.0508C58.6203 14.5586 55.9836 14.6758 52.7414 14.6758H51.1398V7.39062H57.0383V4.51953H51.1203V2.50781H59.5773ZM81.9313 1.02344V11.0039H79.4508V1.02344H81.9313ZM70.5836 2.03906V8.03516C73.2789 8.01562 75.5641 7.82031 77.9469 7.3125L78.2398 9.32422C75.4664 9.91016 72.8102 10.125 69.6266 10.125H68.0836V2.03906H70.5836ZM81.9313 11.7266V18.582H70.0563V11.7266H81.9313ZM72.4977 13.6797V16.6289H79.4898V13.6797H72.4977ZM104.432 14.6953V16.7266H88.1625V14.6953H95.018V11.4141H89.8812V2.15625H92.3812V4.91016H100.135V2.15625H102.616V11.4141H97.4984V14.6953H104.432ZM92.3812 9.42188H100.135V6.90234H92.3812V9.42188ZM120.028 1.02344V11.7656H117.548V8.26953H115.243V6.23828H117.548V1.02344H120.028ZM120.028 12.5273V18.6016H108.075V12.5273H120.028ZM110.575 14.4805V16.6094H117.587V14.4805H110.575ZM115.555 2.56641V4.55859H105.087V2.56641H109.11V0.867188H111.571V2.56641H115.555ZM110.341 5.14453C112.841 5.14453 114.598 6.47266 114.598 8.32812C114.598 10.2617 112.841 11.5508 110.341 11.5508C107.86 11.5508 106.063 10.2617 106.063 8.32812C106.063 6.47266 107.86 5.14453 110.341 5.14453ZM110.341 7.01953C109.188 7.01953 108.446 7.48828 108.466 8.32812C108.446 9.22656 109.188 9.71484 110.341 9.71484C111.473 9.71484 112.216 9.22656 112.216 8.32812C112.216 7.48828 111.473 7.01953 110.341 7.01953ZM141.123 1.04297V14.0312H138.642V8.23047H135.459V6.17969H138.642V1.04297H141.123ZM135.615 2.35156C135.615 7.11719 132.588 10.6328 127.392 12.2539L126.377 10.2812C130.058 9.12891 132.431 7.00977 132.9 4.38281H127.295V2.35156H135.615ZM141.572 16.4922V18.4844H129.404V12.7227H131.943V16.4922H141.572ZM157.129 1.02344V5.20312H159.531V7.23438H157.129V11.3359H154.629V1.02344H157.129ZM152.168 2.19531C152.188 6.94141 149.199 10.2617 143.906 11.7266L142.91 9.71484C146.826 8.66992 149.072 6.6582 149.453 4.1875H143.75V2.19531H152.168ZM151.328 11.5508C154.941 11.5508 157.324 12.957 157.324 15.1836C157.324 17.4297 154.941 18.8164 151.328 18.8164C147.715 18.8164 145.293 17.4297 145.312 15.1836C145.293 12.957 147.715 11.5508 151.328 11.5508ZM151.328 13.4844C149.082 13.4844 147.754 14.0898 147.773 15.1836C147.754 16.2578 149.082 16.8828 151.328 16.8633C153.535 16.8828 154.863 16.2578 154.863 15.1836C154.863 14.0898 153.535 13.4844 151.328 13.4844ZM176.163 9.14844V11.1797H159.913V9.14844H176.163ZM174.307 5.92578V7.89844H161.885V1.49219H174.209V3.50391H164.366V5.92578H174.307ZM167.998 12.2539C171.846 12.2539 174.17 13.4258 174.19 15.5156C174.17 17.625 171.846 18.7969 167.998 18.7969C164.112 18.7969 161.768 17.625 161.768 15.5156C161.768 13.4258 164.112 12.2539 167.998 12.2539ZM167.998 14.1484C165.538 14.1484 164.288 14.6172 164.307 15.5156C164.288 16.4531 165.538 16.9023 167.998 16.9023C170.401 16.9023 171.67 16.4531 171.69 15.5156C171.67 14.6172 170.401 14.1484 167.998 14.1484ZM181.192 11.1406V13.0352H188.595V11.1406H191.055V18.6016H178.751V11.1406H181.192ZM181.192 16.5898H188.595V14.9297H181.192V16.5898ZM191.134 1.74609V3.17188C191.134 4.51953 191.134 5.96484 190.723 7.97656H193.067V9.96875H176.798V7.97656H188.243C188.595 6.25781 188.643 4.91992 188.653 3.73828H178.79V1.74609H191.134Z" fill="black"/>
</svg>
