<svg width="149" height="37" viewBox="0 0 149 37" fill="none" xmlns="http://www.w3.org/2000/svg">
<rect x="149" y="28" width="149" height="28" rx="14" transform="rotate(-180 149 28)" fill="#6A5ACD"/>
<path d="M21.4707 9.17444V13.0719H18.1953V14.3922H22.791V15.3698H12.4189V14.3922H17.002V13.0719H13.7393V9.17444H21.4707ZM14.9199 10.1266V12.1071H20.2773V10.1266H14.9199ZM21.5215 16.4489V20.0797H20.3027V17.401H13.5742V16.4489H21.5215ZM33.9345 17.7438V18.734H23.5243V17.7438H26.3173V15.2174H24.4384V14.2399H26.1395V10.6979H24.413V9.70764H32.9823V10.6979H31.243V14.2399H32.9442V15.2174H31.078V17.7438H33.9345ZM27.3329 14.2399H30.0624V10.6979H27.3329V14.2399ZM27.5233 17.7438H29.872V15.2174H27.5233V17.7438ZM43.6687 8.70471V13.3258H45.3191V14.316H43.6687V20.0797H42.4627V8.70471H43.6687ZM38.0574 9.92346C38.0574 12.7672 37.5369 15.3571 35.4802 17.5533L34.5281 16.8805C36.1912 15.1539 36.7942 13.1925 36.9148 10.9137H34.9343V9.92346H38.0574ZM41.1931 9.92346C41.1931 12.8053 40.8377 15.8268 38.7429 18.3024L37.7781 17.6422C39.4666 15.6681 39.9744 13.3448 40.0632 10.9137H38.4255V9.92346H41.1931ZM49.9245 12.0563C49.9245 13.9606 51.1686 15.9283 52.9205 16.6774L52.2604 17.6168C50.921 17.0265 49.8546 15.776 49.3278 14.2526C48.8009 15.8776 47.7282 17.2614 46.4079 17.9088L45.7096 16.9567C47.4235 16.1569 48.693 14.0114 48.7057 12.0563V10.8502H46.1032V9.84729H52.5143V10.8502H49.9245V12.0563ZM55.1549 8.70471V20.0797H53.9489V8.70471H55.1549ZM63.4008 19.1276C61.6615 19.1276 60.3539 18.0612 60.2904 16.6012H61.6488C61.725 17.3883 62.474 17.9596 63.4008 17.9596C64.518 17.9596 65.3178 17.1471 65.3178 16.0553C65.3178 14.9381 64.4926 14.1256 63.3373 14.1129C62.601 14.1129 62.0424 14.3541 61.725 14.9254H60.4047L61.0014 9.8092H66.2064V11.0026H62.1566L61.852 13.5797H61.9408C62.3217 13.2115 62.9691 12.9576 63.6674 12.9576C65.3939 12.9576 66.6762 14.2399 66.6762 16.0172C66.6762 17.8326 65.3178 19.1276 63.4008 19.1276ZM69.3518 18.1246L68.3362 21.6285H67.2571L67.93 18.1246H69.3518ZM73.9064 19.1276C71.7736 19.1276 70.5295 17.4137 70.5295 14.4049C70.5295 11.4215 71.799 9.68225 73.9064 9.68225C76.0138 9.68225 77.2834 11.4215 77.2834 14.4049C77.2834 17.4137 76.0265 19.1276 73.9064 19.1276ZM73.9064 17.9215C75.1505 17.9215 75.8869 16.7028 75.8869 14.4049C75.8869 12.1198 75.1379 10.8629 73.9064 10.8629C72.675 10.8629 71.9259 12.1198 71.9259 14.4049C71.9259 16.7028 72.6623 17.9215 73.9064 17.9215ZM81.7998 19.1276C79.667 19.1276 78.4229 17.4137 78.4229 14.4049C78.4229 11.4215 79.6924 9.68225 81.7998 9.68225C83.9073 9.68225 85.1768 11.4215 85.1768 14.4049C85.1768 17.4137 83.92 19.1276 81.7998 19.1276ZM81.7998 17.9215C83.044 17.9215 83.7803 16.7028 83.7803 14.4049C83.7803 12.1198 83.0313 10.8629 81.7998 10.8629C80.5684 10.8629 79.8194 12.1198 79.8194 14.4049C79.8194 16.7028 80.5557 17.9215 81.7998 17.9215ZM89.6933 19.1276C87.5605 19.1276 86.3163 17.4137 86.3163 14.4049C86.3163 11.4215 87.5859 9.68225 89.6933 9.68225C91.8007 9.68225 93.0702 11.4215 93.0702 14.4049C93.0702 17.4137 91.8134 19.1276 89.6933 19.1276ZM89.6933 17.9215C90.9374 17.9215 91.6738 16.7028 91.6738 14.4049C91.6738 12.1198 90.9247 10.8629 89.6933 10.8629C88.4618 10.8629 87.7128 12.1198 87.7128 14.4049C87.7128 16.7028 88.4491 17.9215 89.6933 17.9215ZM106.521 8.70471V14.4938H105.315V12.3229H102.954V11.3453H105.315V8.70471H106.521ZM102.852 9.21252C102.852 12.0817 100.923 13.9479 97.6218 14.7604L97.2028 13.7828C99.8625 13.1608 101.354 11.8722 101.557 10.2028H97.8122V9.21252H102.852ZM106.521 14.9762V17.858H100.3V19.0006H106.864V19.9655H99.1071V16.944H105.315V15.9283H99.0817V14.9762H106.521ZM113.323 8.94592C115.824 8.94592 117.385 9.75842 117.385 11.1295C117.385 12.4752 115.824 13.275 113.323 13.275C110.835 13.275 109.26 12.4752 109.26 11.1295C109.26 9.75842 110.835 8.94592 113.323 8.94592ZM113.323 9.89807C111.571 9.89807 110.492 10.3424 110.504 11.1295C110.492 11.8912 111.571 12.3229 113.323 12.3356C115.062 12.3229 116.141 11.8912 116.141 11.1295C116.141 10.3424 115.062 9.89807 113.323 9.89807ZM117.246 16.1442V19.9401H109.387V16.1442H117.246ZM110.581 17.109V18.9625H116.078V17.109H110.581ZM118.515 14.151V15.1285H108.143V14.151H118.515ZM128.069 9.75842V10.7614H124.07V16.3092C125.974 16.3029 127.288 16.233 128.78 15.941L128.919 16.9313C127.282 17.236 125.898 17.3121 123.752 17.3121H122.851V9.75842H128.069ZM131.788 8.70471V20.1051H130.582V13.7701H127.421V12.7672H130.582V8.70471H131.788ZM135.492 9.8092L135.378 16.3473H134.121L134.007 9.8092H135.492ZM134.756 19.0895C134.261 19.0895 133.842 18.6832 133.855 18.1881C133.842 17.693 134.261 17.2867 134.756 17.2867C135.238 17.2867 135.657 17.693 135.657 18.1881C135.657 18.6832 135.238 19.0895 134.756 19.0895Z" fill="white"/>
<path d="M122.688 34.3422C121.903 35.5793 120.097 35.5793 119.312 34.3422L113.425 25.0728C112.579 23.7413 113.536 22.0006 115.113 22.0006L126.887 22.0006C128.464 22.0006 129.421 23.7413 128.575 25.0728L122.688 34.3422Z" fill="#6A5ACD"/>
</svg>
