<svg width="61" height="25" viewBox="0 0 61 25" fill="none" xmlns="http://www.w3.org/2000/svg">
<path fill-rule="evenodd" clip-rule="evenodd" d="M7.07187 6.66406C7.43086 6.66406 7.72187 6.92523 7.72187 7.2474V17.7474C7.72187 18.0696 7.43086 18.3307 7.07187 18.3307C6.71289 18.3307 6.42188 18.0696 6.42188 17.7474V7.2474C6.42188 6.92523 6.71289 6.66406 7.07187 6.66406Z" fill="#292929"/>
<path fill-rule="evenodd" clip-rule="evenodd" d="M1.17187 12.4359C1.17187 12.077 1.43312 11.7859 1.75537 11.7859L12.2584 11.7859C12.5806 11.7859 12.8419 12.077 12.8419 12.4359C12.8419 12.7949 12.5806 13.0859 12.2584 13.0859L1.75538 13.0859C1.43312 13.0859 1.17187 12.7949 1.17187 12.4359Z" fill="#292929"/>
<path d="M26.458 8.404H21.978V14.41H22.72C23.6347 14.41 24.4887 14.382 25.282 14.326C26.0847 14.2607 26.8827 14.1673 27.676 14.046L27.858 15.208C27.0273 15.3573 26.1733 15.4647 25.296 15.53C24.428 15.586 23.4713 15.614 22.426 15.614H20.592V7.2H26.458V8.404ZM29.062 18.96V11.722H25.716V10.518H29.062V6.052H30.448V18.96H29.062ZM45.5282 13.626H41.9582V16.062H47.1942V17.238H35.3502V16.062H40.5722V13.626H37.0162V7.004H38.3882V9.202H44.1562V6.99H45.5282V13.626ZM38.3882 12.45H44.1562V10.378H38.3882V12.45ZM48.3584 15.04C49.105 14.6013 49.735 14.214 50.2484 13.878C50.771 13.5327 51.205 13.22 51.5504 12.94C51.8957 12.6507 52.1664 12.3847 52.3624 12.142C52.5584 11.89 52.703 11.6427 52.7964 11.4C52.899 11.148 52.9597 10.8867 52.9784 10.616C53.0064 10.3453 53.0204 10.042 53.0204 9.706V8.432H48.6104V7.242H54.3924V9.72C54.3924 10.14 54.3784 10.5227 54.3504 10.868C54.3317 11.204 54.2664 11.526 54.1544 11.834C54.0424 12.1327 53.8744 12.4313 53.6504 12.73C53.4357 13.0193 53.1277 13.332 52.7264 13.668C52.3344 14.004 51.8397 14.3727 51.2424 14.774C50.6544 15.1753 49.9357 15.6327 49.0864 16.146L48.3584 15.04ZM57.1224 18.96V6.052H58.5084V18.96H57.1224Z" fill="#292929"/>
</svg>
