<svg width="111" height="23" viewBox="0 0 111 23" fill="none" xmlns="http://www.w3.org/2000/svg">
<path fill-rule="evenodd" clip-rule="evenodd" d="M7.29062 5.66602C7.64961 5.66602 7.94062 5.92718 7.94062 6.24935V16.7493C7.94062 17.0715 7.64961 17.3327 7.29062 17.3327C6.93164 17.3327 6.64062 17.0715 6.64062 16.7493V6.24935C6.64062 5.92718 6.93164 5.66602 7.29062 5.66602Z" fill="#171717"/>
<path fill-rule="evenodd" clip-rule="evenodd" d="M1.39062 11.434C1.39062 11.075 1.65187 10.784 1.97412 10.784L12.4771 10.784C12.7994 10.784 13.0606 11.075 13.0606 11.434C13.0606 11.793 12.7994 12.084 12.4771 12.084L1.97413 12.084C1.65187 12.084 1.39062 11.793 1.39062 11.434Z" fill="#171717"/>
<path d="M24.6582 5.97852V7.22266H20.543V12.9785C22.4707 12.9648 23.8311 12.8828 25.3691 12.5957L25.5332 13.8262C23.7969 14.168 22.3066 14.2363 19.9961 14.2363H19.0117V5.97852H24.6582ZM28.7871 4.85742V17.2305H27.2695V10.4492H24.002V9.20508H27.2695V4.85742H28.7871ZM43.0201 4.85742V7.52344H44.7427V8.78125H43.0201V11.0781H41.5025V4.85742H43.0201ZM39.5474 5.65039V10.75H33.6959V5.65039H39.5474ZM35.1861 6.83984V9.56055H38.0572V6.83984H35.1861ZM35.938 12.1309V15.6309C36.649 15.5967 37.3804 15.4941 38.0845 15.2617L38.3033 16.4512C37.2095 16.834 36.1568 16.875 35.1041 16.875H34.4478V12.1309H35.938ZM44.1002 12.2676V13.3613H37.8795V12.2676H40.2584V11.2969H41.7486V12.2676H44.1002ZM40.983 13.7305C42.3775 13.7305 43.3482 14.3867 43.3482 15.4668C43.3482 16.5195 42.3775 17.1895 40.983 17.1895C39.5748 17.1895 38.6177 16.5195 38.6314 15.4668C38.6177 14.3867 39.5748 13.7305 40.983 13.7305ZM40.983 14.7695C40.3951 14.7695 39.9712 15.0156 39.9849 15.4668C39.9712 15.918 40.3951 16.1641 40.983 16.1641C41.5572 16.1641 41.981 15.918 41.981 15.4668C41.981 15.0156 41.5572 14.7695 40.983 14.7695ZM56.3573 11.2422V12.459H45.0916V11.2422H56.3573ZM55.0858 15.7402V16.9707H46.4862V13.375H48.0037V15.7402H55.0858ZM50.7108 5.25391C53.4041 5.25391 55.1541 6.19727 55.1678 7.75586C55.1541 9.32812 53.4041 10.2852 50.7108 10.2852C48.0174 10.2852 46.2537 9.32812 46.2537 7.75586C46.2537 6.19727 48.0174 5.25391 50.7108 5.25391ZM50.7108 6.4707C48.9198 6.4707 47.826 6.93555 47.8397 7.75586C47.826 8.58984 48.9198 9.05469 50.7108 9.04102C52.5155 9.05469 53.5955 8.58984 53.5955 7.75586C53.5955 6.93555 52.5155 6.4707 50.7108 6.4707ZM64.3285 6.82617C64.3285 8.38477 65.3402 9.84766 67.2406 10.4492L66.4203 11.6387C65.0873 11.1875 64.1303 10.2852 63.6039 9.13672C63.057 10.4492 62.059 11.4814 60.6371 11.9805L59.8168 10.791C61.8129 10.0938 62.7973 8.45312 62.8109 6.68945V5.51367H64.3285V6.82617ZM69.7016 4.85742V7.86523H71.4242V9.12305H69.7016V12.2539H68.184V4.85742H69.7016ZM65.682 12.5273C68.2387 12.5137 69.8109 13.3887 69.8246 14.8516C69.8109 16.3418 68.2387 17.2031 65.682 17.2031C63.098 17.2031 61.4984 16.3418 61.4984 14.8516C61.4984 13.3887 63.098 12.5137 65.682 12.5273ZM65.682 13.7168C63.9867 13.7168 63.016 14.127 63.016 14.8516C63.016 15.6172 63.9867 16 65.682 16C67.3773 16 68.3207 15.6172 68.3207 14.8516C68.3207 14.127 67.3773 13.7168 65.682 13.7168ZM83.0387 10.709V11.9258H78.1442V13.1152H81.6716V17.0664H73.0993V13.1152H76.6403V11.9258H71.7731V10.709H83.0387ZM81.9997 5.22656V6.44336H80.3044V8.5625H81.9313V9.79297H72.8532V8.5625H74.4802V6.44336H72.7848V5.22656H81.9997ZM74.6032 14.291V15.8359H80.195V14.291H74.6032ZM75.9977 8.5625H78.7731V6.44336H75.9977V8.5625ZM97.928 14.4824V15.7266H86.635V14.4824H91.5022V12.0762H87.8791V5.67773H89.3967V7.70117H95.1252V5.67773H96.6428V12.0762H93.0061V14.4824H97.928ZM89.3967 10.8457H95.1252V8.91797H89.3967V10.8457ZM108.777 4.85742V17.2168H107.246V4.85742H108.777ZM105.085 6.16992C105.085 9.84766 103.664 12.9785 99.3296 15.0293L98.5366 13.8125C101.77 12.2744 103.274 10.1826 103.541 7.37305H99.1656V6.16992H105.085Z" fill="#171717"/>
</svg>
