<svg width="81" height="25" viewBox="0 0 81 25" fill="none" xmlns="http://www.w3.org/2000/svg">
<path fill-rule="evenodd" clip-rule="evenodd" d="M7.07187 6.66406C7.43086 6.66406 7.72187 6.92523 7.72187 7.2474V17.7474C7.72187 18.0696 7.43086 18.3307 7.07187 18.3307C6.71289 18.3307 6.42188 18.0696 6.42188 17.7474V7.2474C6.42188 6.92523 6.71289 6.66406 7.07187 6.66406Z" fill="#3A3A3A"/>
<path fill-rule="evenodd" clip-rule="evenodd" d="M1.17187 12.4359C1.17187 12.077 1.43312 11.7859 1.75537 11.7859L12.2584 11.7859C12.5806 11.7859 12.8419 12.077 12.8419 12.4359C12.8419 12.7949 12.5806 13.0859 12.2584 13.0859L1.75538 13.0859C1.43312 13.0859 1.17187 12.7949 1.17187 12.4359Z" fill="#3A3A3A"/>
<path d="M22.8398 9.37109C22.8398 11.2852 23.9746 13.459 25.9297 14.3613L25.082 15.5645C23.6875 14.9082 22.6553 13.582 22.1016 12.0371C21.541 13.7324 20.4609 15.1816 19.0391 15.8652L18.1504 14.6758C20.1191 13.7461 21.3086 11.4219 21.3223 9.37109V8.33203H18.6289V7.07422H25.4238V8.33203H22.8398V9.37109ZM28.0898 5.85742V10.6699H29.9902V11.9414H28.0898V18.2168H26.5723V5.85742H28.0898ZM34.0852 9.09766C34.0852 11.0938 34.7825 13.1719 36.4505 14.2246L35.6165 15.3867C34.5022 14.7168 33.7776 13.5615 33.3743 12.2012C32.9231 13.6982 32.1302 14.9629 30.968 15.6738L30.0247 14.5391C31.8157 13.4453 32.6223 11.2715 32.6223 9.16602V6.95117H34.0852V9.09766ZM40.8938 5.85742V18.2168H39.4309V5.85742H40.8938ZM38.3235 6.07617V17.6152H36.888V11.3672H35.1243V10.1094H36.888V6.07617H38.3235ZM52.3306 5.85742V18.2168H50.7994V5.85742H52.3306ZM49.7193 7.77148V8.98828H42.3091V7.77148H45.2486V6.00781H46.7935V7.77148H49.7193ZM46.0416 9.78125C47.8463 9.78125 49.1861 10.9844 49.1861 12.6934C49.1861 14.4023 47.8463 15.5918 46.0416 15.5918C44.2232 15.5918 42.897 14.4023 42.897 12.6934C42.897 10.9844 44.2232 9.78125 46.0416 9.78125ZM46.0416 11.0254C45.0572 11.0254 44.3463 11.6816 44.3463 12.6934C44.3463 13.7051 45.0572 14.3477 46.0416 14.334C47.0259 14.3477 47.7232 13.7051 47.7232 12.6934C47.7232 11.6816 47.0259 11.0254 46.0416 11.0254ZM68.2042 15.4824V16.7266H56.9113V15.4824H61.7784V13.0762H58.1554V6.67773H59.673V8.70117H65.4015V6.67773H66.9191V13.0762H63.2823V15.4824H68.2042ZM59.673 11.8457H65.4015V9.91797H59.673V11.8457ZM79.0531 5.85742V18.2168H77.5219V5.85742H79.0531ZM75.3617 7.16992C75.3617 10.8477 73.9398 13.9785 69.6059 16.0293L68.8129 14.8125C72.0463 13.2744 73.5502 11.1826 73.8168 8.37305H69.4418V7.16992H75.3617Z" fill="#3A3A3A"/>
</svg>
