<svg width="354" height="178" viewBox="0 0 354 178" fill="none" xmlns="http://www.w3.org/2000/svg">
<g filter="url(#filter0_d_2_1059)">
<rect x="13" y="10" width="328" height="152" rx="20" fill="white"/>
<rect x="13" y="10" width="328" height="152" rx="20" stroke="white" stroke-width="0.2"/>
</g>
<path d="M47.7025 119.653V131.13H46.3568V119.653H47.7025ZM45.3285 119.933V130.584H43.9828V126.75H42.1927V125.595H43.9828V123.894H42.3959C41.8563 125.798 40.6566 127.436 38.5111 128.705L37.6859 127.702C40.0663 126.299 41.1581 124.503 41.3675 122.192H38.2953V121.05H42.764C42.764 121.627 42.7259 122.192 42.6498 122.738H43.9828V119.933H45.3285ZM59.3888 121.253V122.396H57.8273V123.716H59.3888V124.896H57.8273V126.433H56.4181V119.653H57.8273V121.253H59.3888ZM57.8273 126.928V131.13H56.4181V128.07H50.1847V126.928H57.8273ZM52.0001 120.313C53.7648 120.301 55.0851 121.456 55.0978 123.068C55.0851 124.706 53.7648 125.849 52.0001 125.849C50.2228 125.849 48.8898 124.706 48.9025 123.068C48.8898 121.456 50.2228 120.301 52.0001 120.313ZM52.0001 121.507C51.0099 121.52 50.2736 122.116 50.2862 123.068C50.2736 124.046 51.0099 124.655 52.0001 124.643C52.9777 124.655 53.714 124.046 53.714 123.068C53.714 122.116 52.9777 121.52 52.0001 121.507ZM69.3612 119.653V126.471H67.952V123.665H65.997V122.51H67.952V119.653H69.3612ZM65.4764 126.763C67.9139 126.763 69.3993 127.562 69.3993 128.946C69.3993 130.33 67.9139 131.13 65.4764 131.13C63.0516 131.13 61.5663 130.33 61.579 128.946C61.5663 127.562 63.0516 126.763 65.4764 126.763ZM65.4764 127.842C63.8768 127.842 62.9755 128.223 62.9755 128.946C62.9755 129.657 63.8768 130.038 65.4764 130.038C67.0761 130.038 67.9901 129.657 67.9901 128.946C67.9901 128.223 67.0761 127.842 65.4764 127.842ZM63.9657 121.621C63.9657 123.018 64.8925 124.427 66.6698 125.023L65.9589 126.141C64.683 125.709 63.7753 124.833 63.2802 123.754C62.7723 124.979 61.8138 125.957 60.4491 126.445L59.7128 125.328C61.5536 124.693 62.5311 123.145 62.5311 121.634V121.545H60.1444V120.402H66.3397V121.545H63.9657V121.621ZM81.2125 128.591V129.746H70.7262V128.591H75.2457V126.356H71.8815V120.415H73.2907V122.294H78.61V120.415H80.0192V126.356H76.6422V128.591H81.2125ZM73.2907 125.214H78.61V123.424H73.2907V125.214Z" fill="#2D2F34"/>
<path d="M122.322 120.148V121.278H119.008C119.18 122.281 120.582 123.202 122.766 123.411L122.245 124.503C120.182 124.293 118.64 123.456 118.018 122.269C117.396 123.449 115.872 124.293 113.803 124.503L113.308 123.411C115.466 123.176 116.856 122.269 117.053 121.278H113.752V120.148H122.322ZM123.261 125.087V126.217H112.8V125.087H123.261ZM121.979 127.156V131.13H120.57V128.299H113.955V127.156H121.979ZM128.117 122.408C128.105 124.516 129.209 126.623 131.075 127.423L130.237 128.553C128.917 127.943 127.946 126.725 127.419 125.227C126.892 126.845 125.908 128.166 124.512 128.819L123.649 127.639C125.566 126.813 126.683 124.617 126.683 122.408V120.58H128.117V122.408ZM133.322 119.653V131.143H131.901V119.653H133.322ZM143.79 119.666V122.078H145.415V123.246H143.79V125.671H142.393V119.666H143.79ZM136.668 120.174V124.071C138.141 124.052 139.689 123.944 141.365 123.614L141.53 124.77C139.626 125.125 137.861 125.252 136.198 125.252H135.246V120.174H136.668ZM137.747 126.217V127.499H142.393V126.217H143.803V130.99H136.35V126.217H137.747ZM137.747 129.848H142.393V128.629H137.747V129.848ZM155.286 119.653V125.811H153.864V119.653H155.286ZM149.09 126.344V127.524H153.877V126.344H155.286V130.99H147.694V126.344H149.09ZM149.09 129.848H153.877V128.629H149.09V129.848ZM149.027 120.161C150.792 120.148 152.112 121.253 152.112 122.853C152.112 124.414 150.792 125.519 149.027 125.519C147.25 125.519 145.929 124.414 145.929 122.853C145.929 121.253 147.25 120.148 149.027 120.161ZM149.027 121.342C148.024 121.342 147.3 121.926 147.313 122.853C147.3 123.767 148.024 124.351 149.027 124.363C150.017 124.351 150.728 123.767 150.728 122.853C150.728 121.926 150.017 121.342 149.027 121.342Z" fill="#2D2F34"/>
<path d="M198.286 128.591V129.746H187.8V128.591H192.32V126.356H188.955V120.415H190.365V122.294H195.684V120.415H197.093V126.356H193.716V128.591H198.286ZM190.365 125.214H195.684V123.424H190.365V125.214ZM208.386 119.653V126.598H206.977V124.224H205.339V123.056H206.977V119.653H208.386ZM208.386 127.118V130.99H200.756V127.118H208.386ZM202.165 128.235V129.848H207.002V128.235H202.165ZM205.529 120.72V121.862H198.801V120.72H201.467V119.564H202.863V120.72H205.529ZM202.165 122.307C203.765 122.307 204.882 123.157 204.895 124.363C204.882 125.607 203.765 126.42 202.165 126.42C200.578 126.42 199.448 125.607 199.448 124.363C199.448 123.157 200.578 122.307 202.165 122.307ZM202.165 123.373C201.34 123.373 200.794 123.754 200.794 124.363C200.794 124.998 201.34 125.366 202.165 125.366C202.99 125.366 203.536 124.998 203.536 124.363C203.536 123.754 202.99 123.373 202.165 123.373ZM219.628 119.653V131.13H218.282V125.277H216.987V130.546H215.692V119.869H216.987V124.147H218.282V119.653H219.628ZM214.397 121.012V122.154H211.528V127.258C212.779 127.245 213.807 127.182 214.969 126.966L215.07 128.121C213.686 128.4 212.48 128.438 210.881 128.451H210.106V121.012H214.397ZM231.162 124.617V125.658H226.642V126.496H229.88V129.188H223.354V129.975H230.197V131.028H221.97V128.223H228.496V127.512H221.958V126.496H225.246V125.658H220.752V124.617H231.162ZM226.642 119.628V120.593H230.159V121.646H226.795C227.068 122.459 228.401 123.068 230.692 123.183L230.273 124.236C228.216 124.109 226.668 123.551 225.944 122.624C225.22 123.551 223.678 124.109 221.602 124.236L221.209 123.183C223.475 123.068 224.808 122.459 225.106 121.646H221.755V120.593H225.246V119.628H226.642Z" fill="#2D2F34"/>
<path d="M273.273 124.998V126.141H262.812V124.998H273.273ZM268.03 126.902C270.506 126.902 271.991 127.677 272.004 129.01C271.991 130.355 270.506 131.117 268.03 131.117C265.529 131.117 264.031 130.355 264.031 129.01C264.031 127.677 265.529 126.902 268.03 126.902ZM268.03 128.007C266.354 128.007 265.453 128.35 265.466 129.01C265.453 129.67 266.354 130.013 268.03 130.013C269.668 130.013 270.582 129.67 270.595 129.01C270.582 128.35 269.668 128.007 268.03 128.007ZM272.334 120.199V121.354H269.02C269.23 122.307 270.607 123.164 272.778 123.373L272.283 124.49C270.201 124.268 268.652 123.449 268.03 122.281C267.408 123.443 265.885 124.268 263.803 124.49L263.32 123.373C265.447 123.164 266.831 122.307 267.053 121.354H263.765V120.199H272.334ZM283.398 119.653V126.407H281.989V124.82H279.678V125.709H274.283V120.517H279.678V121.405H281.989V119.653H283.398ZM275.692 121.634V124.579H278.282V121.634H275.692ZM279.513 126.712C281.951 126.712 283.436 127.524 283.436 128.921C283.436 130.317 281.951 131.117 279.513 131.117C277.089 131.117 275.603 130.317 275.616 128.921C275.603 127.524 277.089 126.712 279.513 126.712ZM279.513 127.791C277.914 127.791 277.012 128.185 277.012 128.921C277.012 129.632 277.914 130.025 279.513 130.025C281.113 130.025 282.027 129.632 282.027 128.921C282.027 128.185 281.113 127.791 279.513 127.791ZM279.678 123.678H281.989V122.522H279.678V123.678ZM289.003 122.408C289.003 124.541 290.019 126.636 291.847 127.436L290.997 128.565C289.695 127.931 288.781 126.712 288.292 125.214C287.791 126.794 286.858 128.108 285.538 128.781L284.649 127.639C286.515 126.763 287.556 124.554 287.569 122.408V120.58H289.003V122.408ZM294.386 119.653V131.143H292.99V124.503H290.578V123.36H292.99V119.653H294.386ZM297.529 120.161V121.621H300.207V120.161H301.604V125.163H296.132V120.161H297.529ZM297.529 124.046H300.207V122.688H297.529V124.046ZM304.79 119.653V121.977H306.39V123.119H304.79V125.531H303.381V119.653H304.79ZM304.79 125.988V128.997H298.697V129.911H305.146V131.028H297.3V127.969H303.381V127.093H297.287V125.988H304.79ZM316.527 119.653V126.864H315.182V123.741H314.064V126.483H312.744V119.882H314.064V122.599H315.182V119.653H316.527ZM312.363 120.897V122.002H306.65V120.897H308.821V119.755H310.218V120.897H312.363ZM309.52 122.472C310.98 122.472 312.008 123.259 312.021 124.452C312.008 125.646 310.98 126.433 309.52 126.433C308.085 126.433 307.044 125.646 307.057 124.452C307.044 123.259 308.085 122.472 309.52 122.472ZM309.52 123.487C308.809 123.487 308.313 123.855 308.313 124.452C308.313 125.049 308.796 125.417 309.52 125.417C310.243 125.417 310.738 125.049 310.738 124.452C310.738 123.855 310.243 123.487 309.52 123.487ZM312.655 127.004C315.105 127.004 316.578 127.753 316.591 129.073C316.578 130.368 315.105 131.117 312.655 131.117C310.205 131.117 308.72 130.368 308.72 129.073C308.72 127.753 310.205 127.004 312.655 127.004ZM312.655 128.083C311.018 128.07 310.129 128.4 310.129 129.073C310.129 129.708 311.018 130.038 312.655 130.038C314.28 130.038 315.169 129.708 315.169 129.073C315.169 128.4 314.28 128.07 312.655 128.083Z" fill="#2D2F34"/>
<path d="M40.0898 34.8672C40.0703 37.582 41.5156 40.707 44.4453 42.0547L43.0586 44.0078C41.0762 43.0996 39.6602 41.2832 38.8789 39.1445C38.0781 41.498 36.623 43.4902 34.5625 44.457L33.1172 42.4844C36.0859 41.0977 37.5703 37.7969 37.5898 34.8672V33.7734H33.8203V31.7422H43.6641V33.7734H40.0898V34.8672ZM47.5508 30.0234V36.8008H50.168V38.8906H47.5508V47.7969H45.0508V30.0234H47.5508ZM66.6234 39.8281V41.8203H59.7094V47.7969H57.2484V41.8203H50.4125V39.8281H66.6234ZM65.1781 30.9609V32.9141H60.0023C60.2465 34.6523 62.2094 36.4004 65.8617 36.8398L64.9633 38.793C61.8383 38.373 59.602 37.0352 58.5375 35.1992C57.4438 37.0352 55.227 38.373 52.1313 38.793L51.2133 36.8398C54.807 36.4004 56.7895 34.6523 57.0727 32.9141H51.8773V30.9609H65.1781ZM81.6437 31.7422V33.7148H78.05C78.0891 35.4629 79.3781 37.2598 82.2102 37.9727L81.1164 39.8867C79.0656 39.3691 77.6398 38.2559 76.8391 36.8398C76.048 38.4023 74.6223 39.6426 72.5422 40.2188L71.3703 38.2461C74.2023 37.5137 75.5305 35.6387 75.5695 33.7148H71.9953V31.7422H75.5695V29.9453H78.0891V31.7422H81.6437ZM85.6086 30.0234V34.0078H88.0109V36.0586H85.6086V40.1602H83.1086V30.0234H85.6086ZM85.8234 40.9219V42.875H81.3117C81.7609 44.1836 83.509 45.4531 86.6047 45.8633L85.7258 47.7578C82.8645 47.377 80.8527 46.2344 79.8273 44.7109C78.8117 46.2246 76.8098 47.3379 73.9875 47.7188L73.0891 45.8242C76.2141 45.4434 77.9426 44.2129 78.4016 42.875H73.8508V40.9219H85.8234ZM102.826 34.8672V36.8203H90.4039V30.6484H92.8844V34.8672H102.826ZM104.642 38.7344V40.6875H88.3727V38.7344H104.642ZM102.943 45.4141V47.4062H90.2477V42.1328H92.7477V45.4141H102.943ZM125.756 43.6953V45.7266H109.487V43.6953H116.342V40.4141H111.205V31.1562H113.705V33.9102H121.459V31.1562H123.94V40.4141H118.823V43.6953H125.756ZM113.705 38.4219H121.459V35.9023H113.705V38.4219ZM141.352 30.0234V40.7656H138.872V37.2695H136.567V35.2383H138.872V30.0234H141.352ZM141.352 41.5273V47.6016H129.399V41.5273H141.352ZM131.899 43.4805V45.6094H138.911V43.4805H131.899ZM136.88 31.5664V33.5586H126.411V31.5664H130.434V29.8672H132.895V31.5664H136.88ZM131.665 34.1445C134.165 34.1445 135.923 35.4727 135.923 37.3281C135.923 39.2617 134.165 40.5508 131.665 40.5508C129.184 40.5508 127.387 39.2617 127.387 37.3281C127.387 35.4727 129.184 34.1445 131.665 34.1445ZM131.665 36.0195C130.512 36.0195 129.77 36.4883 129.79 37.3281C129.77 38.2266 130.512 38.7148 131.665 38.7148C132.798 38.7148 133.54 38.2266 133.54 37.3281C133.54 36.4883 132.798 36.0195 131.665 36.0195ZM155.045 31.8594V36.4883H156.822V30.2773H159.166V46.9766H156.822V38.4805H155.045V43.3242H147.974V31.8594H155.045ZM150.298 33.832V41.3711H152.72V33.832H150.298ZM162.877 30.0234V47.7969H160.494V30.0234H162.877ZM178.766 35.6289V37.6211H166.324V30.8242H168.805V35.6289H178.766ZM180.562 39.6328V41.625H176.852V47.7969H174.332V41.625H170.602V47.7969H168.102V41.625H164.352V39.6328H180.562Z" fill="black"/>
<rect x="47" y="76" width="25" height="29" rx="5" fill="url(#paint0_linear_2_1059)"/>
<path d="M302 89H295.764C295.212 89 294.764 88.5523 294.764 88V86.0136V81.1269C294.764 81.0667 294.77 81.0081 294.779 80.9486C294.816 80.7242 294.905 80.1127 294.882 79.6226C294.024 79.7256 293.729 79.4232 294.28 79.0455C294.716 78.7466 294.858 79.1209 294.882 79.6226C295.531 79.5446 296.502 79.2342 297.671 78.5478C300.276 77.0187 302.344 79.0373 302.934 80.3755C302.981 80.4825 303 80.5985 303 80.7155V88C303 88.5523 302.552 89 302 89Z" fill="#FFAF66"/>
<rect x="196" y="80" width="29" height="24" rx="5" fill="url(#paint1_linear_2_1059)"/>
<circle cx="221" cy="101" r="8" fill="#719CFF"/>
<rect x="203" y="77" width="2" height="6" rx="1" fill="#FFD19B"/>
<rect x="216" y="77" width="2" height="6" rx="1" fill="#FFD19B"/>
<path d="M273 104.457V82.4926C273 79.2979 275.526 78.1664 276.789 78H300C296.589 78 295.737 80.9951 295.737 82.4926V104.457H292.895C291.758 102.859 290.211 103.791 289.579 104.457C288.063 106.853 286.737 105.455 286.263 104.457C285.126 103.258 283.895 103.957 283.421 104.457C281.905 106.853 280.579 105.455 280.105 104.457C278.968 102.859 277.421 103.791 276.789 104.457C274.895 107.252 273.474 105.621 273 104.457Z" fill="url(#paint2_linear_2_1059)"/>
<circle cx="297" cy="100" r="8" fill="#42CCB0"/>
<rect x="52" y="82" width="13" height="2" rx="1" fill="#FFAF66"/>
<rect x="52" y="87" width="8" height="2" rx="1" fill="#FFAF66"/>
<rect x="278" y="83" width="13" height="2" rx="1" fill="#FFAF66"/>
<rect x="278" y="88" width="8" height="2" rx="1" fill="#FFAF66"/>
<circle cx="70" cy="100" r="8" fill="#A468FF"/>
<path d="M65.8021 99.6666C66.0624 99.4063 66.4845 99.4063 66.7449 99.6666L69.3897 102.312C69.6501 102.572 69.6501 102.994 69.3897 103.254C69.1294 103.515 68.7073 103.515 68.4469 103.254L65.8021 100.609C65.5417 100.349 65.5417 99.927 65.8021 99.6666Z" fill="white" stroke="white" stroke-width="0.2"/>
<path d="M74.2318 97.4713C74.4922 97.7316 74.4922 98.1537 74.2318 98.4141L69.3907 103.255C69.1304 103.515 68.7083 103.515 68.4479 103.255C68.1876 102.995 68.1876 102.573 68.4479 102.312L73.289 97.4713C73.5494 97.2109 73.9715 97.2109 74.2318 97.4713Z" fill="white" stroke="white" stroke-width="0.2"/>
<path fill-rule="evenodd" clip-rule="evenodd" d="M224.25 98.3334C224.25 98.6326 224.076 98.8751 223.861 98.8751L217.639 98.8751C217.424 98.8751 217.25 98.6326 217.25 98.3334C217.25 98.0343 217.424 97.7917 217.639 97.7917L223.861 97.7917C224.076 97.7917 224.25 98.0343 224.25 98.3334Z" fill="white"/>
<path fill-rule="evenodd" clip-rule="evenodd" d="M222.396 96.3254C222.592 96.1139 222.908 96.1139 223.104 96.3254L224.604 97.9504C224.799 98.1619 224.799 98.5049 224.604 98.7164L223.104 100.341C222.908 100.553 222.592 100.553 222.396 100.341C222.201 100.13 222.201 99.7869 222.396 99.5754L223.543 98.3334L222.396 97.0914C222.201 96.8799 222.201 96.5369 222.396 96.3254Z" fill="white"/>
<path fill-rule="evenodd" clip-rule="evenodd" d="M217.75 102.667C217.75 102.367 217.949 102.125 218.194 102.125L224.306 102.125C224.551 102.125 224.75 102.367 224.75 102.667C224.75 102.966 224.551 103.208 224.306 103.208L218.194 103.208C217.949 103.208 217.75 102.966 217.75 102.667Z" fill="white"/>
<path fill-rule="evenodd" clip-rule="evenodd" d="M219.604 104.675C219.408 104.886 219.092 104.886 218.896 104.675L217.396 103.05C217.201 102.838 217.201 102.495 217.396 102.284L218.896 100.659C219.092 100.447 219.408 100.447 219.604 100.659C219.799 100.87 219.799 101.213 219.604 101.425L218.457 102.667L219.604 103.909C219.799 104.12 219.799 104.463 219.604 104.675Z" fill="white"/>
<path fill-rule="evenodd" clip-rule="evenodd" d="M293 101.5C293.276 101.5 293.5 101.724 293.5 102V102.5H300.5V102C300.5 101.724 300.724 101.5 301 101.5C301.276 101.5 301.5 101.724 301.5 102V103C301.5 103.276 301.276 103.5 301 103.5H293C292.724 103.5 292.5 103.276 292.5 103V102C292.5 101.724 292.724 101.5 293 101.5Z" fill="white" stroke="white" stroke-width="0.2" stroke-linejoin="round"/>
<path fill-rule="evenodd" clip-rule="evenodd" d="M294.6 98.7C294.766 98.4791 295.079 98.4343 295.3 98.6L297 99.875L298.7 98.6C298.921 98.4343 299.234 98.4791 299.4 98.7C299.566 98.9209 299.521 99.2343 299.3 99.4L297.3 100.9C297.122 101.033 296.878 101.033 296.7 100.9L294.7 99.4C294.479 99.2343 294.434 98.9209 294.6 98.7Z" fill="white" stroke="white" stroke-width="0.2" stroke-linejoin="round"/>
<path fill-rule="evenodd" clip-rule="evenodd" d="M297 94.5C297.276 94.5 297.5 94.7239 297.5 95V100.5C297.5 100.776 297.276 101 297 101C296.724 101 296.5 100.776 296.5 100.5V95C296.5 94.7239 296.724 94.5 297 94.5Z" fill="white" stroke="white" stroke-width="0.2" stroke-linecap="round" stroke-linejoin="round"/>
<ellipse cx="132" cy="83" rx="10" ry="5" fill="url(#paint3_linear_2_1059)"/>
<path d="M122 89.9039V86.3737C122 86.214 122.182 86.1206 122.316 86.2069C130.869 91.7037 138.618 88.402 141.675 86.2386C141.811 86.1429 142 86.239 142 86.4047V89.9087C142 89.9667 141.974 90.0228 141.93 90.0605C134.508 96.4119 124.678 92.0768 122.072 90.0567C122.024 90.0195 122 89.9646 122 89.9039Z" fill="#FEE9CF"/>
<path d="M122 94.9039V91.3737C122 91.214 122.182 91.1206 122.316 91.2069C130.869 96.7037 138.618 93.402 141.675 91.2386C141.811 91.1429 142 91.239 142 91.4047V94.9087C142 94.9667 141.974 95.0228 141.93 95.0605C134.508 101.412 124.678 97.0768 122.072 95.0567C122.024 95.0195 122 94.9646 122 94.9039Z" fill="#FEE9CF"/>
<path d="M122 99.9039V96.3737C122 96.214 122.182 96.1206 122.316 96.2069C130.869 101.704 138.618 98.402 141.675 96.2386C141.811 96.1429 142 96.239 142 96.4047V99.9087C142 99.9667 141.974 100.023 141.93 100.06C134.508 106.412 124.678 102.077 122.072 100.057C122.024 100.019 122 99.9646 122 99.9039Z" fill="#FEE9CF"/>
<circle cx="143" cy="102" r="8" fill="#6F98F8"/>
<circle cx="143" cy="102" r="8" fill="#A468FF"/>
<path d="M138.802 101.667C139.062 101.406 139.485 101.406 139.745 101.667L142.39 104.312C142.65 104.572 142.65 104.994 142.39 105.254C142.129 105.515 141.707 105.515 141.447 105.254L138.802 102.609C138.542 102.349 138.542 101.927 138.802 101.667Z" fill="white" stroke="white" stroke-width="0.2"/>
<path d="M147.232 99.4713C147.492 99.7316 147.492 100.154 147.232 100.414L142.391 105.255C142.13 105.515 141.708 105.515 141.448 105.255C141.188 104.995 141.188 104.573 141.448 104.312L146.289 99.4713C146.549 99.2109 146.971 99.2109 147.232 99.4713Z" fill="white" stroke="white" stroke-width="0.2"/>
<path d="M129.691 85L128.949 83.232H128V82.7624H128.752L128.009 81H128.966L129.647 82.7624H130.792L131.508 81H132.492L133.208 82.7624H134.353L135.034 81H135.991L135.248 82.7624H136V83.232H135.051L134.3 85H133.315L132.573 83.232H131.427L130.685 85H129.691ZM129.834 83.232L130.174 84.1215H130.237L130.604 83.232H129.834ZM131.633 82.7624H132.376L132.027 81.9392H131.973L131.633 82.7624ZM133.405 83.232L133.763 84.1271H133.817L134.166 83.232H133.405Z" fill="white" stroke="white" stroke-width="0.2" stroke-linejoin="round"/>
<path d="M207.326 96L206.304 92.4641H205V91.5249H206.034L205.012 88H206.329L207.264 91.5249H208.839L209.823 88H211.177L212.161 91.5249H213.736L214.671 88H215.988L214.966 91.5249H216V92.4641H214.696L213.662 96H212.309L211.287 92.4641H209.713L208.691 96H207.326ZM207.522 92.4641L207.99 94.2431H208.076L208.581 92.4641H207.522ZM209.996 91.5249H211.017L210.537 89.8785H210.463L209.996 91.5249ZM212.432 92.4641L212.924 94.2541H212.998L213.478 92.4641H212.432Z" fill="white" stroke="white" stroke-width="0.2" stroke-linejoin="round"/>
<defs>
<filter id="filter0_d_2_1059" x="0.898438" y="0.899902" width="352.203" height="176.2" filterUnits="userSpaceOnUse" color-interpolation-filters="sRGB">
<feFlood flood-opacity="0" result="BackgroundImageFix"/>
<feColorMatrix in="SourceAlpha" type="matrix" values="0 0 0 0 0 0 0 0 0 0 0 0 0 0 0 0 0 0 127 0" result="hardAlpha"/>
<feOffset dy="3"/>
<feGaussianBlur stdDeviation="6"/>
<feComposite in2="hardAlpha" operator="out"/>
<feColorMatrix type="matrix" values="0 0 0 0 0 0 0 0 0 0 0 0 0 0 0 0 0 0 0.1 0"/>
<feBlend mode="normal" in2="BackgroundImageFix" result="effect1_dropShadow_2_1059"/>
<feBlend mode="normal" in="SourceGraphic" in2="effect1_dropShadow_2_1059" result="shape"/>
</filter>
<linearGradient id="paint0_linear_2_1059" x1="59.5" y1="76" x2="59.5" y2="105" gradientUnits="userSpaceOnUse">
<stop stop-color="#FFF1DF"/>
<stop offset="1" stop-color="#FFDCAE"/>
</linearGradient>
<linearGradient id="paint1_linear_2_1059" x1="210.5" y1="80" x2="210.5" y2="104" gradientUnits="userSpaceOnUse">
<stop stop-color="#FFB55E"/>
<stop offset="1" stop-color="#FF9517"/>
</linearGradient>
<linearGradient id="paint2_linear_2_1059" x1="286.5" y1="78" x2="286.5" y2="106" gradientUnits="userSpaceOnUse">
<stop stop-color="#FFF1DF"/>
<stop offset="1" stop-color="#FFDCAE"/>
</linearGradient>
<linearGradient id="paint3_linear_2_1059" x1="141" y1="82.5" x2="122.5" y2="83" gradientUnits="userSpaceOnUse">
<stop stop-color="#FFB155"/>
<stop offset="1" stop-color="#FF9A22"/>
</linearGradient>
</defs>
</svg>
