<svg width="369" height="287" viewBox="0 0 369 287" fill="none" xmlns="http://www.w3.org/2000/svg">
<g filter="url(#filter0_d_33_1050)">
<path d="M13 30C13 18.9543 21.9543 10 33 10H336C347.046 10 356 18.9543 356 30V251C356 262.046 347.046 271 336 271H33C21.9543 271 13 262.046 13 251V30Z" fill="white"/>
<path d="M13 30C13 18.9543 21.9543 10 33 10H336C347.046 10 356 18.9543 356 30V251C356 262.046 347.046 271 336 271H33C21.9543 271 13 262.046 13 251V30Z" stroke="white" stroke-width="0.2"/>
</g>
<path d="M45.8443 129.716H42.7723V128.696H47.0083V130.316H48.5923V127.844H49.7563V138.14H48.5923V134.204H46.9723V133.172H48.5923V131.348H46.9963C46.9883 131.66 46.9603 131.952 46.9123 132.224C46.8723 132.488 46.7963 132.744 46.6843 132.992C46.5803 133.232 46.4363 133.476 46.2523 133.724C46.0763 133.964 45.8443 134.216 45.5563 134.48C45.2763 134.744 44.9363 135.028 44.5363 135.332C44.1363 135.628 43.6643 135.956 43.1203 136.316L42.4603 135.392C43.0203 135.032 43.4923 134.704 43.8763 134.408C44.2683 134.112 44.5883 133.84 44.8363 133.592C45.0923 133.336 45.2883 133.096 45.4243 132.872C45.5603 132.64 45.6563 132.416 45.7123 132.2C45.7763 131.976 45.8123 131.748 45.8203 131.516C45.8363 131.276 45.8443 131.02 45.8443 130.748V129.716ZM52.0123 138.68H50.8483V127.616H52.0123V138.68ZM58.7221 131.048C58.7221 131.312 58.6661 131.588 58.5541 131.876C58.4501 132.164 58.2821 132.428 58.0501 132.668C57.8261 132.9 57.5421 133.092 57.1981 133.244C56.8541 133.396 56.4461 133.472 55.9741 133.472C55.5021 133.472 55.0941 133.396 54.7501 133.244C54.4061 133.092 54.1181 132.9 53.8861 132.668C53.6621 132.428 53.4941 132.164 53.3821 131.876C53.2781 131.588 53.2261 131.312 53.2261 131.048V130.436C53.2261 130.172 53.2781 129.896 53.3821 129.608C53.4941 129.32 53.6621 129.06 53.8861 128.828C54.1181 128.588 54.4061 128.392 54.7501 128.24C55.0941 128.088 55.5021 128.012 55.9741 128.012C56.4461 128.012 56.8541 128.088 57.1981 128.24C57.5421 128.392 57.8261 128.588 58.0501 128.828C58.2821 129.06 58.4501 129.32 58.5541 129.608C58.6661 129.896 58.7221 130.172 58.7221 130.436V131.048ZM54.7021 134.612H61.6981V138.788H60.5101V135.632H54.7021V134.612ZM63.2581 130.136H61.6981V131.384H63.2581V132.404H61.6981V134.036H60.5341V127.616H61.6981V129.116H63.2581V130.136ZM57.5821 130.496C57.5821 130.32 57.5501 130.148 57.4861 129.98C57.4221 129.804 57.3221 129.648 57.1861 129.512C57.0581 129.368 56.8901 129.256 56.6821 129.176C56.4821 129.088 56.2461 129.044 55.9741 129.044C55.6941 129.044 55.4541 129.088 55.2541 129.176C55.0541 129.256 54.8861 129.368 54.7501 129.512C54.6221 129.648 54.5261 129.804 54.4621 129.98C54.3981 130.148 54.3661 130.32 54.3661 130.496V130.988C54.3661 131.164 54.3981 131.34 54.4621 131.516C54.5261 131.684 54.6221 131.84 54.7501 131.984C54.8861 132.12 55.0541 132.232 55.2541 132.32C55.4541 132.4 55.6941 132.44 55.9741 132.44C56.2461 132.44 56.4821 132.4 56.6821 132.32C56.8901 132.232 57.0581 132.12 57.1861 131.984C57.3221 131.84 57.4221 131.684 57.4861 131.516C57.5501 131.34 57.5821 131.164 57.5821 130.988V130.496ZM66.26 136.412C66.26 136.124 66.336 135.852 66.488 135.596C66.648 135.34 66.872 135.116 67.16 134.924C67.456 134.732 67.812 134.584 68.228 134.48C68.652 134.368 69.128 134.312 69.656 134.312C70.184 134.312 70.656 134.368 71.072 134.48C71.496 134.584 71.852 134.732 72.14 134.924C72.436 135.116 72.66 135.34 72.812 135.596C72.972 135.852 73.052 136.124 73.052 136.412V136.892C73.052 137.18 72.972 137.452 72.812 137.708C72.66 137.964 72.436 138.188 72.14 138.38C71.852 138.572 71.496 138.72 71.072 138.824C70.656 138.936 70.184 138.992 69.656 138.992C69.128 138.992 68.652 138.936 68.228 138.824C67.812 138.72 67.456 138.572 67.16 138.38C66.872 138.188 66.648 137.964 66.488 137.708C66.336 137.452 66.26 137.18 66.26 136.892V136.412ZM67.328 131.708C67.288 131.812 67.192 131.956 67.04 132.14C66.888 132.316 66.716 132.484 66.524 132.644C66.268 132.868 65.98 133.104 65.66 133.352C65.348 133.6 65.024 133.84 64.688 134.072L63.992 133.22C64.376 132.948 64.736 132.684 65.072 132.428C65.408 132.164 65.684 131.928 65.9 131.72C66.044 131.576 66.168 131.436 66.272 131.3C66.376 131.164 66.456 131.024 66.512 130.88C66.576 130.728 66.62 130.568 66.644 130.4C66.676 130.224 66.692 130.028 66.692 129.812V129.32H64.364V128.3H70.076V129.32H67.892V129.764C67.892 129.956 67.9 130.128 67.916 130.28C67.932 130.432 67.96 130.572 68 130.7C68.048 130.828 68.112 130.952 68.192 131.072C68.272 131.184 68.38 131.3 68.516 131.42C68.796 131.676 69.092 131.924 69.404 132.164C69.716 132.396 70.052 132.628 70.412 132.86L69.74 133.724C69.428 133.508 69.136 133.296 68.864 133.088C68.592 132.88 68.312 132.656 68.024 132.416C67.84 132.264 67.688 132.132 67.568 132.02C67.456 131.9 67.38 131.796 67.34 131.708H67.328ZM71.888 136.484C71.888 136.34 71.836 136.196 71.732 136.052C71.628 135.908 71.48 135.78 71.288 135.668C71.096 135.548 70.86 135.456 70.58 135.392C70.308 135.32 70 135.284 69.656 135.284C69.312 135.284 69 135.32 68.72 135.392C68.448 135.456 68.216 135.548 68.024 135.668C67.832 135.78 67.684 135.908 67.58 136.052C67.476 136.196 67.424 136.34 67.424 136.484V136.82C67.424 136.964 67.476 137.108 67.58 137.252C67.684 137.396 67.832 137.524 68.024 137.636C68.216 137.756 68.448 137.848 68.72 137.912C69 137.984 69.312 138.02 69.656 138.02C70 138.02 70.308 137.984 70.58 137.912C70.86 137.848 71.096 137.756 71.288 137.636C71.48 137.524 71.628 137.396 71.732 137.252C71.836 137.108 71.888 136.964 71.888 136.82V136.484ZM71.828 134.156V131.348H69.788V130.328H71.828V127.616H73.004V134.156H71.828ZM83.1699 134.108H80.1099V136.196H84.5979V137.204H74.4459V136.196H78.9219V134.108H75.8739V128.432H77.0499V130.316H81.9939V128.42H83.1699V134.108ZM77.0499 133.1H81.9939V131.324H77.0499V133.1Z" fill="#2D2F34"/>
<path d="M124.464 130.532C124.432 130.596 124.364 130.668 124.26 130.748C124.156 130.828 124.032 130.908 123.888 130.988C123.744 131.06 123.596 131.136 123.444 131.216C123.292 131.288 123.152 131.348 123.024 131.396C122.616 131.556 122.228 131.708 121.86 131.852C121.492 131.988 121.104 132.124 120.696 132.26L120.252 131.3C120.748 131.14 121.172 130.996 121.524 130.868C121.876 130.74 122.216 130.608 122.544 130.472C122.944 130.304 123.264 130.116 123.504 129.908C123.752 129.7 123.876 129.468 123.876 129.212V129.032H120.72V128.048H128.232V129.032H125.064V129.212C125.064 129.468 125.184 129.696 125.424 129.896C125.664 130.088 125.988 130.276 126.396 130.46C126.716 130.604 127.056 130.74 127.416 130.868C127.776 130.996 128.2 131.14 128.688 131.3L128.256 132.26C127.84 132.124 127.448 131.988 127.08 131.852C126.712 131.708 126.336 131.556 125.952 131.396C125.824 131.34 125.68 131.276 125.52 131.204C125.36 131.132 125.208 131.056 125.064 130.976C124.92 130.896 124.792 130.82 124.68 130.748C124.576 130.668 124.508 130.596 124.476 130.532H124.464ZM120.708 135.092H128.136V138.788H126.948V136.1H120.708V135.092ZM129.552 132.932V133.94H119.4V132.932H129.552ZM138.062 138.68V127.616H139.25V138.68H138.062ZM133.55 133.148C133.494 133.284 133.41 133.42 133.298 133.556C133.194 133.692 133.046 133.864 132.854 134.072C132.606 134.344 132.322 134.64 132.002 134.96C131.682 135.272 131.318 135.616 130.91 135.992L130.13 135.188C130.858 134.54 131.49 133.92 132.026 133.328C132.21 133.12 132.362 132.928 132.482 132.752C132.602 132.576 132.694 132.404 132.758 132.236C132.83 132.06 132.878 131.884 132.902 131.708C132.934 131.524 132.95 131.324 132.95 131.108V128.408H134.15V131.108C134.15 131.348 134.166 131.564 134.198 131.756C134.23 131.94 134.282 132.12 134.354 132.296C134.426 132.464 134.522 132.636 134.642 132.812C134.77 132.98 134.926 133.164 135.11 133.364C135.366 133.644 135.634 133.92 135.914 134.192C136.194 134.456 136.514 134.748 136.874 135.068L136.106 135.884C135.69 135.5 135.338 135.168 135.05 134.888C134.77 134.6 134.514 134.332 134.282 134.084C134.114 133.9 133.962 133.728 133.826 133.568C133.698 133.408 133.61 133.268 133.562 133.148H133.55ZM149.5 133.82V138.68H142.756V133.82H143.932V135.224H148.324V133.82H149.5ZM142.54 128.216V131.732C143.036 131.732 143.484 131.728 143.884 131.72C144.284 131.712 144.668 131.7 145.036 131.684C145.412 131.668 145.788 131.644 146.164 131.612C146.54 131.572 146.952 131.524 147.4 131.468L147.52 132.464C147.088 132.52 146.676 132.568 146.284 132.608C145.892 132.648 145.464 132.68 145 132.704C144.544 132.728 144.024 132.744 143.44 132.752C142.856 132.76 142.164 132.764 141.364 132.764V128.216H142.54ZM151.072 130.94H149.5V133.28H148.324V127.616H149.5V129.908H151.072V130.94ZM148.324 137.672V136.22H143.932V137.672H148.324ZM160.614 133.856V138.68H153.714V133.856H154.89V135.236H159.438V133.856H160.614ZM154.674 128C155.13 128 155.53 128.068 155.874 128.204C156.218 128.34 156.502 128.52 156.726 128.744C156.958 128.96 157.13 129.208 157.242 129.488C157.362 129.76 157.422 130.036 157.422 130.316V130.772C157.422 131.052 157.362 131.332 157.242 131.612C157.13 131.884 156.958 132.132 156.726 132.356C156.502 132.572 156.218 132.748 155.874 132.884C155.53 133.02 155.13 133.088 154.674 133.088C154.218 133.088 153.818 133.02 153.474 132.884C153.13 132.748 152.842 132.572 152.61 132.356C152.386 132.132 152.214 131.884 152.094 131.612C151.982 131.332 151.926 131.052 151.926 130.772V130.316C151.926 130.036 151.982 129.76 152.094 129.488C152.214 129.208 152.386 128.96 152.61 128.744C152.842 128.52 153.13 128.34 153.474 128.204C153.818 128.068 154.218 128 154.674 128ZM154.674 132.068C154.93 132.068 155.158 132.028 155.358 131.948C155.558 131.868 155.726 131.764 155.862 131.636C155.998 131.508 156.102 131.364 156.174 131.204C156.246 131.044 156.282 130.88 156.282 130.712V130.376C156.282 130.208 156.246 130.044 156.174 129.884C156.102 129.724 155.998 129.584 155.862 129.464C155.726 129.336 155.558 129.232 155.358 129.152C155.158 129.072 154.93 129.032 154.674 129.032C154.418 129.032 154.19 129.072 153.99 129.152C153.79 129.232 153.622 129.336 153.486 129.464C153.35 129.584 153.246 129.724 153.174 129.884C153.102 130.044 153.066 130.208 153.066 130.376V130.712C153.066 130.88 153.102 131.044 153.174 131.204C153.246 131.364 153.35 131.508 153.486 131.636C153.622 131.764 153.79 131.868 153.99 131.948C154.19 132.028 154.418 132.068 154.674 132.068ZM159.438 133.316V127.616H160.614V133.316H159.438ZM159.438 137.672V136.232H154.89V137.672H159.438Z" fill="#2D2F34"/>
<path d="M205.124 134.108H202.064V136.196H206.552V137.204H196.4V136.196H200.876V134.108H197.828V128.432H199.004V130.316H203.948V128.42H205.124V134.108ZM199.004 133.1H203.948V131.324H199.004V133.1ZM216.322 134.864V138.668H209.422V134.864H216.322ZM210.394 134.144C209.914 134.144 209.51 134.088 209.182 133.976C208.854 133.864 208.586 133.72 208.378 133.544C208.178 133.368 208.034 133.172 207.946 132.956C207.858 132.74 207.814 132.532 207.814 132.332V131.996C207.814 131.796 207.858 131.588 207.946 131.372C208.034 131.156 208.178 130.96 208.378 130.784C208.586 130.608 208.854 130.464 209.182 130.352C209.51 130.24 209.914 130.184 210.394 130.184C210.874 130.184 211.278 130.24 211.606 130.352C211.934 130.464 212.198 130.608 212.398 130.784C212.606 130.96 212.754 131.156 212.842 131.372C212.93 131.588 212.974 131.796 212.974 131.996V132.332C212.974 132.532 212.93 132.74 212.842 132.956C212.754 133.172 212.606 133.368 212.398 133.544C212.198 133.72 211.934 133.864 211.606 133.976C211.278 134.088 210.874 134.144 210.394 134.144ZM215.146 134.324V132.02H213.526V131H215.146V127.616H216.322V134.324H215.146ZM210.598 137.66H215.146V135.872H210.598V137.66ZM213.61 129.776H207.214V128.78H209.794V127.472H210.97V128.78H213.61V129.776ZM210.394 133.196C210.666 133.196 210.894 133.168 211.078 133.112C211.27 133.048 211.422 132.968 211.534 132.872C211.646 132.776 211.726 132.676 211.774 132.572C211.822 132.46 211.846 132.356 211.846 132.26V132.068C211.846 131.972 211.822 131.872 211.774 131.768C211.726 131.656 211.646 131.552 211.534 131.456C211.422 131.36 211.274 131.284 211.09 131.228C210.906 131.164 210.674 131.132 210.394 131.132C210.114 131.132 209.882 131.164 209.698 131.228C209.514 131.284 209.366 131.36 209.254 131.456C209.142 131.552 209.062 131.656 209.014 131.768C208.966 131.872 208.942 131.972 208.942 132.068V132.26C208.942 132.356 208.966 132.46 209.014 132.572C209.062 132.676 209.142 132.776 209.254 132.872C209.366 132.968 209.514 133.048 209.698 133.112C209.882 133.168 210.114 133.196 210.394 133.196ZM227.412 138.68H226.248V132.5H224.94V138.14H223.776V127.844H224.94V131.468H226.248V127.616H227.412V138.68ZM222.48 129.704H219.42V134.684H220.032C220.304 134.684 220.56 134.68 220.8 134.672C221.04 134.664 221.276 134.652 221.508 134.636C221.74 134.62 221.98 134.6 222.228 134.576C222.476 134.544 222.74 134.504 223.02 134.456L223.14 135.452C222.828 135.5 222.536 135.544 222.264 135.584C221.992 135.616 221.724 135.644 221.46 135.668C221.196 135.684 220.928 135.696 220.656 135.704C220.392 135.712 220.104 135.716 219.792 135.716H218.22V128.672H222.48V129.704ZM229.898 138.764V136.052H235.97V135.284H229.838V134.312H232.922V133.412H228.446V132.428H238.598V133.412H234.122V134.312H237.134V137H231.062V137.792H237.458V138.764H229.898ZM233.51 130.58C233.422 130.724 233.266 130.852 233.042 130.964C232.818 131.076 232.578 131.176 232.322 131.264C231.882 131.416 231.442 131.556 231.002 131.684C230.562 131.812 230.11 131.932 229.646 132.044L229.334 131.084C229.774 130.988 230.166 130.888 230.51 130.784C230.862 130.68 231.238 130.56 231.638 130.424C232.046 130.288 232.35 130.152 232.55 130.016C232.75 129.872 232.87 129.672 232.91 129.416H229.73V128.456H232.922V127.448H234.11V128.456H237.314V129.416H234.122C234.154 129.672 234.274 129.868 234.482 130.004C234.69 130.14 234.998 130.28 235.406 130.424C235.678 130.52 235.998 130.624 236.366 130.736C236.742 130.84 237.19 130.956 237.71 131.084L237.386 132.044C236.914 131.932 236.462 131.812 236.03 131.684C235.598 131.556 235.166 131.416 234.734 131.264C234.478 131.176 234.234 131.076 234.002 130.964C233.77 130.852 233.61 130.724 233.522 130.58H233.51Z" fill="#2D2F34"/>
<path d="M278.635 134.576C279.163 134.576 279.639 134.628 280.063 134.732C280.487 134.828 280.847 134.968 281.143 135.152C281.447 135.328 281.679 135.54 281.839 135.788C282.007 136.028 282.091 136.292 282.091 136.58V136.988C282.091 137.276 282.007 137.54 281.839 137.78C281.679 138.028 281.447 138.24 281.143 138.416C280.847 138.6 280.487 138.74 280.063 138.836C279.639 138.94 279.163 138.992 278.635 138.992C278.107 138.992 277.627 138.94 277.195 138.836C276.771 138.74 276.407 138.6 276.103 138.416C275.807 138.24 275.579 138.028 275.419 137.78C275.259 137.54 275.179 137.276 275.179 136.988V136.58C275.179 136.292 275.259 136.028 275.419 135.788C275.579 135.54 275.807 135.328 276.103 135.152C276.407 134.968 276.771 134.828 277.195 134.732C277.627 134.628 278.107 134.576 278.635 134.576ZM279.259 129.296C279.259 129.552 279.359 129.772 279.559 129.956C279.767 130.132 280.103 130.316 280.567 130.508C280.839 130.62 281.159 130.748 281.527 130.892C281.903 131.028 282.331 131.176 282.811 131.336L282.379 132.272C281.931 132.112 281.507 131.96 281.107 131.816C280.715 131.664 280.295 131.492 279.847 131.3C279.591 131.188 279.347 131.068 279.115 130.94C278.883 130.812 278.723 130.668 278.635 130.508C278.547 130.668 278.387 130.812 278.155 130.94C277.931 131.068 277.691 131.188 277.435 131.3C276.979 131.492 276.551 131.664 276.151 131.816C275.759 131.96 275.339 132.112 274.891 132.272L274.459 131.336C274.939 131.176 275.363 131.028 275.731 130.892C276.107 130.748 276.431 130.62 276.703 130.508C277.167 130.316 277.499 130.132 277.699 129.956C277.907 129.772 278.011 129.552 278.011 129.296V129.02H274.879V128.036H282.391V129.02H279.259V129.296ZM283.711 132.86V133.868H273.559V132.86H283.711ZM278.635 138.02C278.971 138.02 279.279 137.988 279.559 137.924C279.839 137.868 280.079 137.788 280.279 137.684C280.479 137.58 280.635 137.46 280.747 137.324C280.859 137.196 280.915 137.06 280.915 136.916V136.652C280.915 136.508 280.859 136.372 280.747 136.244C280.635 136.108 280.479 135.988 280.279 135.884C280.079 135.78 279.839 135.7 279.559 135.644C279.279 135.58 278.971 135.548 278.635 135.548C278.299 135.548 277.991 135.58 277.711 135.644C277.431 135.7 277.191 135.78 276.991 135.884C276.791 135.988 276.635 136.108 276.523 136.244C276.411 136.372 276.355 136.508 276.355 136.652V136.916C276.355 137.06 276.411 137.196 276.523 137.324C276.635 137.46 276.791 137.58 276.991 137.684C277.191 137.788 277.431 137.868 277.711 137.924C277.991 137.988 278.299 138.02 278.635 138.02ZM286.737 136.4C286.737 136.112 286.813 135.84 286.965 135.584C287.125 135.328 287.349 135.104 287.637 134.912C287.933 134.72 288.289 134.568 288.705 134.456C289.129 134.344 289.605 134.288 290.133 134.288C290.661 134.288 291.133 134.344 291.549 134.456C291.973 134.568 292.329 134.72 292.617 134.912C292.913 135.104 293.137 135.328 293.289 135.584C293.449 135.84 293.529 136.112 293.529 136.4V136.88C293.529 137.168 293.449 137.44 293.289 137.696C293.137 137.952 292.913 138.176 292.617 138.368C292.329 138.56 291.973 138.712 291.549 138.824C291.133 138.936 290.661 138.992 290.133 138.992C289.605 138.992 289.129 138.936 288.705 138.824C288.289 138.712 287.933 138.56 287.637 138.368C287.349 138.176 287.125 137.952 286.965 137.696C286.813 137.44 286.737 137.168 286.737 136.88V136.4ZM289.917 133.256H284.925V128.264H289.917V133.256ZM292.317 134.144V132.38H290.565V131.36H292.317V130.232H290.565V129.212H292.317V127.616H293.481V134.144H292.317ZM292.365 136.472C292.365 136.328 292.313 136.184 292.209 136.04C292.105 135.888 291.957 135.756 291.765 135.644C291.573 135.532 291.337 135.44 291.057 135.368C290.785 135.296 290.477 135.26 290.133 135.26C289.789 135.26 289.477 135.296 289.197 135.368C288.925 135.44 288.693 135.532 288.501 135.644C288.309 135.756 288.161 135.888 288.057 136.04C287.953 136.184 287.901 136.328 287.901 136.472V136.808C287.901 136.952 287.953 137.096 288.057 137.24C288.161 137.392 288.309 137.524 288.501 137.636C288.693 137.748 288.925 137.84 289.197 137.912C289.477 137.984 289.789 138.02 290.133 138.02C290.477 138.02 290.785 137.984 291.057 137.912C291.337 137.84 291.573 137.748 291.765 137.636C291.957 137.524 292.105 137.392 292.209 137.24C292.313 137.096 292.365 136.952 292.365 136.808V136.472ZM286.089 132.248H288.753V129.272H286.089V132.248ZM302.987 138.68V132.08H300.635V131.036H302.987V127.616H304.175V138.68H302.987ZM298.259 133.124C298.203 133.26 298.119 133.396 298.007 133.532C297.903 133.668 297.755 133.84 297.563 134.048C297.315 134.32 297.031 134.616 296.711 134.936C296.391 135.248 296.027 135.592 295.619 135.968L294.839 135.164C295.567 134.516 296.199 133.896 296.735 133.304C296.919 133.096 297.071 132.904 297.191 132.728C297.311 132.552 297.403 132.38 297.467 132.212C297.539 132.036 297.587 131.86 297.611 131.684C297.643 131.5 297.659 131.3 297.659 131.084V128.42H298.859V131.084C298.859 131.324 298.875 131.54 298.907 131.732C298.939 131.916 298.991 132.096 299.063 132.272C299.135 132.44 299.231 132.612 299.351 132.788C299.479 132.956 299.635 133.14 299.819 133.34C300.075 133.62 300.343 133.896 300.623 134.168C300.903 134.432 301.223 134.724 301.583 135.044L300.815 135.86C300.399 135.476 300.047 135.144 299.759 134.864C299.479 134.576 299.223 134.308 298.991 134.06C298.823 133.876 298.671 133.704 298.535 133.544C298.407 133.384 298.319 133.244 298.271 133.124H298.259ZM307.549 138.752V135.776H313.177V134.756H307.489V133.772H314.341V136.736H308.713V137.768H314.653V138.752H307.549ZM306.169 132.812V127.94H307.333V129.536H310.069V127.94H311.233V132.812H306.169ZM315.913 130.892H314.341V133.196H313.165V127.616H314.341V129.86H315.913V130.892ZM307.333 131.828H310.069V130.508H307.333V131.828ZM318.855 136.616C318.855 136.304 318.935 136.028 319.095 135.788C319.255 135.548 319.483 135.348 319.779 135.188C320.083 135.02 320.447 134.896 320.871 134.816C321.303 134.728 321.783 134.684 322.311 134.684C322.839 134.684 323.315 134.728 323.739 134.816C324.163 134.896 324.523 135.02 324.819 135.188C325.123 135.348 325.355 135.548 325.515 135.788C325.683 136.028 325.767 136.304 325.767 136.616V137.072C325.767 137.384 325.683 137.66 325.515 137.9C325.355 138.14 325.123 138.34 324.819 138.5C324.523 138.668 324.163 138.792 323.739 138.872C323.315 138.96 322.839 139.004 322.311 139.004C321.783 139.004 321.303 138.96 320.871 138.872C320.447 138.792 320.083 138.668 319.779 138.5C319.483 138.34 319.255 138.14 319.095 137.9C318.935 137.66 318.855 137.384 318.855 137.072V136.616ZM324.555 127.616H325.695V134.468H324.555V131.468H323.475V134H322.347V127.76H323.475V130.448H324.555V127.616ZM319.047 134.24C318.687 134.24 318.363 134.192 318.075 134.096C317.795 134 317.555 133.872 317.355 133.712C317.163 133.552 317.011 133.368 316.899 133.16C316.795 132.952 316.743 132.732 316.743 132.5V132.044C316.743 131.812 316.795 131.592 316.899 131.384C317.011 131.168 317.163 130.98 317.355 130.82C317.555 130.66 317.795 130.536 318.075 130.448C318.363 130.352 318.687 130.304 319.047 130.304C319.407 130.304 319.727 130.352 320.007 130.448C320.295 130.536 320.535 130.66 320.727 130.82C320.927 130.98 321.079 131.168 321.183 131.384C321.295 131.592 321.351 131.812 321.351 132.044V132.5C321.351 132.732 321.295 132.952 321.183 133.16C321.079 133.368 320.927 133.552 320.727 133.712C320.535 133.872 320.295 134 320.007 134.096C319.727 134.192 319.407 134.24 319.047 134.24ZM324.603 136.688C324.603 136.536 324.547 136.396 324.435 136.268C324.323 136.14 324.167 136.032 323.967 135.944C323.767 135.848 323.523 135.776 323.235 135.728C322.955 135.68 322.647 135.656 322.311 135.656C321.975 135.656 321.663 135.68 321.375 135.728C321.095 135.776 320.855 135.848 320.655 135.944C320.455 136.032 320.299 136.14 320.187 136.268C320.075 136.396 320.019 136.536 320.019 136.688V136.988C320.019 137.148 320.075 137.292 320.187 137.42C320.299 137.548 320.455 137.656 320.655 137.744C320.855 137.84 321.095 137.912 321.375 137.96C321.663 138.008 321.975 138.032 322.311 138.032C322.647 138.032 322.955 138.008 323.235 137.96C323.523 137.912 323.767 137.84 323.967 137.744C324.167 137.656 324.323 137.548 324.435 137.42C324.547 137.3 324.603 137.16 324.603 137V136.688ZM318.471 128.9V127.628H319.623V128.9H321.519V129.896H316.359V128.9H318.471ZM319.047 131.228C318.671 131.228 318.367 131.316 318.135 131.492C317.911 131.668 317.799 131.884 317.799 132.14V132.404C317.799 132.66 317.911 132.876 318.135 133.052C318.367 133.228 318.671 133.316 319.047 133.316C319.423 133.316 319.723 133.228 319.947 133.052C320.179 132.876 320.295 132.66 320.295 132.404V132.14C320.295 131.884 320.179 131.668 319.947 131.492C319.723 131.316 319.423 131.228 319.047 131.228Z" fill="#2D2F34"/>
<path d="M40.0898 43.8672C40.0703 46.582 41.5156 49.707 44.4453 51.0547L43.0586 53.0078C41.0762 52.0996 39.6602 50.2832 38.8789 48.1445C38.0781 50.498 36.623 52.4902 34.5625 53.457L33.1172 51.4844C36.0859 50.0977 37.5703 46.7969 37.5898 43.8672V42.7734H33.8203V40.7422H43.6641V42.7734H40.0898V43.8672ZM47.5508 39.0234V45.8008H50.168V47.8906H47.5508V56.7969H45.0508V39.0234H47.5508ZM66.6234 48.8281V50.8203H59.7094V56.7969H57.2484V50.8203H50.4125V48.8281H66.6234ZM65.1781 39.9609V41.9141H60.0023C60.2465 43.6523 62.2094 45.4004 65.8617 45.8398L64.9633 47.793C61.8383 47.373 59.602 46.0352 58.5375 44.1992C57.4438 46.0352 55.227 47.373 52.1313 47.793L51.2133 45.8398C54.807 45.4004 56.7895 43.6523 57.0727 41.9141H51.8773V39.9609H65.1781ZM81.6437 40.7422V42.7148H78.05C78.0891 44.4629 79.3781 46.2598 82.2102 46.9727L81.1164 48.8867C79.0656 48.3691 77.6398 47.2559 76.8391 45.8398C76.048 47.4023 74.6223 48.6426 72.5422 49.2188L71.3703 47.2461C74.2023 46.5137 75.5305 44.6387 75.5695 42.7148H71.9953V40.7422H75.5695V38.9453H78.0891V40.7422H81.6437ZM85.6086 39.0234V43.0078H88.0109V45.0586H85.6086V49.1602H83.1086V39.0234H85.6086ZM85.8234 49.9219V51.875H81.3117C81.7609 53.1836 83.509 54.4531 86.6047 54.8633L85.7258 56.7578C82.8645 56.377 80.8527 55.2344 79.8273 53.7109C78.8117 55.2246 76.8098 56.3379 73.9875 56.7188L73.0891 54.8242C76.2141 54.4434 77.9426 53.2129 78.4016 51.875H73.8508V49.9219H85.8234ZM102.826 43.8672V45.8203H90.4039V39.6484H92.8844V43.8672H102.826ZM104.642 47.7344V49.6875H88.3727V47.7344H104.642ZM102.943 54.4141V56.4062H90.2477V51.1328H92.7477V54.4141H102.943ZM125.756 52.6953V54.7266H109.487V52.6953H116.342V49.4141H111.205V40.1562H113.705V42.9102H121.459V40.1562H123.94V49.4141H118.823V52.6953H125.756ZM113.705 47.4219H121.459V44.9023H113.705V47.4219ZM141.352 39.0234V49.7656H138.872V46.2695H136.567V44.2383H138.872V39.0234H141.352ZM141.352 50.5273V56.6016H129.399V50.5273H141.352ZM131.899 52.4805V54.6094H138.911V52.4805H131.899ZM136.88 40.5664V42.5586H126.411V40.5664H130.434V38.8672H132.895V40.5664H136.88ZM131.665 43.1445C134.165 43.1445 135.923 44.4727 135.923 46.3281C135.923 48.2617 134.165 49.5508 131.665 49.5508C129.184 49.5508 127.387 48.2617 127.387 46.3281C127.387 44.4727 129.184 43.1445 131.665 43.1445ZM131.665 45.0195C130.512 45.0195 129.77 45.4883 129.79 46.3281C129.77 47.2266 130.512 47.7148 131.665 47.7148C132.798 47.7148 133.54 47.2266 133.54 46.3281C133.54 45.4883 132.798 45.0195 131.665 45.0195ZM155.045 40.8594V45.4883H156.822V39.2773H159.166V55.9766H156.822V47.4805H155.045V52.3242H147.974V40.8594H155.045ZM150.298 42.832V50.3711H152.72V42.832H150.298ZM162.877 39.0234V56.7969H160.494V39.0234H162.877ZM178.766 44.6289V46.6211H166.324V39.8242H168.805V44.6289H178.766ZM180.562 48.6328V50.625H176.852V56.7969H174.332V50.625H170.602V56.7969H168.102V50.625H164.352V48.6328H180.562Z" fill="black"/>
<rect x="49" y="85" width="25" height="29" rx="5" fill="url(#paint0_linear_33_1050)"/>
<rect x="54" y="91" width="13" height="2" rx="1" fill="#FFAF66"/>
<rect x="54" y="96" width="8" height="2" rx="1" fill="#FFAF66"/>
<circle cx="72" cy="109" r="8" fill="#A468FF"/>
<path d="M67.8021 108.667C68.0624 108.406 68.4845 108.406 68.7449 108.667L71.3897 111.312C71.6501 111.572 71.6501 111.994 71.3897 112.254C71.1294 112.515 70.7073 112.515 70.4469 112.254L67.8021 109.609C67.5417 109.349 67.5417 108.927 67.8021 108.667Z" fill="white" stroke="white" stroke-width="0.2"/>
<path d="M76.2318 106.471C76.4922 106.731 76.4922 107.153 76.2318 107.414L71.3907 112.255C71.1304 112.515 70.7083 112.515 70.4479 112.255C70.1876 111.994 70.1876 111.572 70.4479 111.312L75.289 106.471C75.5494 106.211 75.9715 106.211 76.2318 106.471Z" fill="white" stroke="white" stroke-width="0.2"/>
<path d="M312 98H305.764C305.212 98 304.764 97.5523 304.764 97V95.0136V90.1269C304.764 90.0667 304.77 90.0081 304.779 89.9486C304.816 89.7242 304.905 89.1127 304.882 88.6226C304.024 88.7256 303.729 88.4232 304.28 88.0455C304.716 87.7466 304.858 88.1209 304.882 88.6226C305.531 88.5446 306.502 88.2342 307.671 87.5478C310.276 86.0187 312.344 88.0373 312.934 89.3755C312.981 89.4825 313 89.5985 313 89.7155V97C313 97.5523 312.552 98 312 98Z" fill="#FFAF66"/>
<path d="M283 113.457V91.4926C283 88.2979 285.526 87.1664 286.789 87H310C306.589 87 305.737 89.9951 305.737 91.4926V113.457H302.895C301.758 111.859 300.211 112.791 299.579 113.457C298.063 115.853 296.737 114.455 296.263 113.457C295.126 112.258 293.895 112.957 293.421 113.457C291.905 115.853 290.579 114.455 290.105 113.457C288.968 111.859 287.421 112.791 286.789 113.457C284.895 116.252 283.474 114.621 283 113.457Z" fill="url(#paint1_linear_33_1050)"/>
<circle cx="307" cy="109" r="8" fill="#42CCB0"/>
<rect x="288" y="92" width="13" height="2" rx="1" fill="#FFAF66"/>
<rect x="288" y="97" width="8" height="2" rx="1" fill="#FFAF66"/>
<path fill-rule="evenodd" clip-rule="evenodd" d="M303 110.5C303.276 110.5 303.5 110.724 303.5 111V111.5H310.5V111C310.5 110.724 310.724 110.5 311 110.5C311.276 110.5 311.5 110.724 311.5 111V112C311.5 112.276 311.276 112.5 311 112.5H303C302.724 112.5 302.5 112.276 302.5 112V111C302.5 110.724 302.724 110.5 303 110.5Z" fill="white" stroke="white" stroke-width="0.2" stroke-linejoin="round"/>
<path fill-rule="evenodd" clip-rule="evenodd" d="M304.6 107.7C304.766 107.479 305.079 107.434 305.3 107.6L307 108.875L308.7 107.6C308.921 107.434 309.234 107.479 309.4 107.7C309.566 107.921 309.521 108.234 309.3 108.4L307.3 109.9C307.122 110.033 306.878 110.033 306.7 109.9L304.7 108.4C304.479 108.234 304.434 107.921 304.6 107.7Z" fill="white" stroke="white" stroke-width="0.2" stroke-linejoin="round"/>
<path fill-rule="evenodd" clip-rule="evenodd" d="M307 103.5C307.276 103.5 307.5 103.724 307.5 104V109.5C307.5 109.776 307.276 110 307 110C306.724 110 306.5 109.776 306.5 109.5V104C306.5 103.724 306.724 103.5 307 103.5Z" fill="white" stroke="white" stroke-width="0.2" stroke-linecap="round" stroke-linejoin="round"/>
<ellipse cx="136" cy="92" rx="10" ry="5" fill="url(#paint2_linear_33_1050)"/>
<path d="M126 98.9039V95.3737C126 95.214 126.182 95.1206 126.316 95.2069C134.869 100.704 142.618 97.402 145.675 95.2386C145.811 95.1429 146 95.239 146 95.4047V98.9087C146 98.9667 145.974 99.0228 145.93 99.0605C138.508 105.412 128.678 101.077 126.072 99.0567C126.024 99.0195 126 98.9646 126 98.9039Z" fill="#FEE9CF"/>
<path d="M126 103.904V100.374C126 100.214 126.182 100.121 126.316 100.207C134.869 105.704 142.618 102.402 145.675 100.239C145.811 100.143 146 100.239 146 100.405V103.909C146 103.967 145.974 104.023 145.93 104.06C138.508 110.412 128.678 106.077 126.072 104.057C126.024 104.019 126 103.965 126 103.904Z" fill="#FEE9CF"/>
<path d="M126 108.904V105.374C126 105.214 126.182 105.121 126.316 105.207C134.869 110.704 142.618 107.402 145.675 105.239C145.811 105.143 146 105.239 146 105.405V108.909C146 108.967 145.974 109.023 145.93 109.06C138.508 115.412 128.678 111.077 126.072 109.057C126.024 109.019 126 108.965 126 108.904Z" fill="#FEE9CF"/>
<circle cx="147" cy="111" r="8" fill="#6F98F8"/>
<circle cx="147" cy="111" r="8" fill="#A468FF"/>
<path d="M142.802 110.667C143.062 110.406 143.485 110.406 143.745 110.667L146.39 113.312C146.65 113.572 146.65 113.994 146.39 114.254C146.129 114.515 145.707 114.515 145.447 114.254L142.802 111.609C142.542 111.349 142.542 110.927 142.802 110.667Z" fill="white" stroke="white" stroke-width="0.2"/>
<path d="M151.232 108.471C151.492 108.731 151.492 109.153 151.232 109.414L146.391 114.255C146.13 114.515 145.708 114.515 145.448 114.255C145.188 113.994 145.188 113.572 145.448 113.312L150.289 108.471C150.549 108.211 150.971 108.211 151.232 108.471Z" fill="white" stroke="white" stroke-width="0.2"/>
<path d="M133.691 94L132.949 92.232H132V91.7624H132.752L132.009 90H132.966L133.647 91.7624H134.792L135.508 90H136.492L137.208 91.7624H138.353L139.034 90H139.991L139.248 91.7624H140V92.232H139.051L138.3 94H137.315L136.573 92.232H135.427L134.685 94H133.691ZM133.834 92.232L134.174 93.1215H134.237L134.604 92.232H133.834ZM135.633 91.7624H136.376L136.027 90.9392H135.973L135.633 91.7624ZM137.405 92.232L137.763 93.1271H137.817L138.166 92.232H137.405Z" fill="white" stroke="white" stroke-width="0.2" stroke-linejoin="round"/>
<rect x="199" y="89" width="29" height="24" rx="5" fill="url(#paint3_linear_33_1050)"/>
<circle cx="224" cy="110" r="8" fill="#719CFF"/>
<rect x="206" y="86" width="2" height="6" rx="1" fill="#FFD19B"/>
<rect x="219" y="86" width="2" height="6" rx="1" fill="#FFD19B"/>
<path fill-rule="evenodd" clip-rule="evenodd" d="M227.25 107.333C227.25 107.633 227.076 107.875 226.861 107.875L220.639 107.875C220.424 107.875 220.25 107.633 220.25 107.333C220.25 107.034 220.424 106.792 220.639 106.792L226.861 106.792C227.076 106.792 227.25 107.034 227.25 107.333Z" fill="white"/>
<path fill-rule="evenodd" clip-rule="evenodd" d="M225.396 105.325C225.592 105.114 225.908 105.114 226.104 105.325L227.604 106.95C227.799 107.162 227.799 107.505 227.604 107.716L226.104 109.341C225.908 109.553 225.592 109.553 225.396 109.341C225.201 109.13 225.201 108.787 225.396 108.575L226.543 107.333L225.396 106.091C225.201 105.88 225.201 105.537 225.396 105.325Z" fill="white"/>
<path fill-rule="evenodd" clip-rule="evenodd" d="M220.75 111.667C220.75 111.367 220.949 111.125 221.194 111.125L227.306 111.125C227.551 111.125 227.75 111.367 227.75 111.667C227.75 111.966 227.551 112.208 227.306 112.208L221.194 112.208C220.949 112.208 220.75 111.966 220.75 111.667Z" fill="white"/>
<path fill-rule="evenodd" clip-rule="evenodd" d="M222.604 113.675C222.408 113.886 222.092 113.886 221.896 113.675L220.396 112.05C220.201 111.838 220.201 111.495 220.396 111.284L221.896 109.659C222.092 109.447 222.408 109.447 222.604 109.659C222.799 109.87 222.799 110.213 222.604 110.425L221.457 111.667L222.604 112.909C222.799 113.12 222.799 113.463 222.604 113.675Z" fill="white"/>
<path d="M210.326 105L209.304 101.464H208V100.525H209.034L208.012 97H209.329L210.264 100.525H211.839L212.823 97H214.177L215.161 100.525H216.736L217.671 97H218.988L217.966 100.525H219V101.464H217.696L216.662 105H215.309L214.287 101.464H212.713L211.691 105H210.326ZM210.522 101.464L210.99 103.243H211.076L211.581 101.464H210.522ZM212.996 100.525H214.017L213.537 98.8785H213.463L212.996 100.525ZM215.432 101.464L215.924 103.254H215.998L216.478 101.464H215.432Z" fill="white" stroke="white" stroke-width="0.2" stroke-linejoin="round"/>
<path d="M46.2833 221.108H43.2233V223.196H47.7113V224.204H37.5593V223.196H42.0353V221.108H38.9873V215.432H40.1633V217.316H45.1073V215.42H46.2833V221.108ZM40.1633 220.1H45.1073V218.324H40.1633V220.1ZM57.4812 221.864V225.668H50.5812V221.864H57.4812ZM51.5532 221.144C51.0732 221.144 50.6692 221.088 50.3412 220.976C50.0132 220.864 49.7452 220.72 49.5372 220.544C49.3372 220.368 49.1932 220.172 49.1052 219.956C49.0172 219.74 48.9732 219.532 48.9732 219.332V218.996C48.9732 218.796 49.0172 218.588 49.1052 218.372C49.1932 218.156 49.3372 217.96 49.5372 217.784C49.7452 217.608 50.0132 217.464 50.3412 217.352C50.6692 217.24 51.0732 217.184 51.5532 217.184C52.0332 217.184 52.4372 217.24 52.7652 217.352C53.0932 217.464 53.3572 217.608 53.5572 217.784C53.7652 217.96 53.9132 218.156 54.0012 218.372C54.0892 218.588 54.1332 218.796 54.1332 218.996V219.332C54.1332 219.532 54.0892 219.74 54.0012 219.956C53.9132 220.172 53.7652 220.368 53.5572 220.544C53.3572 220.72 53.0932 220.864 52.7652 220.976C52.4372 221.088 52.0332 221.144 51.5532 221.144ZM56.3052 221.324V219.02H54.6852V218H56.3052V214.616H57.4812V221.324H56.3052ZM51.7572 224.66H56.3052V222.872H51.7572V224.66ZM54.7692 216.776H48.3732V215.78H50.9532V214.472H52.1292V215.78H54.7692V216.776ZM51.5532 220.196C51.8252 220.196 52.0532 220.168 52.2372 220.112C52.4292 220.048 52.5812 219.968 52.6932 219.872C52.8052 219.776 52.8852 219.676 52.9332 219.572C52.9812 219.46 53.0052 219.356 53.0052 219.26V219.068C53.0052 218.972 52.9812 218.872 52.9332 218.768C52.8852 218.656 52.8052 218.552 52.6932 218.456C52.5812 218.36 52.4332 218.284 52.2492 218.228C52.0652 218.164 51.8332 218.132 51.5532 218.132C51.2732 218.132 51.0412 218.164 50.8572 218.228C50.6732 218.284 50.5252 218.36 50.4132 218.456C50.3012 218.552 50.2212 218.656 50.1732 218.768C50.1252 218.872 50.1012 218.972 50.1012 219.068V219.26C50.1012 219.356 50.1252 219.46 50.1732 219.572C50.2212 219.676 50.3012 219.776 50.4132 219.872C50.5252 219.968 50.6732 220.048 50.8572 220.112C51.0412 220.168 51.2732 220.196 51.5532 220.196ZM67.6231 225.668H60.3751V221.468H67.6231V225.668ZM60.2431 215.084H67.5511V216.788C67.5511 217.124 67.5311 217.504 67.4911 217.928C67.4511 218.344 67.3911 218.76 67.3111 219.176H69.0751V220.184H58.9231V219.176H66.0871C66.1831 218.736 66.2511 218.312 66.2911 217.904C66.3311 217.488 66.3511 217.1 66.3511 216.74V216.092H60.2431V215.084ZM66.4471 222.464H61.5511V224.672H66.4471V222.464ZM72.1009 223.46C72.1009 223.188 72.1729 222.928 72.3169 222.68C72.4689 222.424 72.6889 222.204 72.9769 222.02C73.2649 221.836 73.6209 221.688 74.0449 221.576C74.4689 221.464 74.9529 221.408 75.4969 221.408C76.0409 221.408 76.5249 221.464 76.9489 221.576C77.3729 221.688 77.7289 221.836 78.0169 222.02C78.3049 222.204 78.5209 222.424 78.6649 222.68C78.8169 222.928 78.8929 223.188 78.8929 223.46V223.94C78.8929 224.22 78.8169 224.484 78.6649 224.732C78.5209 224.98 78.3049 225.196 78.0169 225.38C77.7289 225.564 77.3729 225.712 76.9489 225.824C76.5249 225.936 76.0409 225.992 75.4969 225.992C74.9529 225.992 74.4689 225.936 74.0449 225.824C73.6209 225.712 73.2649 225.564 72.9769 225.38C72.6889 225.196 72.4689 224.98 72.3169 224.732C72.1729 224.484 72.1009 224.22 72.1009 223.94V223.46ZM73.1929 218.936C73.1529 219.04 73.0569 219.184 72.9049 219.368C72.7529 219.544 72.5809 219.712 72.3889 219.872C72.1329 220.096 71.8449 220.332 71.5249 220.58C71.2129 220.828 70.8889 221.068 70.5529 221.3L69.8569 220.448C70.2409 220.176 70.6009 219.912 70.9369 219.656C71.2729 219.392 71.5489 219.156 71.7649 218.948C71.9089 218.804 72.0329 218.664 72.1369 218.528C72.2409 218.392 72.3209 218.252 72.3769 218.108C72.4409 217.964 72.4849 217.808 72.5089 217.64C72.5409 217.472 72.5569 217.28 72.5569 217.064V216.86H70.1689V215.84H72.5569V214.532H73.7569V215.84H75.9889V216.86H73.7569V217.016C73.7569 217.2 73.7649 217.368 73.7809 217.52C73.7969 217.664 73.8249 217.8 73.8649 217.928C73.9129 218.056 73.9769 218.18 74.0569 218.3C74.1369 218.412 74.2449 218.528 74.3809 218.648C74.6609 218.904 74.9569 219.152 75.2689 219.392C75.5809 219.624 75.9169 219.856 76.2769 220.088L75.6049 220.952C75.2929 220.736 75.0009 220.524 74.7289 220.316C74.4569 220.108 74.1769 219.884 73.8889 219.644C73.7049 219.492 73.5529 219.36 73.4329 219.248C73.3209 219.128 73.2449 219.024 73.2049 218.936H73.1929ZM77.6689 221.252V218.708H75.6529V217.688H77.6689V214.616H78.8449V221.252H77.6689ZM77.7289 223.556C77.7289 223.42 77.6769 223.284 77.5729 223.148C77.4769 223.004 77.3329 222.876 77.1409 222.764C76.9569 222.652 76.7249 222.56 76.4449 222.488C76.1729 222.416 75.8569 222.38 75.4969 222.38C75.1369 222.38 74.8169 222.416 74.5369 222.488C74.2649 222.56 74.0329 222.652 73.8409 222.764C73.6569 222.876 73.5129 223.004 73.4089 223.148C73.3129 223.284 73.2649 223.42 73.2649 223.556V223.844C73.2649 223.98 73.3129 224.116 73.4089 224.252C73.5129 224.396 73.6569 224.524 73.8409 224.636C74.0329 224.748 74.2649 224.84 74.5369 224.912C74.8169 224.984 75.1369 225.02 75.4969 225.02C75.8569 225.02 76.1729 224.984 76.4449 224.912C76.7249 224.84 76.9569 224.748 77.1409 224.636C77.3329 224.524 77.4769 224.396 77.5729 224.252C77.6769 224.116 77.7289 223.98 77.7289 223.844V223.556ZM90.4388 220.28V221.288H85.9628V225.68H84.7628V221.288H80.2868V220.28H87.3668C87.4948 219.688 87.5828 219.128 87.6308 218.6C87.6868 218.064 87.7148 217.528 87.7148 216.992V216.344H81.5588V215.3H88.9028V216.716C88.9028 217.292 88.8748 217.88 88.8188 218.48C88.7628 219.08 88.6788 219.68 88.5668 220.28H90.4388Z" fill="#2D2F34"/>
<path d="M127.048 225.68H125.884V219.5H124.576V225.14H123.412V214.844H124.576V218.468H125.884V214.616H127.048V225.68ZM122.116 216.704H119.056V221.684H119.668C119.94 221.684 120.196 221.68 120.436 221.672C120.676 221.664 120.912 221.652 121.144 221.636C121.376 221.62 121.616 221.6 121.864 221.576C122.112 221.544 122.376 221.504 122.656 221.456L122.776 222.452C122.464 222.5 122.172 222.544 121.9 222.584C121.628 222.616 121.36 222.644 121.096 222.668C120.832 222.684 120.564 222.696 120.292 222.704C120.028 222.712 119.74 222.716 119.428 222.716H117.856V215.672H122.116V216.704ZM129.534 225.764V223.052H135.606V222.284H129.474V221.312H132.558V220.412H128.082V219.428H138.234V220.412H133.758V221.312H136.77V224H130.698V224.792H137.094V225.764H129.534ZM133.146 217.58C133.058 217.724 132.902 217.852 132.678 217.964C132.454 218.076 132.214 218.176 131.958 218.264C131.518 218.416 131.078 218.556 130.638 218.684C130.198 218.812 129.746 218.932 129.282 219.044L128.97 218.084C129.41 217.988 129.802 217.888 130.146 217.784C130.498 217.68 130.874 217.56 131.274 217.424C131.682 217.288 131.986 217.152 132.186 217.016C132.386 216.872 132.506 216.672 132.546 216.416H129.366V215.456H132.558V214.448H133.746V215.456H136.95V216.416H133.758C133.79 216.672 133.91 216.868 134.118 217.004C134.326 217.14 134.634 217.28 135.042 217.424C135.314 217.52 135.634 217.624 136.002 217.736C136.378 217.84 136.826 217.956 137.346 218.084L137.022 219.044C136.55 218.932 136.098 218.812 135.666 218.684C135.234 218.556 134.802 218.416 134.37 218.264C134.114 218.176 133.87 218.076 133.638 217.964C133.406 217.852 133.246 217.724 133.158 217.58H133.146ZM140.84 223.4C140.84 223.112 140.916 222.84 141.068 222.584C141.22 222.328 141.44 222.104 141.728 221.912C142.016 221.72 142.364 221.568 142.772 221.456C143.188 221.344 143.656 221.288 144.176 221.288C144.696 221.288 145.16 221.344 145.568 221.456C145.984 221.568 146.336 221.72 146.624 221.912C146.912 222.104 147.132 222.328 147.284 222.584C147.436 222.84 147.512 223.112 147.512 223.4V223.88C147.512 224.168 147.436 224.44 147.284 224.696C147.132 224.952 146.912 225.176 146.624 225.368C146.336 225.56 145.984 225.712 145.568 225.824C145.16 225.936 144.696 225.992 144.176 225.992C143.656 225.992 143.188 225.936 142.772 225.824C142.364 225.712 142.016 225.56 141.728 225.368C141.44 225.176 141.22 224.952 141.068 224.696C140.916 224.44 140.84 224.168 140.84 223.88V223.4ZM141.98 218.432C141.948 218.536 141.852 218.68 141.692 218.864C141.532 219.048 141.36 219.224 141.176 219.392C140.928 219.624 140.64 219.88 140.312 220.16C139.984 220.432 139.66 220.696 139.34 220.952L138.632 220.112C139.016 219.816 139.38 219.52 139.724 219.224C140.076 218.928 140.356 218.676 140.564 218.468C140.716 218.316 140.84 218.172 140.936 218.036C141.04 217.892 141.12 217.748 141.176 217.604C141.24 217.452 141.284 217.292 141.308 217.124C141.332 216.956 141.344 216.768 141.344 216.56V215.108H142.544V216.512C142.544 216.696 142.548 216.864 142.556 217.016C142.572 217.16 142.6 217.296 142.64 217.424C142.68 217.552 142.74 217.68 142.82 217.808C142.908 217.928 143.024 218.052 143.168 218.18C143.448 218.436 143.752 218.7 144.08 218.972C144.416 219.244 144.764 219.508 145.124 219.764L144.428 220.592C144.116 220.36 143.816 220.128 143.528 219.896C143.248 219.656 142.964 219.416 142.676 219.176C142.492 219.024 142.34 218.884 142.22 218.756C142.108 218.628 142.032 218.52 141.992 218.432H141.98ZM146.348 223.472C146.348 223.328 146.296 223.184 146.192 223.04C146.096 222.888 145.952 222.756 145.76 222.644C145.576 222.532 145.348 222.44 145.076 222.368C144.812 222.296 144.512 222.26 144.176 222.26C143.84 222.26 143.536 222.296 143.264 222.368C143 222.44 142.772 222.532 142.58 222.644C142.396 222.756 142.252 222.888 142.148 223.04C142.052 223.184 142.004 223.328 142.004 223.472V223.808C142.004 223.952 142.052 224.096 142.148 224.24C142.252 224.392 142.396 224.524 142.58 224.636C142.772 224.748 143 224.84 143.264 224.912C143.536 224.984 143.84 225.02 144.176 225.02C144.512 225.02 144.812 224.984 145.076 224.912C145.348 224.84 145.576 224.748 145.76 224.636C145.952 224.524 146.096 224.392 146.192 224.24C146.296 224.096 146.348 223.952 146.348 223.808V223.472ZM149.036 218.324H147.464V221.144H146.288V214.616H147.464V217.292H149.036V218.324ZM156.514 221.852C156.034 221.9 155.57 221.94 155.122 221.972C154.674 222.004 154.182 222.032 153.646 222.056C153.118 222.072 152.518 222.084 151.846 222.092C151.174 222.1 150.378 222.104 149.458 222.104V221.096C150.034 221.096 150.554 221.096 151.018 221.096C151.49 221.096 151.926 221.092 152.326 221.084V220.376C151.678 220.304 151.19 220.124 150.862 219.836C150.542 219.548 150.382 219.208 150.382 218.816V218.504C150.382 218.28 150.434 218.072 150.538 217.88C150.65 217.688 150.81 217.52 151.018 217.376C151.226 217.232 151.486 217.12 151.798 217.04C152.118 216.96 152.49 216.92 152.914 216.92C153.33 216.92 153.698 216.964 154.018 217.052C154.338 217.132 154.602 217.244 154.81 217.388C155.018 217.532 155.174 217.7 155.278 217.892C155.39 218.084 155.446 218.288 155.446 218.504V218.816C155.446 219.208 155.282 219.548 154.954 219.836C154.634 220.124 154.15 220.304 153.502 220.376V221.06C154.014 221.044 154.498 221.024 154.954 221C155.41 220.968 155.898 220.928 156.418 220.88L156.514 221.852ZM157.09 223.028V214.616H158.266V218.18H159.826V219.212H158.266V223.028H157.09ZM152.398 224.552H158.566V225.572H151.21V222.704H152.398V224.552ZM155.914 215.552V216.548H149.878V215.552H152.326V214.52H153.502V215.552H155.914ZM152.914 217.856C152.434 217.856 152.086 217.932 151.87 218.084C151.654 218.228 151.546 218.396 151.546 218.588V218.732C151.546 218.924 151.654 219.096 151.87 219.248C152.086 219.392 152.434 219.464 152.914 219.464C153.394 219.464 153.742 219.392 153.958 219.248C154.174 219.096 154.282 218.924 154.282 218.732V218.588C154.282 218.396 154.174 218.228 153.958 218.084C153.742 217.932 153.394 217.856 152.914 217.856Z" fill="#2D2F34"/>
<path d="M209.465 221.108H206.405V223.196H210.893V224.204H200.741V223.196H205.217V221.108H202.169V215.432H203.345V217.316H208.289V215.42H209.465V221.108ZM203.345 220.1H208.289V218.324H203.345V220.1ZM220.663 221.864V225.668H213.763V221.864H220.663ZM214.735 221.144C214.255 221.144 213.851 221.088 213.523 220.976C213.195 220.864 212.927 220.72 212.719 220.544C212.519 220.368 212.375 220.172 212.287 219.956C212.199 219.74 212.155 219.532 212.155 219.332V218.996C212.155 218.796 212.199 218.588 212.287 218.372C212.375 218.156 212.519 217.96 212.719 217.784C212.927 217.608 213.195 217.464 213.523 217.352C213.851 217.24 214.255 217.184 214.735 217.184C215.215 217.184 215.619 217.24 215.947 217.352C216.275 217.464 216.539 217.608 216.739 217.784C216.947 217.96 217.095 218.156 217.183 218.372C217.271 218.588 217.315 218.796 217.315 218.996V219.332C217.315 219.532 217.271 219.74 217.183 219.956C217.095 220.172 216.947 220.368 216.739 220.544C216.539 220.72 216.275 220.864 215.947 220.976C215.619 221.088 215.215 221.144 214.735 221.144ZM219.487 221.324V219.02H217.867V218H219.487V214.616H220.663V221.324H219.487ZM214.939 224.66H219.487V222.872H214.939V224.66ZM217.951 216.776H211.555V215.78H214.135V214.472H215.311V215.78H217.951V216.776ZM214.735 220.196C215.007 220.196 215.235 220.168 215.419 220.112C215.611 220.048 215.763 219.968 215.875 219.872C215.987 219.776 216.067 219.676 216.115 219.572C216.163 219.46 216.187 219.356 216.187 219.26V219.068C216.187 218.972 216.163 218.872 216.115 218.768C216.067 218.656 215.987 218.552 215.875 218.456C215.763 218.36 215.615 218.284 215.431 218.228C215.247 218.164 215.015 218.132 214.735 218.132C214.455 218.132 214.223 218.164 214.039 218.228C213.855 218.284 213.707 218.36 213.595 218.456C213.483 218.552 213.403 218.656 213.355 218.768C213.307 218.872 213.283 218.972 213.283 219.068V219.26C213.283 219.356 213.307 219.46 213.355 219.572C213.403 219.676 213.483 219.776 213.595 219.872C213.707 219.968 213.855 220.048 214.039 220.112C214.223 220.168 214.455 220.196 214.735 220.196ZM223.533 221.3V217.88H229.605V216.5H223.485V215.492H230.781V218.888H224.709V220.292H231.045V221.3H229.461V223.196H232.257V224.204H222.105V223.196H224.997V221.3H223.533ZM226.161 223.196H228.297V221.3H226.161V223.196ZM198.712 234.208C198.656 234.344 198.572 234.484 198.46 234.628C198.348 234.772 198.196 234.948 198.004 235.156C197.756 235.428 197.48 235.72 197.176 236.032C196.872 236.336 196.516 236.676 196.108 237.052L195.328 236.248C195.688 235.92 196.016 235.608 196.312 235.312C196.616 235.016 196.904 234.716 197.176 234.412C197.376 234.196 197.536 234 197.656 233.824C197.776 233.648 197.868 233.476 197.932 233.308C197.996 233.14 198.04 232.968 198.064 232.792C198.088 232.616 198.1 232.416 198.1 232.192V230.656H195.724V229.624H201.616V230.656H199.3V232.192C199.3 232.432 199.312 232.64 199.336 232.816C199.36 232.992 199.404 233.16 199.468 233.32C199.54 233.48 199.64 233.648 199.768 233.824C199.896 233.992 200.068 234.192 200.284 234.424C200.54 234.704 200.8 234.972 201.064 235.228C201.336 235.484 201.652 235.768 202.012 236.08L201.232 236.884C200.824 236.508 200.484 236.188 200.212 235.924C199.94 235.652 199.688 235.392 199.456 235.144C199.288 234.96 199.136 234.788 199 234.628C198.864 234.468 198.772 234.328 198.724 234.208H198.712ZM205.756 233.74H204.052V239.68H202.864V228.616H204.052V232.708H205.756V233.74ZM214.674 229.024V230.032H208.758V231.796H214.746V232.804H211.758V233.944H216.234V234.952H206.082V233.944H210.558V232.804H207.582V229.024H214.674ZM211.158 239.992C210.63 239.992 210.15 239.94 209.718 239.836C209.294 239.74 208.93 239.6 208.626 239.416C208.33 239.24 208.102 239.028 207.942 238.78C207.782 238.54 207.702 238.28 207.702 238V237.592C207.702 237.304 207.782 237.04 207.942 236.8C208.102 236.552 208.33 236.34 208.626 236.164C208.93 235.988 209.294 235.852 209.718 235.756C210.15 235.652 210.63 235.6 211.158 235.6C211.686 235.6 212.162 235.652 212.586 235.756C213.01 235.852 213.37 235.992 213.666 236.176C213.97 236.352 214.202 236.56 214.362 236.8C214.53 237.04 214.614 237.304 214.614 237.592V238C214.614 238.28 214.534 238.54 214.374 238.78C214.214 239.02 213.982 239.228 213.678 239.404C213.382 239.588 213.018 239.732 212.586 239.836C212.162 239.94 211.686 239.992 211.158 239.992ZM211.158 236.572C210.822 236.572 210.514 236.604 210.234 236.668C209.954 236.724 209.714 236.804 209.514 236.908C209.314 237.004 209.158 237.12 209.046 237.256C208.934 237.384 208.878 237.52 208.878 237.664V237.928C208.878 238.072 208.934 238.208 209.046 238.336C209.158 238.472 209.314 238.588 209.514 238.684C209.714 238.788 209.954 238.868 210.234 238.924C210.514 238.988 210.822 239.02 211.158 239.02C211.494 239.02 211.802 238.988 212.082 238.924C212.362 238.868 212.602 238.788 212.802 238.684C213.002 238.588 213.158 238.472 213.27 238.336C213.382 238.208 213.438 238.072 213.438 237.928V237.664C213.438 237.52 213.382 237.384 213.27 237.256C213.158 237.12 213.002 237.004 212.802 236.908C212.602 236.804 212.362 236.724 212.082 236.668C211.802 236.604 211.494 236.572 211.158 236.572ZM224.744 239.68V228.616H225.932V239.68H224.744ZM220.112 229.36C220.52 229.36 220.892 229.428 221.228 229.564C221.572 229.7 221.868 229.904 222.116 230.176C222.364 230.448 222.556 230.784 222.692 231.184C222.836 231.584 222.908 232.048 222.908 232.576V233.824C222.908 234.352 222.836 234.816 222.692 235.216C222.556 235.616 222.364 235.952 222.116 236.224C221.868 236.488 221.572 236.688 221.228 236.824C220.892 236.96 220.52 237.028 220.112 237.028C219.704 237.028 219.328 236.96 218.984 236.824C218.648 236.688 218.356 236.488 218.108 236.224C217.86 235.952 217.664 235.616 217.52 235.216C217.384 234.816 217.316 234.352 217.316 233.824V232.576C217.316 232.048 217.384 231.584 217.52 231.184C217.664 230.776 217.86 230.44 218.108 230.176C218.356 229.904 218.648 229.7 218.984 229.564C219.328 229.428 219.704 229.36 220.112 229.36ZM220.112 235.96C220.328 235.96 220.536 235.92 220.736 235.84C220.936 235.76 221.112 235.628 221.264 235.444C221.416 235.26 221.536 235.024 221.624 234.736C221.72 234.44 221.768 234.08 221.768 233.656V232.744C221.768 232.32 221.72 231.964 221.624 231.676C221.536 231.38 221.412 231.14 221.252 230.956C221.1 230.772 220.924 230.64 220.724 230.56C220.532 230.48 220.328 230.44 220.112 230.44C219.896 230.44 219.688 230.48 219.488 230.56C219.288 230.64 219.112 230.772 218.96 230.956C218.808 231.14 218.684 231.38 218.588 231.676C218.5 231.964 218.456 232.32 218.456 232.744V233.656C218.456 234.08 218.5 234.44 218.588 234.736C218.684 235.024 218.808 235.26 218.96 235.444C219.112 235.628 219.288 235.76 219.488 235.84C219.688 235.92 219.896 235.96 220.112 235.96ZM230.254 234.388C230.214 234.508 230.146 234.636 230.05 234.772C229.962 234.9 229.858 235.036 229.738 235.18C229.498 235.468 229.23 235.772 228.934 236.092C228.638 236.412 228.33 236.736 228.01 237.064L227.206 236.26C227.566 235.916 227.902 235.58 228.214 235.252C228.526 234.924 228.81 234.592 229.066 234.256C229.306 233.944 229.466 233.636 229.546 233.332C229.626 233.028 229.666 232.704 229.666 232.36V231.292H227.662V230.296H229.666V228.856H230.818V230.296H232.702V231.292H230.818V232.36C230.818 232.704 230.862 233.024 230.95 233.32C231.046 233.616 231.214 233.92 231.454 234.232C231.71 234.56 231.974 234.872 232.246 235.168C232.518 235.464 232.834 235.784 233.194 236.128L232.39 236.92C232.07 236.6 231.778 236.304 231.514 236.032C231.258 235.752 231.01 235.468 230.77 235.18C230.65 235.036 230.546 234.9 230.458 234.772C230.37 234.636 230.306 234.508 230.266 234.388H230.254ZM233.722 228.844H234.886V239.14H233.722V233.62H232.102V232.588H233.722V228.844ZM237.082 239.68H235.918V228.616H237.082V239.68Z" fill="#2D2F34"/>
<path d="M287.768 219.74H286.064V225.68H284.876V214.616H286.064V218.708H287.768V219.74ZM277.628 222.296C278.268 221.92 278.808 221.588 279.248 221.3C279.696 221.004 280.064 220.736 280.352 220.496C280.648 220.256 280.88 220.032 281.048 219.824C281.216 219.608 281.34 219.392 281.42 219.176C281.5 218.96 281.548 218.74 281.564 218.516C281.588 218.284 281.6 218.024 281.6 217.736V216.668H277.844V215.648H282.776V217.748C282.776 218.116 282.764 218.444 282.74 218.732C282.724 219.02 282.668 219.296 282.572 219.56C282.484 219.816 282.344 220.072 282.152 220.328C281.968 220.576 281.708 220.844 281.372 221.132C281.036 221.412 280.612 221.724 280.1 222.068C279.596 222.412 278.98 222.804 278.252 223.244L277.628 222.296ZM290.158 223.4C290.158 223.112 290.234 222.84 290.386 222.584C290.538 222.328 290.758 222.104 291.046 221.912C291.334 221.72 291.682 221.568 292.09 221.456C292.506 221.344 292.974 221.288 293.494 221.288C294.014 221.288 294.478 221.344 294.886 221.456C295.302 221.568 295.654 221.72 295.942 221.912C296.23 222.104 296.45 222.328 296.602 222.584C296.754 222.84 296.83 223.112 296.83 223.4V223.88C296.83 224.168 296.754 224.44 296.602 224.696C296.45 224.952 296.23 225.176 295.942 225.368C295.654 225.56 295.302 225.712 294.886 225.824C294.478 225.936 294.014 225.992 293.494 225.992C292.974 225.992 292.506 225.936 292.09 225.824C291.682 225.712 291.334 225.56 291.046 225.368C290.758 225.176 290.538 224.952 290.386 224.696C290.234 224.44 290.158 224.168 290.158 223.88V223.4ZM291.298 218.432C291.266 218.536 291.17 218.68 291.01 218.864C290.85 219.048 290.678 219.224 290.494 219.392C290.246 219.624 289.958 219.88 289.63 220.16C289.302 220.432 288.978 220.696 288.658 220.952L287.95 220.112C288.334 219.816 288.698 219.52 289.042 219.224C289.394 218.928 289.674 218.676 289.882 218.468C290.034 218.316 290.158 218.172 290.254 218.036C290.358 217.892 290.438 217.748 290.494 217.604C290.558 217.452 290.602 217.292 290.626 217.124C290.65 216.956 290.662 216.768 290.662 216.56V215.108H291.862V216.512C291.862 216.696 291.866 216.864 291.874 217.016C291.89 217.16 291.918 217.296 291.958 217.424C291.998 217.552 292.058 217.68 292.138 217.808C292.226 217.928 292.342 218.052 292.486 218.18C292.766 218.436 293.07 218.7 293.398 218.972C293.734 219.244 294.082 219.508 294.442 219.764L293.746 220.592C293.434 220.36 293.134 220.128 292.846 219.896C292.566 219.656 292.282 219.416 291.994 219.176C291.81 219.024 291.658 218.884 291.538 218.756C291.426 218.628 291.35 218.52 291.31 218.432H291.298ZM295.666 223.472C295.666 223.328 295.614 223.184 295.51 223.04C295.414 222.888 295.27 222.756 295.078 222.644C294.894 222.532 294.666 222.44 294.394 222.368C294.13 222.296 293.83 222.26 293.494 222.26C293.158 222.26 292.854 222.296 292.582 222.368C292.318 222.44 292.09 222.532 291.898 222.644C291.714 222.756 291.57 222.888 291.466 223.04C291.37 223.184 291.322 223.328 291.322 223.472V223.808C291.322 223.952 291.37 224.096 291.466 224.24C291.57 224.392 291.714 224.524 291.898 224.636C292.09 224.748 292.318 224.84 292.582 224.912C292.854 224.984 293.158 225.02 293.494 225.02C293.83 225.02 294.13 224.984 294.394 224.912C294.666 224.84 294.894 224.748 295.078 224.636C295.27 224.524 295.414 224.392 295.51 224.24C295.614 224.096 295.666 223.952 295.666 223.808V223.472ZM298.354 218.324H296.782V221.144H295.606V214.616H296.782V217.292H298.354V218.324ZM302.208 216.716H299.136V215.696H303.372V217.316H304.956V214.844H306.12V225.14H304.956V221.204H303.336V220.172H304.956V218.348H303.36C303.352 218.66 303.324 218.952 303.276 219.224C303.236 219.488 303.16 219.744 303.048 219.992C302.944 220.232 302.8 220.476 302.616 220.724C302.44 220.964 302.208 221.216 301.92 221.48C301.64 221.744 301.3 222.028 300.9 222.332C300.5 222.628 300.028 222.956 299.484 223.316L298.824 222.392C299.384 222.032 299.856 221.704 300.24 221.408C300.632 221.112 300.952 220.84 301.2 220.592C301.456 220.336 301.652 220.096 301.788 219.872C301.924 219.64 302.02 219.416 302.076 219.2C302.14 218.976 302.176 218.748 302.184 218.516C302.2 218.276 302.208 218.02 302.208 217.748V216.716ZM308.376 225.68H307.212V214.616H308.376V225.68ZM315.782 216.548H313.538V216.692C313.538 216.876 313.542 217.04 313.55 217.184C313.558 217.328 313.582 217.464 313.622 217.592C313.662 217.712 313.722 217.832 313.802 217.952C313.882 218.064 313.998 218.184 314.15 218.312C314.438 218.56 314.766 218.82 315.134 219.092C315.51 219.356 315.886 219.616 316.262 219.872L315.578 220.724C315.242 220.492 314.902 220.248 314.558 219.992C314.222 219.736 313.91 219.492 313.622 219.26C313.438 219.108 313.294 218.988 313.19 218.9C313.094 218.804 313.026 218.708 312.986 218.612H312.974C312.934 218.724 312.842 218.856 312.698 219.008C312.562 219.16 312.402 219.32 312.218 219.488C311.962 219.712 311.654 219.964 311.294 220.244C310.942 220.524 310.586 220.792 310.226 221.048L309.518 220.172C309.926 219.892 310.314 219.612 310.682 219.332C311.05 219.044 311.346 218.796 311.57 218.588C311.73 218.444 311.858 218.304 311.954 218.168C312.058 218.024 312.138 217.876 312.194 217.724C312.25 217.572 312.286 217.416 312.302 217.256C312.326 217.088 312.338 216.9 312.338 216.692V216.548H310.058V215.528H315.782V216.548ZM319.958 219.824H318.302V225.68H317.126V214.616H318.302V218.792H319.958V219.824ZM316.574 223.124C316.07 223.172 315.562 223.216 315.05 223.256C314.546 223.288 314.01 223.316 313.442 223.34C312.882 223.364 312.278 223.384 311.63 223.4C310.982 223.408 310.266 223.412 309.482 223.412V222.38C310.034 222.388 310.542 222.392 311.006 222.392C311.47 222.384 311.914 222.376 312.338 222.368V220.448H313.55V222.332C314.078 222.308 314.574 222.28 315.038 222.248C315.51 222.216 315.986 222.176 316.466 222.128L316.574 223.124ZM291.49 238.528H297.478V239.56H290.302V235.84H291.49V238.528ZM296.038 236.488V228.616H297.214V236.488H296.038ZM291.538 232.72C291.506 232.824 291.41 232.968 291.25 233.152C291.09 233.336 290.918 233.512 290.734 233.68C290.486 233.912 290.194 234.168 289.858 234.448C289.522 234.728 289.194 234.996 288.874 235.252L288.166 234.412C288.358 234.268 288.546 234.12 288.73 233.968C288.922 233.816 289.102 233.668 289.27 233.524C289.446 233.38 289.606 233.244 289.75 233.116C289.894 232.98 290.018 232.86 290.122 232.756C290.274 232.604 290.398 232.46 290.494 232.324C290.598 232.18 290.678 232.036 290.734 231.892C290.798 231.74 290.842 231.58 290.866 231.412C290.89 231.244 290.902 231.056 290.902 230.848V229.132H292.102V230.8C292.102 230.984 292.106 231.152 292.114 231.304C292.13 231.448 292.158 231.584 292.198 231.712C292.238 231.84 292.298 231.968 292.378 232.096C292.466 232.216 292.582 232.34 292.726 232.468C293.006 232.724 293.314 232.992 293.65 233.272C293.994 233.544 294.346 233.808 294.706 234.064L294.01 234.892C293.706 234.66 293.406 234.424 293.11 234.184C292.814 233.936 292.522 233.692 292.234 233.452C292.05 233.3 291.898 233.164 291.778 233.044C291.666 232.916 291.59 232.808 291.55 232.72H291.538ZM301.26 237.46C301.26 237.188 301.332 236.928 301.476 236.68C301.628 236.424 301.848 236.204 302.136 236.02C302.424 235.836 302.78 235.688 303.204 235.576C303.628 235.464 304.112 235.408 304.656 235.408C305.2 235.408 305.684 235.464 306.108 235.576C306.532 235.688 306.888 235.836 307.176 236.02C307.464 236.204 307.68 236.424 307.824 236.68C307.976 236.928 308.052 237.188 308.052 237.46V237.94C308.052 238.22 307.976 238.484 307.824 238.732C307.68 238.98 307.464 239.196 307.176 239.38C306.888 239.564 306.532 239.712 306.108 239.824C305.684 239.936 305.2 239.992 304.656 239.992C304.112 239.992 303.628 239.936 303.204 239.824C302.78 239.712 302.424 239.564 302.136 239.38C301.848 239.196 301.628 238.98 301.476 238.732C301.332 238.484 301.26 238.22 301.26 237.94V237.46ZM302.352 232.936C302.312 233.04 302.216 233.184 302.064 233.368C301.912 233.544 301.74 233.712 301.548 233.872C301.292 234.096 301.004 234.332 300.684 234.58C300.372 234.828 300.048 235.068 299.712 235.3L299.016 234.448C299.4 234.176 299.76 233.912 300.096 233.656C300.432 233.392 300.708 233.156 300.924 232.948C301.068 232.804 301.192 232.664 301.296 232.528C301.4 232.392 301.48 232.252 301.536 232.108C301.6 231.964 301.644 231.808 301.668 231.64C301.7 231.472 301.716 231.28 301.716 231.064V230.86H299.328V229.84H301.716V228.532H302.916V229.84H305.148V230.86H302.916V231.016C302.916 231.2 302.924 231.368 302.94 231.52C302.956 231.664 302.984 231.8 303.024 231.928C303.072 232.056 303.136 232.18 303.216 232.3C303.296 232.412 303.404 232.528 303.54 232.648C303.82 232.904 304.116 233.152 304.428 233.392C304.74 233.624 305.076 233.856 305.436 234.088L304.764 234.952C304.452 234.736 304.16 234.524 303.888 234.316C303.616 234.108 303.336 233.884 303.048 233.644C302.864 233.492 302.712 233.36 302.592 233.248C302.48 233.128 302.404 233.024 302.364 232.936H302.352ZM306.828 235.252V232.708H304.812V231.688H306.828V228.616H308.004V235.252H306.828ZM306.888 237.556C306.888 237.42 306.836 237.284 306.732 237.148C306.636 237.004 306.492 236.876 306.3 236.764C306.116 236.652 305.884 236.56 305.604 236.488C305.332 236.416 305.016 236.38 304.656 236.38C304.296 236.38 303.976 236.416 303.696 236.488C303.424 236.56 303.192 236.652 303 236.764C302.816 236.876 302.672 237.004 302.568 237.148C302.472 237.284 302.424 237.42 302.424 237.556V237.844C302.424 237.98 302.472 238.116 302.568 238.252C302.672 238.396 302.816 238.524 303 238.636C303.192 238.748 303.424 238.84 303.696 238.912C303.976 238.984 304.296 239.02 304.656 239.02C305.016 239.02 305.332 238.984 305.604 238.912C305.884 238.84 306.116 238.748 306.3 238.636C306.492 238.524 306.636 238.396 306.732 238.252C306.836 238.116 306.888 237.98 306.888 237.844V237.556Z" fill="#2D2F34"/>
<rect x="49" y="168" width="25" height="29" rx="5" fill="url(#paint4_linear_33_1050)"/>
<rect x="54" y="174" width="13" height="2" rx="1" fill="#FFAF66"/>
<rect x="54" y="179" width="8" height="2" rx="1" fill="#FFAF66"/>
<circle cx="72" cy="192" r="8" fill="#719CFF"/>
<path d="M69.1141 196L68.1857 192.906H67V192.084H67.9396L67.0112 189H68.2081L69.0582 192.084H70.4899L71.3848 189H72.6152L73.5101 192.084H74.9418L75.7919 189H76.9888L76.0604 192.084H77V192.906H75.8143L74.8747 196H73.6443L72.7159 192.906H71.2841L70.3557 196H69.1141ZM69.2931 192.906L69.7181 194.463H69.7964L70.255 192.906H69.2931ZM71.5414 192.084H72.4698L72.0336 190.644H71.9664L71.5414 192.084ZM73.7562 192.906L74.2036 194.472H74.2707L74.7069 192.906H73.7562Z" fill="white"/>
<circle cx="140" cy="176" r="8" fill="#719CFF"/>
<path d="M137.114 180L136.186 176.906H135V176.084H135.94L135.011 173H136.208L137.058 176.084H138.49L139.385 173H140.615L141.51 176.084H142.942L143.792 173H144.989L144.06 176.084H145V176.906H143.814L142.875 180H141.644L140.716 176.906H139.284L138.356 180H137.114ZM137.293 176.906L137.718 178.463H137.796L138.255 176.906H137.293ZM139.541 176.084H140.47L140.034 174.644H139.966L139.541 176.084ZM141.756 176.906L142.204 178.472H142.271L142.707 176.906H141.756Z" fill="white"/>
<path fill-rule="evenodd" clip-rule="evenodd" d="M141.894 192.105L148.151 190.646C148.918 190.468 149.725 190.581 150.411 190.962C151.097 191.342 151.611 191.963 151.851 192.7C152.091 193.437 152.039 194.236 151.705 194.937C151.372 195.638 150.781 196.189 150.051 196.481L141.892 199.736C137.923 201.32 133.501 201.419 129.461 200.014L121.842 197.369C121.595 197.284 121.382 197.126 121.231 196.917C121.081 196.708 121 196.458 121 196.202V185.421C121 185.109 121.122 184.808 121.339 184.579C121.556 184.351 121.854 184.211 122.172 184.19L124.455 184.029C125.689 183.942 126.932 184.051 128.134 184.35L133.937 185.807C134.489 185.942 134.967 186.283 135.268 186.758C135.57 187.232 135.671 187.803 135.551 188.35C135.43 188.897 135.098 189.376 134.624 189.686C134.15 189.997 133.572 190.114 133.012 190.013L132.392 189.904L129.545 189.357C129.222 189.305 128.892 189.378 128.623 189.56C128.355 189.743 128.169 190.02 128.105 190.335C128.041 190.649 128.104 190.976 128.28 191.246C128.457 191.516 128.733 191.708 129.051 191.781L135.433 193.06C136.353 193.245 137.302 193.225 138.213 193.003L141.892 192.105H141.894Z" fill="url(#paint5_linear_33_1050)"/>
<path d="M222.475 172.788C223.924 172.99 225 174.233 225 175.695V177.632C225 192.086 216.21 195.986 213.371 196.868C212.803 197.044 212.196 197.044 211.627 196.868C208.79 195.985 200 192.086 200 177.63V175.706C200 174.241 201.078 172.989 202.53 172.797C206.357 172.292 209.174 170.727 210.82 169.552C211.835 168.827 213.192 168.814 214.217 169.527C215.898 170.698 218.749 172.269 222.478 172.788H222.475Z" fill="url(#paint6_linear_33_1050)"/>
<path d="M213.455 178.242V181.727H216.889V183.495H213.455V187.218H211.551V183.495H208.117V181.727H211.551V178.242H213.455Z" fill="white"/>
<circle cx="224" cy="193" r="8" fill="#42CCB0"/>
<path d="M227.595 196.286H226.066L225.296 194.108H222.623L221.842 196.286H220.401L223.349 188.355H224.614L227.595 196.286ZM223.03 192.931H224.889L224.35 191.314C224.254 191.05 224.177 190.83 224.119 190.654C224.067 190.471 224.012 190.284 223.954 190.093C223.924 190.203 223.895 190.302 223.866 190.39C223.844 190.478 223.818 190.57 223.789 190.665C223.759 190.753 223.726 190.848 223.69 190.951C223.66 191.054 223.62 191.175 223.569 191.314L223.03 192.931Z" fill="white"/>
<rect x="281" y="170" width="29" height="24" rx="5" fill="url(#paint7_linear_33_1050)"/>
<rect x="285" y="176" width="12" height="2" rx="1" fill="#FFAF66"/>
<rect x="285" y="181" width="7" height="2" rx="1" fill="#FFAF66"/>
<circle cx="308" cy="192" r="8" fill="#A468FF"/>
<path d="M303.802 191.667C304.062 191.406 304.485 191.406 304.745 191.667L307.39 194.312C307.65 194.572 307.65 194.994 307.39 195.254C307.129 195.515 306.707 195.515 306.447 195.254L303.802 192.609C303.542 192.349 303.542 191.927 303.802 191.667Z" fill="white" stroke="white" stroke-width="0.2"/>
<path d="M312.232 189.471C312.492 189.731 312.492 190.153 312.232 190.414L307.391 195.255C307.13 195.515 306.708 195.515 306.448 195.255C306.188 194.994 306.188 194.572 306.448 194.312L311.289 189.471C311.549 189.211 311.971 189.211 312.232 189.471Z" fill="white" stroke="white" stroke-width="0.2"/>
<rect x="299" y="175" width="7" height="7" rx="2" fill="url(#paint8_linear_33_1050)"/>
<defs>
<filter id="filter0_d_33_1050" x="0.899902" y="0.899902" width="367.2" height="285.2" filterUnits="userSpaceOnUse" color-interpolation-filters="sRGB">
<feFlood flood-opacity="0" result="BackgroundImageFix"/>
<feColorMatrix in="SourceAlpha" type="matrix" values="0 0 0 0 0 0 0 0 0 0 0 0 0 0 0 0 0 0 127 0" result="hardAlpha"/>
<feOffset dy="3"/>
<feGaussianBlur stdDeviation="6"/>
<feComposite in2="hardAlpha" operator="out"/>
<feColorMatrix type="matrix" values="0 0 0 0 0 0 0 0 0 0 0 0 0 0 0 0 0 0 0.13 0"/>
<feBlend mode="normal" in2="BackgroundImageFix" result="effect1_dropShadow_33_1050"/>
<feBlend mode="normal" in="SourceGraphic" in2="effect1_dropShadow_33_1050" result="shape"/>
</filter>
<linearGradient id="paint0_linear_33_1050" x1="61.5" y1="85" x2="61.5" y2="114" gradientUnits="userSpaceOnUse">
<stop stop-color="#FFF1DF"/>
<stop offset="1" stop-color="#FFDCAE"/>
</linearGradient>
<linearGradient id="paint1_linear_33_1050" x1="296.5" y1="87" x2="296.5" y2="115" gradientUnits="userSpaceOnUse">
<stop stop-color="#FFF1DF"/>
<stop offset="1" stop-color="#FFDCAE"/>
</linearGradient>
<linearGradient id="paint2_linear_33_1050" x1="145" y1="91.5" x2="126.5" y2="92" gradientUnits="userSpaceOnUse">
<stop stop-color="#FFB155"/>
<stop offset="1" stop-color="#FF9A22"/>
</linearGradient>
<linearGradient id="paint3_linear_33_1050" x1="213.5" y1="89" x2="213.5" y2="113" gradientUnits="userSpaceOnUse">
<stop stop-color="#FFB55E"/>
<stop offset="1" stop-color="#FF9517"/>
</linearGradient>
<linearGradient id="paint4_linear_33_1050" x1="61.5" y1="168" x2="61.5" y2="197" gradientUnits="userSpaceOnUse">
<stop stop-color="#FFF1DF"/>
<stop offset="1" stop-color="#FFDCAE"/>
</linearGradient>
<linearGradient id="paint5_linear_33_1050" x1="136.5" y1="184" x2="136.5" y2="201" gradientUnits="userSpaceOnUse">
<stop stop-color="#FFE8CA"/>
<stop offset="1" stop-color="#FFD195"/>
</linearGradient>
<linearGradient id="paint6_linear_33_1050" x1="212.5" y1="169" x2="212.5" y2="197" gradientUnits="userSpaceOnUse">
<stop stop-color="#FFB966"/>
<stop offset="1" stop-color="#FF9920"/>
</linearGradient>
<linearGradient id="paint7_linear_33_1050" x1="295.5" y1="170" x2="295.5" y2="194" gradientUnits="userSpaceOnUse">
<stop stop-color="#FFEFDC"/>
<stop offset="1" stop-color="#FFD298"/>
</linearGradient>
<linearGradient id="paint8_linear_33_1050" x1="302.5" y1="175" x2="302.5" y2="182" gradientUnits="userSpaceOnUse">
<stop stop-color="#FFB661"/>
<stop offset="1" stop-color="#FF9E2B"/>
</linearGradient>
</defs>
</svg>
