<svg width="367" height="206" viewBox="0 0 367 206" fill="none" xmlns="http://www.w3.org/2000/svg">
<g filter="url(#filter0_d_33_952)">
<path d="M12 29C12 17.9543 20.9543 9 32 9H335C346.046 9 355 17.9543 355 29V171C355 182.046 346.046 191 335 191H32C20.9543 191 12 182.046 12 171V29Z" fill="white"/>
</g>
<path d="M176.084 110.468V100.082L173.132 101.774L172.016 99.902L176.354 97.49H178.388V110.468H176.084ZM181.558 104.69C182.818 104.138 183.832 103.67 184.6 103.286C185.38 102.89 185.974 102.518 186.382 102.17C186.802 101.822 187.078 101.468 187.21 101.108C187.354 100.748 187.426 100.322 187.426 99.83V98.822H182.278V96.878H189.694V100.298H192.952V95.852H195.22V107.768H192.952V102.224H189.262C189.082 102.584 188.824 102.932 188.488 103.268C188.152 103.592 187.714 103.922 187.174 104.258C186.634 104.594 185.98 104.948 185.212 105.32C184.444 105.692 183.538 106.1 182.494 106.544L181.558 104.69ZM186.85 110.468H195.49V112.412H184.564V106.886H186.85V110.468Z" fill="black"/>
<path d="M292.35 104.978C292.35 106.826 291.96 108.236 291.18 109.208C290.4 110.18 289.224 110.666 287.652 110.666C286.104 110.666 284.91 110.174 284.07 109.19C283.23 108.206 282.81 106.802 282.81 104.978V102.962C282.81 101.138 283.224 99.74 284.052 98.768C284.892 97.784 286.074 97.292 287.598 97.292C289.134 97.292 290.31 97.784 291.126 98.768C291.942 99.74 292.35 101.138 292.35 102.962V104.978ZM290.028 102.944C290.028 102.2 289.956 101.6 289.812 101.144C289.68 100.688 289.5 100.34 289.272 100.1C289.056 99.848 288.798 99.68 288.498 99.596C288.21 99.512 287.91 99.47 287.598 99.47C287.298 99.47 286.998 99.512 286.698 99.596C286.41 99.68 286.146 99.848 285.906 100.1C285.678 100.352 285.492 100.706 285.348 101.162C285.204 101.618 285.132 102.212 285.132 102.944V104.996C285.132 105.74 285.204 106.34 285.348 106.796C285.504 107.252 285.702 107.606 285.942 107.858C286.182 108.11 286.452 108.278 286.752 108.362C287.052 108.446 287.352 108.488 287.652 108.488C287.964 108.488 288.264 108.446 288.552 108.362C288.84 108.278 289.092 108.116 289.308 107.876C289.524 107.624 289.698 107.27 289.83 106.814C289.962 106.358 290.028 105.752 290.028 104.996V102.944ZM293.558 104.69C294.818 104.138 295.832 103.67 296.6 103.286C297.38 102.89 297.974 102.518 298.382 102.17C298.802 101.822 299.078 101.468 299.21 101.108C299.354 100.748 299.426 100.322 299.426 99.83V98.822H294.278V96.878H301.694V100.298H304.952V95.852H307.22V107.768H304.952V102.224H301.262C301.082 102.584 300.824 102.932 300.488 103.268C300.152 103.592 299.714 103.922 299.174 104.258C298.634 104.594 297.98 104.948 297.212 105.32C296.444 105.692 295.538 106.1 294.494 106.544L293.558 104.69ZM298.85 110.468H307.49V112.412H296.564V106.886H298.85V110.468Z" fill="black"/>
<rect x="28" y="135" width="311" height="40" rx="12" fill="#F58220"/>
<rect width="6.79349" height="1.04472" rx="0.522361" transform="matrix(-0.721387 0.692532 -0.714364 -0.699775 323.865 155.015)" fill="white" stroke="white" stroke-width="0.5"/>
<rect width="6.79349" height="1.04472" rx="0.522361" transform="matrix(-0.721387 -0.692532 0.714364 -0.699775 323.116 155.719)" fill="white" stroke="white" stroke-width="0.5"/>
<path d="M50.056 155.568V156.744H45.904V160.08H44.416V156.744H40.312V155.568H50.056ZM41.44 154.536V149.832H42.928V151.056H47.416V149.832H48.904V154.536H41.44ZM42.928 153.336H47.416V152.232H42.928V153.336ZM59.2991 149.808V150.984H56.3711C56.5991 151.764 57.7031 152.52 59.7551 152.712L59.2271 153.888C57.2231 153.684 55.8671 152.916 55.3031 151.872C54.7391 152.916 53.4071 153.684 51.4031 153.888L50.8751 152.712C52.9031 152.52 54.0071 151.752 54.2351 150.984H51.3311V149.808H59.2991ZM50.4431 155.808V154.608H54.5471V153.216H56.0351V154.608H60.1871V155.808H50.4431ZM51.5231 157.752V156.576H58.9871V160.08H57.4991V157.752H51.5231ZM69.0462 149.424V152.688H70.4862V153.912H69.0462V157.392H67.5342V149.424H69.0462ZM60.5742 151.728V150.552H62.9982V149.4H64.4862V150.552H66.9102V151.728H60.5742ZM61.1022 154.176C61.1022 152.928 62.1822 152.1 63.7422 152.088C65.2902 152.1 66.3702 152.928 66.3822 154.176C66.3702 155.388 65.2902 156.204 63.7422 156.192C62.1822 156.204 61.1022 155.388 61.1022 154.176ZM62.1102 159.888V156.768H63.6222V158.688H69.4302V159.888H62.1102ZM62.5662 154.176C62.5542 154.752 63.0342 155.064 63.7422 155.064C64.4622 155.064 64.9422 154.752 64.9422 154.176C64.9422 153.564 64.4622 153.24 63.7422 153.24C63.0342 153.24 62.5542 153.564 62.5662 154.176ZM82.9989 157.632V158.832H73.2309V157.632H77.3589V155.64H74.2629V150.096H75.7749V151.752H80.4309V150.096H81.9189V155.64H78.8229V157.632H82.9989ZM75.7749 154.464H80.4309V152.928H75.7749V154.464ZM92.362 149.4V155.856H90.874V153.768H89.482V152.544H90.874V149.4H92.362ZM83.386 151.536V150.336H85.81V149.328H87.274V150.336H89.674V151.536H83.386ZM83.986 153.792C83.974 152.688 85.054 151.884 86.53 151.896C88.042 151.884 89.098 152.688 89.098 153.792C89.098 154.956 88.042 155.724 86.53 155.736C85.054 155.724 83.974 154.956 83.986 153.792ZM85.186 159.96V156.312H92.362V159.96H85.186ZM85.402 153.792C85.402 154.332 85.846 154.62 86.53 154.632C87.214 154.62 87.67 154.332 87.658 153.792C87.67 153.288 87.214 153.012 86.53 153C85.846 153.012 85.402 153.288 85.402 153.792ZM86.674 158.76H90.898V157.488H86.674V158.76ZM102.421 149.4V160.104H100.909V149.4H102.421ZM93.8051 153.96C93.8051 151.632 95.0051 150.168 96.6371 150.168C98.2451 150.168 99.4331 151.632 99.4451 153.96C99.4331 156.3 98.2451 157.776 96.6371 157.776C95.0051 157.776 93.8051 156.3 93.8051 153.96ZM95.2451 153.96C95.2451 155.556 95.8091 156.408 96.6371 156.408C97.4411 156.408 97.9931 155.556 98.0051 153.96C97.9931 152.376 97.4411 151.512 96.6371 151.512C95.8091 151.512 95.2451 152.376 95.2451 153.96ZM110.038 156.264C110.038 157.116 110.398 158.004 111.262 158.58C112.138 157.968 112.534 157.056 112.534 156.264V155.88H113.998V156.264C113.998 157.368 114.586 158.4 116.014 158.832L115.27 159.912C114.262 159.576 113.59 158.928 113.23 158.112C112.87 158.928 112.258 159.636 111.31 160.008C110.302 159.648 109.678 158.964 109.33 158.136C108.946 158.94 108.286 159.576 107.302 159.912L106.582 158.832C107.974 158.352 108.574 157.296 108.574 156.264V155.88H110.038V156.264ZM106.318 152.52C106.318 151.02 107.566 149.964 109.246 149.952C110.902 149.964 112.15 151.02 112.15 152.52C112.15 154.02 110.902 155.076 109.246 155.064C107.566 155.076 106.318 154.02 106.318 152.52ZM107.782 152.52C107.77 153.336 108.382 153.84 109.246 153.84C110.074 153.84 110.674 153.336 110.662 152.52C110.674 151.704 110.074 151.212 109.246 151.224C108.382 151.212 107.77 151.704 107.782 152.52ZM113.59 155.448V149.424H115.078V155.448H113.59ZM124.945 152.328V153.504H117.505V149.784H118.993V152.328H124.945ZM116.281 155.808V154.632H126.025V155.808H116.281ZM117.409 159.84V156.672H118.897V158.64H125.017V159.84H117.409ZM130.54 152.328C130.552 154.044 131.44 155.892 133.228 156.624L132.412 157.8C131.164 157.272 130.288 156.204 129.808 154.92C129.328 156.324 128.44 157.488 127.18 158.064L126.34 156.888C128.104 156.108 129.016 154.128 129.028 152.328V151.656H126.748V150.432H132.772V151.656H130.54V152.328ZM133.828 160.08V149.4H135.34V160.08H133.828ZM147.589 149.424V152.472H148.957V153.696H147.589V156.672H146.101V149.424H147.589ZM138.949 155.304C139.729 155.304 140.617 155.304 141.541 155.28V154.68C140.389 154.512 139.669 153.936 139.669 153.12C139.669 152.136 140.701 151.536 142.285 151.536C143.857 151.536 144.889 152.136 144.901 153.12C144.889 153.936 144.169 154.512 143.029 154.68V155.22C143.905 155.184 144.781 155.112 145.597 155.016L145.717 156.024C143.461 156.432 140.989 156.456 139.117 156.456L138.949 155.304ZM139.237 151.296V150.192H141.541V149.328H143.029V150.192H145.333V151.296H139.237ZM140.317 158.256V157.104H147.589V160.08H146.101V158.256H140.317ZM141.109 153.12C141.097 153.516 141.529 153.744 142.285 153.744C143.029 153.744 143.461 153.516 143.461 153.12C143.461 152.712 143.029 152.532 142.285 152.52C141.529 152.532 141.097 152.712 141.109 153.12ZM158.128 149.424V157.08H156.64V149.424H158.128ZM149.368 152.784C149.368 151.224 150.652 150.096 152.296 150.096C153.928 150.096 155.2 151.224 155.2 152.784C155.2 154.38 153.928 155.496 152.296 155.496C150.652 155.496 149.368 154.38 149.368 152.784ZM150.832 152.784C150.82 153.684 151.456 154.188 152.296 154.2C153.1 154.188 153.724 153.684 153.712 152.784C153.724 151.92 153.1 151.404 152.296 151.392C151.456 151.404 150.82 151.92 150.832 152.784ZM150.976 159.888V156.312H152.488V158.688H158.416V159.888H150.976ZM164.491 151.032V152.232H159.307V151.032H161.179V149.712H162.643V151.032H164.491ZM159.571 155.232C159.571 153.756 160.567 152.712 161.923 152.712C163.291 152.712 164.263 153.756 164.275 155.232C164.263 156.732 163.291 157.776 161.923 157.776C160.567 157.776 159.571 156.732 159.571 155.232ZM160.891 155.232C160.879 156.048 161.311 156.516 161.923 156.504C162.523 156.516 162.943 156.048 162.955 155.232C162.943 154.44 162.523 153.948 161.923 153.96C161.311 153.948 160.879 154.44 160.891 155.232ZM164.875 159.624V149.616H166.267V153.744H167.131V149.4H168.571V160.08H167.131V154.944H166.267V159.624H164.875ZM172.174 149.568V150.312H176.47V149.568H177.958V153.144H175.054V153.84H179.206V155.016H169.462V153.84H173.566V153.144H170.71V149.568H172.174ZM170.59 160.008V157.248H176.542V156.672H170.59V155.568H178.006V158.28H172.054V158.88H178.294V160.008H170.59ZM172.174 152.04H176.47V151.392H172.174V152.04ZM188.137 149.4V153.6H189.553V154.824H188.137V160.08H186.649V149.4H188.137ZM179.377 156.984C180.841 155.4 181.261 153.84 181.345 151.728H179.857V150.504H182.785C182.773 153.432 182.473 155.724 180.553 157.824L179.377 156.984ZM182.401 157.68C183.841 155.892 184.237 154.068 184.321 151.728H183.145V150.504H185.737C185.737 153.552 185.473 156.192 183.577 158.496L182.401 157.68ZM199.492 157.608V158.832H189.724V157.608H191.908V154.992C191.08 154.488 190.588 153.732 190.588 152.784C190.588 151.08 192.28 149.928 194.596 149.928C196.9 149.928 198.604 151.08 198.604 152.784C198.604 153.72 198.112 154.476 197.308 154.968V157.608H199.492ZM192.052 152.784C192.064 153.84 193.06 154.488 194.596 154.488C196.096 154.488 197.128 153.84 197.14 152.784C197.128 151.728 196.096 151.104 194.596 151.104C193.06 151.104 192.064 151.728 192.052 152.784ZM193.396 157.608H195.796V155.532C195.424 155.604 195.016 155.64 194.596 155.64C194.176 155.64 193.768 155.604 193.396 155.532V157.608ZM201.727 156.336C201.727 154.872 202.123 154.428 202.831 153.984C203.335 153.66 203.719 153.3 203.719 152.76C203.719 152.16 203.263 151.788 202.687 151.776C202.147 151.788 201.643 152.148 201.607 152.832H199.951C199.987 151.188 201.211 150.396 202.711 150.408C204.343 150.396 205.495 151.248 205.495 152.688C205.495 153.66 205.003 154.272 204.223 154.728C203.575 155.124 203.275 155.508 203.263 156.336V156.456H201.727V156.336ZM201.559 158.112C201.535 157.584 201.991 157.14 202.543 157.152C203.059 157.14 203.515 157.584 203.527 158.112C203.515 158.664 203.059 159.108 202.543 159.096C201.991 159.108 201.535 158.664 201.559 158.112Z" fill="white"/>
<rect width="9.51088" height="1.46261" rx="0.731305" transform="matrix(-0.721387 0.692532 -0.714364 -0.699775 327.511 37.0205)" fill="#2D2F34" stroke="#2D2F34" stroke-width="0.5"/>
<rect width="9.51088" height="1.46261" rx="0.731305" transform="matrix(-0.721387 -0.692532 0.714364 -0.699775 326.461 38.0073)" fill="#2D2F34" stroke="#2D2F34" stroke-width="0.5"/>
<path d="M131 75L131 111" stroke="#E9E9E9"/>
<path d="M238 75L238 111" stroke="#E9E9E9"/>
<path d="M170.908 84.148C170.404 84.196 169.888 84.24 169.36 84.28C168.832 84.312 168.272 84.34 167.68 84.364C167.096 84.388 166.468 84.408 165.796 84.424C165.132 84.432 164.408 84.436 163.624 84.436V83.404C164.192 83.412 164.72 83.416 165.208 83.416C165.704 83.408 166.176 83.4 166.624 83.392V81.676H164.356V76.504H169.84V77.5H165.508V78.568H169.72V79.564H165.508V80.68H170.02V81.676H167.836V83.356C168.372 83.332 168.88 83.304 169.36 83.272C169.84 83.24 170.32 83.2 170.8 83.152L170.908 84.148ZM171.508 86.68V75.616H172.684V86.68H171.508ZM177.702 79.6C177.662 79.704 177.566 79.848 177.414 80.032C177.262 80.208 177.09 80.376 176.898 80.536C176.642 80.76 176.35 81 176.022 81.256C175.702 81.504 175.374 81.744 175.038 81.976L174.342 81.124C174.726 80.852 175.09 80.584 175.434 80.32C175.778 80.056 176.058 79.82 176.274 79.612C176.418 79.468 176.542 79.328 176.646 79.192C176.75 79.056 176.83 78.916 176.886 78.772C176.95 78.62 176.994 78.46 177.018 78.292C177.05 78.116 177.066 77.92 177.066 77.704V77.284H174.714V76.264H180.486V77.284H178.266V77.656C178.266 77.848 178.274 78.02 178.29 78.172C178.306 78.324 178.334 78.464 178.374 78.592C178.422 78.72 178.486 78.844 178.566 78.964C178.646 79.076 178.754 79.192 178.89 79.312C179.17 79.568 179.47 79.816 179.79 80.056C180.11 80.296 180.45 80.532 180.81 80.764L180.138 81.628C179.826 81.412 179.53 81.2 179.25 80.992C178.97 80.776 178.686 80.548 178.398 80.308C178.214 80.156 178.062 80.024 177.942 79.912C177.83 79.792 177.754 79.688 177.714 79.6H177.702ZM175.95 82.624H183.234V86.788H182.046V83.644H175.95V82.624ZM182.058 82.048V75.616H183.234V82.048H182.058ZM187.736 76.012C188.192 76.012 188.592 76.088 188.936 76.24C189.28 76.392 189.568 76.592 189.8 76.84C190.04 77.08 190.216 77.352 190.328 77.656C190.448 77.96 190.508 78.26 190.508 78.556V79.168C190.508 79.464 190.448 79.764 190.328 80.068C190.216 80.372 190.04 80.648 189.8 80.896C189.568 81.136 189.28 81.332 188.936 81.484C188.592 81.636 188.192 81.712 187.736 81.712C187.28 81.712 186.88 81.636 186.536 81.484C186.192 81.332 185.9 81.136 185.66 80.896C185.428 80.648 185.252 80.372 185.132 80.068C185.02 79.764 184.964 79.464 184.964 79.168V78.556C184.964 78.26 185.02 77.96 185.132 77.656C185.252 77.352 185.428 77.08 185.66 76.84C185.9 76.592 186.192 76.392 186.536 76.24C186.88 76.088 187.28 76.012 187.736 76.012ZM192.824 83.512V80.776H191.084V79.756H192.824V78.112H191.084V77.092H192.824V75.616H193.988V83.512H192.824ZM188.264 85.528H194.252V86.56H187.076V82.888H188.264V85.528ZM187.736 80.668C188 80.668 188.232 80.62 188.432 80.524C188.64 80.428 188.812 80.308 188.948 80.164C189.092 80.012 189.2 79.84 189.272 79.648C189.344 79.456 189.38 79.264 189.38 79.072V78.652C189.38 78.46 189.344 78.268 189.272 78.076C189.2 77.884 189.092 77.716 188.948 77.572C188.812 77.42 188.64 77.296 188.432 77.2C188.232 77.104 188 77.056 187.736 77.056C187.472 77.056 187.236 77.104 187.028 77.2C186.828 77.296 186.656 77.42 186.512 77.572C186.376 77.716 186.272 77.884 186.2 78.076C186.128 78.268 186.092 78.46 186.092 78.652V79.072C186.092 79.264 186.128 79.456 186.2 79.648C186.272 79.84 186.376 80.012 186.512 80.164C186.656 80.308 186.828 80.428 187.028 80.524C187.236 80.62 187.472 80.668 187.736 80.668ZM204.13 86.668H196.882V82.468H204.13V86.668ZM196.75 76.084H204.058V77.788C204.058 78.124 204.038 78.504 203.998 78.928C203.958 79.344 203.898 79.76 203.818 80.176H205.582V81.184H195.43V80.176H202.594C202.69 79.736 202.758 79.312 202.798 78.904C202.838 78.488 202.858 78.1 202.858 77.74V77.092H196.75V76.084ZM202.954 83.464H198.058V85.672H202.954V83.464Z" fill="#434343"/>
<path d="M54.108 82.108H51.048V84.196H55.536V85.204H45.384V84.196H49.86V82.108H46.812V76.432H47.988V78.316H52.932V76.42H54.108V82.108ZM47.988 81.1H52.932V79.324H47.988V81.1ZM65.3059 82.864V86.668H58.4059V82.864H65.3059ZM59.3779 82.144C58.8979 82.144 58.4939 82.088 58.1659 81.976C57.8379 81.864 57.5699 81.72 57.3619 81.544C57.1619 81.368 57.0179 81.172 56.9299 80.956C56.8419 80.74 56.7979 80.532 56.7979 80.332V79.996C56.7979 79.796 56.8419 79.588 56.9299 79.372C57.0179 79.156 57.1619 78.96 57.3619 78.784C57.5699 78.608 57.8379 78.464 58.1659 78.352C58.4939 78.24 58.8979 78.184 59.3779 78.184C59.8579 78.184 60.2619 78.24 60.5899 78.352C60.9179 78.464 61.1819 78.608 61.3819 78.784C61.5899 78.96 61.7379 79.156 61.8259 79.372C61.9139 79.588 61.9579 79.796 61.9579 79.996V80.332C61.9579 80.532 61.9139 80.74 61.8259 80.956C61.7379 81.172 61.5899 81.368 61.3819 81.544C61.1819 81.72 60.9179 81.864 60.5899 81.976C60.2619 82.088 59.8579 82.144 59.3779 82.144ZM64.1299 82.324V80.02H62.5099V79H64.1299V75.616H65.3059V82.324H64.1299ZM59.5819 85.66H64.1299V83.872H59.5819V85.66ZM62.5939 77.776H56.1979V76.78H58.7779V75.472H59.9539V76.78H62.5939V77.776ZM59.3779 81.196C59.6499 81.196 59.8779 81.168 60.0619 81.112C60.2539 81.048 60.4059 80.968 60.5179 80.872C60.6299 80.776 60.7099 80.676 60.7579 80.572C60.8059 80.46 60.8299 80.356 60.8299 80.26V80.068C60.8299 79.972 60.8059 79.872 60.7579 79.768C60.7099 79.656 60.6299 79.552 60.5179 79.456C60.4059 79.36 60.2579 79.284 60.0739 79.228C59.8899 79.164 59.6579 79.132 59.3779 79.132C59.0979 79.132 58.8659 79.164 58.6819 79.228C58.4979 79.284 58.3499 79.36 58.2379 79.456C58.1259 79.552 58.0459 79.656 57.9979 79.768C57.9499 79.872 57.9259 79.972 57.9259 80.068V80.26C57.9259 80.356 57.9499 80.46 57.9979 80.572C58.0459 80.676 58.1259 80.776 58.2379 80.872C58.3499 80.968 58.4979 81.048 58.6819 81.112C58.8659 81.168 59.0979 81.196 59.3779 81.196ZM72.4958 84.412C72.8798 84.412 73.2318 84.348 73.5518 84.22C73.8718 84.084 74.1518 83.9 74.3918 83.668L72.3638 81.244C72.0838 81.396 71.8398 81.54 71.6318 81.676C71.4238 81.804 71.2518 81.936 71.1158 82.072C70.9878 82.208 70.8918 82.352 70.8278 82.504C70.7638 82.648 70.7318 82.808 70.7318 82.984V83.176C70.7318 83.344 70.7758 83.504 70.8638 83.656C70.9518 83.8 71.0758 83.932 71.2358 84.052C71.3958 84.164 71.5798 84.252 71.7878 84.316C72.0038 84.38 72.2398 84.412 72.4958 84.412ZM71.7278 78.472C71.7278 78.584 71.7558 78.7 71.8118 78.82C71.8678 78.94 71.9358 79.064 72.0158 79.192C72.1038 79.32 72.1998 79.452 72.3038 79.588C72.4158 79.716 72.5238 79.84 72.6278 79.96C72.8918 79.808 73.1038 79.668 73.2638 79.54C73.4238 79.404 73.5478 79.276 73.6358 79.156C73.7238 79.028 73.7838 78.908 73.8158 78.796C73.8478 78.684 73.8638 78.576 73.8638 78.472V78.34C73.8638 78.116 73.7598 77.928 73.5518 77.776C73.3438 77.616 73.0918 77.536 72.7958 77.536C72.4598 77.536 72.1958 77.62 72.0038 77.788C71.8198 77.948 71.7278 78.132 71.7278 78.34V78.472ZM76.5158 80.668C76.5158 81.884 76.2638 82.88 75.7598 83.656L77.1518 85.3H75.7838L75.0758 84.46C74.7158 84.796 74.3118 85.044 73.8638 85.204C73.4158 85.364 72.9678 85.444 72.5198 85.444H72.4478C72.0878 85.444 71.7358 85.4 71.3918 85.312C71.0558 85.224 70.7558 85.088 70.4918 84.904C70.2278 84.72 70.0158 84.488 69.8558 84.208C69.6958 83.928 69.6158 83.596 69.6158 83.212V82.936C69.6158 82.664 69.6558 82.412 69.7358 82.18C69.8238 81.948 69.9518 81.732 70.1198 81.532C70.2958 81.332 70.5118 81.144 70.7678 80.968C71.0238 80.792 71.3278 80.616 71.6798 80.44C71.5598 80.296 71.4358 80.152 71.3078 80.008C71.1878 79.856 71.0798 79.704 70.9838 79.552C70.8878 79.392 70.8078 79.228 70.7438 79.06C70.6798 78.884 70.6478 78.7 70.6478 78.508V78.292C70.6478 78.06 70.6918 77.84 70.7798 77.632C70.8758 77.416 71.0118 77.228 71.1878 77.068C71.3718 76.9 71.5958 76.768 71.8598 76.672C72.1318 76.576 72.4438 76.528 72.7958 76.528C73.1318 76.528 73.4318 76.58 73.6958 76.684C73.9598 76.788 74.1838 76.924 74.3678 77.092C74.5598 77.26 74.7038 77.448 74.7998 77.656C74.9038 77.864 74.9558 78.076 74.9558 78.292V78.52C74.9558 78.712 74.9278 78.9 74.8718 79.084C74.8238 79.268 74.7358 79.452 74.6078 79.636C74.4798 79.812 74.3078 79.992 74.0918 80.176C73.8758 80.36 73.6038 80.548 73.2758 80.74L75.0278 82.792C75.1638 82.536 75.2638 82.244 75.3278 81.916C75.3918 81.588 75.4238 81.172 75.4238 80.668H76.5158ZM78.0488 81.748V76.132H79.2128V78.088H82.0568V76.132H83.2208V81.748H78.0488ZM85.4648 83.512V80.776H83.7368V79.756H85.4648V78.4H83.7368V77.38H85.4648V75.616H86.6288V83.512H85.4648ZM80.9048 85.528H86.8568V86.56H79.7168V82.972H80.9048V85.528ZM79.2128 80.74H82.0568V79.084H79.2128V80.74ZM90.6267 76.048C91.0107 76.048 91.3547 76.112 91.6587 76.24C91.9707 76.368 92.2307 76.544 92.4387 76.768C92.6547 76.992 92.8187 77.252 92.9307 77.548C93.0427 77.836 93.0987 78.14 93.0987 78.46V78.94C93.0987 79.268 93.0427 79.576 92.9307 79.864C92.8187 80.152 92.6547 80.408 92.4387 80.632C92.2307 80.856 91.9707 81.032 91.6587 81.16C91.3547 81.288 91.0107 81.352 90.6267 81.352C90.2347 81.352 89.8867 81.288 89.5827 81.16C89.2787 81.032 89.0187 80.856 88.8027 80.632C88.5947 80.408 88.4347 80.152 88.3227 79.864C88.2107 79.576 88.1547 79.268 88.1547 78.94V78.46C88.1547 78.132 88.2107 77.824 88.3227 77.536C88.4347 77.24 88.5947 76.984 88.8027 76.768C89.0187 76.544 89.2787 76.368 89.5827 76.24C89.8867 76.112 90.2347 76.048 90.6267 76.048ZM96.3387 75.616H97.4787V82.072H96.3387V79.228H95.2227V82.048H94.0947V75.76H95.2227V78.208H96.3387V75.616ZM90.2187 82.648H97.4787V86.788H96.2907V83.668H90.2187V82.648ZM90.6267 80.344C91.0667 80.344 91.3987 80.2 91.6227 79.912C91.8547 79.624 91.9707 79.276 91.9707 78.868V78.532C91.9707 78.124 91.8547 77.78 91.6227 77.5C91.3987 77.212 91.0667 77.068 90.6267 77.068C90.1867 77.068 89.8507 77.208 89.6187 77.488C89.3947 77.76 89.2827 78.108 89.2827 78.532V78.868C89.2827 79.276 89.3947 79.624 89.6187 79.912C89.8507 80.2 90.1867 80.344 90.6267 80.344Z" fill="#434343"/>
<path d="M63.688 103.826C64.06 103.442 64.354 103.106 64.57 102.818C64.786 102.53 64.948 102.272 65.056 102.044C65.164 101.816 65.23 101.606 65.254 101.414C65.278 101.222 65.29 101.036 65.29 100.856V100.712C65.29 100.364 65.146 100.052 64.858 99.776C64.582 99.488 64.108 99.344 63.436 99.344C63.196 99.344 62.956 99.368 62.716 99.416C62.488 99.464 62.26 99.554 62.032 99.686C61.804 99.818 61.576 100.004 61.348 100.244C61.132 100.484 60.916 100.79 60.7 101.162L58.972 100.028C59.128 99.752 59.32 99.452 59.548 99.128C59.788 98.804 60.082 98.51 60.43 98.246C60.79 97.97 61.21 97.742 61.69 97.562C62.182 97.382 62.758 97.292 63.418 97.292C64.15 97.292 64.78 97.382 65.308 97.562C65.836 97.742 66.268 97.988 66.604 98.3C66.952 98.6 67.204 98.954 67.36 99.362C67.528 99.758 67.612 100.178 67.612 100.622V100.802C67.612 101.51 67.45 102.188 67.126 102.836C66.814 103.472 66.352 104.096 65.74 104.708L61.924 108.56H68.098V110.468H58.918V108.74L63.688 103.826ZM69.5581 104.69C70.8181 104.138 71.8321 103.67 72.6001 103.286C73.3801 102.89 73.9741 102.518 74.3821 102.17C74.8021 101.822 75.0781 101.468 75.2101 101.108C75.3541 100.748 75.4261 100.322 75.4261 99.83V98.822H70.2781V96.878H77.6941V100.298H80.9521V95.852H83.2201V107.768H80.9521V102.224H77.2621C77.0821 102.584 76.8241 102.932 76.4881 103.268C76.1521 103.592 75.7141 103.922 75.1741 104.258C74.6341 104.594 73.9801 104.948 73.2121 105.32C72.4441 105.692 71.5381 106.1 70.4941 106.544L69.5581 104.69ZM74.8501 110.468H83.4901V112.412H72.5641V106.886H74.8501V110.468Z" fill="black"/>
<path d="M271.672 80.788H272.8V77.296H271.744V76.324H277.84V77.296H276.796V80.704C277.052 80.688 277.296 80.672 277.528 80.656C277.76 80.64 278 80.62 278.248 80.596L278.332 81.544C277.956 81.576 277.576 81.604 277.192 81.628C276.816 81.652 276.376 81.676 275.872 81.7C275.376 81.716 274.792 81.728 274.12 81.736C273.448 81.744 272.632 81.752 271.672 81.76V80.788ZM279.448 83.56V79.432H277.816V78.412H279.448V75.616H280.624V83.56H279.448ZM274.9 85.528H280.852V86.56H273.712V82.96H274.9V85.528ZM275.656 80.752V77.296H273.94V80.788L275.656 80.752ZM292.218 84.196V85.204H282.066V84.196H292.218ZM290.922 81.856H283.434V76.564H290.79V77.584H284.622V80.836H290.922V81.856ZM295.736 84.412C296.12 84.412 296.472 84.348 296.792 84.22C297.112 84.084 297.392 83.9 297.632 83.668L295.604 81.244C295.324 81.396 295.08 81.54 294.872 81.676C294.664 81.804 294.492 81.936 294.356 82.072C294.228 82.208 294.132 82.352 294.068 82.504C294.004 82.648 293.972 82.808 293.972 82.984V83.176C293.972 83.344 294.016 83.504 294.104 83.656C294.192 83.8 294.316 83.932 294.476 84.052C294.636 84.164 294.82 84.252 295.028 84.316C295.244 84.38 295.48 84.412 295.736 84.412ZM294.968 78.472C294.968 78.584 294.996 78.7 295.052 78.82C295.108 78.94 295.176 79.064 295.256 79.192C295.344 79.32 295.44 79.452 295.544 79.588C295.656 79.716 295.764 79.84 295.868 79.96C296.132 79.808 296.344 79.668 296.504 79.54C296.664 79.404 296.788 79.276 296.876 79.156C296.964 79.028 297.024 78.908 297.056 78.796C297.088 78.684 297.104 78.576 297.104 78.472V78.34C297.104 78.116 297 77.928 296.792 77.776C296.584 77.616 296.332 77.536 296.036 77.536C295.7 77.536 295.436 77.62 295.244 77.788C295.06 77.948 294.968 78.132 294.968 78.34V78.472ZM299.756 80.668C299.756 81.884 299.504 82.88 299 83.656L300.392 85.3H299.024L298.316 84.46C297.956 84.796 297.552 85.044 297.104 85.204C296.656 85.364 296.208 85.444 295.76 85.444H295.688C295.328 85.444 294.976 85.4 294.632 85.312C294.296 85.224 293.996 85.088 293.732 84.904C293.468 84.72 293.256 84.488 293.096 84.208C292.936 83.928 292.856 83.596 292.856 83.212V82.936C292.856 82.664 292.896 82.412 292.976 82.18C293.064 81.948 293.192 81.732 293.36 81.532C293.536 81.332 293.752 81.144 294.008 80.968C294.264 80.792 294.568 80.616 294.92 80.44C294.8 80.296 294.676 80.152 294.548 80.008C294.428 79.856 294.32 79.704 294.224 79.552C294.128 79.392 294.048 79.228 293.984 79.06C293.92 78.884 293.888 78.7 293.888 78.508V78.292C293.888 78.06 293.932 77.84 294.02 77.632C294.116 77.416 294.252 77.228 294.428 77.068C294.612 76.9 294.836 76.768 295.1 76.672C295.372 76.576 295.684 76.528 296.036 76.528C296.372 76.528 296.672 76.58 296.936 76.684C297.2 76.788 297.424 76.924 297.608 77.092C297.8 77.26 297.944 77.448 298.04 77.656C298.144 77.864 298.196 78.076 298.196 78.292V78.52C298.196 78.712 298.168 78.9 298.112 79.084C298.064 79.268 297.976 79.452 297.848 79.636C297.72 79.812 297.548 79.992 297.332 80.176C297.116 80.36 296.844 80.548 296.516 80.74L298.268 82.792C298.404 82.536 298.504 82.244 298.568 81.916C298.632 81.588 298.664 81.172 298.664 80.668H299.756ZM304.037 85.528H310.025V86.56H302.849V82.84H304.037V85.528ZM308.585 83.488V75.616H309.761V83.488H308.585ZM304.085 79.72C304.053 79.824 303.957 79.968 303.797 80.152C303.637 80.336 303.465 80.512 303.281 80.68C303.033 80.912 302.741 81.168 302.405 81.448C302.069 81.728 301.741 81.996 301.421 82.252L300.713 81.412C300.905 81.268 301.093 81.12 301.277 80.968C301.469 80.816 301.649 80.668 301.817 80.524C301.993 80.38 302.153 80.244 302.297 80.116C302.441 79.98 302.565 79.86 302.669 79.756C302.821 79.604 302.945 79.46 303.041 79.324C303.145 79.18 303.225 79.036 303.281 78.892C303.345 78.74 303.389 78.58 303.413 78.412C303.437 78.244 303.449 78.056 303.449 77.848V76.132H304.649V77.8C304.649 77.984 304.653 78.152 304.661 78.304C304.677 78.448 304.705 78.584 304.745 78.712C304.785 78.84 304.845 78.968 304.925 79.096C305.013 79.216 305.129 79.34 305.273 79.468C305.553 79.724 305.861 79.992 306.197 80.272C306.541 80.544 306.893 80.808 307.253 81.064L306.557 81.892C306.253 81.66 305.953 81.424 305.657 81.184C305.361 80.936 305.069 80.692 304.781 80.452C304.597 80.3 304.445 80.164 304.325 80.044C304.213 79.916 304.137 79.808 304.097 79.72H304.085ZM316.879 79.36H312.991V80.644C313.607 80.644 314.147 80.64 314.611 80.632C315.083 80.624 315.511 80.612 315.895 80.596C316.279 80.58 316.631 80.556 316.951 80.524C317.271 80.492 317.591 80.456 317.911 80.416L318.019 81.376C317.635 81.424 317.247 81.464 316.855 81.496C316.463 81.528 316.027 81.556 315.547 81.58C315.075 81.604 314.535 81.62 313.927 81.628C313.327 81.636 312.627 81.64 311.827 81.64V76.132H317.095V77.128H312.991V78.364H316.879V79.36ZM313.051 82.768H320.047V86.788H318.859V83.788H313.051V82.768ZM321.619 79.336H320.047V82.192H318.871V75.616H320.047V78.304H321.619V79.336Z" fill="#434343"/>
<path d="M44.272 36.544H46.32V38.304H44.272V46.304H42.24V31.424H44.272V36.544ZM35.392 40.608H36.256C37.024 40.608 37.8453 40.5813 38.72 40.528C39.5947 40.4747 40.4107 40.3947 41.168 40.288L41.392 42.032C41.0187 42.096 40.608 42.1493 40.16 42.192C39.712 42.2347 39.2427 42.272 38.752 42.304C38.2613 42.3253 37.7653 42.3413 37.264 42.352C36.7627 42.3627 36.2667 42.368 35.776 42.368H33.344V32.624H35.392V40.608ZM59.2825 46.304H57.2825V31.424H59.2825V46.304ZM51.6025 39.696C51.0052 39.696 50.4558 39.6053 49.9545 39.424C49.4638 39.2427 49.0425 38.9973 48.6905 38.688C48.3385 38.3787 48.0612 38.0213 47.8585 37.616C47.6665 37.2107 47.5705 36.784 47.5705 36.336V35.696C47.5705 35.248 47.6665 34.8213 47.8585 34.416C48.0612 34.0107 48.3385 33.6533 48.6905 33.344C49.0425 33.0347 49.4638 32.7893 49.9545 32.608C50.4558 32.4267 51.0052 32.336 51.6025 32.336C52.1998 32.336 52.7438 32.4267 53.2345 32.608C53.7358 32.7893 54.1625 33.0347 54.5145 33.344C54.8665 33.6533 55.1385 34.0107 55.3305 34.416C55.5332 34.8213 55.6345 35.248 55.6345 35.696V36.336C55.6345 36.784 55.5332 37.2107 55.3305 37.616C55.1385 38.0213 54.8665 38.3787 54.5145 38.688C54.1625 38.9973 53.7358 39.2427 53.2345 39.424C52.7438 39.6053 52.1998 39.696 51.6025 39.696ZM51.6025 34.064C51.2825 34.064 50.9892 34.1173 50.7225 34.224C50.4665 34.32 50.2425 34.448 50.0505 34.608C49.8692 34.768 49.7305 34.9547 49.6345 35.168C49.5385 35.3707 49.4905 35.584 49.4905 35.808V36.224C49.4905 36.448 49.5385 36.6667 49.6345 36.88C49.7305 37.0827 49.8692 37.264 50.0505 37.424C50.2425 37.584 50.4665 37.7173 50.7225 37.824C50.9892 37.92 51.2825 37.968 51.6025 37.968C51.9225 37.968 52.2105 37.92 52.4665 37.824C52.7332 37.7173 52.9572 37.584 53.1385 37.424C53.3305 37.264 53.4745 37.0827 53.5705 36.88C53.6665 36.6667 53.7145 36.448 53.7145 36.224V35.808C53.7145 35.584 53.6665 35.3707 53.5705 35.168C53.4745 34.9547 53.3305 34.768 53.1385 34.608C52.9572 34.448 52.7332 34.32 52.4665 34.224C52.2105 34.1173 51.9225 34.064 51.6025 34.064ZM47.0105 41.536C48.2372 41.536 49.3305 41.5307 50.2905 41.52C51.2612 41.5093 52.1252 41.4933 52.8825 41.472C53.6505 41.4507 54.3278 41.424 54.9145 41.392C55.5012 41.36 56.0345 41.3173 56.5145 41.264L56.6585 42.992C56.1998 43.0453 55.6665 43.0933 55.0585 43.136C54.4612 43.168 53.7678 43.1947 52.9785 43.216C52.1998 43.2373 51.3145 43.2533 50.3225 43.264C49.3412 43.2747 48.2372 43.28 47.0105 43.28V41.536ZM70.709 34.928H72.629V31.728H74.533V45.584H72.629V40.656H70.661V38.96H72.629V36.608H70.709C70.6877 37.2693 70.6077 37.856 70.469 38.368C70.341 38.8693 70.0957 39.36 69.733 39.84C69.3703 40.32 68.8637 40.8267 68.213 41.36C67.573 41.8827 66.741 42.496 65.717 43.2L64.565 41.664C65.493 41.0453 66.2343 40.5173 66.789 40.08C67.3437 39.632 67.765 39.2053 68.053 38.8C68.341 38.3947 68.5277 37.9733 68.613 37.536C68.709 37.0987 68.757 36.5813 68.757 35.984V34.608H64.965V32.864H70.709V34.928ZM77.589 46.304H75.669V31.424H77.589V46.304ZM81.0635 40.768H90.5515V46.48H88.5355V42.48H81.0635V40.768ZM90.5515 33.264H92.4715V34.992H90.5515V36.336H92.4715V38.064H90.5515V40.096H88.5515V31.424H90.5515V33.264ZM82.8715 39.376C82.2742 39.376 81.7408 39.28 81.2715 39.088C80.8022 38.896 80.4075 38.6453 80.0875 38.336C79.7675 38.0267 79.5222 37.6693 79.3515 37.264C79.1808 36.8587 79.0955 36.4373 79.0955 36V35.296C79.0955 34.8693 79.1808 34.4533 79.3515 34.048C79.5222 33.632 79.7675 33.2693 80.0875 32.96C80.4075 32.6507 80.8022 32.4 81.2715 32.208C81.7408 32.016 82.2742 31.92 82.8715 31.92C83.4688 31.92 84.0022 32.016 84.4715 32.208C84.9408 32.4 85.3355 32.6507 85.6555 32.96C85.9755 33.2693 86.2208 33.632 86.3915 34.048C86.5622 34.4533 86.6475 34.8693 86.6475 35.296V36C86.6475 36.4373 86.5622 36.8587 86.3915 37.264C86.2208 37.6693 85.9755 38.0267 85.6555 38.336C85.3355 38.6453 84.9408 38.896 84.4715 39.088C84.0022 39.28 83.4688 39.376 82.8715 39.376ZM82.8715 33.648C82.5728 33.648 82.3062 33.7013 82.0715 33.808C81.8475 33.904 81.6555 34.032 81.4955 34.192C81.3355 34.352 81.2128 34.5333 81.1275 34.736C81.0528 34.9387 81.0155 35.1413 81.0155 35.344V35.952C81.0155 36.1547 81.0528 36.3573 81.1275 36.56C81.2128 36.7627 81.3355 36.944 81.4955 37.104C81.6555 37.264 81.8475 37.3973 82.0715 37.504C82.3062 37.6 82.5728 37.648 82.8715 37.648C83.1702 37.648 83.4315 37.6 83.6555 37.504C83.8902 37.3973 84.0875 37.264 84.2475 37.104C84.4075 36.944 84.5248 36.7627 84.5995 36.56C84.6848 36.3573 84.7275 36.1547 84.7275 35.952V35.344C84.7275 35.1413 84.6848 34.9387 84.5995 34.736C84.5248 34.5333 84.4075 34.352 84.2475 34.192C84.0875 34.032 83.8902 33.904 83.6555 33.808C83.4315 33.7013 83.1702 33.648 82.8715 33.648Z" fill="black"/>
<defs>
<filter id="filter0_d_33_952" x="0" y="0" width="367" height="206" filterUnits="userSpaceOnUse" color-interpolation-filters="sRGB">
<feFlood flood-opacity="0" result="BackgroundImageFix"/>
<feColorMatrix in="SourceAlpha" type="matrix" values="0 0 0 0 0 0 0 0 0 0 0 0 0 0 0 0 0 0 127 0" result="hardAlpha"/>
<feOffset dy="3"/>
<feGaussianBlur stdDeviation="6"/>
<feComposite in2="hardAlpha" operator="out"/>
<feColorMatrix type="matrix" values="0 0 0 0 0 0 0 0 0 0 0 0 0 0 0 0 0 0 0.13 0"/>
<feBlend mode="normal" in2="BackgroundImageFix" result="effect1_dropShadow_33_952"/>
<feBlend mode="normal" in="SourceGraphic" in2="effect1_dropShadow_33_952" result="shape"/>
</filter>
</defs>
</svg>
