<svg width="352" height="188" viewBox="0 0 352 188" fill="none" xmlns="http://www.w3.org/2000/svg">
<g filter="url(#filter0_d_2_576)">
<rect x="12" y="9" width="328" height="164" rx="20" fill="white"/>
</g>
<rect x="24" y="121" width="304" height="40" rx="12" fill="#F58220"/>
<rect width="6.65346" height="1.02361" rx="0.511805" transform="matrix(-0.707107 0.707107 -0.699934 -0.714208 310.75 141.015)" fill="white" stroke="white" stroke-width="0.5"/>
<rect width="6.65346" height="1.02361" rx="0.511805" transform="matrix(-0.707107 -0.707107 0.699934 -0.714208 310.031 141.719)" fill="white" stroke="white" stroke-width="0.5"/>
<rect width="9.31485" height="1.43305" rx="0.716527" transform="matrix(-0.707107 0.707107 -0.699934 -0.714208 318.25 48.0205)" fill="#2D2F34" stroke="#2D2F34" stroke-width="0.5"/>
<rect width="9.31485" height="1.43305" rx="0.716527" transform="matrix(-0.707107 -0.707107 0.699934 -0.714208 317.242 49.0071)" fill="#2D2F34" stroke="#2D2F34" stroke-width="0.5"/>
<path d="M44.6875 34.2188V48.4375H42.7656V41.3281H41.4375V47.75H39.5625V34.4531H41.4375V39.7188H42.7656V34.2188H44.6875ZM35 35.7969V43.2188C36.1406 43.1953 37.3906 43.0938 38.7656 42.8281L38.9688 44.5469C37.0625 44.875 35.4375 44.9688 33.9688 44.9688H33V35.7969H35ZM62.3131 45.1562V46.7812H49.2975V45.1562H54.7819V42.5312H50.6725V35.125H52.6725V37.3281H58.8756V35.125H60.86V42.5312H56.7663V45.1562H62.3131ZM52.6725 40.9375H58.8756V38.9219H52.6725V40.9375ZM74.79 34.2188V42.8125H72.8056V40.0156H70.9619V38.3906H72.8056V34.2188H74.79ZM74.79 43.4219V48.2812H65.2275V43.4219H74.79ZM67.2275 44.9844V46.6875H72.8369V44.9844H67.2275ZM71.2119 35.4531V37.0469H62.8369V35.4531H66.0556V34.0938H68.0244V35.4531H71.2119ZM67.04 37.5156C69.04 37.5156 70.4463 38.5781 70.4463 40.0625C70.4463 41.6094 69.04 42.6406 67.04 42.6406C65.0556 42.6406 63.6181 41.6094 63.6181 40.0625C63.6181 38.5781 65.0556 37.5156 67.04 37.5156ZM67.04 39.0156C66.1181 39.0156 65.5244 39.3906 65.54 40.0625C65.5244 40.7812 66.1181 41.1719 67.04 41.1719C67.9463 41.1719 68.54 40.7812 68.54 40.0625C68.54 39.3906 67.9463 39.0156 67.04 39.0156Z" fill="black"/>
<path d="M33.1133 72L33.0938 69.8711L38.1719 65.2031C39.5 63.9336 40.2031 63.1523 40.2031 62.0391C40.2031 60.7891 39.2461 60.0078 37.957 60.0078C36.6289 60.0078 35.7695 60.8477 35.7695 62.1953H32.9766C32.957 59.4219 35.0078 57.6641 37.9961 57.6641C41.0234 57.6641 43.0352 59.3828 43.0352 61.8438C43.0352 63.4453 42.2539 64.7734 39.3438 67.4102L37.1953 69.5V69.5781H43.2305V72H33.1133ZM59.3148 56.043V69.0312H56.8344V63.2305H53.6508V61.1797H56.8344V56.043H59.3148ZM53.807 57.3516C53.807 62.1172 50.7797 65.6328 45.5844 67.2539L44.5688 65.2812C48.2504 64.1289 50.6234 62.0098 51.0922 59.3828H45.4867V57.3516H53.807ZM59.7641 71.4922V73.4844H47.5961V67.7227H50.1352V71.4922H59.7641Z" fill="#FF8A21"/>
<path d="M42.248 88.8V91.6H43.928V93H42.248V95.884H40.484V88.8H42.248ZM32.448 92.496C32.448 90.732 33.918 89.486 35.864 89.5C37.796 89.486 39.252 90.732 39.252 92.496C39.252 94.26 37.796 95.52 35.864 95.52C33.918 95.52 32.448 94.26 32.448 92.496ZM34.1 101.12V96.416H42.248V101.12H34.1ZM34.156 92.496C34.156 93.476 34.884 94.05 35.864 94.036C36.83 94.05 37.558 93.476 37.572 92.496C37.558 91.558 36.83 90.956 35.864 90.956C34.884 90.956 34.156 91.558 34.156 92.496ZM35.836 99.72H40.512V97.788H35.836V99.72ZM55.5796 98.404V99.804H44.1836V98.404H48.9996V96.08H45.3876V89.612H47.1516V91.544H52.5836V89.612H54.3196V96.08H50.7076V98.404H55.5796ZM47.1516 94.708H52.5836V92.916H47.1516V94.708ZM66.5032 88.8V96.332H64.7672V93.896H63.1432V92.468H64.7672V88.8H66.5032ZM56.0312 91.292V89.892H58.8592V88.716H60.5672V89.892H63.3672V91.292H56.0312ZM56.7312 93.924C56.7172 92.636 57.9772 91.698 59.6992 91.712C61.4632 91.698 62.6952 92.636 62.6952 93.924C62.6952 95.282 61.4632 96.178 59.6992 96.192C57.9772 96.178 56.7172 95.282 56.7312 93.924ZM58.1312 101.12V96.864H66.5032V101.12H58.1312ZM58.3832 93.924C58.3832 94.554 58.9012 94.89 59.6992 94.904C60.4972 94.89 61.0292 94.554 61.0152 93.924C61.0292 93.336 60.4972 93.014 59.6992 93C58.9012 93.014 58.3832 93.336 58.3832 93.924ZM59.8672 99.72H64.7952V98.236H59.8672V99.72ZM74.8014 89.556C76.7754 89.556 78.2454 90.816 78.2454 92.608C78.2454 94.12 77.1954 95.254 75.6694 95.576V97.242C76.7194 97.186 77.7834 97.088 78.7774 96.948L78.9174 98.208C76.1594 98.726 73.2054 98.754 71.0214 98.768L70.8254 97.34C71.7494 97.34 72.8134 97.34 73.9334 97.312V95.562C72.4214 95.254 71.3434 94.12 71.3574 92.608C71.3434 90.816 72.8414 89.556 74.8014 89.556ZM73.0934 92.608C73.0794 93.574 73.8214 94.162 74.8014 94.176C75.7954 94.162 76.5514 93.574 76.5654 92.608C76.5514 91.614 75.7954 91.054 74.8014 91.04C73.8214 91.054 73.0794 91.614 73.0934 92.608ZM79.5054 101.288V88.8H81.2414V101.288H79.5054ZM85.9556 100V98.516L89.4836 95.24C90.4216 94.358 90.9116 93.812 90.9116 93.028C90.9116 92.146 90.2536 91.6 89.3436 91.6C88.4196 91.6 87.8036 92.188 87.8036 93.14H85.8436C85.8436 91.208 87.2856 89.962 89.3716 89.976C91.4856 89.962 92.8996 91.166 92.8996 92.888C92.8996 94.022 92.3536 94.946 90.2956 96.78L88.8116 98.236V98.32H93.0396V100H85.9556ZM104.3 88.828V97.928H102.564V93.868H100.324V92.44H102.564V88.828H104.3ZM93.9685 95.296C96.5445 94.498 98.1965 93 98.5325 91.18H94.6125V89.752H100.436C100.436 93.084 98.3225 95.548 94.6685 96.696L93.9685 95.296ZM96.0965 101.036V97.004H97.8605V99.636H104.608V101.036H96.0965ZM111.304 88.996C114.16 88.996 115.812 89.738 115.812 91.124C115.812 92.496 114.16 93.252 111.304 93.252C108.42 93.252 106.754 92.496 106.768 91.124C106.754 89.738 108.42 88.996 111.304 88.996ZM105.62 95.212V93.84H116.988V95.212H105.62ZM106.936 101.176V97.9H113.88V97.228H106.936V95.94H115.588V99.104H108.644V99.86H115.924V101.176H106.936ZM108.588 91.124C108.588 91.726 109.47 91.964 111.304 91.964C113.138 91.964 114.02 91.726 114.02 91.124C114.02 90.564 113.138 90.27 111.304 90.256C109.47 90.27 108.588 90.564 108.588 91.124ZM131.782 98.404V99.804H120.386V98.404H125.202V96.08H121.59V89.612H123.354V91.544H128.786V89.612H130.522V96.08H126.91V98.404H131.782ZM123.354 94.708H128.786V92.916H123.354V94.708ZM143.574 95.744V97.144H140.914V101.26H139.15V97.144H136.602V101.26H134.81V97.144H132.206V95.744H143.574ZM133.354 92.048C133.34 90.326 135.188 89.234 137.862 89.22C140.522 89.234 142.398 90.326 142.398 92.048C142.398 93.714 140.522 94.778 137.862 94.792C135.188 94.778 133.34 93.714 133.354 92.048ZM135.146 92.048C135.132 92.916 136.182 93.406 137.862 93.42C139.542 93.406 140.592 92.916 140.606 92.048C140.592 91.124 139.542 90.62 137.862 90.62C136.182 90.62 135.132 91.124 135.146 92.048ZM153.853 88.8V93.7H155.673V95.128H153.853V101.26H152.117V88.8H153.853ZM143.969 92.076V90.676H146.769V88.996H148.533V90.676H151.277V92.076H143.969ZM144.473 95.744C144.459 93.994 145.817 92.762 147.665 92.776C149.471 92.762 150.829 93.994 150.829 95.744C150.829 97.466 149.471 98.698 147.665 98.684C145.817 98.698 144.459 97.466 144.473 95.744ZM146.153 95.744C146.139 96.696 146.769 97.27 147.665 97.256C148.519 97.27 149.149 96.696 149.149 95.744C149.149 94.778 148.519 94.19 147.665 94.176C146.769 94.19 146.139 94.778 146.153 95.744ZM166.093 89.892V91.068C166.093 92.622 166.093 94.372 165.617 97.032L163.853 96.836C164.315 94.498 164.343 92.762 164.357 91.292H157.021V89.892H166.093ZM155.845 99.748V98.32H159.905V94.036H161.641V98.32H167.213V99.748H155.845ZM172.201 96.808C172.201 97.802 172.621 98.838 173.629 99.51C174.651 98.796 175.113 97.732 175.113 96.808V96.36H176.821V96.808C176.821 98.096 177.507 99.3 179.173 99.804L178.305 101.064C177.129 100.672 176.345 99.916 175.925 98.964C175.505 99.916 174.791 100.742 173.685 101.176C172.509 100.756 171.781 99.958 171.375 98.992C170.927 99.93 170.157 100.672 169.009 101.064L168.169 99.804C169.793 99.244 170.493 98.012 170.493 96.808V96.36H172.201V96.808ZM167.861 92.44C167.861 90.69 169.317 89.458 171.277 89.444C173.209 89.458 174.665 90.69 174.665 92.44C174.665 94.19 173.209 95.422 171.277 95.408C169.317 95.422 167.861 94.19 167.861 92.44ZM169.569 92.44C169.555 93.392 170.269 93.98 171.277 93.98C172.243 93.98 172.943 93.392 172.929 92.44C172.943 91.488 172.243 90.914 171.277 90.928C170.269 90.914 169.555 91.488 169.569 92.44ZM176.345 95.856V88.828H178.081V95.856H176.345ZM182.928 89.696C184.594 89.696 185.854 91.068 186.106 93.308H188.276V88.8H189.984V101.288H188.276V94.708H186.12C185.938 97.088 184.65 98.572 182.928 98.572C181.024 98.572 179.68 96.85 179.68 94.12C179.68 91.404 181.024 89.696 182.928 89.696ZM181.36 94.12C181.346 95.982 181.99 96.976 182.928 96.976C183.866 96.976 184.482 95.982 184.496 94.12C184.482 92.272 183.866 91.264 182.928 91.264C181.99 91.264 181.346 92.272 181.36 94.12ZM202.7 98.376V99.804H191.304V98.376H193.852V95.324C192.886 94.736 192.312 93.854 192.312 92.748C192.312 90.76 194.286 89.416 196.988 89.416C199.676 89.416 201.664 90.76 201.664 92.748C201.664 93.84 201.09 94.722 200.152 95.296V98.376H202.7ZM194.02 92.748C194.034 93.98 195.196 94.736 196.988 94.736C198.738 94.736 199.942 93.98 199.956 92.748C199.942 91.516 198.738 90.788 196.988 90.788C195.196 90.788 194.034 91.516 194.02 92.748ZM195.588 98.376H198.388V95.954C197.954 96.038 197.478 96.08 196.988 96.08C196.498 96.08 196.022 96.038 195.588 95.954V98.376ZM204.748 100.112C204.104 100.126 203.572 99.608 203.6 98.964C203.572 98.348 204.104 97.83 204.748 97.844C205.35 97.83 205.882 98.348 205.896 98.964C205.882 99.608 205.35 100.126 204.748 100.112Z" fill="#2D2F34"/>
<path d="M50.056 141.568V142.744H45.904V146.08H44.416V142.744H40.312V141.568H50.056ZM41.44 140.536V135.832H42.928V137.056H47.416V135.832H48.904V140.536H41.44ZM42.928 139.336H47.416V138.232H42.928V139.336ZM59.2991 135.808V136.984H56.3711C56.5991 137.764 57.7031 138.52 59.7551 138.712L59.2271 139.888C57.2231 139.684 55.8671 138.916 55.3031 137.872C54.7391 138.916 53.4071 139.684 51.4031 139.888L50.8751 138.712C52.9031 138.52 54.0071 137.752 54.2351 136.984H51.3311V135.808H59.2991ZM50.4431 141.808V140.608H54.5471V139.216H56.0351V140.608H60.1871V141.808H50.4431ZM51.5231 143.752V142.576H58.9871V146.08H57.4991V143.752H51.5231ZM69.0462 135.424V138.688H70.4862V139.912H69.0462V143.392H67.5342V135.424H69.0462ZM60.5742 137.728V136.552H62.9982V135.4H64.4862V136.552H66.9102V137.728H60.5742ZM61.1022 140.176C61.1022 138.928 62.1822 138.1 63.7422 138.088C65.2902 138.1 66.3702 138.928 66.3822 140.176C66.3702 141.388 65.2902 142.204 63.7422 142.192C62.1822 142.204 61.1022 141.388 61.1022 140.176ZM62.1102 145.888V142.768H63.6222V144.688H69.4302V145.888H62.1102ZM62.5662 140.176C62.5542 140.752 63.0342 141.064 63.7422 141.064C64.4622 141.064 64.9422 140.752 64.9422 140.176C64.9422 139.564 64.4622 139.24 63.7422 139.24C63.0342 139.24 62.5542 139.564 62.5662 140.176ZM82.9989 143.632V144.832H73.2309V143.632H77.3589V141.64H74.2629V136.096H75.7749V137.752H80.4309V136.096H81.9189V141.64H78.8229V143.632H82.9989ZM75.7749 140.464H80.4309V138.928H75.7749V140.464ZM92.362 135.4V141.856H90.874V139.768H89.482V138.544H90.874V135.4H92.362ZM83.386 137.536V136.336H85.81V135.328H87.274V136.336H89.674V137.536H83.386ZM83.986 139.792C83.974 138.688 85.054 137.884 86.53 137.896C88.042 137.884 89.098 138.688 89.098 139.792C89.098 140.956 88.042 141.724 86.53 141.736C85.054 141.724 83.974 140.956 83.986 139.792ZM85.186 145.96V142.312H92.362V145.96H85.186ZM85.402 139.792C85.402 140.332 85.846 140.62 86.53 140.632C87.214 140.62 87.67 140.332 87.658 139.792C87.67 139.288 87.214 139.012 86.53 139C85.846 139.012 85.402 139.288 85.402 139.792ZM86.674 144.76H90.898V143.488H86.674V144.76ZM102.421 135.4V146.104H100.909V135.4H102.421ZM93.8051 139.96C93.8051 137.632 95.0051 136.168 96.6371 136.168C98.2451 136.168 99.4331 137.632 99.4451 139.96C99.4331 142.3 98.2451 143.776 96.6371 143.776C95.0051 143.776 93.8051 142.3 93.8051 139.96ZM95.2451 139.96C95.2451 141.556 95.8091 142.408 96.6371 142.408C97.4411 142.408 97.9931 141.556 98.0051 139.96C97.9931 138.376 97.4411 137.512 96.6371 137.512C95.8091 137.512 95.2451 138.376 95.2451 139.96ZM110.038 142.264C110.038 143.116 110.398 144.004 111.262 144.58C112.138 143.968 112.534 143.056 112.534 142.264V141.88H113.998V142.264C113.998 143.368 114.586 144.4 116.014 144.832L115.27 145.912C114.262 145.576 113.59 144.928 113.23 144.112C112.87 144.928 112.258 145.636 111.31 146.008C110.302 145.648 109.678 144.964 109.33 144.136C108.946 144.94 108.286 145.576 107.302 145.912L106.582 144.832C107.974 144.352 108.574 143.296 108.574 142.264V141.88H110.038V142.264ZM106.318 138.52C106.318 137.02 107.566 135.964 109.246 135.952C110.902 135.964 112.15 137.02 112.15 138.52C112.15 140.02 110.902 141.076 109.246 141.064C107.566 141.076 106.318 140.02 106.318 138.52ZM107.782 138.52C107.77 139.336 108.382 139.84 109.246 139.84C110.074 139.84 110.674 139.336 110.662 138.52C110.674 137.704 110.074 137.212 109.246 137.224C108.382 137.212 107.77 137.704 107.782 138.52ZM113.59 141.448V135.424H115.078V141.448H113.59ZM124.945 138.328V139.504H117.505V135.784H118.993V138.328H124.945ZM116.281 141.808V140.632H126.025V141.808H116.281ZM117.409 145.84V142.672H118.897V144.64H125.017V145.84H117.409ZM130.54 138.328C130.552 140.044 131.44 141.892 133.228 142.624L132.412 143.8C131.164 143.272 130.288 142.204 129.808 140.92C129.328 142.324 128.44 143.488 127.18 144.064L126.34 142.888C128.104 142.108 129.016 140.128 129.028 138.328V137.656H126.748V136.432H132.772V137.656H130.54V138.328ZM133.828 146.08V135.4H135.34V146.08H133.828ZM147.589 135.424V138.472H148.957V139.696H147.589V142.672H146.101V135.424H147.589ZM138.949 141.304C139.729 141.304 140.617 141.304 141.541 141.28V140.68C140.389 140.512 139.669 139.936 139.669 139.12C139.669 138.136 140.701 137.536 142.285 137.536C143.857 137.536 144.889 138.136 144.901 139.12C144.889 139.936 144.169 140.512 143.029 140.68V141.22C143.905 141.184 144.781 141.112 145.597 141.016L145.717 142.024C143.461 142.432 140.989 142.456 139.117 142.456L138.949 141.304ZM139.237 137.296V136.192H141.541V135.328H143.029V136.192H145.333V137.296H139.237ZM140.317 144.256V143.104H147.589V146.08H146.101V144.256H140.317ZM141.109 139.12C141.097 139.516 141.529 139.744 142.285 139.744C143.029 139.744 143.461 139.516 143.461 139.12C143.461 138.712 143.029 138.532 142.285 138.52C141.529 138.532 141.097 138.712 141.109 139.12ZM158.128 135.424V143.08H156.64V135.424H158.128ZM149.368 138.784C149.368 137.224 150.652 136.096 152.296 136.096C153.928 136.096 155.2 137.224 155.2 138.784C155.2 140.38 153.928 141.496 152.296 141.496C150.652 141.496 149.368 140.38 149.368 138.784ZM150.832 138.784C150.82 139.684 151.456 140.188 152.296 140.2C153.1 140.188 153.724 139.684 153.712 138.784C153.724 137.92 153.1 137.404 152.296 137.392C151.456 137.404 150.82 137.92 150.832 138.784ZM150.976 145.888V142.312H152.488V144.688H158.416V145.888H150.976ZM164.491 137.032V138.232H159.307V137.032H161.179V135.712H162.643V137.032H164.491ZM159.571 141.232C159.571 139.756 160.567 138.712 161.923 138.712C163.291 138.712 164.263 139.756 164.275 141.232C164.263 142.732 163.291 143.776 161.923 143.776C160.567 143.776 159.571 142.732 159.571 141.232ZM160.891 141.232C160.879 142.048 161.311 142.516 161.923 142.504C162.523 142.516 162.943 142.048 162.955 141.232C162.943 140.44 162.523 139.948 161.923 139.96C161.311 139.948 160.879 140.44 160.891 141.232ZM164.875 145.624V135.616H166.267V139.744H167.131V135.4H168.571V146.08H167.131V140.944H166.267V145.624H164.875ZM172.174 135.568V136.312H176.47V135.568H177.958V139.144H175.054V139.84H179.206V141.016H169.462V139.84H173.566V139.144H170.71V135.568H172.174ZM170.59 146.008V143.248H176.542V142.672H170.59V141.568H178.006V144.28H172.054V144.88H178.294V146.008H170.59ZM172.174 138.04H176.47V137.392H172.174V138.04ZM188.137 135.4V139.6H189.553V140.824H188.137V146.08H186.649V135.4H188.137ZM179.377 142.984C180.841 141.4 181.261 139.84 181.345 137.728H179.857V136.504H182.785C182.773 139.432 182.473 141.724 180.553 143.824L179.377 142.984ZM182.401 143.68C183.841 141.892 184.237 140.068 184.321 137.728H183.145V136.504H185.737C185.737 139.552 185.473 142.192 183.577 144.496L182.401 143.68ZM199.492 143.608V144.832H189.724V143.608H191.908V140.992C191.08 140.488 190.588 139.732 190.588 138.784C190.588 137.08 192.28 135.928 194.596 135.928C196.9 135.928 198.604 137.08 198.604 138.784C198.604 139.72 198.112 140.476 197.308 140.968V143.608H199.492ZM192.052 138.784C192.064 139.84 193.06 140.488 194.596 140.488C196.096 140.488 197.128 139.84 197.14 138.784C197.128 137.728 196.096 137.104 194.596 137.104C193.06 137.104 192.064 137.728 192.052 138.784ZM193.396 143.608H195.796V141.532C195.424 141.604 195.016 141.64 194.596 141.64C194.176 141.64 193.768 141.604 193.396 141.532V143.608ZM201.727 142.336C201.727 140.872 202.123 140.428 202.831 139.984C203.335 139.66 203.719 139.3 203.719 138.76C203.719 138.16 203.263 137.788 202.687 137.776C202.147 137.788 201.643 138.148 201.607 138.832H199.951C199.987 137.188 201.211 136.396 202.711 136.408C204.343 136.396 205.495 137.248 205.495 138.688C205.495 139.66 205.003 140.272 204.223 140.728C203.575 141.124 203.275 141.508 203.263 142.336V142.456H201.727V142.336ZM201.559 144.112C201.535 143.584 201.991 143.14 202.543 143.152C203.059 143.14 203.515 143.584 203.527 144.112C203.515 144.664 203.059 145.108 202.543 145.096C201.991 145.108 201.535 144.664 201.559 144.112Z" fill="white"/>
<defs>
<filter id="filter0_d_2_576" x="0" y="0" width="352" height="188" filterUnits="userSpaceOnUse" color-interpolation-filters="sRGB">
<feFlood flood-opacity="0" result="BackgroundImageFix"/>
<feColorMatrix in="SourceAlpha" type="matrix" values="0 0 0 0 0 0 0 0 0 0 0 0 0 0 0 0 0 0 127 0" result="hardAlpha"/>
<feOffset dy="3"/>
<feGaussianBlur stdDeviation="6"/>
<feComposite in2="hardAlpha" operator="out"/>
<feColorMatrix type="matrix" values="0 0 0 0 0 0 0 0 0 0 0 0 0 0 0 0 0 0 0.1 0"/>
<feBlend mode="normal" in2="BackgroundImageFix" result="effect1_dropShadow_2_576"/>
<feBlend mode="normal" in="SourceGraphic" in2="effect1_dropShadow_2_576" result="shape"/>
</filter>
</defs>
</svg>
