<svg width="140" height="39" viewBox="0 0 140 39" fill="none" xmlns="http://www.w3.org/2000/svg">
<rect x="140" y="28" width="140" height="28" rx="14" transform="rotate(-180 140 28)" fill="#6A5ACD"/>
<path d="M22.8291 17.6669V18.6571H12.4189V17.6669H17.0146V14.9755H18.2207V17.6669H22.8291ZM18.2334 10.7733C18.2334 12.5126 20.2012 14.0614 22.3721 14.4042L21.8896 15.3563C20.0552 15.0072 18.3604 13.9408 17.624 12.4491C16.8813 13.9598 15.1992 15.058 13.3965 15.4071L12.9014 14.455C15.0215 14.0995 16.9766 12.5126 16.9766 10.7733V10.6718H13.2822V9.68152H21.9277V10.6718H18.2334V10.7733ZM32.6141 9.27527V10.1385C32.6141 11.0336 32.6141 12.0492 32.3221 13.4266H33.9345V14.4169H23.5243V13.4266H31.1034C31.4081 12.1 31.4208 11.1288 31.4208 10.2655H24.8319V9.27527H32.6141ZM32.6268 15.8641V19.9393H24.7938V15.8641H32.6268ZM25.9745 16.8163V18.9618H31.4335V16.8163H25.9745ZM40.3933 9.70691V15.0135H35.074V9.70691H40.3933ZM36.2546 10.6844V14.0614H39.2127V10.6844H36.2546ZM43.5671 8.69128V12.0936H45.2175V13.1093H43.5671V17.0321H42.3611V8.69128H43.5671ZM44.0496 18.8602V19.8378H36.3562V16.2323H37.5623V18.8602H44.0496ZM54.5552 9.75769V10.7606H50.5562V16.3085C52.4605 16.3021 53.7744 16.2323 55.2661 15.9403L55.4058 16.9305C53.7681 17.2352 52.3843 17.3114 50.2388 17.3114H49.3374V9.75769H54.5552ZM58.2749 8.70398V20.1044H57.0689V13.7694H53.9077V12.7665H57.0689V8.70398H58.2749ZM72.3606 8.70398V15.5975H71.1546V8.70398H72.3606ZM72.3606 16.1561V19.9393H64.8831V16.1561H72.3606ZM66.0764 17.1083V18.9618H71.18V17.1083H66.0764ZM70.0374 9.85925V10.8368H63.0804V9.85925H65.9495V8.61511H67.1682V9.85925H70.0374ZM66.5589 11.3192C68.26 11.3192 69.3772 12.119 69.3772 13.3505C69.3772 14.5946 68.26 15.3817 66.5589 15.3944C64.8704 15.3817 63.7405 14.5946 63.7532 13.3505C63.7405 12.119 64.8704 11.3192 66.5589 11.3192ZM66.5589 12.2206C65.5432 12.2206 64.8958 12.6522 64.9085 13.3505C64.8958 14.0614 65.5432 14.4803 66.5589 14.4803C67.5745 14.4803 68.222 14.0614 68.2346 13.3505C68.222 12.6522 67.5745 12.2206 66.5589 12.2206ZM83.7707 8.70398V20.079H82.6154V14.2518H81.1554V19.495H80.0255V8.9325H81.1554V13.2616H82.6154V8.70398H83.7707ZM75.7726 10.0497V16.118C76.8263 16.1117 77.9753 16.0292 79.2638 15.7753L79.3908 16.829C77.8293 17.1083 76.5216 17.1844 75.3029 17.1844H74.5666V10.0497H75.7726ZM88.6045 11.8143C88.6045 13.6298 89.3662 15.5721 90.8897 16.4989L90.2168 17.4257C89.1504 16.7845 88.4268 15.6483 88.0459 14.328C87.6206 15.7753 86.8399 17.0067 85.7354 17.6796L84.9864 16.7782C86.5987 15.8134 87.4366 13.8075 87.4366 11.8651V9.745H88.6045V11.8143ZM94.9268 8.70398V20.079H93.7715V8.70398H94.9268ZM92.5655 8.9198V19.5204H91.4229V13.7059H89.6582V12.703H91.4229V8.9198H92.5655ZM106.654 17.6542V18.6571H96.2441V17.6542H98.7323V14.6835C97.7992 14.1693 97.2343 13.3505 97.2343 12.3348C97.2343 10.5448 98.9863 9.36414 101.424 9.36414C103.874 9.36414 105.626 10.5448 105.626 12.3348C105.626 13.3378 105.08 14.1439 104.166 14.6581V17.6542H106.654ZM101.424 10.329C99.6337 10.329 98.4023 11.1034 98.4023 12.3348C98.4023 13.5536 99.6337 14.3534 101.424 14.3534C103.201 14.3534 104.458 13.5536 104.458 12.3348C104.458 11.1034 103.201 10.329 101.424 10.329ZM99.9257 17.6542H102.947V15.1151C102.484 15.2357 101.97 15.2928 101.424 15.2928C100.891 15.2928 100.383 15.2357 99.9257 15.1278V17.6542ZM109.444 9.80847L109.33 16.3466H108.073L107.959 9.80847H109.444ZM108.708 19.0887C108.213 19.0887 107.794 18.6825 107.806 18.1874C107.794 17.6923 108.213 17.286 108.708 17.286C109.19 17.286 109.609 17.6923 109.609 18.1874C109.609 18.6825 109.19 19.0887 108.708 19.0887Z" fill="white"/>
<path fill-rule="evenodd" clip-rule="evenodd" d="M121.494 19.9999C111.777 15.0081 114.899 9.04624 118.478 8.99988C119.554 8.99988 120.679 9.53351 121.494 10.8399C122.317 9.53351 123.442 8.99988 124.517 8.99988H124.566C128.096 9.04624 131.218 15.0081 121.493 19.9999H121.494Z" fill="white"/>
<path d="M29.6883 36.3397C28.9027 37.5768 27.0973 37.5768 26.3117 36.3397L20.4248 27.0703C19.5792 25.7388 20.5358 23.9981 22.1131 23.9981L33.8869 23.9981C35.4642 23.9981 36.4208 25.7388 35.5752 27.0703L29.6883 36.3397Z" fill="#6A5ACD"/>
</svg>
