<svg width="306" height="196" viewBox="0 0 306 196" fill="none" xmlns="http://www.w3.org/2000/svg">
<rect x="1" y="13" width="304" height="182" rx="19" fill="white" stroke="#F58220" stroke-width="2"/>
<path d="M27.248 81.2C26.24 81.2 25.376 81.04 24.656 80.72C23.936 80.4 23.336 79.952 22.856 79.376C22.392 78.8 22.048 78.12 21.824 77.336C21.616 76.552 21.512 75.688 21.512 74.744V72.08C21.512 71.152 21.616 70.296 21.824 69.512C22.048 68.712 22.392 68.024 22.856 67.448C23.336 66.872 23.936 66.424 24.656 66.104C25.376 65.784 26.24 65.624 27.248 65.624C28.672 65.624 29.808 65.936 30.656 66.56C31.52 67.184 32.136 68.024 32.504 69.08H36.512V64.136H39.536V86.456H36.512V77.72H32.528C32.16 78.792 31.544 79.64 30.68 80.264C29.832 80.888 28.688 81.2 27.248 81.2ZM27.248 68.288C26.24 68.288 25.512 68.64 25.064 69.344C24.632 70.048 24.416 71.08 24.416 72.44V74.384C24.416 75.744 24.632 76.776 25.064 77.48C25.512 78.184 26.24 78.536 27.248 78.536C28.256 78.536 28.976 78.184 29.408 77.48C29.856 76.776 30.08 75.744 30.08 74.384V72.44C30.08 71.08 29.856 70.048 29.408 69.344C28.976 68.64 28.256 68.288 27.248 68.288ZM32.984 71.672V75.128H36.512V71.672H32.984ZM53.6758 87.128C52.6838 87.128 51.7638 87.032 50.9158 86.84C50.0678 86.648 49.3318 86.36 48.7078 85.976C48.0838 85.608 47.5878 85.16 47.2198 84.632C46.8678 84.104 46.6918 83.504 46.6918 82.832V81.776C46.6918 81.104 46.8678 80.504 47.2198 79.976C47.5878 79.448 48.0838 79 48.7078 78.632C49.3318 78.248 50.0678 77.96 50.9158 77.768C51.7638 77.576 52.6838 77.48 53.6758 77.48C54.6678 77.48 55.5878 77.576 56.4358 77.768C57.2838 77.96 58.0198 78.248 58.6438 78.632C59.2678 79 59.7558 79.448 60.1078 79.976C60.4758 80.504 60.6598 81.104 60.6598 81.776V82.832C60.6598 83.504 60.4758 84.104 60.1078 84.632C59.7558 85.16 59.2678 85.608 58.6438 85.976C58.0198 86.36 57.2838 86.648 56.4358 86.84C55.5878 87.032 54.6678 87.128 53.6758 87.128ZM48.8518 72.608C48.7718 72.8 48.6278 73.016 48.4198 73.256C48.2118 73.496 47.8598 73.832 47.3638 74.264C46.8038 74.744 46.2198 75.232 45.6118 75.728C45.0198 76.208 44.3878 76.704 43.7158 77.216L41.9158 74.984C42.6198 74.472 43.2598 73.984 43.8358 73.52C44.4118 73.056 44.9878 72.56 45.5638 72.032C46.0598 71.584 46.4518 71.064 46.7398 70.472C47.0438 69.88 47.1958 69.192 47.1958 68.408V65.048H50.2678V68.312C50.2678 68.712 50.2838 69.072 50.3158 69.392C50.3638 69.696 50.4438 69.984 50.5558 70.256C50.6838 70.528 50.8518 70.792 51.0598 71.048C51.2678 71.288 51.5318 71.536 51.8518 71.792C52.3158 72.176 52.8518 72.592 53.4598 73.04C54.0838 73.488 54.6998 73.92 55.3078 74.336L53.6278 76.448C53.0678 76.064 52.5318 75.688 52.0198 75.32C51.5078 74.936 51.0278 74.568 50.5798 74.216C50.1638 73.896 49.7878 73.6 49.4518 73.328C49.1318 73.04 48.9398 72.8 48.8758 72.608H48.8518ZM57.5638 71.216H53.6278V68.648H57.5638V64.136H60.5878V77.36H57.5638V71.216ZM53.6758 79.952C53.1478 79.952 52.6438 80.008 52.1638 80.12C51.6838 80.232 51.2598 80.384 50.8918 80.576C50.5238 80.752 50.2278 80.968 50.0038 81.224C49.7798 81.464 49.6678 81.72 49.6678 81.992V82.616C49.6678 82.888 49.7798 83.144 50.0038 83.384C50.2278 83.64 50.5238 83.856 50.8918 84.032C51.2598 84.224 51.6838 84.376 52.1638 84.488C52.6438 84.6 53.1478 84.656 53.6758 84.656C54.2038 84.656 54.7078 84.6 55.1878 84.488C55.6678 84.376 56.0918 84.224 56.4598 84.032C56.8278 83.856 57.1238 83.64 57.3478 83.384C57.5718 83.144 57.6838 82.888 57.6838 82.616V81.992C57.6838 81.72 57.5718 81.464 57.3478 81.224C57.1238 80.968 56.8278 80.752 56.4598 80.576C56.0918 80.384 55.6678 80.232 55.1878 80.12C54.7078 80.008 54.2038 79.952 53.6758 79.952ZM82.2155 86.456H79.1675V64.136H82.2155V86.456ZM75.7355 66.08V80.648H64.9115V66.08H75.7355ZM72.7115 68.648H67.9355V78.08H72.7115V68.648ZM103.579 86.456H100.531V64.136H103.579V86.456ZM89.5872 77.96H91.1712C92.3232 77.96 93.5552 77.92 94.8672 77.84C96.1792 77.76 97.4032 77.64 98.5392 77.48L98.8752 80.096C98.3152 80.192 97.6992 80.272 97.0272 80.336C96.3552 80.4 95.6512 80.456 94.9152 80.504C94.1792 80.536 93.4352 80.56 92.6832 80.576C91.9312 80.592 91.1872 80.6 90.4512 80.6H86.5152V65.912H89.5872V77.96ZM110.015 77.624H123.863V86.456H110.015V77.624ZM113.015 83.936H120.863V80.144H113.015V83.936ZM123.863 68.936H126.791V71.576H123.863V76.616H120.839V64.136H123.863V68.936ZM112.343 75.728C111.447 75.728 110.647 75.592 109.943 75.32C109.255 75.032 108.663 74.664 108.167 74.216C107.687 73.752 107.319 73.224 107.063 72.632C106.807 72.024 106.679 71.392 106.679 70.736V69.872C106.679 69.232 106.807 68.608 107.063 68C107.319 67.392 107.687 66.864 108.167 66.416C108.663 65.952 109.255 65.584 109.943 65.312C110.647 65.024 111.447 64.88 112.343 64.88C113.223 64.88 114.015 65.024 114.719 65.312C115.423 65.584 116.015 65.952 116.495 66.416C116.991 66.864 117.367 67.392 117.623 68C117.879 68.608 118.007 69.232 118.007 69.872V70.736C118.007 71.392 117.879 72.024 117.623 72.632C117.367 73.224 116.991 73.752 116.495 74.216C116.015 74.664 115.423 75.032 114.719 75.32C114.015 75.592 113.223 75.728 112.343 75.728ZM112.343 67.448C111.895 67.448 111.495 67.52 111.143 67.664C110.807 67.808 110.519 68 110.279 68.24C110.039 68.48 109.855 68.752 109.727 69.056C109.615 69.344 109.559 69.64 109.559 69.944V70.664C109.559 70.968 109.615 71.272 109.727 71.576C109.855 71.864 110.039 72.128 110.279 72.368C110.519 72.608 110.807 72.8 111.143 72.944C111.495 73.088 111.895 73.16 112.343 73.16C112.791 73.16 113.183 73.088 113.519 72.944C113.871 72.8 114.167 72.608 114.407 72.368C114.647 72.128 114.823 71.864 114.935 71.576C115.063 71.272 115.127 70.968 115.127 70.664V69.944C115.127 69.64 115.063 69.344 114.935 69.056C114.823 68.752 114.647 68.48 114.407 68.24C114.167 68 113.871 67.808 113.519 67.664C113.183 67.52 112.791 67.448 112.343 67.448ZM139.251 77.432V81.08H147.963V83.648H127.515V81.08H136.227V77.432H130.275V65.672H133.299V69.248H142.179V65.672H145.203V77.432H139.251ZM142.179 74.888V71.816H133.299V74.888H142.179ZM153.222 78.608H167.406V86.48H153.222V78.608ZM155.454 77.432C154.606 77.432 153.854 77.344 153.198 77.168C152.542 76.976 151.99 76.72 151.542 76.4C151.094 76.08 150.75 75.696 150.51 75.248C150.27 74.8 150.15 74.32 150.15 73.808V73.088C150.15 72.576 150.27 72.104 150.51 71.672C150.75 71.224 151.094 70.84 151.542 70.52C151.99 70.184 152.542 69.928 153.198 69.752C153.854 69.56 154.606 69.464 155.454 69.464C156.286 69.464 157.03 69.56 157.686 69.752C158.358 69.928 158.918 70.184 159.366 70.52C159.814 70.84 160.158 71.224 160.398 71.672C160.638 72.104 160.758 72.576 160.758 73.088V73.808C160.758 74.32 160.638 74.8 160.398 75.248C160.158 75.696 159.814 76.08 159.366 76.4C158.918 76.72 158.358 76.976 157.686 77.168C157.03 77.344 156.286 77.432 155.454 77.432ZM164.382 73.616H161.694V71.024H164.382V64.136H167.406V77.6H164.382V73.616ZM156.942 66.248H161.886V68.768H149.022V66.248H153.918V63.848H156.942V66.248ZM156.222 84.008H164.406V81.08H156.222V84.008ZM155.454 71.816C154.638 71.816 154.022 71.968 153.606 72.272C153.206 72.56 153.006 72.88 153.006 73.232V73.664C153.006 74.016 153.206 74.344 153.606 74.648C154.022 74.936 154.638 75.08 155.454 75.08C156.27 75.08 156.878 74.936 157.278 74.648C157.694 74.344 157.902 74.016 157.902 73.664V73.232C157.902 72.88 157.694 72.56 157.278 72.272C156.878 71.968 156.27 71.816 155.454 71.816Z" fill="black"/>
<path d="M29.856 114.96V109.64H27.154C26.93 110.377 26.5473 110.933 26.006 111.306C25.474 111.67 24.844 111.852 24.116 111.852C23.64 111.852 23.2013 111.773 22.8 111.614C22.408 111.455 22.0673 111.222 21.778 110.914C21.498 110.606 21.274 110.219 21.106 109.752C20.9473 109.285 20.868 108.744 20.868 108.128V106.672C20.868 106.056 20.9473 105.515 21.106 105.048C21.274 104.581 21.498 104.194 21.778 103.886C22.0673 103.569 22.408 103.331 22.8 103.172C23.2013 103.013 23.64 102.934 24.116 102.934C24.8253 102.934 25.4413 103.111 25.964 103.466C26.4867 103.811 26.8693 104.334 27.112 105.034H29.856V102.052H31.242V114.96H29.856ZM24.116 110.606C24.368 110.606 24.6107 110.559 24.844 110.466C25.0773 110.373 25.278 110.223 25.446 110.018C25.6233 109.803 25.7633 109.528 25.866 109.192C25.978 108.847 26.034 108.427 26.034 107.932V106.868C26.034 106.373 25.978 105.958 25.866 105.622C25.7633 105.277 25.6233 105.001 25.446 104.796C25.278 104.581 25.0773 104.427 24.844 104.334C24.6107 104.241 24.368 104.194 24.116 104.194C23.864 104.194 23.6213 104.241 23.388 104.334C23.1547 104.427 22.9493 104.581 22.772 104.796C22.604 105.001 22.464 105.277 22.352 105.622C22.2493 105.958 22.198 106.373 22.198 106.868V107.932C22.198 108.427 22.2493 108.847 22.352 109.192C22.464 109.528 22.604 109.803 22.772 110.018C22.9493 110.223 23.1547 110.373 23.388 110.466C23.6213 110.559 23.864 110.606 24.116 110.606ZM27.364 108.128C27.364 108.175 27.364 108.226 27.364 108.282C27.364 108.329 27.3593 108.375 27.35 108.422H29.856V106.252H27.35C27.35 106.327 27.35 106.397 27.35 106.462C27.3593 106.527 27.364 106.597 27.364 106.672V108.128ZM35.7662 112.314C35.7662 111.978 35.8549 111.661 36.0322 111.362C36.2189 111.063 36.4802 110.802 36.8162 110.578C37.1615 110.354 37.5769 110.181 38.0622 110.06C38.5569 109.929 39.1122 109.864 39.7282 109.864C40.3442 109.864 40.8949 109.929 41.3802 110.06C41.8749 110.181 42.2902 110.354 42.6262 110.578C42.9715 110.802 43.2329 111.063 43.4102 111.362C43.5969 111.661 43.6902 111.978 43.6902 112.314V112.874C43.6902 113.21 43.5969 113.527 43.4102 113.826C43.2329 114.125 42.9715 114.386 42.6262 114.61C42.2902 114.834 41.8749 115.007 41.3802 115.128C40.8949 115.259 40.3442 115.324 39.7282 115.324C39.1122 115.324 38.5569 115.259 38.0622 115.128C37.5769 115.007 37.1615 114.834 36.8162 114.61C36.4802 114.386 36.2189 114.125 36.0322 113.826C35.8549 113.527 35.7662 113.21 35.7662 112.874V112.314ZM36.8582 106.546C36.8209 106.667 36.7089 106.835 36.5222 107.05C36.3355 107.265 36.1349 107.47 35.9202 107.666C35.6309 107.937 35.2949 108.235 34.9122 108.562C34.5295 108.879 34.1515 109.187 33.7782 109.486L32.9522 108.506C33.4002 108.161 33.8249 107.815 34.2262 107.47C34.6369 107.125 34.9635 106.831 35.2062 106.588C35.3835 106.411 35.5282 106.243 35.6402 106.084C35.7615 105.916 35.8549 105.748 35.9202 105.58C35.9949 105.403 36.0462 105.216 36.0742 105.02C36.1022 104.824 36.1162 104.605 36.1162 104.362V102.626H37.5162V104.306C37.5162 104.521 37.5209 104.717 37.5302 104.894C37.5489 105.062 37.5815 105.221 37.6282 105.37C37.6749 105.519 37.7449 105.669 37.8382 105.818C37.9409 105.958 38.0762 106.103 38.2442 106.252C38.5709 106.551 38.9255 106.859 39.3082 107.176C39.7002 107.484 40.1062 107.787 40.5262 108.086L39.7142 109.052C39.3502 108.781 39.0002 108.511 38.6642 108.24C38.3375 107.969 38.0062 107.694 37.6702 107.414C37.4555 107.237 37.2782 107.073 37.1382 106.924C37.0075 106.775 36.9189 106.649 36.8722 106.546H36.8582ZM42.2622 109.682V106.028H39.6722V104.838H42.2622V102.052H43.6342V109.682H42.2622ZM42.3322 112.398C42.3322 112.23 42.2715 112.062 42.1502 111.894C42.0289 111.726 41.8562 111.577 41.6322 111.446C41.4082 111.306 41.1329 111.199 40.8062 111.124C40.4889 111.04 40.1295 110.998 39.7282 110.998C39.3269 110.998 38.9629 111.04 38.6362 111.124C38.3189 111.199 38.0482 111.306 37.8242 111.446C37.6002 111.577 37.4275 111.726 37.3062 111.894C37.1849 112.062 37.1242 112.23 37.1242 112.398V112.79C37.1242 112.958 37.1849 113.126 37.3062 113.294C37.4275 113.462 37.6002 113.611 37.8242 113.742C38.0482 113.882 38.3189 113.989 38.6362 114.064C38.9629 114.148 39.3269 114.19 39.7282 114.19C40.1295 114.19 40.4889 114.148 40.8062 114.064C41.1329 113.989 41.4082 113.882 41.6322 113.742C41.8562 113.611 42.0289 113.462 42.1502 113.294C42.2715 113.126 42.3322 112.958 42.3322 112.79V112.398ZM49.1944 104.628C49.3437 104.423 49.507 104.227 49.6844 104.04C49.871 103.853 50.081 103.695 50.3144 103.564C50.557 103.424 50.823 103.317 51.1124 103.242C51.411 103.158 51.7517 103.116 52.1344 103.116C52.601 103.116 53.021 103.177 53.3944 103.298C53.7677 103.419 54.085 103.592 54.3464 103.816C54.617 104.031 54.8224 104.297 54.9624 104.614C55.1117 104.922 55.1864 105.263 55.1864 105.636V105.776C55.1864 105.972 55.163 106.182 55.1164 106.406C55.0697 106.63 54.9857 106.845 54.8644 107.05C54.743 107.255 54.5797 107.447 54.3744 107.624C54.169 107.801 53.9124 107.946 53.6044 108.058C54.2857 108.179 54.7944 108.45 55.1304 108.87C55.4757 109.29 55.6484 109.794 55.6484 110.382V110.592C55.6484 110.965 55.5784 111.329 55.4384 111.684C55.3077 112.029 55.0977 112.342 54.8084 112.622C54.5284 112.893 54.1644 113.107 53.7164 113.266C53.2684 113.434 52.7364 113.518 52.1204 113.518C51.5324 113.518 50.963 113.425 50.4124 113.238C49.871 113.061 49.3624 112.781 48.8864 112.398L49.5724 111.292C50.067 111.647 50.5057 111.899 50.8884 112.048C51.271 112.188 51.6817 112.258 52.1204 112.258C52.4844 112.258 52.8017 112.216 53.0724 112.132C53.343 112.039 53.567 111.917 53.7444 111.768C53.9217 111.619 54.0524 111.446 54.1364 111.25C54.2204 111.045 54.2624 110.83 54.2624 110.606V110.424C54.2624 110.088 54.2064 109.813 54.0944 109.598C53.9917 109.374 53.847 109.197 53.6604 109.066C53.4737 108.935 53.2497 108.842 52.9884 108.786C52.7364 108.73 52.4657 108.702 52.1764 108.702H50.9304V107.498H52.1204C52.4377 107.498 52.7037 107.451 52.9184 107.358C53.133 107.255 53.3057 107.125 53.4364 106.966C53.567 106.807 53.6604 106.625 53.7164 106.42C53.7817 106.215 53.8144 106.005 53.8144 105.79V105.678C53.8144 105.454 53.7677 105.263 53.6744 105.104C53.5904 104.936 53.4737 104.796 53.3244 104.684C53.175 104.572 52.9977 104.488 52.7924 104.432C52.587 104.376 52.3724 104.348 52.1484 104.348C51.7284 104.348 51.3644 104.427 51.0564 104.586C50.7484 104.745 50.459 105.001 50.1884 105.356L49.1944 104.628ZM68.1133 114.96H66.7553V107.75H65.2293V114.33H63.8713V102.318H65.2293V106.546H66.7553V102.052H68.1133V114.96ZM62.3593 104.488H58.7893V110.298H59.5033C59.8206 110.298 60.1193 110.293 60.3993 110.284C60.6793 110.275 60.9546 110.261 61.2253 110.242C61.496 110.223 61.776 110.2 62.0653 110.172C62.3546 110.135 62.6626 110.088 62.9893 110.032L63.1293 111.194C62.7653 111.25 62.4246 111.301 62.1073 111.348C61.79 111.385 61.4773 111.418 61.1693 111.446C60.8613 111.465 60.5486 111.479 60.2313 111.488C59.9233 111.497 59.5873 111.502 59.2233 111.502H57.3893V103.284H62.3593V104.488ZM82.7315 109.934V114.946H74.8635V109.934H82.7315ZM79.3015 105.902C79.3015 106.182 79.2362 106.485 79.1055 106.812C78.9842 107.139 78.7928 107.442 78.5315 107.722C78.2702 108.002 77.9342 108.235 77.5235 108.422C77.1222 108.599 76.6462 108.688 76.0955 108.688C75.5448 108.688 75.0642 108.599 74.6535 108.422C74.2522 108.235 73.9208 108.002 73.6595 107.722C73.3982 107.442 73.2022 107.139 73.0715 106.812C72.9502 106.485 72.8895 106.182 72.8895 105.902V105.3C72.8895 105.02 72.9502 104.717 73.0715 104.39C73.2022 104.063 73.3982 103.76 73.6595 103.48C73.9208 103.2 74.2522 102.971 74.6535 102.794C75.0642 102.607 75.5448 102.514 76.0955 102.514C76.6462 102.514 77.1222 102.607 77.5235 102.794C77.9342 102.971 78.2702 103.2 78.5315 103.48C78.7928 103.76 78.9842 104.063 79.1055 104.39C79.2362 104.717 79.3015 105.02 79.3015 105.3V105.902ZM76.2355 113.77H81.3595V111.11H76.2355V113.77ZM84.5655 106.21H82.7315V109.304H81.3595V102.052H82.7315V105.006H84.5655V106.21ZM77.9715 105.37C77.9715 105.183 77.9295 104.992 77.8455 104.796C77.7708 104.6 77.6542 104.423 77.4955 104.264C77.3368 104.105 77.1408 103.975 76.9075 103.872C76.6742 103.769 76.4035 103.718 76.0955 103.718C75.7875 103.718 75.5168 103.769 75.2835 103.872C75.0502 103.975 74.8542 104.105 74.6955 104.264C74.5368 104.423 74.4155 104.6 74.3315 104.796C74.2568 104.992 74.2195 105.183 74.2195 105.37V105.832C74.2195 106.019 74.2568 106.21 74.3315 106.406C74.4155 106.602 74.5368 106.779 74.6955 106.938C74.8542 107.097 75.0502 107.227 75.2835 107.33C75.5168 107.433 75.7875 107.484 76.0955 107.484C76.4035 107.484 76.6742 107.433 76.9075 107.33C77.1408 107.227 77.3368 107.097 77.4955 106.938C77.6542 106.779 77.7708 106.602 77.8455 106.406C77.9295 106.21 77.9715 106.019 77.9715 105.832V105.37ZM95.6137 108.366V109.514H91.6097V112.062H96.8457V113.238H85.0017V112.062H90.2517V109.514H86.2337V108.366H88.0397V104.306H86.3317V103.158H95.5017V104.306H93.8217V108.366H95.6137ZM89.4257 108.366H92.4357V104.306H89.4257V108.366ZM107.656 110.494V114.96H99.7879V110.494H107.656ZM101.328 109.668C100.768 109.668 100.297 109.603 99.9139 109.472C99.5312 109.341 99.2185 109.173 98.9759 108.968C98.7425 108.763 98.5745 108.534 98.4719 108.282C98.3692 108.03 98.3179 107.787 98.3179 107.554V107.162C98.3179 106.929 98.3692 106.686 98.4719 106.434C98.5745 106.182 98.7425 105.953 98.9759 105.748C99.2185 105.543 99.5312 105.375 99.9139 105.244C100.297 105.113 100.768 105.048 101.328 105.048C101.888 105.048 102.359 105.113 102.742 105.244C103.125 105.375 103.433 105.543 103.666 105.748C103.909 105.953 104.081 106.182 104.184 106.434C104.287 106.686 104.338 106.929 104.338 107.162V107.554C104.338 107.787 104.287 108.03 104.184 108.282C104.081 108.534 103.909 108.763 103.666 108.968C103.433 109.173 103.125 109.341 102.742 109.472C102.359 109.603 101.888 109.668 101.328 109.668ZM109.49 106.588H107.656V109.864H106.284V102.052H107.656V105.384H109.49V106.588ZM101.16 113.784H106.284V111.67H101.16V113.784ZM105.024 104.572H97.6179V103.41H100.642V101.884H102.014V103.41H105.024V104.572ZM101.328 108.562C101.645 108.562 101.911 108.529 102.126 108.464C102.35 108.389 102.527 108.296 102.658 108.184C102.789 108.072 102.882 107.955 102.938 107.834C102.994 107.703 103.022 107.582 103.022 107.47V107.246C103.022 107.134 102.994 107.017 102.938 106.896C102.882 106.765 102.789 106.644 102.658 106.532C102.527 106.42 102.355 106.331 102.14 106.266C101.925 106.191 101.655 106.154 101.328 106.154C101.001 106.154 100.731 106.191 100.516 106.266C100.301 106.331 100.129 106.42 99.9979 106.532C99.8672 106.644 99.7739 106.765 99.7179 106.896C99.6619 107.017 99.6339 107.134 99.6339 107.246V107.47C99.6339 107.582 99.6619 107.703 99.7179 107.834C99.7739 107.955 99.8672 108.072 99.9979 108.184C100.129 108.296 100.301 108.389 100.516 108.464C100.731 108.529 101.001 108.562 101.328 108.562ZM120.636 107.05C120.169 106.817 119.815 106.611 119.572 106.434C119.329 106.257 119.166 106.089 119.082 105.93H119.068C118.993 106.089 118.83 106.261 118.578 106.448C118.335 106.625 117.981 106.831 117.514 107.064C117.131 107.251 116.702 107.456 116.226 107.68C115.759 107.904 115.232 108.128 114.644 108.352L114.098 107.218C114.621 107.022 115.134 106.812 115.638 106.588C116.142 106.355 116.618 106.117 117.066 105.874C117.346 105.725 117.57 105.575 117.738 105.426C117.915 105.267 118.051 105.109 118.144 104.95C118.237 104.791 118.298 104.633 118.326 104.474C118.363 104.306 118.382 104.138 118.382 103.97H114.672V102.794H123.492V103.97H119.768C119.768 104.138 119.782 104.306 119.81 104.474C119.847 104.633 119.908 104.791 119.992 104.95C120.085 105.109 120.216 105.267 120.384 105.426C120.561 105.575 120.79 105.725 121.07 105.874C121.518 106.117 121.994 106.355 122.498 106.588C123.002 106.812 123.515 107.022 124.038 107.218L123.506 108.338C122.918 108.114 122.386 107.89 121.91 107.666C121.443 107.442 121.019 107.237 120.636 107.05ZM118.368 114.96V110.536H113.146V109.36H124.99V110.536H119.768V114.96H118.368ZM137.452 112.062V113.238H125.608V112.062H128.562V108.94C128.142 108.669 127.806 108.338 127.554 107.946C127.312 107.545 127.19 107.087 127.19 106.574V105.902C127.19 105.417 127.302 104.983 127.526 104.6C127.76 104.208 128.072 103.877 128.464 103.606C128.866 103.326 129.328 103.116 129.85 102.976C130.382 102.827 130.942 102.752 131.53 102.752C132.118 102.752 132.674 102.827 133.196 102.976C133.728 103.116 134.19 103.326 134.582 103.606C134.984 103.877 135.296 104.208 135.52 104.6C135.754 104.983 135.87 105.417 135.87 105.902V106.574C135.87 107.087 135.744 107.545 135.492 107.946C135.25 108.338 134.918 108.669 134.498 108.94V112.062H137.452ZM131.53 103.956C131.129 103.956 130.746 104.003 130.382 104.096C130.028 104.189 129.71 104.325 129.43 104.502C129.16 104.67 128.945 104.88 128.786 105.132C128.628 105.384 128.548 105.664 128.548 105.972V106.504C128.548 106.812 128.628 107.092 128.786 107.344C128.945 107.596 129.16 107.811 129.43 107.988C129.71 108.156 130.028 108.287 130.382 108.38C130.746 108.473 131.129 108.52 131.53 108.52C131.932 108.52 132.31 108.473 132.664 108.38C133.028 108.287 133.346 108.156 133.616 107.988C133.896 107.811 134.116 107.596 134.274 107.344C134.433 107.092 134.512 106.812 134.512 106.504V105.972C134.512 105.664 134.433 105.384 134.274 105.132C134.116 104.88 133.896 104.67 133.616 104.502C133.346 104.325 133.028 104.189 132.664 104.096C132.31 104.003 131.932 103.956 131.53 103.956ZM131.53 109.71C130.97 109.71 130.438 109.645 129.934 109.514V112.062H133.126V109.514C132.604 109.645 132.072 109.71 131.53 109.71ZM148.262 109.934V114.946H140.394V109.934H148.262ZM144.832 105.902C144.832 106.182 144.767 106.485 144.636 106.812C144.515 107.139 144.324 107.442 144.062 107.722C143.801 108.002 143.465 108.235 143.054 108.422C142.653 108.599 142.177 108.688 141.626 108.688C141.076 108.688 140.595 108.599 140.184 108.422C139.783 108.235 139.452 108.002 139.19 107.722C138.929 107.442 138.733 107.139 138.602 106.812C138.481 106.485 138.42 106.182 138.42 105.902V105.3C138.42 105.02 138.481 104.717 138.602 104.39C138.733 104.063 138.929 103.76 139.19 103.48C139.452 103.2 139.783 102.971 140.184 102.794C140.595 102.607 141.076 102.514 141.626 102.514C142.177 102.514 142.653 102.607 143.054 102.794C143.465 102.971 143.801 103.2 144.062 103.48C144.324 103.76 144.515 104.063 144.636 104.39C144.767 104.717 144.832 105.02 144.832 105.3V105.902ZM141.766 113.77H146.89V111.11H141.766V113.77ZM150.096 106.21H148.262V109.304H146.89V102.052H148.262V105.006H150.096V106.21ZM143.502 105.37C143.502 105.183 143.46 104.992 143.376 104.796C143.302 104.6 143.185 104.423 143.026 104.264C142.868 104.105 142.672 103.975 142.438 103.872C142.205 103.769 141.934 103.718 141.626 103.718C141.318 103.718 141.048 103.769 140.814 103.872C140.581 103.975 140.385 104.105 140.226 104.264C140.068 104.423 139.946 104.6 139.862 104.796C139.788 104.992 139.75 105.183 139.75 105.37V105.832C139.75 106.019 139.788 106.21 139.862 106.406C139.946 106.602 140.068 106.779 140.226 106.938C140.385 107.097 140.581 107.227 140.814 107.33C141.048 107.433 141.318 107.484 141.626 107.484C141.934 107.484 142.205 107.433 142.438 107.33C142.672 107.227 142.868 107.097 143.026 106.938C143.185 106.779 143.302 106.602 143.376 106.406C143.46 106.21 143.502 106.019 143.502 105.832V105.37ZM163.931 109.626H160.361V112.062H165.597V113.238H153.753V112.062H158.975V109.626H155.419V103.004H156.791V105.202H162.559V102.99H163.931V109.626ZM156.791 108.45H162.559V106.378H156.791V108.45ZM168.679 112.3C168.679 111.964 168.767 111.647 168.945 111.348C169.122 111.049 169.379 110.788 169.715 110.564C170.051 110.34 170.457 110.163 170.933 110.032C171.418 109.901 171.964 109.836 172.571 109.836C173.177 109.836 173.719 109.901 174.195 110.032C174.68 110.163 175.091 110.34 175.427 110.564C175.763 110.788 176.019 111.049 176.197 111.348C176.374 111.647 176.463 111.964 176.463 112.3V112.86C176.463 113.196 176.374 113.513 176.197 113.812C176.019 114.111 175.763 114.372 175.427 114.596C175.091 114.82 174.68 114.997 174.195 115.128C173.719 115.259 173.177 115.324 172.571 115.324C171.964 115.324 171.418 115.259 170.933 115.128C170.457 114.997 170.051 114.82 169.715 114.596C169.379 114.372 169.122 114.111 168.945 113.812C168.767 113.513 168.679 113.196 168.679 112.86V112.3ZM170.205 106.742C170.158 106.863 170.046 107.031 169.869 107.246C169.691 107.451 169.491 107.647 169.267 107.834C168.968 108.095 168.632 108.371 168.259 108.66C167.895 108.949 167.517 109.229 167.125 109.5L166.313 108.506C166.761 108.189 167.181 107.881 167.573 107.582C167.965 107.274 168.287 106.999 168.539 106.756C168.707 106.588 168.851 106.425 168.973 106.266C169.094 106.107 169.187 105.944 169.253 105.776C169.327 105.599 169.379 105.412 169.407 105.216C169.444 105.011 169.463 104.782 169.463 104.53V104.04H166.747V102.85H173.425V104.04H170.863V104.474C170.863 104.698 170.872 104.899 170.891 105.076C170.909 105.253 170.942 105.417 170.989 105.566C171.045 105.715 171.119 105.86 171.213 106C171.306 106.131 171.432 106.266 171.591 106.406C171.917 106.705 172.263 106.994 172.627 107.274C172.991 107.545 173.383 107.815 173.803 108.086L173.019 109.094C172.655 108.842 172.314 108.595 171.997 108.352C171.679 108.109 171.353 107.848 171.017 107.568C170.802 107.391 170.625 107.237 170.485 107.106C170.354 106.966 170.265 106.845 170.219 106.742H170.205ZM175.105 112.384C175.105 112.216 175.044 112.048 174.923 111.88C174.811 111.703 174.643 111.549 174.419 111.418C174.204 111.287 173.938 111.18 173.621 111.096C173.313 111.012 172.963 110.97 172.571 110.97C172.179 110.97 171.824 111.012 171.507 111.096C171.199 111.18 170.933 111.287 170.709 111.418C170.494 111.549 170.326 111.703 170.205 111.88C170.093 112.048 170.037 112.216 170.037 112.384V112.776C170.037 112.944 170.093 113.112 170.205 113.28C170.326 113.457 170.494 113.611 170.709 113.742C170.933 113.873 171.199 113.98 171.507 114.064C171.824 114.148 172.179 114.19 172.571 114.19C172.963 114.19 173.313 114.148 173.621 114.064C173.938 113.98 174.204 113.873 174.419 113.742C174.643 113.611 174.811 113.457 174.923 113.28C175.044 113.112 175.105 112.944 175.105 112.776V112.384ZM175.035 109.668V102.052H176.407V105.174H178.241V106.378H176.407V109.668H175.035Z" fill="black"/>
<path d="M57 0.5L63.5 13H56.5L57 0.5Z" fill="#C45D04"/>
<path d="M23 4C23 1.79086 24.7909 0 27 0H57V33.075L23 42V4Z" fill="#F58220"/>
<path d="M32.408 24.416V15.184L29.784 16.688L28.792 15.024L32.648 12.88H34.456V24.416H32.408ZM41.9939 18.24C41.3965 18.24 40.8579 18.1653 40.3779 18.016C39.9085 17.856 39.5032 17.6427 39.1619 17.376C38.8205 17.0987 38.5592 16.7787 38.3779 16.416C38.1965 16.0427 38.1059 15.648 38.1059 15.232V14.72C38.1059 14.304 38.1965 13.9147 38.3779 13.552C38.5592 13.1787 38.8205 12.8587 39.1619 12.592C39.5032 12.3147 39.9085 12.1013 40.3779 11.952C40.8579 11.792 41.3965 11.712 41.9939 11.712C42.5805 11.712 43.1139 11.792 43.5939 11.952C44.0739 12.1013 44.4845 12.3147 44.8259 12.592C45.1672 12.8587 45.4285 13.1787 45.6099 13.552C45.7912 13.9147 45.8819 14.304 45.8819 14.72V15.232C45.8819 15.648 45.7912 16.0427 45.6099 16.416C45.4285 16.7787 45.1672 17.0987 44.8259 17.376C44.4845 17.6427 44.0739 17.856 43.5939 18.016C43.1139 18.1653 42.5805 18.24 41.9939 18.24ZM49.6419 26.304H47.6419V11.424H49.6419V26.304ZM37.3699 19.296C38.5965 19.296 39.6899 19.2907 40.6499 19.28C41.6205 19.2693 42.4845 19.2533 43.2419 19.232C44.0099 19.2107 44.6872 19.184 45.2739 19.152C45.8605 19.12 46.3939 19.0773 46.8739 19.024L47.0179 20.736C46.5272 20.8 45.9565 20.8533 45.3059 20.896C44.6552 20.928 43.8979 20.9547 43.0339 20.976V25.872H41.0339V21.008C40.4899 21.0187 39.9139 21.024 39.3059 21.024C38.7085 21.024 38.0632 21.024 37.3699 21.024V19.296ZM41.9939 13.376C41.7059 13.376 41.4392 13.4187 41.1939 13.504C40.9485 13.5787 40.7352 13.6853 40.5539 13.824C40.3832 13.952 40.2499 14.1067 40.1539 14.288C40.0579 14.4587 40.0099 14.64 40.0099 14.832V15.12C40.0099 15.312 40.0579 15.4987 40.1539 15.68C40.2499 15.8507 40.3832 16.0053 40.5539 16.144C40.7352 16.272 40.9485 16.3787 41.1939 16.464C41.4392 16.5387 41.7059 16.576 41.9939 16.576C42.2819 16.576 42.5485 16.5387 42.7939 16.464C43.0392 16.3787 43.2472 16.272 43.4179 16.144C43.5992 16.0053 43.7379 15.8507 43.8339 15.68C43.9299 15.4987 43.9779 15.312 43.9779 15.12V14.832C43.9779 14.64 43.9299 14.4587 43.8339 14.288C43.7379 14.1067 43.5992 13.952 43.4179 13.824C43.2472 13.6853 43.0392 13.5787 42.7939 13.504C42.5485 13.4187 42.2819 13.376 41.9939 13.376Z" fill="white"/>
<path d="M20.008 155.872C20.112 155.696 20.24 155.528 20.392 155.368C20.544 155.208 20.72 155.068 20.92 154.948C21.128 154.82 21.36 154.72 21.616 154.648C21.88 154.568 22.176 154.528 22.504 154.528C22.896 154.528 23.248 154.58 23.56 154.684C23.88 154.788 24.148 154.936 24.364 155.128C24.588 155.312 24.76 155.54 24.88 155.812C25 156.076 25.06 156.368 25.06 156.688V156.808C25.06 156.976 25.036 157.156 24.988 157.348C24.94 157.532 24.86 157.712 24.748 157.888C24.636 158.064 24.484 158.228 24.292 158.38C24.1 158.532 23.86 158.656 23.572 158.752C24.172 158.856 24.624 159.092 24.928 159.46C25.24 159.828 25.396 160.264 25.396 160.768V160.948C25.396 161.26 25.344 161.564 25.24 161.86C25.136 162.156 24.968 162.424 24.736 162.664C24.512 162.896 24.212 163.084 23.836 163.228C23.468 163.372 23.02 163.444 22.492 163.444C21.988 163.444 21.5 163.364 21.028 163.204C20.564 163.052 20.128 162.812 19.72 162.484L20.14 161.812C20.564 162.116 20.96 162.336 21.328 162.472C21.704 162.608 22.092 162.676 22.492 162.676C22.868 162.676 23.188 162.624 23.452 162.52C23.716 162.416 23.928 162.284 24.088 162.124C24.256 161.956 24.376 161.772 24.448 161.572C24.528 161.364 24.568 161.16 24.568 160.96V160.804C24.568 160.476 24.5 160.208 24.364 160C24.236 159.784 24.072 159.616 23.872 159.496C23.68 159.368 23.464 159.28 23.224 159.232C22.992 159.184 22.772 159.16 22.564 159.16H21.592V158.44H22.6C22.872 158.44 23.108 158.392 23.308 158.296C23.508 158.192 23.672 158.06 23.8 157.9C23.936 157.74 24.036 157.564 24.1 157.372C24.172 157.172 24.208 156.98 24.208 156.796V156.7C24.208 156.268 24.056 155.928 23.752 155.68C23.456 155.424 23.044 155.296 22.516 155.296C22.172 155.296 21.84 155.368 21.52 155.512C21.2 155.648 20.916 155.912 20.668 156.304L20.008 155.872ZM30.1073 158.812C30.3473 158.532 30.5393 158.292 30.6833 158.092C30.8273 157.892 30.9353 157.716 31.0073 157.564C31.0873 157.404 31.1393 157.264 31.1633 157.144C31.1953 157.024 31.2113 156.908 31.2113 156.796V156.7C31.2113 156.268 31.0673 155.928 30.7793 155.68C30.4993 155.424 30.0953 155.296 29.5673 155.296C29.1833 155.296 28.8233 155.388 28.4873 155.572C28.1513 155.756 27.8433 156.1 27.5633 156.604L26.8913 156.184C26.9953 156 27.1233 155.812 27.2753 155.62C27.4273 155.42 27.6113 155.24 27.8273 155.08C28.0433 154.92 28.2913 154.788 28.5713 154.684C28.8593 154.58 29.1833 154.528 29.5433 154.528C29.9273 154.528 30.2753 154.58 30.5873 154.684C30.8993 154.788 31.1633 154.936 31.3793 155.128C31.5953 155.312 31.7633 155.54 31.8833 155.812C32.0033 156.076 32.0633 156.368 32.0633 156.688V156.808C32.0633 157.04 32.0233 157.268 31.9433 157.492C31.8633 157.708 31.7553 157.92 31.6193 158.128C31.4913 158.336 31.3393 158.544 31.1633 158.752C30.9873 158.96 30.8073 159.172 30.6233 159.388L27.9353 162.544H32.3753V163.312H26.8793V162.592L30.1073 158.812ZM39.7866 157.336V153.892H40.6266V164.092H39.7866V158.104H37.7826V157.336H39.7866ZM35.6226 154.54H36.4746V157C36.4746 157.288 36.4826 157.536 36.4986 157.744C36.5226 157.944 36.5626 158.128 36.6186 158.296C36.6746 158.464 36.7506 158.628 36.8466 158.788C36.9426 158.948 37.0666 159.124 37.2186 159.316C37.4186 159.572 37.6586 159.856 37.9386 160.168C38.2266 160.48 38.5426 160.804 38.8866 161.14L38.3226 161.692C38.0186 161.388 37.7266 161.08 37.4466 160.768C37.1746 160.456 36.9346 160.184 36.7266 159.952C36.5426 159.744 36.3906 159.556 36.2706 159.388C36.1586 159.212 36.0906 159.092 36.0666 159.028H36.0546C36.0386 159.092 35.9786 159.204 35.8746 159.364C35.7706 159.524 35.6266 159.716 35.4426 159.94C35.2186 160.204 34.9626 160.488 34.6746 160.792C34.3946 161.096 34.0626 161.44 33.6786 161.824L33.1026 161.26C33.2786 161.092 33.4546 160.92 33.6306 160.744C33.8146 160.56 33.9826 160.384 34.1346 160.216C34.2946 160.048 34.4386 159.888 34.5666 159.736C34.7026 159.584 34.8186 159.448 34.9146 159.328C35.0586 159.144 35.1746 158.972 35.2626 158.812C35.3586 158.644 35.4306 158.472 35.4786 158.296C35.5346 158.12 35.5706 157.928 35.5866 157.72C35.6106 157.512 35.6226 157.272 35.6226 157V154.54ZM42.7746 164.632H41.9346V153.664H42.7746V164.632ZM45.4045 159.712C45.4045 160.624 45.5245 161.528 45.7645 162.424C46.0045 163.32 46.4325 164.192 47.0485 165.04H46.2805C45.6805 164.328 45.2365 163.52 44.9485 162.616C44.6605 161.712 44.5165 160.724 44.5165 159.652V159.172C44.5165 158.1 44.6605 157.116 44.9485 156.22C45.2365 155.324 45.6805 154.52 46.2805 153.808H47.0485C46.4565 154.608 46.0325 155.452 45.7765 156.34C45.5285 157.22 45.4045 158.144 45.4045 159.112V159.712ZM56.6302 164.644H55.8022V160.036H53.1502C52.9742 160.644 52.6702 161.112 52.2382 161.44C51.8142 161.76 51.2782 161.92 50.6302 161.92C49.7822 161.92 49.1182 161.644 48.6382 161.092C48.1662 160.532 47.9302 159.748 47.9302 158.74V157.612C47.9302 156.612 48.1662 155.836 48.6382 155.284C49.1182 154.724 49.7822 154.444 50.6302 154.444C51.2702 154.444 51.8022 154.608 52.2262 154.936C52.6582 155.256 52.9662 155.716 53.1502 156.316H55.8022V153.664H56.6302V164.644ZM52.5022 157.768C52.5022 157.312 52.4582 156.924 52.3702 156.604C52.2822 156.284 52.1542 156.024 51.9862 155.824C51.8262 155.616 51.6302 155.468 51.3982 155.38C51.1662 155.284 50.9102 155.236 50.6302 155.236C50.3502 155.236 50.0942 155.284 49.8622 155.38C49.6302 155.468 49.4302 155.616 49.2622 155.824C49.1022 156.024 48.9782 156.284 48.8902 156.604C48.8022 156.924 48.7582 157.312 48.7582 157.768V158.596C48.7582 159.052 48.8022 159.444 48.8902 159.772C48.9782 160.092 49.1022 160.356 49.2622 160.564C49.4302 160.764 49.6302 160.912 49.8622 161.008C50.0942 161.096 50.3502 161.14 50.6302 161.14C50.9102 161.14 51.1662 161.096 51.3982 161.008C51.6302 160.912 51.8262 160.764 51.9862 160.564C52.1542 160.356 52.2822 160.092 52.3702 159.772C52.4582 159.444 52.5022 159.052 52.5022 158.596V157.768ZM53.3302 158.74C53.3302 158.828 53.3262 158.916 53.3182 159.004C53.3182 159.092 53.3142 159.18 53.3062 159.268H55.8022V157.084H53.3062C53.3142 157.172 53.3182 157.264 53.3182 157.36C53.3262 157.448 53.3302 157.536 53.3302 157.624V158.74ZM59.7401 159.112C59.7401 158.144 59.6121 157.22 59.3561 156.34C59.1081 155.452 58.6881 154.608 58.0961 153.808H58.8641C59.4641 154.52 59.9081 155.324 60.1961 156.22C60.4841 157.116 60.6281 158.1 60.6281 159.172V159.652C60.6281 160.724 60.4841 161.712 60.1961 162.616C59.9081 163.52 59.4641 164.328 58.8641 165.04H58.0961C58.7121 164.192 59.1401 163.32 59.3801 162.424C59.6201 161.528 59.7401 160.624 59.7401 159.712V159.112Z" fill="#8A8989"/>
<path d="M81.732 163.312V155.716L79.644 156.988L79.26 156.316L81.936 154.66H82.572V163.312H81.732ZM91.4953 159.652C91.4953 160.876 91.2633 161.816 90.7993 162.472C90.3353 163.12 89.5833 163.444 88.5433 163.444C87.5193 163.444 86.7753 163.116 86.3113 162.46C85.8473 161.804 85.6153 160.868 85.6153 159.652V158.308C85.6153 157.1 85.8513 156.168 86.3233 155.512C86.7953 154.856 87.5353 154.528 88.5433 154.528C89.5673 154.528 90.3153 154.856 90.7873 155.512C91.2593 156.16 91.4953 157.092 91.4953 158.308V159.652ZM90.6313 158.296C90.6313 157.224 90.4553 156.456 90.1033 155.992C89.7593 155.52 89.2393 155.284 88.5433 155.284C87.8793 155.284 87.3673 155.52 87.0073 155.992C86.6553 156.464 86.4793 157.232 86.4793 158.296V159.664C86.4793 160.736 86.6553 161.508 87.0073 161.98C87.3673 162.452 87.8793 162.688 88.5433 162.688C89.2313 162.688 89.7513 162.456 90.1033 161.992C90.4553 161.52 90.6313 160.744 90.6313 159.664V158.296ZM100.575 155.032V153.664H101.403V161.512H100.575V157.756H97.2626V157.024H100.575V155.764H97.2626V155.032H100.575ZM93.9146 154.3V159.052C94.4986 159.052 95.0106 159.048 95.4506 159.04C95.8906 159.032 96.3026 159.02 96.6866 159.004C97.0786 158.98 97.4626 158.952 97.8386 158.92C98.2146 158.88 98.6306 158.828 99.0866 158.764L99.1826 159.52C98.7106 159.584 98.2786 159.636 97.8866 159.676C97.4946 159.716 97.0786 159.748 96.6386 159.772C96.1986 159.788 95.6946 159.8 95.1266 159.808C94.5666 159.816 93.8786 159.82 93.0626 159.82V154.3H93.9146ZM95.5226 163.756H101.679V164.5H94.6706V161.068H95.5226V163.756ZM108.449 159.52H103.553V154.348H108.449V159.52ZM107.633 155.092H104.369V158.776H107.633V155.092ZM111.629 156.868H113.309V157.612H111.629V161.512H110.789V153.664H111.629V156.868ZM105.917 163.756H111.965V164.5H105.065V160.888H105.917V163.756ZM122.718 164.632H121.866V153.664H122.718V164.632ZM114.258 161.452C115.178 160.924 115.91 160.472 116.454 160.096C116.998 159.712 117.41 159.356 117.69 159.028C117.97 158.692 118.15 158.356 118.23 158.02C118.318 157.684 118.362 157.292 118.362 156.844V155.464H114.378V154.696H119.19V156.856C119.19 157.224 119.17 157.556 119.13 157.852C119.09 158.148 119.01 158.428 118.89 158.692C118.778 158.956 118.618 159.212 118.41 159.46C118.202 159.708 117.93 159.968 117.594 160.24C117.266 160.512 116.862 160.804 116.382 161.116C115.91 161.42 115.35 161.76 114.702 162.136L114.258 161.452Z" fill="#8A8989"/>
<path d="M144.732 163.312V155.716L142.644 156.988L142.26 156.316L144.936 154.66H145.572V163.312H144.732ZM154.495 159.652C154.495 160.876 154.263 161.816 153.799 162.472C153.335 163.12 152.583 163.444 151.543 163.444C150.519 163.444 149.775 163.116 149.311 162.46C148.847 161.804 148.615 160.868 148.615 159.652V158.308C148.615 157.1 148.851 156.168 149.323 155.512C149.795 154.856 150.535 154.528 151.543 154.528C152.567 154.528 153.315 154.856 153.787 155.512C154.259 156.16 154.495 157.092 154.495 158.308V159.652ZM153.631 158.296C153.631 157.224 153.455 156.456 153.103 155.992C152.759 155.52 152.239 155.284 151.543 155.284C150.879 155.284 150.367 155.52 150.007 155.992C149.655 156.464 149.479 157.232 149.479 158.296V159.664C149.479 160.736 149.655 161.508 150.007 161.98C150.367 162.452 150.879 162.688 151.543 162.688C152.231 162.688 152.751 162.456 153.103 161.992C153.455 161.52 153.631 160.744 153.631 159.664V158.296ZM163.575 155.032V153.664H164.403V161.512H163.575V157.756H160.263V157.024H163.575V155.764H160.263V155.032H163.575ZM156.915 154.3V159.052C157.499 159.052 158.011 159.048 158.451 159.04C158.891 159.032 159.303 159.02 159.687 159.004C160.079 158.98 160.463 158.952 160.839 158.92C161.215 158.88 161.631 158.828 162.087 158.764L162.183 159.52C161.711 159.584 161.279 159.636 160.887 159.676C160.495 159.716 160.079 159.748 159.639 159.772C159.199 159.788 158.695 159.8 158.127 159.808C157.567 159.816 156.879 159.82 156.063 159.82V154.3H156.915ZM158.523 163.756H164.679V164.5H157.671V161.068H158.523V163.756ZM174.629 159.844V164.608H168.041V159.844H168.869V161.392H173.801V159.844H174.629ZM173.801 163.852V162.136H168.869V163.852H173.801ZM167.525 154.264V157.864C168.109 157.864 168.621 157.86 169.061 157.852C169.501 157.844 169.913 157.832 170.297 157.816C170.689 157.792 171.073 157.764 171.449 157.732C171.825 157.692 172.241 157.64 172.697 157.576L172.793 158.332C172.321 158.396 171.889 158.448 171.497 158.488C171.105 158.528 170.689 158.56 170.249 158.584C169.809 158.6 169.305 158.612 168.737 158.62C168.177 158.628 167.489 158.632 166.673 158.632V154.264H167.525ZM174.629 156.04H176.309V156.784H174.629V159.196H173.789V153.664H174.629V156.04Z" fill="#8A8989"/>
<path d="M72 152V166" stroke="#DCDCDC"/>
<path d="M135 152V166" stroke="#DCDCDC"/>
</svg>
