<svg width="330" height="211" viewBox="0 0 330 211" fill="none" xmlns="http://www.w3.org/2000/svg">
<g filter="url(#filter0_d_1_2)">
<rect x="12" y="12" width="306" height="184" rx="20" fill="white"/>
</g>
<path d="M32.008 155.872C32.112 155.696 32.24 155.528 32.392 155.368C32.544 155.208 32.72 155.068 32.92 154.948C33.128 154.82 33.36 154.72 33.616 154.648C33.88 154.568 34.176 154.528 34.504 154.528C34.896 154.528 35.248 154.58 35.56 154.684C35.88 154.788 36.148 154.936 36.364 155.128C36.588 155.312 36.76 155.54 36.88 155.812C37 156.076 37.06 156.368 37.06 156.688V156.808C37.06 156.976 37.036 157.156 36.988 157.348C36.94 157.532 36.86 157.712 36.748 157.888C36.636 158.064 36.484 158.228 36.292 158.38C36.1 158.532 35.86 158.656 35.572 158.752C36.172 158.856 36.624 159.092 36.928 159.46C37.24 159.828 37.396 160.264 37.396 160.768V160.948C37.396 161.26 37.344 161.564 37.24 161.86C37.136 162.156 36.968 162.424 36.736 162.664C36.512 162.896 36.212 163.084 35.836 163.228C35.468 163.372 35.02 163.444 34.492 163.444C33.988 163.444 33.5 163.364 33.028 163.204C32.564 163.052 32.128 162.812 31.72 162.484L32.14 161.812C32.564 162.116 32.96 162.336 33.328 162.472C33.704 162.608 34.092 162.676 34.492 162.676C34.868 162.676 35.188 162.624 35.452 162.52C35.716 162.416 35.928 162.284 36.088 162.124C36.256 161.956 36.376 161.772 36.448 161.572C36.528 161.364 36.568 161.16 36.568 160.96V160.804C36.568 160.476 36.5 160.208 36.364 160C36.236 159.784 36.072 159.616 35.872 159.496C35.68 159.368 35.464 159.28 35.224 159.232C34.992 159.184 34.772 159.16 34.564 159.16H33.592V158.44H34.6C34.872 158.44 35.108 158.392 35.308 158.296C35.508 158.192 35.672 158.06 35.8 157.9C35.936 157.74 36.036 157.564 36.1 157.372C36.172 157.172 36.208 156.98 36.208 156.796V156.7C36.208 156.268 36.056 155.928 35.752 155.68C35.456 155.424 35.044 155.296 34.516 155.296C34.172 155.296 33.84 155.368 33.52 155.512C33.2 155.648 32.916 155.912 32.668 156.304L32.008 155.872ZM42.1073 158.812C42.3473 158.532 42.5393 158.292 42.6833 158.092C42.8273 157.892 42.9353 157.716 43.0073 157.564C43.0873 157.404 43.1393 157.264 43.1633 157.144C43.1953 157.024 43.2113 156.908 43.2113 156.796V156.7C43.2113 156.268 43.0673 155.928 42.7793 155.68C42.4993 155.424 42.0953 155.296 41.5673 155.296C41.1833 155.296 40.8233 155.388 40.4873 155.572C40.1513 155.756 39.8433 156.1 39.5633 156.604L38.8913 156.184C38.9953 156 39.1233 155.812 39.2753 155.62C39.4273 155.42 39.6113 155.24 39.8273 155.08C40.0433 154.92 40.2913 154.788 40.5713 154.684C40.8593 154.58 41.1833 154.528 41.5433 154.528C41.9273 154.528 42.2753 154.58 42.5873 154.684C42.8993 154.788 43.1633 154.936 43.3793 155.128C43.5953 155.312 43.7633 155.54 43.8833 155.812C44.0033 156.076 44.0633 156.368 44.0633 156.688V156.808C44.0633 157.04 44.0233 157.268 43.9433 157.492C43.8633 157.708 43.7553 157.92 43.6193 158.128C43.4913 158.336 43.3393 158.544 43.1633 158.752C42.9873 158.96 42.8073 159.172 42.6233 159.388L39.9353 162.544H44.3753V163.312H38.8793V162.592L42.1073 158.812ZM51.7866 157.336V153.892H52.6266V164.092H51.7866V158.104H49.7826V157.336H51.7866ZM47.6226 154.54H48.4746V157C48.4746 157.288 48.4826 157.536 48.4986 157.744C48.5226 157.944 48.5626 158.128 48.6186 158.296C48.6746 158.464 48.7506 158.628 48.8466 158.788C48.9426 158.948 49.0666 159.124 49.2186 159.316C49.4186 159.572 49.6586 159.856 49.9386 160.168C50.2266 160.48 50.5426 160.804 50.8866 161.14L50.3226 161.692C50.0186 161.388 49.7266 161.08 49.4466 160.768C49.1746 160.456 48.9346 160.184 48.7266 159.952C48.5426 159.744 48.3906 159.556 48.2706 159.388C48.1586 159.212 48.0906 159.092 48.0666 159.028H48.0546C48.0386 159.092 47.9786 159.204 47.8746 159.364C47.7706 159.524 47.6266 159.716 47.4426 159.94C47.2186 160.204 46.9626 160.488 46.6746 160.792C46.3946 161.096 46.0626 161.44 45.6786 161.824L45.1026 161.26C45.2786 161.092 45.4546 160.92 45.6306 160.744C45.8146 160.56 45.9826 160.384 46.1346 160.216C46.2946 160.048 46.4386 159.888 46.5666 159.736C46.7026 159.584 46.8186 159.448 46.9146 159.328C47.0586 159.144 47.1746 158.972 47.2626 158.812C47.3586 158.644 47.4306 158.472 47.4786 158.296C47.5346 158.12 47.5706 157.928 47.5866 157.72C47.6106 157.512 47.6226 157.272 47.6226 157V154.54ZM54.7746 164.632H53.9346V153.664H54.7746V164.632ZM57.4045 159.712C57.4045 160.624 57.5245 161.528 57.7645 162.424C58.0045 163.32 58.4325 164.192 59.0485 165.04H58.2805C57.6805 164.328 57.2365 163.52 56.9485 162.616C56.6605 161.712 56.5165 160.724 56.5165 159.652V159.172C56.5165 158.1 56.6605 157.116 56.9485 156.22C57.2365 155.324 57.6805 154.52 58.2805 153.808H59.0485C58.4565 154.608 58.0325 155.452 57.7765 156.34C57.5285 157.22 57.4045 158.144 57.4045 159.112V159.712ZM68.6302 164.644H67.8022V160.036H65.1502C64.9742 160.644 64.6702 161.112 64.2382 161.44C63.8142 161.76 63.2782 161.92 62.6302 161.92C61.7822 161.92 61.1182 161.644 60.6382 161.092C60.1662 160.532 59.9302 159.748 59.9302 158.74V157.612C59.9302 156.612 60.1662 155.836 60.6382 155.284C61.1182 154.724 61.7822 154.444 62.6302 154.444C63.2702 154.444 63.8022 154.608 64.2262 154.936C64.6582 155.256 64.9662 155.716 65.1502 156.316H67.8022V153.664H68.6302V164.644ZM64.5022 157.768C64.5022 157.312 64.4582 156.924 64.3702 156.604C64.2822 156.284 64.1542 156.024 63.9862 155.824C63.8262 155.616 63.6302 155.468 63.3982 155.38C63.1662 155.284 62.9102 155.236 62.6302 155.236C62.3502 155.236 62.0942 155.284 61.8622 155.38C61.6302 155.468 61.4302 155.616 61.2622 155.824C61.1022 156.024 60.9782 156.284 60.8902 156.604C60.8022 156.924 60.7582 157.312 60.7582 157.768V158.596C60.7582 159.052 60.8022 159.444 60.8902 159.772C60.9782 160.092 61.1022 160.356 61.2622 160.564C61.4302 160.764 61.6302 160.912 61.8622 161.008C62.0942 161.096 62.3502 161.14 62.6302 161.14C62.9102 161.14 63.1662 161.096 63.3982 161.008C63.6302 160.912 63.8262 160.764 63.9862 160.564C64.1542 160.356 64.2822 160.092 64.3702 159.772C64.4582 159.444 64.5022 159.052 64.5022 158.596V157.768ZM65.3302 158.74C65.3302 158.828 65.3262 158.916 65.3182 159.004C65.3182 159.092 65.3142 159.18 65.3062 159.268H67.8022V157.084H65.3062C65.3142 157.172 65.3182 157.264 65.3182 157.36C65.3262 157.448 65.3302 157.536 65.3302 157.624V158.74ZM71.7401 159.112C71.7401 158.144 71.6121 157.22 71.3561 156.34C71.1081 155.452 70.6881 154.608 70.0961 153.808H70.8641C71.4641 154.52 71.9081 155.324 72.1961 156.22C72.4841 157.116 72.6281 158.1 72.6281 159.172V159.652C72.6281 160.724 72.4841 161.712 72.1961 162.616C71.9081 163.52 71.4641 164.328 70.8641 165.04H70.0961C70.7121 164.192 71.1401 163.32 71.3801 162.424C71.6201 161.528 71.7401 160.624 71.7401 159.712V159.112Z" fill="#8A8989"/>
<path d="M93.732 163.312V155.716L91.644 156.988L91.26 156.316L93.936 154.66H94.572V163.312H93.732ZM103.495 159.652C103.495 160.876 103.263 161.816 102.799 162.472C102.335 163.12 101.583 163.444 100.543 163.444C99.5193 163.444 98.7753 163.116 98.3113 162.46C97.8473 161.804 97.6153 160.868 97.6153 159.652V158.308C97.6153 157.1 97.8513 156.168 98.3233 155.512C98.7953 154.856 99.5353 154.528 100.543 154.528C101.567 154.528 102.315 154.856 102.787 155.512C103.259 156.16 103.495 157.092 103.495 158.308V159.652ZM102.631 158.296C102.631 157.224 102.455 156.456 102.103 155.992C101.759 155.52 101.239 155.284 100.543 155.284C99.8793 155.284 99.3673 155.52 99.0073 155.992C98.6553 156.464 98.4793 157.232 98.4793 158.296V159.664C98.4793 160.736 98.6553 161.508 99.0073 161.98C99.3673 162.452 99.8793 162.688 100.543 162.688C101.231 162.688 101.751 162.456 102.103 161.992C102.455 161.52 102.631 160.744 102.631 159.664V158.296ZM112.575 155.032V153.664H113.403V161.512H112.575V157.756H109.263V157.024H112.575V155.764H109.263V155.032H112.575ZM105.915 154.3V159.052C106.499 159.052 107.011 159.048 107.451 159.04C107.891 159.032 108.303 159.02 108.687 159.004C109.079 158.98 109.463 158.952 109.839 158.92C110.215 158.88 110.631 158.828 111.087 158.764L111.183 159.52C110.711 159.584 110.279 159.636 109.887 159.676C109.495 159.716 109.079 159.748 108.639 159.772C108.199 159.788 107.695 159.8 107.127 159.808C106.567 159.816 105.879 159.82 105.063 159.82V154.3H105.915ZM107.523 163.756H113.679V164.5H106.671V161.068H107.523V163.756ZM120.449 159.52H115.553V154.348H120.449V159.52ZM119.633 155.092H116.369V158.776H119.633V155.092ZM123.629 156.868H125.309V157.612H123.629V161.512H122.789V153.664H123.629V156.868ZM117.917 163.756H123.965V164.5H117.065V160.888H117.917V163.756ZM134.718 164.632H133.866V153.664H134.718V164.632ZM126.258 161.452C127.178 160.924 127.91 160.472 128.454 160.096C128.998 159.712 129.41 159.356 129.69 159.028C129.97 158.692 130.15 158.356 130.23 158.02C130.318 157.684 130.362 157.292 130.362 156.844V155.464H126.378V154.696H131.19V156.856C131.19 157.224 131.17 157.556 131.13 157.852C131.09 158.148 131.01 158.428 130.89 158.692C130.778 158.956 130.618 159.212 130.41 159.46C130.202 159.708 129.93 159.968 129.594 160.24C129.266 160.512 128.862 160.804 128.382 161.116C127.91 161.42 127.35 161.76 126.702 162.136L126.258 161.452Z" fill="#8A8989"/>
<path d="M156.732 163.312V155.716L154.644 156.988L154.26 156.316L156.936 154.66H157.572V163.312H156.732ZM166.495 159.652C166.495 160.876 166.263 161.816 165.799 162.472C165.335 163.12 164.583 163.444 163.543 163.444C162.519 163.444 161.775 163.116 161.311 162.46C160.847 161.804 160.615 160.868 160.615 159.652V158.308C160.615 157.1 160.851 156.168 161.323 155.512C161.795 154.856 162.535 154.528 163.543 154.528C164.567 154.528 165.315 154.856 165.787 155.512C166.259 156.16 166.495 157.092 166.495 158.308V159.652ZM165.631 158.296C165.631 157.224 165.455 156.456 165.103 155.992C164.759 155.52 164.239 155.284 163.543 155.284C162.879 155.284 162.367 155.52 162.007 155.992C161.655 156.464 161.479 157.232 161.479 158.296V159.664C161.479 160.736 161.655 161.508 162.007 161.98C162.367 162.452 162.879 162.688 163.543 162.688C164.231 162.688 164.751 162.456 165.103 161.992C165.455 161.52 165.631 160.744 165.631 159.664V158.296ZM175.575 155.032V153.664H176.403V161.512H175.575V157.756H172.263V157.024H175.575V155.764H172.263V155.032H175.575ZM168.915 154.3V159.052C169.499 159.052 170.011 159.048 170.451 159.04C170.891 159.032 171.303 159.02 171.687 159.004C172.079 158.98 172.463 158.952 172.839 158.92C173.215 158.88 173.631 158.828 174.087 158.764L174.183 159.52C173.711 159.584 173.279 159.636 172.887 159.676C172.495 159.716 172.079 159.748 171.639 159.772C171.199 159.788 170.695 159.8 170.127 159.808C169.567 159.816 168.879 159.82 168.063 159.82V154.3H168.915ZM170.523 163.756H176.679V164.5H169.671V161.068H170.523V163.756ZM186.629 159.844V164.608H180.041V159.844H180.869V161.392H185.801V159.844H186.629ZM185.801 163.852V162.136H180.869V163.852H185.801ZM179.525 154.264V157.864C180.109 157.864 180.621 157.86 181.061 157.852C181.501 157.844 181.913 157.832 182.297 157.816C182.689 157.792 183.073 157.764 183.449 157.732C183.825 157.692 184.241 157.64 184.697 157.576L184.793 158.332C184.321 158.396 183.889 158.448 183.497 158.488C183.105 158.528 182.689 158.56 182.249 158.584C181.809 158.6 181.305 158.612 180.737 158.62C180.177 158.628 179.489 158.632 178.673 158.632V154.264H179.525ZM186.629 156.04H188.309V156.784H186.629V159.196H185.789V153.664H186.629V156.04Z" fill="#8A8989"/>
<path d="M84 152V166" stroke="#DCDCDC"/>
<path d="M147 152V166" stroke="#DCDCDC"/>
<path d="M33.608 67.208H38.312V64.256H41.384V67.208H45.872V69.8H41.384V71.648C41.384 72.112 41.416 72.536 41.48 72.92C41.544 73.304 41.64 73.672 41.768 74.024C41.912 74.36 42.096 74.688 42.32 75.008C42.544 75.328 42.816 75.664 43.136 76.016C43.344 76.256 43.584 76.52 43.856 76.808C44.144 77.08 44.44 77.368 44.744 77.672C45.048 77.96 45.352 78.256 45.656 78.56C45.976 78.848 46.288 79.128 46.592 79.4L44.648 81.416C44.136 80.936 43.624 80.448 43.112 79.952C42.6 79.44 42.12 78.952 41.672 78.488C41.192 77.992 40.792 77.568 40.472 77.216C40.168 76.848 39.976 76.568 39.896 76.376H39.848C39.736 76.6 39.504 76.92 39.152 77.336C38.8 77.752 38.424 78.168 38.024 78.584C37.576 79.048 37.112 79.528 36.632 80.024C36.152 80.504 35.576 81.048 34.904 81.656L32.912 79.616C34.224 78.448 35.408 77.288 36.464 76.136C36.816 75.736 37.112 75.368 37.352 75.032C37.592 74.696 37.784 74.36 37.928 74.024C38.072 73.672 38.168 73.312 38.216 72.944C38.28 72.56 38.312 72.128 38.312 71.648V69.8H33.608V67.208ZM51.488 86.456H48.44V64.136H51.488V86.456ZM71.7718 72.056H74.8438V74.696H71.7718V86.456H68.7238V64.136H71.7718V72.056ZM60.4198 81.2C59.4118 81.2 58.5478 81.04 57.8278 80.72C57.1078 80.4 56.5078 79.952 56.0278 79.376C55.5638 78.8 55.2198 78.12 54.9958 77.336C54.7878 76.552 54.6838 75.688 54.6838 74.744V72.08C54.6838 71.152 54.7878 70.296 54.9958 69.512C55.2198 68.712 55.5638 68.024 56.0278 67.448C56.5078 66.872 57.1078 66.424 57.8278 66.104C58.5478 65.784 59.4118 65.624 60.4198 65.624C61.4278 65.624 62.2918 65.784 63.0118 66.104C63.7318 66.424 64.3238 66.872 64.7878 67.448C65.2678 68.024 65.6118 68.712 65.8198 69.512C66.0438 70.296 66.1558 71.152 66.1558 72.08V74.744C66.1558 75.688 66.0438 76.552 65.8198 77.336C65.6118 78.12 65.2678 78.8 64.7878 79.376C64.3238 79.952 63.7318 80.4 63.0118 80.72C62.2918 81.04 61.4278 81.2 60.4198 81.2ZM60.4198 68.288C59.4118 68.288 58.6838 68.64 58.2358 69.344C57.8038 70.048 57.5878 71.08 57.5878 72.44V74.384C57.5878 75.744 57.8038 76.776 58.2358 77.48C58.6838 78.184 59.4118 78.536 60.4198 78.536C61.4278 78.536 62.1478 78.184 62.5798 77.48C63.0278 76.776 63.2518 75.744 63.2518 74.384V72.44C63.2518 71.08 63.0278 70.048 62.5798 69.344C62.1478 68.64 61.4278 68.288 60.4198 68.288ZM87.1595 77.432V81.08H95.8715V83.648H75.4235V81.08H84.1355V77.432H78.1835V65.672H81.2075V69.248H90.0875V65.672H93.1115V77.432H87.1595ZM90.0875 74.888V71.816H81.2075V74.888H90.0875ZM101.131 78.608H115.315V86.48H101.131V78.608ZM103.363 77.432C102.515 77.432 101.763 77.344 101.107 77.168C100.451 76.976 99.8992 76.72 99.4512 76.4C99.0032 76.08 98.6592 75.696 98.4192 75.248C98.1792 74.8 98.0592 74.32 98.0592 73.808V73.088C98.0592 72.576 98.1792 72.104 98.4192 71.672C98.6592 71.224 99.0032 70.84 99.4512 70.52C99.8992 70.184 100.451 69.928 101.107 69.752C101.763 69.56 102.515 69.464 103.363 69.464C104.195 69.464 104.939 69.56 105.595 69.752C106.267 69.928 106.827 70.184 107.275 70.52C107.723 70.84 108.067 71.224 108.307 71.672C108.547 72.104 108.667 72.576 108.667 73.088V73.808C108.667 74.32 108.547 74.8 108.307 75.248C108.067 75.696 107.723 76.08 107.275 76.4C106.827 76.72 106.267 76.976 105.595 77.168C104.939 77.344 104.195 77.432 103.363 77.432ZM112.291 73.616H109.603V71.024H112.291V64.136H115.315V77.6H112.291V73.616ZM104.851 66.248H109.795V68.768H96.9312V66.248H101.827V63.848H104.851V66.248ZM104.131 84.008H112.315V81.08H104.131V84.008ZM103.363 71.816C102.547 71.816 101.931 71.968 101.515 72.272C101.115 72.56 100.915 72.88 100.915 73.232V73.664C100.915 74.016 101.115 74.344 101.515 74.648C101.931 74.936 102.547 75.08 103.363 75.08C104.179 75.08 104.787 74.936 105.187 74.648C105.603 74.344 105.811 74.016 105.811 73.664V73.232C105.811 72.88 105.603 72.56 105.187 72.272C104.787 71.968 104.179 71.816 103.363 71.816Z" fill="black"/>
<path d="M41.758 114.96V102.052H43.144V114.96H41.758ZM33.386 111.572V103.102H34.758V106.154H38.02V103.102H39.392V111.572H33.386ZM34.758 110.382H38.02V107.33H34.758V110.382ZM55.0602 110.592V114.988H46.6042V110.592H47.9762V111.6H53.6882V110.592H55.0602ZM50.8322 108.366C50.2722 108.366 49.7542 108.329 49.2782 108.254C48.8022 108.179 48.3915 108.072 48.0462 107.932C47.7009 107.783 47.4302 107.605 47.2342 107.4C47.0382 107.185 46.9402 106.938 46.9402 106.658V106.28C46.9402 106 47.0382 105.753 47.2342 105.538C47.4302 105.323 47.7009 105.146 48.0462 105.006C48.3915 104.857 48.8022 104.745 49.2782 104.67C49.7542 104.595 50.2722 104.558 50.8322 104.558C51.3922 104.558 51.9102 104.595 52.3862 104.67C52.8622 104.745 53.2729 104.857 53.6182 105.006C53.9635 105.146 54.2342 105.323 54.4302 105.538C54.6262 105.753 54.7242 106 54.7242 106.28V106.658C54.7242 106.938 54.6262 107.185 54.4302 107.4C54.2342 107.605 53.9635 107.783 53.6182 107.932C53.2729 108.072 52.8622 108.179 52.3862 108.254C51.9102 108.329 51.3922 108.366 50.8322 108.366ZM56.7542 108.87V110.018H44.9102V108.87H56.7542ZM46.1282 103.004H50.1322V101.814H51.5182V103.004H55.5362V104.138H46.1282V103.004ZM50.8322 105.664C50.0389 105.664 49.4182 105.734 48.9702 105.874C48.5315 106.005 48.3122 106.182 48.3122 106.406V106.518C48.3122 106.742 48.5315 106.924 48.9702 107.064C49.4182 107.195 50.0389 107.26 50.8322 107.26C51.6255 107.26 52.2415 107.195 52.6802 107.064C53.1282 106.924 53.3522 106.742 53.3522 106.518V106.406C53.3522 106.182 53.1282 106.005 52.6802 105.874C52.2415 105.734 51.6255 105.664 50.8322 105.664ZM53.6882 113.812V112.734H47.9762V113.812H53.6882ZM60.8584 102.514C61.3904 102.514 61.857 102.603 62.2584 102.78C62.6597 102.957 62.9957 103.191 63.2664 103.48C63.5464 103.76 63.7517 104.077 63.8824 104.432C64.0224 104.787 64.0924 105.137 64.0924 105.482V106.196C64.0924 106.541 64.0224 106.891 63.8824 107.246C63.7517 107.601 63.5464 107.923 63.2664 108.212C62.9957 108.492 62.6597 108.721 62.2584 108.898C61.857 109.075 61.3904 109.164 60.8584 109.164C60.3264 109.164 59.8597 109.075 59.4584 108.898C59.057 108.721 58.7164 108.492 58.4364 108.212C58.1657 107.923 57.9604 107.601 57.8204 107.246C57.6897 106.891 57.6244 106.541 57.6244 106.196V105.482C57.6244 105.137 57.6897 104.787 57.8204 104.432C57.9604 104.077 58.1657 103.76 58.4364 103.48C58.7164 103.191 59.057 102.957 59.4584 102.78C59.8597 102.603 60.3264 102.514 60.8584 102.514ZM66.7944 111.264V108.072H64.7644V106.882H66.7944V104.964H64.7644V103.774H66.7944V102.052H68.1524V111.264H66.7944ZM61.4744 113.616H68.4604V114.82H60.0884V110.536H61.4744V113.616ZM60.8584 107.946C61.1664 107.946 61.437 107.89 61.6704 107.778C61.913 107.666 62.1137 107.526 62.2724 107.358C62.4404 107.181 62.5664 106.98 62.6504 106.756C62.7344 106.532 62.7764 106.308 62.7764 106.084V105.594C62.7764 105.37 62.7344 105.146 62.6504 104.922C62.5664 104.698 62.4404 104.502 62.2724 104.334C62.1137 104.157 61.913 104.012 61.6704 103.9C61.437 103.788 61.1664 103.732 60.8584 103.732C60.5504 103.732 60.275 103.788 60.0324 103.9C59.799 104.012 59.5984 104.157 59.4304 104.334C59.2717 104.502 59.1504 104.698 59.0664 104.922C58.9824 105.146 58.9404 105.37 58.9404 105.594V106.084C58.9404 106.308 58.9824 106.532 59.0664 106.756C59.1504 106.98 59.2717 107.181 59.4304 107.358C59.5984 107.526 59.799 107.666 60.0324 107.778C60.275 107.89 60.5504 107.946 60.8584 107.946ZM79.1446 114.96V102.052H80.5306V114.96H79.1446ZM73.8806 108.506C73.8152 108.665 73.7172 108.823 73.5866 108.982C73.4652 109.141 73.2926 109.341 73.0686 109.584C72.7792 109.901 72.4479 110.247 72.0746 110.62C71.7012 110.984 71.2766 111.385 70.8006 111.824L69.8906 110.886C70.7399 110.13 71.4772 109.407 72.1026 108.716C72.3172 108.473 72.4946 108.249 72.6346 108.044C72.7746 107.839 72.8819 107.638 72.9566 107.442C73.0406 107.237 73.0966 107.031 73.1246 106.826C73.1619 106.611 73.1806 106.378 73.1806 106.126V102.976H74.5806V106.126C74.5806 106.406 74.5992 106.658 74.6366 106.882C74.6739 107.097 74.7346 107.307 74.8186 107.512C74.9026 107.708 75.0146 107.909 75.1546 108.114C75.3039 108.31 75.4859 108.525 75.7006 108.758C75.9992 109.085 76.3119 109.407 76.6386 109.724C76.9652 110.032 77.3386 110.373 77.7586 110.746L76.8626 111.698C76.3772 111.25 75.9666 110.863 75.6306 110.536C75.3039 110.2 75.0052 109.887 74.7346 109.598C74.5386 109.383 74.3612 109.183 74.2026 108.996C74.0532 108.809 73.9506 108.646 73.8946 108.506H73.8806Z" fill="black"/>
<path d="M69 0.5L75.5 13H68.5L69 0.5Z" fill="#977558"/>
<path d="M35 4C35 1.79086 36.7909 0 39 0H69V33.075L35 42V4Z" fill="#4D4135"/>
<path d="M44.056 18.512C44.3867 18.1707 44.648 17.872 44.84 17.616C45.032 17.36 45.176 17.1307 45.272 16.928C45.368 16.7253 45.4267 16.5387 45.448 16.368C45.4693 16.1973 45.48 16.032 45.48 15.872V15.744C45.48 15.4347 45.352 15.1573 45.096 14.912C44.8507 14.656 44.4293 14.528 43.832 14.528C43.6187 14.528 43.4053 14.5493 43.192 14.592C42.9893 14.6347 42.7867 14.7147 42.584 14.832C42.3813 14.9493 42.1787 15.1147 41.976 15.328C41.784 15.5413 41.592 15.8133 41.4 16.144L39.864 15.136C40.0027 14.8907 40.1733 14.624 40.376 14.336C40.5893 14.048 40.8507 13.7867 41.16 13.552C41.48 13.3067 41.8533 13.104 42.28 12.944C42.7173 12.784 43.2293 12.704 43.816 12.704C44.4667 12.704 45.0267 12.784 45.496 12.944C45.9653 13.104 46.3493 13.3227 46.648 13.6C46.9573 13.8667 47.1813 14.1813 47.32 14.544C47.4693 14.896 47.544 15.2693 47.544 15.664V15.824C47.544 16.4533 47.4 17.056 47.112 17.632C46.8347 18.1973 46.424 18.752 45.88 19.296L42.488 22.72H47.976V24.416H39.816V22.88L44.056 18.512ZM53.9939 18.24C53.3965 18.24 52.8579 18.1653 52.3779 18.016C51.9085 17.856 51.5032 17.6427 51.1619 17.376C50.8205 17.0987 50.5592 16.7787 50.3779 16.416C50.1965 16.0427 50.1059 15.648 50.1059 15.232V14.72C50.1059 14.304 50.1965 13.9147 50.3779 13.552C50.5592 13.1787 50.8205 12.8587 51.1619 12.592C51.5032 12.3147 51.9085 12.1013 52.3779 11.952C52.8579 11.792 53.3965 11.712 53.9939 11.712C54.5805 11.712 55.1139 11.792 55.5939 11.952C56.0739 12.1013 56.4845 12.3147 56.8259 12.592C57.1672 12.8587 57.4285 13.1787 57.6099 13.552C57.7912 13.9147 57.8819 14.304 57.8819 14.72V15.232C57.8819 15.648 57.7912 16.0427 57.6099 16.416C57.4285 16.7787 57.1672 17.0987 56.8259 17.376C56.4845 17.6427 56.0739 17.856 55.5939 18.016C55.1139 18.1653 54.5805 18.24 53.9939 18.24ZM61.6419 26.304H59.6419V11.424H61.6419V26.304ZM49.3699 19.296C50.5965 19.296 51.6899 19.2907 52.6499 19.28C53.6205 19.2693 54.4845 19.2533 55.2419 19.232C56.0099 19.2107 56.6872 19.184 57.2739 19.152C57.8605 19.12 58.3939 19.0773 58.8739 19.024L59.0179 20.736C58.5272 20.8 57.9565 20.8533 57.3059 20.896C56.6552 20.928 55.8979 20.9547 55.0339 20.976V25.872H53.0339V21.008C52.4899 21.0187 51.9139 21.024 51.3059 21.024C50.7085 21.024 50.0632 21.024 49.3699 21.024V19.296ZM53.9939 13.376C53.7059 13.376 53.4392 13.4187 53.1939 13.504C52.9485 13.5787 52.7352 13.6853 52.5539 13.824C52.3832 13.952 52.2499 14.1067 52.1539 14.288C52.0579 14.4587 52.0099 14.64 52.0099 14.832V15.12C52.0099 15.312 52.0579 15.4987 52.1539 15.68C52.2499 15.8507 52.3832 16.0053 52.5539 16.144C52.7352 16.272 52.9485 16.3787 53.1939 16.464C53.4392 16.5387 53.7059 16.576 53.9939 16.576C54.2819 16.576 54.5485 16.5387 54.7939 16.464C55.0392 16.3787 55.2472 16.272 55.4179 16.144C55.5992 16.0053 55.7379 15.8507 55.8339 15.68C55.9299 15.4987 55.9779 15.312 55.9779 15.12V14.832C55.9779 14.64 55.9299 14.4587 55.8339 14.288C55.7379 14.1067 55.5992 13.952 55.4179 13.824C55.2472 13.6853 55.0392 13.5787 54.7939 13.504C54.5485 13.4187 54.2819 13.376 53.9939 13.376Z" fill="white"/>
<defs>
<filter id="filter0_d_1_2" x="0" y="3" width="330" height="208" filterUnits="userSpaceOnUse" color-interpolation-filters="sRGB">
<feFlood flood-opacity="0" result="BackgroundImageFix"/>
<feColorMatrix in="SourceAlpha" type="matrix" values="0 0 0 0 0 0 0 0 0 0 0 0 0 0 0 0 0 0 127 0" result="hardAlpha"/>
<feOffset dy="3"/>
<feGaussianBlur stdDeviation="6"/>
<feComposite in2="hardAlpha" operator="out"/>
<feColorMatrix type="matrix" values="0 0 0 0 0 0 0 0 0 0 0 0 0 0 0 0 0 0 0.13 0"/>
<feBlend mode="normal" in2="BackgroundImageFix" result="effect1_dropShadow_1_2"/>
<feBlend mode="normal" in="SourceGraphic" in2="effect1_dropShadow_1_2" result="shape"/>
</filter>
</defs>
</svg>
