<svg width="288" height="52" viewBox="0 0 288 52" fill="none" xmlns="http://www.w3.org/2000/svg">
<path d="M8.63281 4.94141C12.4609 4.94141 15.3125 6.875 15.332 9.80469C15.3125 12.4805 13.0566 14.2871 9.86328 14.6484V17.6758H16.7969V19.7266H0.527344V17.6758H7.38281V14.6289C4.19922 14.2871 1.95312 12.4707 1.95312 9.80469C1.95312 6.875 4.80469 4.94141 8.63281 4.94141ZM8.63281 6.93359C6.15234 6.93359 4.41406 8.02734 4.41406 9.80469C4.41406 11.6797 6.15234 12.7344 8.63281 12.7344C11.1328 12.7344 12.8516 11.6797 12.8711 9.80469C12.8516 8.02734 11.1328 6.93359 8.63281 6.93359ZM31.7875 7.61719V9.58984H19.4242V4.23828H21.9047V7.61719H31.7875ZM33.6625 10.7812V12.7539H17.393V10.7812H33.6625ZM31.7094 13.8281V18.5547H21.7875V19.6875H32.2563V21.6016H19.2875V16.7578H29.2289V15.7422H19.2484V13.8281H31.7094ZM53.4875 4.04297V17.5781H51.007V14.2188H48.6047V12.2461H51.007V10.4688H48.6047V8.45703H51.007V4.04297H53.4875ZM48.4289 5.89844V7.87109H38.5461V5.89844H42.3742V4.00391H44.8547V5.89844H48.4289ZM43.5852 8.49609C46.0266 8.49609 47.7844 9.94141 47.8039 11.9922C47.7844 14.043 46.0266 15.4688 43.5852 15.4688C41.1633 15.4688 39.4055 14.043 39.425 11.9922C39.4055 9.94141 41.1633 8.49609 43.5852 8.49609ZM43.5852 10.4297C42.4914 10.4492 41.7297 10.9961 41.7492 11.9922C41.7297 13.0078 42.4914 13.5742 43.5852 13.5742C44.6594 13.5742 45.4406 13.0078 45.4602 11.9922C45.4406 10.9961 44.6594 10.4492 43.5852 10.4297ZM53.8586 19.4922V21.4844H41.6516V16.4258H44.1711V19.4922H53.8586ZM70.9 4.02344V21.7969H68.5172V12.8906H67.0133V20.9766H64.65V15.8789L63.2438 17.7539C61.5934 16.8848 60.5289 15.4102 59.9039 13.5742C59.3082 15.6836 58.2535 17.3926 56.5641 18.3984L55.0211 16.4844C57.7164 14.9609 58.6344 11.8164 58.6344 8.41797V7.85156H55.6266V5.85938H63.7711V7.85156H61.0563V8.41797C61.0563 11.5137 61.9742 14.4629 64.65 15.8398V4.27734H67.0133V10.8594H68.5172V4.02344H70.9ZM82.307 20.1953C79.2016 20.1953 76.975 18.4766 76.9164 16.0156H79.8852C79.9437 17.0703 80.9594 17.7734 82.3266 17.7734C83.7328 17.7734 84.7484 16.9727 84.7289 15.8398C84.7484 14.6875 83.7133 13.8672 82.0531 13.8672H80.7445V11.6992H82.0531C83.4398 11.6992 84.4164 10.9375 84.4164 9.82422C84.4164 8.75 83.5961 8.00781 82.3461 8.00781C81.0961 8.00781 80.0609 8.71094 80.0219 9.78516H77.2094C77.2484 7.34375 79.4555 5.66406 82.3461 5.66406C85.2953 5.66406 87.268 7.40234 87.2484 9.64844C87.268 11.2305 86.1547 12.3633 84.5727 12.6367V12.7539C86.643 13.0078 87.7953 14.2773 87.7758 16.0352C87.7953 18.457 85.4906 20.1953 82.307 20.1953ZM94.9344 20.1953C91.3992 20.1953 89.2508 17.5586 89.2508 12.9297C89.2508 8.30078 91.3992 5.66406 94.9344 5.66406C98.4695 5.66406 100.618 8.32031 100.618 12.9297C100.618 17.5781 98.4695 20.1953 94.9344 20.1953ZM94.9344 17.7734C96.575 17.7734 97.6297 16.1914 97.6102 12.9297C97.6102 9.70703 96.575 8.06641 94.9344 8.06641C93.2937 8.06641 92.2586 9.70703 92.2586 12.9297C92.2391 16.1914 93.2937 17.7734 94.9344 17.7734ZM117.034 4.02344V21.7969H114.671V12.8711H112.952V20.9375H110.667V4.31641H112.952V10.8789H114.671V4.02344H117.034ZM108.792 6.07422V8.08594H104.671V15.6641C106.39 15.6543 107.913 15.5664 109.632 15.2539L109.808 17.2852C107.64 17.6953 105.745 17.7539 103.402 17.7734H102.171V6.07422H108.792ZM138.969 12.0898V14.1016H132.094V15.4102C135.189 15.6445 137.016 16.7578 137.035 18.5938C137.016 20.6445 134.691 21.7969 130.844 21.7969C126.938 21.7969 124.613 20.6445 124.613 18.5938C124.613 16.748 126.459 15.6348 129.613 15.4102V14.1016H122.758V12.0898H138.969ZM130.844 17.2461C128.383 17.2656 127.133 17.6953 127.152 18.5938C127.133 19.4531 128.383 19.9219 130.844 19.9219C133.246 19.9219 134.516 19.4531 134.535 18.5938C134.516 17.6953 133.246 17.2656 130.844 17.2461ZM137.504 4.78516V6.73828H132.68C133.1 7.98828 134.906 9.18945 138.285 9.47266L137.406 11.4258C134.057 11.1035 131.791 9.83398 130.844 8.10547C129.906 9.83398 127.68 11.1035 124.301 11.4258L123.48 9.47266C126.771 9.18945 128.588 7.97852 129.047 6.73828H124.242V4.78516H137.504Z" fill="#0F0E0E"/>
<path d="M7.01172 32.8164C7.01172 34.9648 8.26172 37.0352 11.0742 37.9141L9.74609 39.8477C7.86133 39.2227 6.54297 38.0117 5.78125 36.4492C5.00977 38.2461 3.63281 39.6523 1.60156 40.3359L0.253906 38.3828C3.22266 37.3867 4.49219 35.0234 4.51172 32.582V30.9609H7.01172V32.8164ZM14.6289 30.0234V34.1836H17.0312V36.2539H14.6289V40.5703H12.1289V30.0234H14.6289ZM8.80859 40.9219C12.4805 40.9219 14.8047 42.1914 14.8047 44.3594C14.8047 46.5469 12.4805 47.7969 8.80859 47.7969C5.05859 47.7969 2.71484 46.5469 2.71484 44.3594C2.71484 42.1914 5.05859 40.9219 8.80859 40.9219ZM8.80859 42.875C6.46484 42.875 5.19531 43.3828 5.21484 44.3594C5.19531 45.375 6.46484 45.8438 8.80859 45.8438C11.1133 45.8438 12.3438 45.375 12.3438 44.3594C12.3438 43.3828 11.1133 42.875 8.80859 42.875ZM23.2133 30.7656C25.9281 30.7461 27.9008 32.2891 27.9008 34.5352C27.9008 36.7617 25.9281 38.3242 23.2133 38.3047C20.4984 38.3242 18.5258 36.7617 18.5453 34.5352C18.5258 32.2891 20.4984 30.7461 23.2133 30.7656ZM23.2133 32.7578C21.8852 32.7578 20.9477 33.4023 20.9477 34.5352C20.9477 35.6484 21.8852 36.293 23.2133 36.2734C24.5805 36.293 25.5375 35.6484 25.5375 34.5352C25.5375 33.4023 24.5805 32.7578 23.2133 32.7578ZM32.393 30.043V47.7969H29.932V30.043H32.393ZM17.4516 39.3984C20.5961 39.3984 25.0688 39.3203 28.8578 38.7539L29.0141 40.5898C27.5492 40.8828 26.0453 41.0684 24.5609 41.1758V47.2695H22.0805V41.332C20.518 41.4004 19.0434 41.4102 17.7641 41.4297L17.4516 39.3984ZM44.2883 46.1953C41.3391 46.1953 39.1906 44.457 39.132 42.0156H41.9836C42.0422 43.1289 43.0578 43.8711 44.2883 43.8711C45.7531 43.8711 46.7883 42.8359 46.7883 41.3711C46.7883 39.8672 45.7336 38.832 44.2492 38.8125C43.1945 38.8125 42.4523 39.2031 42.0227 40.0039H39.3664L40.1281 31.8594H48.8391V34.2617H42.55L42.1594 37.8359H42.2766C42.8039 37.1328 43.8586 36.6445 45.1086 36.6445C47.7062 36.6445 49.6398 38.5781 49.6398 41.293C49.6398 44.1445 47.4719 46.1953 44.2883 46.1953ZM50.9977 43.5V41.1758L56.9742 31.8594H60.6656V41.1367H62.4625V43.5H60.6656V46H57.8727V43.5H50.9977ZM53.9664 41.1367H57.9117V35.082H57.775L53.9664 41.0195V41.1367ZM67.6875 38.9297C65.5781 38.9297 64.4258 37.3867 64.4258 35.1602C64.4258 32.9141 65.6172 31.3711 67.6875 31.3711C69.8164 31.3711 70.9297 32.9141 70.9492 35.1602C70.9297 37.4062 69.7773 38.9297 67.6875 38.9297ZM67.6875 37.1914C68.5273 37.1914 68.9375 36.3711 68.957 35.1602C68.9375 33.9492 68.5664 33.1094 67.6875 33.1094C66.8477 33.1094 66.418 33.9688 66.418 35.1602C66.418 36.3711 66.8672 37.1914 67.6875 37.1914ZM77.2188 46.4688C75.1289 46.4688 73.9766 44.9258 73.9766 42.6992C73.9766 40.4531 75.168 38.9102 77.2188 38.9102C79.3477 38.9102 80.4805 40.4531 80.5 42.6992C80.4805 44.9453 79.3281 46.4688 77.2188 46.4688ZM77.2188 44.7305C78.0781 44.7305 78.4883 43.9297 78.5078 42.6992C78.4883 41.4883 78.1172 40.6484 77.2188 40.668C76.3984 40.668 75.9688 41.5078 75.9688 42.6992C75.9688 43.9297 76.418 44.7305 77.2188 44.7305ZM66.457 46L76.1836 31.8594H78.3711L68.6445 46H66.457Z" fill="#F58220"/>
<path d="M142.986 47V46.2188L145.438 43.748C146.209 42.9375 146.6 42.4883 146.6 41.873C146.6 41.1797 146.033 40.7305 145.291 40.7305C144.51 40.7305 144.002 41.2285 144.002 41.9805H142.986C142.977 40.6914 143.963 39.832 145.311 39.832C146.678 39.832 147.615 40.6914 147.625 41.8438C147.615 42.6348 147.244 43.2598 145.916 44.5684L144.48 46.0234V46.082H147.742V47H142.986ZM151.195 47.0977C149.554 47.0977 148.597 45.7793 148.597 43.4648C148.597 41.1699 149.573 39.832 151.195 39.832C152.816 39.832 153.792 41.1699 153.792 43.4648C153.792 45.7793 152.825 47.0977 151.195 47.0977ZM151.195 46.1699C152.152 46.1699 152.718 45.2324 152.718 43.4648C152.718 41.707 152.142 40.7402 151.195 40.7402C150.247 40.7402 149.671 41.707 149.671 43.4648C149.671 45.2324 150.238 46.1699 151.195 46.1699ZM154.705 47V46.2188L157.157 43.748C157.928 42.9375 158.319 42.4883 158.319 41.873C158.319 41.1797 157.752 40.7305 157.01 40.7305C156.229 40.7305 155.721 41.2285 155.721 41.9805H154.705C154.696 40.6914 155.682 39.832 157.03 39.832C158.397 39.832 159.334 40.6914 159.344 41.8438C159.334 42.6348 158.963 43.2598 157.635 44.5684L156.2 46.0234V46.082H159.461V47H154.705ZM160.14 45.623V44.7539L163.265 39.9297H164.593V44.7148H165.56V45.623H164.593V47H163.578V45.623H160.14ZM161.273 44.7148H163.578V41.209H163.5L161.273 44.6562V44.7148ZM173.436 39.0898V45.5547H172.509V42.5762H170.106V41.834H172.509V40.916H170.106V40.1738H172.509V39.0898H173.436ZM173.661 46.8926V47.6445H167.733V44.9883H168.671V46.8926H173.661ZM167.577 39.6953V43.5234C168.739 43.5234 169.843 43.4502 171.093 43.2207L171.19 43.9824C169.804 44.2461 168.622 44.2949 167.333 44.3047H166.659V39.6953H167.577ZM179.814 39.9297V47H178.73V41.0039H178.691L177.001 42.1074V41.082L178.759 39.9297H179.814ZM183.871 47.0977C182.231 47.0977 181.274 45.7793 181.274 43.4648C181.274 41.1699 182.25 39.832 183.871 39.832C185.493 39.832 186.469 41.1699 186.469 43.4648C186.469 45.7793 185.502 47.0977 183.871 47.0977ZM183.871 46.1699C184.829 46.1699 185.395 45.2324 185.395 43.4648C185.395 41.707 184.819 40.7402 183.871 40.7402C182.924 40.7402 182.348 41.707 182.348 43.4648C182.348 45.2324 182.914 46.1699 183.871 46.1699ZM194.355 39.0898V44.2168H193.427V43.7969H191.718V43.2109H193.427V39.0898H194.355ZM187.06 42.3125C188.75 42.3223 190.898 42.3027 192.783 42.0977L192.832 42.6934C192.006 42.8057 191.152 42.874 190.312 42.918V44.2363H189.394V42.957C188.603 42.9766 187.851 42.9814 187.168 42.9766L187.06 42.3125ZM194.355 44.5098V46.3945H189.316V47.0684H194.619V47.7422H188.408V45.7793H193.437V45.1543H188.369V44.5098H194.355ZM189.902 39.2363C191.201 39.2363 192.08 39.7539 192.089 40.5547C192.08 41.375 191.201 41.8633 189.902 41.8633C188.574 41.8633 187.705 41.375 187.714 40.5547C187.705 39.7539 188.574 39.2363 189.902 39.2363ZM189.902 39.8613C189.091 39.8613 188.584 40.1348 188.584 40.5547C188.584 40.9746 189.091 41.2383 189.902 41.2383C190.693 41.2383 191.211 40.9746 191.211 40.5547C191.211 40.1348 190.693 39.8613 189.902 39.8613ZM198.066 47V46.2188L200.518 43.748C201.289 42.9375 201.68 42.4883 201.68 41.873C201.68 41.1797 201.113 40.7305 200.371 40.7305C199.59 40.7305 199.082 41.2285 199.082 41.9805H198.066C198.057 40.6914 199.043 39.832 200.391 39.832C201.758 39.832 202.695 40.6914 202.705 41.8438C202.695 42.6348 202.324 43.2598 200.996 44.5684L199.561 46.0234V46.082H202.822V47H198.066ZM206.245 39.832C207.544 39.8418 208.911 40.623 208.911 43.2109C208.911 45.6914 207.847 47.0977 206.148 47.0977C204.849 47.0977 203.931 46.2969 203.765 45.1445H204.829C204.976 45.7402 205.435 46.1602 206.148 46.1602C207.241 46.1602 207.876 45.2031 207.886 43.5918H207.798C207.417 44.1875 206.753 44.5488 205.991 44.5488C204.722 44.5488 203.706 43.582 203.706 42.2246C203.706 40.877 204.712 39.8223 206.245 39.832ZM206.245 40.7305C205.386 40.7305 204.751 41.3945 204.751 42.2051C204.751 43.0254 205.366 43.6699 206.226 43.6699C207.075 43.6699 207.739 42.9766 207.739 42.1953C207.739 41.4336 207.114 40.7305 206.245 40.7305ZM212.022 39.373C213.34 39.3828 214.307 40.1934 214.317 41.3359C214.307 42.4883 213.34 43.2891 212.022 43.2891C210.694 43.2891 209.717 42.4883 209.717 41.3359C209.717 40.1934 210.694 39.3828 212.022 39.373ZM212.022 40.1543C211.211 40.1445 210.616 40.623 210.625 41.3359C210.616 42.0586 211.211 42.5371 212.022 42.5371C212.823 42.5371 213.418 42.0586 213.418 41.3359C213.418 40.623 212.823 40.1445 212.022 40.1543ZM216.797 39.0801V43.5332H215.87V39.0801H216.797ZM216.797 43.9336V46.1406H211.973V46.9805H217.09V47.7227H211.075V45.4473H215.879V44.6758H211.045V43.9336H216.797ZM227.52 39.0898V45.5352H226.593V42.498H224.776V41.7266H226.593V39.0898H227.52ZM224.835 39.7441C224.825 42.0293 223.253 43.748 220.743 44.5586L220.352 43.8164C222.301 43.1865 223.624 41.9951 223.819 40.5156H220.802V39.7441H224.835ZM227.745 46.8926V47.6445H221.886V44.8711H222.823V46.8926H227.745ZM235.543 39.0801V41.2871H236.812V42.0391H235.543V44.2754H234.615V39.0801H235.543ZM233.141 39.7051C233.141 41.9707 231.607 43.6016 229.039 44.3438L228.658 43.5918C230.704 43.0107 231.969 41.873 232.135 40.457H229.049V39.7051H233.141ZM232.75 44.373C234.518 44.373 235.641 45.0273 235.641 46.0918C235.641 47.166 234.518 47.8203 232.75 47.8203C230.992 47.8203 229.84 47.166 229.85 46.0918C229.84 45.0273 230.992 44.373 232.75 44.373ZM232.75 45.1055C231.529 45.1055 230.758 45.4766 230.768 46.0918C230.758 46.707 231.529 47.0879 232.75 47.0879C233.961 47.0879 234.732 46.707 234.732 46.0918C234.732 45.4766 233.961 45.1055 232.75 45.1055ZM241.632 39.627C241.632 41.8535 240.109 43.4355 237.57 44.1484L237.189 43.4258C239.205 42.8594 240.46 41.7656 240.646 40.3887H237.648V39.627H241.632ZM244.405 39.0898V44.041H243.478V42.0488H241.671V41.2773H243.478V39.0898H244.405ZM244.405 44.4023V47.7129H238.683V44.4023H244.405ZM239.591 45.1445V46.9707H243.488V45.1445H239.591ZM248.795 40.9062C248.795 42.0391 249.635 43.1035 250.983 43.5332L250.504 44.2559C249.498 43.9238 248.737 43.2354 248.346 42.3613C247.951 43.3135 247.174 44.0654 246.129 44.4316L245.651 43.6992C247.008 43.2402 247.848 42.1074 247.858 40.9062V40.5254H245.895V39.7734H250.719V40.5254H248.795V40.9062ZM252.809 39.0898V45.4766H251.881V39.0898H252.809ZM253.073 46.8926V47.6445H247.086V44.8711H248.024V46.8926H253.073ZM263.512 39.0801V47.8301H262.575V39.0801H263.512ZM260.905 40.0176C260.905 42.5762 259.811 44.8027 256.813 46.2383L256.325 45.4863C258.654 44.3779 259.787 42.8008 259.968 40.7598H256.745V40.0176H260.905ZM271.945 39.5V40.2422H269.279C269.333 41.1943 270.593 42.0342 272.219 42.2344L271.867 42.9668C270.368 42.7715 269.138 42.0732 268.664 41.0918C268.19 42.0684 266.965 42.7715 265.471 42.9668L265.119 42.2344C266.755 42.0342 268 41.1943 268.049 40.2422H265.412V39.5H271.945ZM272.678 43.5332V44.2852H269.201V45.9844H268.283V44.2852H264.67V43.5332H272.678ZM271.789 46.8926V47.6445H265.666V45.1445H266.594V46.8926H271.789Z" fill="#A5A5A5"/>
<path d="M286 41.5L284 43.5H285.5C285.5 45.155 284.155 46.5 282.5 46.5C281.995 46.5 281.515 46.375 281.1 46.15L280.37 46.88C280.985 47.27 281.715 47.5 282.5 47.5C284.71 47.5 286.5 45.71 286.5 43.5H288L286 41.5ZM279.5 43.5C279.5 41.845 280.845 40.5 282.5 40.5C283.005 40.5 283.485 40.625 283.9 40.85L284.63 40.12C284.015 39.73 283.285 39.5 282.5 39.5C280.29 39.5 278.5 41.29 278.5 43.5H277L279 45.5L281 43.5H279.5Z" fill="#DCDCDC"/>
</svg>
