<svg width="14" height="18" viewBox="0 0 14 18" fill="none" xmlns="http://www.w3.org/2000/svg">
<path d="M11.5388 5.77356L11.5389 5.77365C12.8055 7.07436 13.5 8.81307 13.5 10.6629C13.5 14.4072 10.6101 17.5 7.00018 17.5C4.01573 17.5 1.44072 15.3683 0.708802 12.3596L0.708769 12.3594C0.57079 11.7916 0.5 11.2209 0.5 10.6629C0.5 9.5747 0.741117 8.52634 1.21621 7.55072L1.2163 7.55054C1.68469 6.58967 2.37389 5.74673 3.2126 5.11243L11.5388 5.77356ZM11.5388 5.77356C11.3269 5.55603 11.0211 5.45013 10.7146 5.5032M11.5388 5.77356L10.7146 5.5032M10.141 5.84478C10.106 5.55862 10.0535 5.2712 9.98377 4.9845L9.98375 4.98439C9.5271 3.10802 8.32759 1.51219 6.6812 0.613463L6.68114 0.613429C6.39458 0.45705 6.05015 0.462825 5.76898 0.627901L5.7689 0.627946C5.49061 0.791401 5.32 1.08265 5.29674 1.39478L10.141 5.84478ZM10.141 5.84478C10.2816 5.66855 10.4825 5.54328 10.7146 5.5032M10.141 5.84478L10.7146 5.5032M3.37005 4.9937L3.37005 4.9937C4.4833 4.15234 5.18874 2.84292 5.29674 1.39483L3.37005 4.9937ZM3.37005 4.9937L3.36874 4.9947M3.37005 4.9937L3.36874 4.9947M3.36874 4.9947C3.35405 5.00588 3.33918 5.01737 3.32616 5.02744C3.32307 5.02983 3.32008 5.03214 3.31723 5.03434L3.31711 5.03443M3.36874 4.9947L3.31711 5.03443M3.31711 5.03443C3.28039 5.06281 3.25963 5.07876 3.24247 5.09071L3.24247 5.09071M3.31711 5.03443L3.24247 5.09071M3.24247 5.09071L3.24033 5.09221M3.24247 5.09071L3.24033 5.09221M3.24033 5.09221C3.23259 5.09766 3.22307 5.1045 3.21265 5.11239L3.24033 5.09221Z" stroke="white"/>
</svg>
