<svg width="24" height="24" viewBox="0 0 24 24" fill="none" xmlns="http://www.w3.org/2000/svg">
<path d="M8.60938 21.8988C8.60938 21.2913 9.10243 20.7988 9.71064 20.7988H14.1157C14.7239 20.7988 15.217 21.2913 15.217 21.8988V21.8988C15.217 22.5063 14.7239 22.9987 14.1157 22.9987H9.71064C9.10243 22.9987 8.60938 22.5063 8.60938 21.8988V21.8988Z" fill="#222222"/>
<mask id="path-2-inside-1_1_11" fill="white">
<path fill-rule="evenodd" clip-rule="evenodd" d="M11.9078 1C7.04209 1 3.09766 4.94444 3.09766 9.81015V13.9419C2.42389 14.5461 2 15.4233 2 16.3995C2 18.222 3.47741 19.6994 5.29988 19.6994H18.523C20.3454 19.6994 21.8228 18.222 21.8228 16.3995C21.8228 15.4198 21.3959 14.5398 20.718 13.9355V9.81015C20.718 4.94444 16.7735 1 11.9078 1Z"/>
</mask>
<path d="M3.09766 13.9419L4.43287 15.4309L5.09766 14.8348V13.9419H3.09766ZM20.718 13.9355H18.718V14.8319L19.3871 15.4284L20.718 13.9355ZM5.09766 9.81015C5.09766 6.04901 8.14666 3 11.9078 3V-1C5.93752 -1 1.09766 3.83988 1.09766 9.81015H5.09766ZM5.09766 13.9419V9.81015H1.09766V13.9419H5.09766ZM4 16.3995C4 16.0151 4.16429 15.6718 4.43287 15.4309L1.76244 12.4529C0.683501 13.4204 0 14.8314 0 16.3995H4ZM5.29988 17.6994C4.58197 17.6994 4 17.1174 4 16.3995H0C0 19.3265 2.37284 21.6994 5.29988 21.6994V17.6994ZM18.523 17.6994H5.29988V21.6994H18.523V17.6994ZM19.8228 16.3995C19.8228 17.1174 19.2409 17.6994 18.523 17.6994V21.6994C21.45 21.6994 23.8228 19.3265 23.8228 16.3995H19.8228ZM19.3871 15.4284C19.6574 15.6693 19.8228 16.0138 19.8228 16.3995H23.8228C23.8228 14.8258 23.1344 13.4103 22.0488 12.4425L19.3871 15.4284ZM18.718 9.81015V13.9355H22.718V9.81015H18.718ZM11.9078 3C15.6689 3 18.718 6.04901 18.718 9.81015H22.718C22.718 3.83987 17.8781 -1 11.9078 -1V3Z" fill="#222222" mask="url(#path-2-inside-1_1_11)"/>
</svg>
