<svg width="25" height="27" viewBox="0 0 25 27" fill="none" xmlns="http://www.w3.org/2000/svg">
<path d="M16.2778 20.4444V21.8333C16.2778 22.9384 15.8388 23.9982 15.0574 24.7796C14.276 25.561 13.2162 26 12.1111 26C11.006 26 9.94623 25.561 9.16483 24.7796C8.38343 23.9982 7.94444 22.9384 7.94444 21.8333V20.4444M16.2778 20.4444H7.94444M16.2778 20.4444H21.2639C21.7958 20.4444 22.0625 20.4444 22.2778 20.3722C22.4803 20.3037 22.6642 20.1893 22.8152 20.038C22.9663 19.8867 23.0804 19.7026 23.1486 19.5C23.2222 19.2833 23.2222 19.0167 23.2222 18.4806C23.2222 18.2458 23.2222 18.1292 23.2028 18.0167C23.1686 17.8063 23.0864 17.6067 22.9625 17.4333C22.8958 17.3403 22.8125 17.2569 22.6472 17.0917L22.1056 16.55C22.0192 16.4635 21.9507 16.3609 21.9039 16.2479C21.8572 16.135 21.8332 16.0139 21.8333 15.8917V10.7222C21.8333 9.44548 21.5819 8.18124 21.0933 7.00169C20.6047 5.82213 19.8886 4.75036 18.9858 3.84757C18.083 2.94478 17.0112 2.22865 15.8316 1.74006C14.6521 1.25147 13.3879 1 12.1111 1C10.8344 1 9.57013 1.25147 8.39058 1.74006C7.21102 2.22865 6.13925 2.94478 5.23646 3.84757C4.33367 4.75036 3.61754 5.82213 3.12895 7.00169C2.64036 8.18124 2.38889 9.44548 2.38889 10.7222V15.8917C2.38898 16.0139 2.36498 16.135 2.31827 16.2479C2.27156 16.3609 2.20306 16.4635 2.11667 16.55L1.575 17.0917C1.40833 17.2583 1.32639 17.3403 1.26111 17.4319C1.13615 17.6055 1.05297 17.8056 1.01806 18.0167C1 18.1278 1 18.2458 1 18.4806C1 19.0167 1 19.2833 1.07222 19.5C1.14074 19.7029 1.25525 19.8872 1.4068 20.0385C1.55834 20.1898 1.74283 20.304 1.94583 20.3722C2.16111 20.4444 2.42639 20.4444 2.95833 20.4444H7.94444" stroke="black" stroke-width="2" stroke-linecap="round" stroke-linejoin="round"/>
</svg>
