<svg width="17" height="17" viewBox="0 0 17 17" fill="none" xmlns="http://www.w3.org/2000/svg">
<g clip-path="url(#clip0_321_6435)">
<path d="M1.52221 12.8697C1.33521 12.8697 1.15388 12.7713 1.05683 12.5963C0.366208 11.3496 0 9.93296 0 8.5C0 3.81296 3.81296 0 8.5 0C9.86638 0 11.2214 0.332917 12.4192 0.961917C12.6792 1.09863 12.779 1.4195 12.6423 1.67946C12.507 1.93942 12.1862 2.04 11.9248 1.90258C10.8786 1.35292 9.69496 1.0625 8.5 1.0625C4.39875 1.0625 1.0625 4.39875 1.0625 8.5C1.0625 9.75304 1.38196 10.9912 1.98688 12.0813C2.12854 12.3378 2.03575 12.6615 1.78004 12.8038C1.69788 12.8485 1.60933 12.8697 1.52221 12.8697Z" fill="#565656"/>
<path d="M8.49992 17.0001C6.9253 17.0001 5.38892 16.5652 4.05725 15.7428C3.80721 15.5891 3.73 15.2611 3.88371 15.0118C4.03813 14.7631 4.36609 14.6845 4.61471 14.8389C5.77921 15.5572 7.12292 15.9376 8.49992 15.9376C12.6012 15.9376 15.9374 12.6013 15.9374 8.50007C15.9374 7.12094 15.5578 5.78007 14.8388 4.62265C14.6844 4.37332 14.7616 4.04607 15.0102 3.89094C15.2595 3.73511 15.5868 3.81302 15.7412 4.06236C16.565 5.38765 16.9999 6.92261 16.9999 8.50007C16.9999 13.1871 13.187 17.0001 8.49992 17.0001Z" fill="#565656"/>
<path d="M6.54948 7.97005C6.25623 7.97005 6.01823 7.73205 6.01823 7.4388C6.01823 7.04851 5.7009 6.73047 5.3099 6.73047C4.9189 6.73047 4.60156 7.04851 4.60156 7.4388C4.60156 7.73205 4.36356 7.97005 4.07031 7.97005C3.77706 7.97005 3.53906 7.73205 3.53906 7.4388C3.53906 6.46272 4.3331 5.66797 5.3099 5.66797C6.28669 5.66797 7.08073 6.46272 7.08073 7.4388C7.08073 7.73205 6.84273 7.97005 6.54948 7.97005Z" fill="#565656"/>
<path d="M12.9245 7.97005C12.6312 7.97005 12.3932 7.73205 12.3932 7.4388C12.3932 7.04851 12.0759 6.73047 11.6849 6.73047C11.2939 6.73047 10.9766 7.04851 10.9766 7.4388C10.9766 7.73205 10.7386 7.97005 10.4453 7.97005C10.1521 7.97005 9.91406 7.73205 9.91406 7.4388C9.91406 6.46272 10.7081 5.66797 11.6849 5.66797C12.6617 5.66797 13.4557 6.46272 13.4557 7.4388C13.4557 7.73205 13.2177 7.97005 12.9245 7.97005Z" fill="#565656"/>
<path d="M8.49982 12.7501C6.95282 12.7501 5.49932 12.1481 4.40566 11.0537C4.19811 10.8461 4.19811 10.5097 4.40566 10.3021C4.6132 10.0946 4.94966 10.0946 5.1572 10.3021C6.0497 11.1961 7.23686 11.6876 8.49982 11.6876C9.76278 11.6876 10.9499 11.1961 11.8432 10.3028C12.0507 10.0953 12.3872 10.0953 12.5947 10.3028C12.8022 10.5104 12.8022 10.8468 12.5947 11.0544C11.5003 12.1481 10.0468 12.7501 8.49982 12.7501Z" fill="#565656"/>
<path d="M14.1693 5.69222C14.063 5.69222 13.9568 5.66034 13.8647 5.59659C13.4432 5.30122 11.3359 3.75918 11.3359 2.33755C11.3359 1.42522 12.113 0.683594 13.0678 0.683594C13.4779 0.683594 13.8647 0.821719 14.1693 1.05972C14.4739 0.821719 14.8606 0.683594 15.2707 0.683594C16.2256 0.682886 17.0026 1.42522 17.0026 2.33755C17.0026 3.75918 14.8953 5.30193 14.4739 5.59659C14.3818 5.66034 14.2755 5.69222 14.1693 5.69222ZM13.0678 1.74539C12.6988 1.74539 12.3984 2.01101 12.3984 2.33684C12.3984 2.90351 13.3667 3.87889 14.1693 4.5008C14.986 3.87039 15.9401 2.90989 15.9401 2.33684C15.9401 2.01101 15.6398 1.74539 15.2707 1.74539C14.9973 1.74539 14.7544 1.88918 14.6516 2.11159C14.4774 2.48701 13.8619 2.48701 13.6876 2.11159C13.5842 1.88918 13.3412 1.74539 13.0678 1.74539Z" fill="#565656"/>
<path d="M2.83333 17.0262C2.72708 17.0262 2.62083 16.9943 2.52875 16.9306C2.10729 16.6352 0 15.0932 0 13.6715C0 12.7592 0.777042 12.0176 1.73187 12.0176C2.142 12.0176 2.52875 12.1557 2.83333 12.3937C3.13792 12.1557 3.52467 12.0176 3.93479 12.0176C4.88962 12.0169 5.66667 12.7592 5.66667 13.6715C5.66667 15.0932 3.55937 16.6359 3.13792 16.9306C3.04583 16.9943 2.93958 17.0262 2.83333 17.0262ZM1.73187 13.0794C1.36283 13.0794 1.0625 13.345 1.0625 13.6708C1.0625 14.2375 2.03079 15.2129 2.83333 15.8348C3.65004 15.2044 4.60417 14.2439 4.60417 13.6708C4.60417 13.345 4.30383 13.0794 3.93479 13.0794C3.66137 13.0794 3.41842 13.2232 3.31571 13.4456C3.14146 13.821 2.52592 13.821 2.35167 13.4456C2.24825 13.2232 2.00529 13.0794 1.73187 13.0794Z" fill="#565656"/>
</g>
<defs>
<clipPath id="clip0_321_6435">
<rect width="17" height="17" fill="white"/>
</clipPath>
</defs>
</svg>
