<svg width="18" height="18" viewBox="0 0 18 18" fill="none" xmlns="http://www.w3.org/2000/svg">
<path d="M15.7813 2.2341C15.0014 1.45467 13.9397 1 12.8131 1C11.6865 1 10.6466 1.43302 9.84496 2.2341L2.21869 9.85521C0.593771 11.479 0.593771 14.1421 2.21869 15.7659C2.99865 16.5453 4.06026 17 5.18687 17C6.31347 17 7.35342 16.567 8.15504 15.7659L11.9682 11.9553L15.7813 8.14479C17.4062 6.52097 17.4062 3.87957 15.7813 2.2341ZM7.63507 15.2679C6.98511 15.9175 6.09682 16.2855 5.18687 16.2855C4.27691 16.2855 3.38863 15.9175 2.73866 15.2679C1.37373 13.9039 1.37373 11.7172 2.73866 10.3532L6.31347 6.78079C6.33514 6.80244 6.33514 6.82409 6.3568 6.84574L11.2099 11.6955L7.63507 15.2679ZM15.2613 7.66847L11.7082 11.2192L6.85511 6.36942C6.83345 6.34777 6.81178 6.34777 6.79012 6.32612L10.3649 2.75372C11.0149 2.10419 11.9032 1.73613 12.8131 1.73613C13.7448 1.73613 14.6114 2.10419 15.2613 2.75372C16.6263 4.11773 16.6263 6.30447 15.2613 7.66847Z" fill="#565656" stroke="#565656" stroke-width="0.2"/>
</svg>
