<svg width="14" height="15" viewBox="0 0 14 15" fill="none" xmlns="http://www.w3.org/2000/svg">
<path fill-rule="evenodd" clip-rule="evenodd" d="M7.07187 1.66406C7.43086 1.66406 7.72187 1.92523 7.72187 2.2474V12.7474C7.72187 13.0696 7.43086 13.3307 7.07187 13.3307C6.71289 13.3307 6.42188 13.0696 6.42188 12.7474V2.2474C6.42188 1.92523 6.71289 1.66406 7.07187 1.66406Z" fill="#292929"/>
<path fill-rule="evenodd" clip-rule="evenodd" d="M1.17187 7.43594C1.17187 7.07695 1.43312 6.78594 1.75537 6.78594L12.2584 6.78594C12.5806 6.78594 12.8419 7.07695 12.8419 7.43594C12.8419 7.79492 12.5806 8.08594 12.2584 8.08594L1.75538 8.08594C1.43312 8.08594 1.17187 7.79492 1.17187 7.43594Z" fill="#292929"/>
</svg>
