<svg width="15" height="15" viewBox="0 0 15 15" fill="none" xmlns="http://www.w3.org/2000/svg">
<path fill-rule="evenodd" clip-rule="evenodd" d="M7.57187 1.66406C7.93086 1.66406 8.22187 1.92523 8.22187 2.2474V12.7474C8.22187 13.0696 7.93086 13.3307 7.57187 13.3307C7.21289 13.3307 6.92188 13.0696 6.92188 12.7474V2.2474C6.92188 1.92523 7.21289 1.66406 7.57187 1.66406Z" fill="#171717"/>
<path fill-rule="evenodd" clip-rule="evenodd" d="M1.67187 7.43594C1.67187 7.07695 1.93312 6.78594 2.25537 6.78594L12.7584 6.78594C13.0806 6.78594 13.3419 7.07695 13.3419 7.43594C13.3419 7.79492 13.0806 8.08594 12.7584 8.08594L2.25538 8.08594C1.93312 8.08594 1.67187 7.79492 1.67187 7.43594Z" fill="#171717"/>
</svg>
