<svg width="181" height="19" viewBox="0 0 181 19" fill="none" xmlns="http://www.w3.org/2000/svg">
<path d="M2.37891 2.625V6.74609H4.83984V2.625H7.10547V7.50781H8.88281V1.31641H11.2266V18.0156H8.88281V9.53906H7.10547V14.5781H0.0351562V2.625H2.37891ZM2.37891 12.5469H4.83984V8.71875H2.37891V12.5469ZM14.9375 1.02344V18.7969H12.5547V1.02344H14.9375ZM31.3539 1.02344V18.7969H28.8734V1.02344H31.3539ZM19.8305 2.72266V12.2734C22.2328 12.2441 24.8109 12.0195 27.4281 11.5117L27.7406 13.5625C24.6156 14.207 21.6859 14.4219 18.932 14.4023H17.3695V2.72266H19.8305ZM49.5672 14.6953V16.7266H33.2977V14.6953H40.1531V11.4141H35.0164V2.15625H37.5164V4.91016H45.2703V2.15625H47.7508V11.4141H42.6336V14.6953H49.5672ZM37.5164 9.42188H45.2703V6.90234H37.5164V9.42188ZM65.0852 1.02344V18.8359H62.6047V1.02344H65.0852ZM59.5773 2.50781V9.36328H53.718V12.625C56.423 12.6152 58.7277 12.459 61.3352 12.0391L61.55 14.0508C58.6203 14.5586 55.9836 14.6758 52.7414 14.6758H51.1398V7.39062H57.0383V4.51953H51.1203V2.50781H59.5773ZM86.1406 1.02344V11.0039H83.6602V1.02344H86.1406ZM74.793 2.03906V8.03516C77.4883 8.01562 79.7734 7.82031 82.1562 7.3125L82.4492 9.32422C79.6758 9.91016 77.0195 10.125 73.8359 10.125H72.293V2.03906H74.793ZM86.1406 11.7266V18.582H74.2656V11.7266H86.1406ZM76.707 13.6797V16.6289H83.6992V13.6797H76.707ZM93.9242 2.21484C96.7367 2.19531 98.8461 4.03125 98.8461 6.57031C98.8461 9.12891 96.7367 10.9453 93.9242 10.9453C91.1117 10.9453 88.9828 9.12891 88.9828 6.57031C88.9828 4.03125 91.1117 2.19531 93.9242 2.21484ZM93.9242 4.36328C92.518 4.36328 91.4437 5.18359 91.4633 6.57031C91.4437 7.97656 92.518 8.77734 93.9242 8.77734C95.3305 8.77734 96.4047 7.97656 96.4242 6.57031C96.4047 5.18359 95.35 4.36328 93.9242 4.36328ZM103.104 1.02344V18.8359H100.623V1.02344H103.104ZM88.2406 13.1719C91.4047 13.1914 95.7992 13.1328 99.6078 12.6055L99.8031 14.4023C95.8578 15.1641 91.6391 15.2031 88.5336 15.2031L88.2406 13.1719ZM123.476 1.02344V5.22266H125.741V7.29297H123.476V11.4922H120.976V1.02344H123.476ZM123.476 12.1172V16.1016H113.945V17.0195H124.062V18.6797H111.445V14.5977H120.976V13.7773H111.425V12.1172H123.476ZM109.062 9.57812C110.361 9.58789 111.835 9.58789 113.378 9.53906V8.75781C111.435 8.5332 110.234 7.72266 110.253 6.45312C110.234 5.00781 111.952 4.16797 114.609 4.16797C117.245 4.16797 118.945 5.00781 118.964 6.45312C118.945 7.72266 117.773 8.52344 115.859 8.75781V9.46094C117.314 9.39258 118.779 9.27539 120.155 9.08984L120.331 10.6328C116.542 11.2773 112.421 11.2969 109.316 11.2969L109.062 9.57812ZM119.706 2.13672V3.79688H109.53V2.13672H113.378V0.867188H115.859V2.13672H119.706ZM114.609 5.71094C113.339 5.71094 112.616 5.94531 112.636 6.45312C112.616 6.98047 113.339 7.25391 114.609 7.27344C115.859 7.25391 116.562 6.98047 116.581 6.45312C116.562 5.94531 115.859 5.71094 114.609 5.71094ZM142.392 9.42188V11.375H126.142V9.42188H133.056V7.89844H128.115V1.80469H140.439V3.73828H130.595V5.94531H140.537V7.89844H135.498V9.42188H142.392ZM134.228 12.2734C138.076 12.2734 140.4 13.4453 140.42 15.5547C140.4 17.625 138.076 18.8164 134.228 18.8164C130.341 18.8164 127.998 17.625 127.998 15.5547C127.998 13.4453 130.341 12.2734 134.228 12.2734ZM134.228 14.168C131.767 14.168 130.517 14.6367 130.537 15.5547C130.517 16.4922 131.767 16.9219 134.228 16.9219C136.63 16.9219 137.9 16.4922 137.92 15.5547C137.9 14.6367 136.63 14.168 134.228 14.168ZM163.506 14.6758V16.7266H147.237V14.6758H150.87V10.3203C149.493 9.5 148.663 8.24023 148.663 6.66797C148.663 3.79688 151.475 1.88281 155.342 1.88281C159.19 1.88281 162.022 3.79688 162.041 6.66797C162.032 8.20117 161.221 9.45117 159.893 10.2812V14.6758H163.506ZM155.342 3.85547C152.803 3.85547 151.123 4.87109 151.123 6.66797C151.123 8.40625 152.803 9.48047 155.342 9.48047C157.862 9.48047 159.561 8.40625 159.58 6.66797C159.561 4.87109 157.862 3.85547 155.342 3.85547ZM153.33 14.6758H157.373V11.2188C156.739 11.3457 156.055 11.4141 155.342 11.4141C154.629 11.4141 153.955 11.3555 153.33 11.2188V14.6758ZM180.528 3.36719V5.37891H178.223V7.19531H180.528V9.26562H178.223V11.5117H175.723V1.02344H178.223V3.36719H180.528ZM178.223 12.2148V18.7969H175.723V14.2266H166.251V12.2148H178.223ZM169.122 2C171.876 1.98047 173.966 3.81641 173.966 6.31641C173.966 8.875 171.876 10.6719 169.122 10.6719C166.348 10.6719 164.239 8.875 164.239 6.31641C164.239 3.81641 166.348 1.98047 169.122 2ZM169.122 4.12891C167.716 4.12891 166.68 4.92969 166.7 6.31641C166.68 7.74219 167.716 8.5625 169.122 8.5625C170.489 8.5625 171.524 7.74219 171.544 6.31641C171.524 4.92969 170.489 4.12891 169.122 4.12891Z" fill="black"/>
</svg>
