<svg width="187" height="39" viewBox="0 0 187 39" fill="none" xmlns="http://www.w3.org/2000/svg">
<rect x="187" y="28" width="187" height="28" rx="14" transform="rotate(-180 187 28)" fill="#6A5ACD"/>
<path d="M21.877 8.70398V20.079H20.6582V8.70398H21.877ZM18.4873 9.92273C18.4873 13.2489 17.0654 16.1434 13.168 18.0096L12.5332 17.0321C15.561 15.5912 17.0337 13.5409 17.2686 10.8876H13.0791V9.92273H18.4873ZM33.9218 14.912V15.8895H23.5116V14.912H28.12V13.8329H24.8446V10.9384H31.4081V9.92273H24.8192V8.97058H32.6141V11.827H26.038V12.8934H32.8427V13.8329H29.3134V14.912H33.9218ZM32.6776 16.6893V19.9901H31.4589V17.6542H24.6796V16.6893H32.6776ZM39.8093 9.38953C42.1961 9.38953 44.0115 10.6464 44.0115 12.5634C44.0115 14.4803 42.1961 15.7499 39.8093 15.7372C37.4226 15.7499 35.6199 14.4803 35.6199 12.5634C35.6199 10.6464 37.4226 9.38953 39.8093 9.38953ZM39.8093 10.3671C38.0701 10.3544 36.7625 11.243 36.7752 12.5634C36.7625 13.8964 38.0701 14.7469 39.8093 14.7469C41.5486 14.7469 42.8435 13.8964 42.8435 12.5634C42.8435 11.243 41.5486 10.3544 39.8093 10.3671ZM45.0398 17.6034V18.6063H34.6296V17.6034H45.0398ZM56.1452 17.705V18.7206H45.735V17.705H50.318V15.7118H47.0045V12.0936H53.6823V10.494H46.9791V9.50378H54.8756V13.0585H48.1979V14.7216H55.1422V15.7118H51.5114V17.705H56.1452ZM65.851 9.79578V17.2733H60.5189V9.79578H65.851ZM61.7123 10.7479V16.2958H64.683V10.7479H61.7123ZM69.3041 8.70398V20.1044H68.098V8.70398H69.3041ZM75.636 9.89734V14.0106H72.513V16.41C73.7508 16.4037 74.9187 16.3466 76.2835 16.1307L76.385 17.0956C74.7981 17.3749 73.5413 17.413 72.1194 17.4257H71.345V13.0204H74.468V10.8876H71.3323V9.89734H75.636ZM80.7522 8.70398V20.079H79.597V14.1122H78.1243V19.495H77.0198V8.9325H78.1243V13.1346H79.597V8.70398H80.7522ZM94.6221 8.71667V17.0956H93.4161V13.1473H91.0547V12.1444H93.4161V8.71667H94.6221ZM91.1309 9.56726C91.1182 12.538 89.0743 14.7723 85.8116 15.826L85.3037 14.8612C87.8365 14.0424 89.5567 12.4935 89.8106 10.5702H85.8877V9.56726H91.1309ZM94.9141 18.8602V19.8378H87.2969V16.2323H88.5157V18.8602H94.9141ZM105.182 8.70398V11.5731H106.832V12.5507H105.182V15.4579H103.976V8.70398H105.182ZM102.059 9.51648C102.059 12.4618 100.065 14.5819 96.7265 15.5468L96.2314 14.5692C98.891 13.8138 100.535 12.3348 100.751 10.494H96.7392V9.51648H102.059ZM101.551 15.5848C103.849 15.5848 105.309 16.4354 105.309 17.8192C105.309 19.2157 103.849 20.0663 101.551 20.0663C99.2655 20.0663 97.7675 19.2157 97.7802 17.8192C97.7675 16.4354 99.2655 15.5848 101.551 15.5848ZM101.551 16.537C99.9638 16.537 98.9609 17.0194 98.9736 17.8192C98.9609 18.619 99.9638 19.1141 101.551 19.1141C103.125 19.1141 104.128 18.619 104.128 17.8192C104.128 17.0194 103.125 16.537 101.551 16.537ZM116.769 8.70398V20.1044H115.563V8.70398H116.769ZM110.688 9.55457C112.377 9.55457 113.621 11.1034 113.621 13.5409C113.621 15.9911 112.377 17.5399 110.688 17.5399C108.974 17.5399 107.743 15.9911 107.743 13.5409C107.743 11.1034 108.974 9.55457 110.688 9.55457ZM110.688 10.6337C109.635 10.6337 108.911 11.7509 108.911 13.5409C108.911 15.3436 109.635 16.4608 110.688 16.4608C111.729 16.4608 112.453 15.3436 112.453 13.5409C112.453 11.7509 111.729 10.6337 110.688 10.6337ZM131.909 17.6669V18.6698H121.499V17.6669H126.082V15.3309H122.692V9.47839H123.898V11.4335H129.484V9.47839H130.677V15.3309H127.275V17.6669H131.909ZM123.898 14.3534H129.484V12.411H123.898V14.3534ZM135.689 9.55457C136.724 9.55457 137.581 10.1512 138.088 11.1796H140.894V8.70398H142.087V20.1044H140.894V15.7372H138.164C137.676 16.8798 136.781 17.5399 135.689 17.5399C133.988 17.5399 132.794 15.9911 132.807 13.5409C132.794 11.1034 133.988 9.55457 135.689 9.55457ZM135.689 10.6337C134.661 10.6337 133.95 11.7509 133.95 13.5409C133.95 15.3436 134.661 16.4608 135.689 16.4608C136.717 16.4608 137.428 15.3436 137.428 13.5409C137.428 11.7509 136.717 10.6337 135.689 10.6337ZM138.431 12.1698C138.514 12.5887 138.571 13.0458 138.571 13.5409C138.571 13.9725 138.533 14.3724 138.456 14.7469H140.894V12.1698H138.431ZM154.119 17.6542V18.6571H143.709V17.6542H146.198V14.6835C145.264 14.1693 144.7 13.3505 144.7 12.3348C144.7 10.5448 146.451 9.36414 148.889 9.36414C151.339 9.36414 153.091 10.5448 153.091 12.3348C153.091 13.3378 152.545 14.1439 151.631 14.6581V17.6542H154.119ZM148.889 10.329C147.099 10.329 145.867 11.1034 145.867 12.3348C145.867 13.5536 147.099 14.3534 148.889 14.3534C150.666 14.3534 151.923 13.5536 151.923 12.3348C151.923 11.1034 150.666 10.329 148.889 10.329ZM147.391 17.6542H150.412V15.1151C149.949 15.2357 149.435 15.2928 148.889 15.2928C148.356 15.2928 147.848 15.2357 147.391 15.1278V17.6542ZM156.909 9.80847L156.795 16.3466H155.538L155.424 9.80847H156.909ZM156.173 19.0887C155.678 19.0887 155.259 18.6825 155.272 18.1874C155.259 17.6923 155.678 17.286 156.173 17.286C156.655 17.286 157.074 17.6923 157.074 18.1874C157.074 18.6825 156.655 19.0887 156.173 19.0887Z" fill="white"/>
<path fill-rule="evenodd" clip-rule="evenodd" d="M168.494 19.9999C158.777 15.0081 161.899 9.04624 165.478 8.99988C166.554 8.99988 167.679 9.53351 168.494 10.8399C169.317 9.53351 170.442 8.99988 171.517 8.99988H171.566C175.096 9.04624 178.218 15.0081 168.493 19.9999H168.494Z" fill="white"/>
<path d="M29.6883 36.3397C28.9027 37.5768 27.0973 37.5768 26.3117 36.3397L20.4248 27.0703C19.5792 25.7388 20.5358 23.9981 22.1131 23.9981L33.8869 23.9981C35.4642 23.9981 36.4208 25.7388 35.5752 27.0703L29.6883 36.3397Z" fill="#6A5ACD"/>
</svg>
