<svg width="398" height="480" viewBox="0 0 398 480" fill="none" xmlns="http://www.w3.org/2000/svg">
<g filter="url(#filter0_d_2_4212)">
<rect x="16" y="12" width="366" height="448" rx="32" fill="white"/>
<path d="M160.857 158.75V167.781H154.435V158.75H160.857ZM155.638 166.781H159.654V159.734H155.638V166.781ZM163.841 171.297V157.375H165.076V171.297H163.841ZM172.963 158.891V163.75H168.947V166.906C170.548 166.898 172.056 166.836 173.853 166.531L173.963 167.531C171.986 167.875 170.416 167.938 168.666 167.938H167.759V162.734H171.775V159.922H167.728V158.891H172.963ZM174.822 170.547V157.688H175.947V162.875H177.994V157.375H179.166V171.266H177.994V163.891H175.947V170.547H174.822ZM196.33 157.391V167.656H195.096V162.703H192.018V161.672H195.096V157.391H196.33ZM185.033 165.047C188.228 163.992 190.455 161.992 190.736 159.484H185.736V158.453H192.08C192.064 162.023 189.51 164.742 185.564 166.031L185.033 165.047ZM187.486 170.969V166.609H188.736V169.938H196.689V170.969H187.486ZM209.342 157.375V161H211.436V162.016H209.342V165.719H208.123V157.375H209.342ZM198.498 164.734C201.85 163.766 203.99 161.836 204.24 159.422H199.108V158.406H205.561C205.553 161.945 203.061 164.539 199.014 165.734L198.498 164.734ZM200.404 168.547C200.397 166.883 202.186 165.867 204.951 165.875C207.74 165.867 209.498 166.883 209.498 168.547C209.498 170.234 207.74 171.234 204.951 171.234C202.186 171.234 200.397 170.234 200.404 168.547ZM201.623 168.547C201.608 169.594 202.912 170.258 204.951 170.25C206.99 170.258 208.311 169.594 208.311 168.547C208.311 167.5 206.99 166.852 204.951 166.859C202.912 166.852 201.608 167.5 201.623 168.547ZM228.678 163.984V165.016H216.006V163.984H228.678ZM217.538 168.734C217.53 167.141 219.334 166.234 222.334 166.234C225.311 166.234 227.1 167.141 227.116 168.734C227.1 170.344 225.311 171.234 222.334 171.234C219.334 171.234 217.53 170.344 217.538 168.734ZM217.616 162.656V157.938H227.1V158.969H218.819V161.656H227.194V162.656H217.616ZM218.788 168.734C218.772 169.711 220.108 170.266 222.334 170.266C224.538 170.266 225.873 169.711 225.881 168.734C225.873 167.766 224.538 167.203 222.334 167.188C220.108 167.203 218.772 167.766 218.788 168.734ZM232.549 165.328V167.172H239.503V165.328H240.721V171.078H231.331V165.328H232.549ZM229.674 164.078V163.062H239.135C239.51 161.336 239.51 160.094 239.503 159.031H231.284V158.016H240.721V159.031C240.721 160.094 240.721 161.328 240.338 163.062H242.393V164.078H229.674ZM232.549 170.078H239.503V168.141H232.549V170.078Z" fill="#999999"/>
<path d="M154.688 109.328C160.547 109.348 166.094 112.844 166.094 123.117C166.113 132.727 161.562 138.391 154.453 138.391C148.77 138.391 144.863 134.816 144.297 130.031H150.078C150.566 132.121 152.188 133.352 154.453 133.352C158.301 133.352 160.332 129.895 160.352 124.25H160.117C158.789 126.75 155.996 128.234 152.852 128.234C147.773 128.234 144.023 124.406 143.984 119.133C143.984 113.449 148.301 109.309 154.688 109.328ZM149.727 118.977C149.727 121.77 151.777 123.938 154.688 123.938C157.559 123.938 159.766 121.652 159.766 118.938C159.727 116.242 157.617 113.957 154.727 113.938C151.836 113.957 149.688 116.164 149.727 118.977Z" fill="black"/>
<path d="M198.446 122.867V126.523H169.196V122.867H198.446ZM172.536 134.328C172.536 130.566 176.755 128.439 183.751 128.457C190.694 128.439 194.86 130.566 194.895 134.328C194.86 138.107 190.694 140.252 183.751 140.234C176.755 140.252 172.536 138.107 172.536 134.328ZM172.747 120.617V109.086H194.93V112.707H177.212V117.066H195.106V120.617H172.747ZM177.106 134.328C177.089 136.016 179.321 136.824 183.751 136.824C188.092 136.824 190.378 136.016 190.395 134.328C190.378 132.711 188.092 131.867 183.751 131.867C179.321 131.867 177.089 132.711 177.106 134.328ZM207.499 126.453V129.863H220.824V126.453H225.253V139.883H203.105V126.453H207.499ZM199.589 124.344V120.758H220.191C220.806 117.664 220.894 115.273 220.929 113.129H203.175V109.543H225.394V112.109C225.411 114.535 225.411 117.119 224.638 120.758H228.874V124.344H199.589ZM207.499 136.262H220.824V133.273H207.499V136.262Z" fill="black"/>
<g clip-path="url(#clip0_2_4212)">
<path d="M244.001 132.333C248.604 132.333 252.335 128.602 252.335 124C252.335 119.398 248.604 115.667 244.001 115.667C239.399 115.667 235.668 119.398 235.668 124C235.668 128.602 239.399 132.333 244.001 132.333Z" stroke="#999999" stroke-width="1.5"/>
<path d="M244 128.167V123.167" stroke="#999999" stroke-width="1.5" stroke-linecap="round"/>
<path d="M244.001 119.833C244.462 119.833 244.835 120.206 244.835 120.667C244.835 121.127 244.462 121.5 244.001 121.5C243.541 121.5 243.168 121.127 243.168 120.667C243.168 120.206 243.541 119.833 244.001 119.833Z" fill="#999999"/>
</g>
<path d="M102.04 77.6562V81.8906H94.0866V83.0781H102.368V84.6719H92.0709V80.3906H99.9928V79.2656H92.0241V77.6562H102.04ZM90.5241 87.3281V85.7344H103.54V87.3281H98.0084V91.4688H96.0084V87.3281H90.5241ZM116.114 77.2344V87.75H114.114V77.2344H116.114ZM104.989 85.7188V78.2969H111.88V79.8906H106.989V81.2344H111.458V82.7656H106.989V84.125C109.497 84.1172 111.083 84.0859 112.88 83.7969L113.083 85.3281C111.059 85.6875 109.247 85.7266 106.208 85.7188H104.989ZM106.583 91.1875V86.8125H108.598V89.5938H116.489V91.1875H106.583ZM124.36 77.4219C127.634 77.4219 129.524 78.2812 129.532 79.8438C129.524 81.4297 127.634 82.2812 124.36 82.2812C121.079 82.2812 119.173 81.4297 119.173 79.8438C119.173 78.2812 121.079 77.4219 124.36 77.4219ZM117.876 84.5312V82.9531H130.845V84.5312H117.876ZM119.376 86.8125V85.3594H129.267V88.9844H121.345V89.8438H129.642V91.3438H119.392V87.5938H127.298V86.8125H119.376ZM121.267 79.8438C121.259 80.5391 122.274 80.8125 124.36 80.8125C126.462 80.8125 127.47 80.5391 127.47 79.8438C127.47 79.2109 126.462 78.875 124.36 78.875C122.274 78.875 121.259 79.2109 121.267 79.8438ZM140.603 80.4375C140.595 83.0469 141.783 85.6641 144.197 86.6875L143.025 88.2812C141.4 87.5469 140.275 86.125 139.626 84.3672C138.986 86.2891 137.822 87.8359 136.087 88.625L134.884 86.9688C137.368 85.9219 138.579 83.1953 138.587 80.4375V78.3125H140.603V80.4375ZM144.962 91.4688V77.2188H146.978V91.4688H144.962ZM156.818 78.0469V79.6406H153.99C153.998 81.3047 154.998 83.0156 157.302 83.75L156.287 85.2969C154.708 84.7812 153.623 83.7656 153.005 82.5C152.373 83.8828 151.232 84.9922 149.583 85.5312L148.521 84C150.873 83.2422 151.951 81.4141 151.974 79.6406H149.068V78.0469H156.818ZM150.443 87.9844V86.4062H160.021V91.4375H158.021V87.9844H150.443ZM158.021 85.7969V77.2188H160.021V80.6719H161.943V82.3281H160.021V85.7969H158.021ZM173.627 77.2188V82.7812H175.72V84.4219H173.627V91.4375H171.658V77.2188H173.627ZM162.33 80.9375V79.3438H165.548V77.4375H167.548V79.3438H170.689V80.9375H162.33ZM162.908 85.125C162.9 83.1406 164.447 81.7266 166.548 81.7344C168.619 81.7266 170.173 83.1406 170.173 85.125C170.173 87.1094 168.619 88.5078 166.548 88.5156C164.447 88.5078 162.9 87.1094 162.908 85.125ZM164.814 85.125C164.814 86.2266 165.541 86.8828 166.548 86.875C167.541 86.8828 168.267 86.2266 168.267 85.125C168.267 84.0312 167.541 83.3594 166.548 83.3438C165.541 83.3594 164.814 84.0312 164.814 85.125ZM187.795 78.4531V79.7969C187.787 81.5781 187.787 83.5781 187.217 86.5938L185.217 86.3906C185.763 83.7031 185.787 81.7031 185.795 80.0312H177.42V78.4531H187.795ZM176.076 89.7031V88.0781H180.717V83.1875H182.701V88.0781H189.045V89.7031H176.076ZM206.272 83.7188V85.3438H193.272V83.7188H206.272ZM194.756 88.8125C194.756 87.1406 196.631 86.1953 199.74 86.2031C202.826 86.1953 204.678 87.1406 204.693 88.8125C204.678 90.4922 202.826 91.4453 199.74 91.4375C196.631 91.4453 194.756 90.4922 194.756 88.8125ZM194.85 82.7188V77.5938H204.709V79.2031H196.834V81.1406H204.787V82.7188H194.85ZM196.787 88.8125C196.779 89.5625 197.772 89.9219 199.74 89.9219C201.67 89.9219 202.686 89.5625 202.693 88.8125C202.686 88.0938 201.67 87.7188 199.74 87.7188C197.772 87.7188 196.779 88.0938 196.787 88.8125ZM210.455 85.3125V86.8281H216.377V85.3125H218.346V91.2812H208.502V85.3125H210.455ZM206.94 84.375V82.7812H216.096C216.369 81.4062 216.408 80.3438 216.424 79.3906H208.533V77.7969H218.408V78.9375C218.416 80.0156 218.416 81.1641 218.073 82.7812H219.955V84.375H206.94ZM210.455 89.6719H216.377V88.3438H210.455V89.6719ZM227.092 77.4219C230.366 77.4219 232.256 78.2812 232.264 79.8438C232.256 81.4297 230.366 82.2812 227.092 82.2812C223.811 82.2812 221.905 81.4297 221.905 79.8438C221.905 78.2812 223.811 77.4219 227.092 77.4219ZM220.608 84.5312V82.9531H233.577V84.5312H220.608ZM222.108 86.8125V85.3594H231.998V88.9844H224.077V89.8438H232.373V91.3438H222.123V87.5938H230.03V86.8125H222.108ZM223.998 79.8438C223.991 80.5391 225.006 80.8125 227.092 80.8125C229.194 80.8125 230.202 80.5391 230.202 79.8438C230.202 79.2109 229.194 78.875 227.092 78.875C225.006 78.875 223.991 79.2109 223.998 79.8438ZM244.288 77.3438C247.561 77.3438 249.452 78.2031 249.46 79.7812C249.452 81.1953 247.928 82.0234 245.241 82.1797V83H250.772V84.5781H237.803V83H243.272V82.1719C240.616 82.0078 239.1 81.1797 239.1 79.7812C239.1 78.2031 241.007 77.3438 244.288 77.3438ZM239.303 86.8438V85.3594H249.194V88.9844H241.272V89.8438H249.569V91.3438H239.319V87.5938H247.225V86.8438H239.303ZM241.194 79.7812C241.186 80.4609 242.202 80.7422 244.288 80.75C246.389 80.7422 247.397 80.4609 247.397 79.7812C247.397 79.1328 246.389 78.8125 244.288 78.8125C242.202 78.8125 241.186 79.1328 241.194 79.7812ZM263.456 77.2188V91.4688H261.472V85.7344H259.034V84.0938H261.472V81.8594H259.081V80.2344H261.472V77.2188H263.456ZM251.94 79.9844V78.4062H258.331V83.875H253.956V86.6484C255.714 86.6328 257.268 86.5547 259.065 86.2812L259.222 87.9062C257.097 88.2422 255.284 88.2891 253.097 88.2812H251.972V82.3281H256.378V79.9844H251.94ZM278.155 88.1562V89.7812H265.14V88.1562H270.624V85.5312H266.515V78.125H268.515V80.3281H274.718V78.125H276.702V85.5312H272.608V88.1562H278.155ZM268.515 83.9375H274.718V81.9219H268.515V83.9375ZM283.37 80.7969C283.363 83.1016 284.003 85.4766 285.948 86.7188L284.87 88.2656C283.636 87.5234 282.863 86.2891 282.409 84.8359C281.902 86.4453 281.05 87.7969 279.761 88.5781L278.542 87.1094C280.652 85.8047 281.433 83.2969 281.433 80.8906V78.4375H283.37V80.7969ZM284.448 83.6406V82.0156H286.292V77.4219H288.152V90.7812H286.292V83.6406H284.448ZM289.23 91.4375V77.2188H291.136V91.4375H289.23ZM305.492 88.1406V89.7812H292.476V88.1406H295.382V84.6562C294.281 83.9922 293.617 82.9844 293.617 81.7344C293.617 79.4297 295.867 77.9141 298.96 77.9062C302.038 77.9141 304.312 79.4297 304.32 81.7344C304.312 82.9609 303.671 83.9531 302.601 84.6172V88.1406H305.492ZM295.585 81.7344C295.585 83.125 296.921 83.9844 298.96 83.9844C300.968 83.9844 302.343 83.125 302.351 81.7344C302.343 80.3047 300.968 79.4766 298.96 79.4844C296.921 79.4766 295.585 80.3047 295.585 81.7344ZM297.351 88.1406H300.585V85.375C300.077 85.4766 299.531 85.5312 298.96 85.5312C298.39 85.5312 297.851 85.4766 297.351 85.3828V88.1406Z" fill="black"/>
<rect x="48.5" y="342.5" width="301" height="69" rx="23.5" stroke="#EAEAEA"/>
<path d="M135 366V386H155" stroke="black" stroke-width="1.5" stroke-linecap="round" stroke-linejoin="round"/>
<path d="M147 366C144.178 366 142.604 373.558 141.925 379.416C141.693 381.427 140.024 383 138 383V383" stroke="black" stroke-width="1.5" stroke-linecap="round"/>
<path d="M147 366L147 383" stroke="black" stroke-width="1.5" stroke-linecap="round" stroke-linejoin="round" stroke-dasharray="1 3"/>
<path d="M147 366C149.525 366 150.912 373.852 151.489 379.753C151.666 381.573 153.171 383 155 383V383" stroke="black" stroke-width="1.5" stroke-linecap="round"/>
<path d="M173.969 382.156C171.719 382.156 170.102 380.953 170.031 379.156H171.453C171.531 380.234 172.602 380.906 173.953 380.906C175.445 380.906 176.523 380.102 176.531 378.922C176.523 377.688 175.539 376.82 173.781 376.812H172.859V375.578H173.781C175.156 375.578 176.117 374.805 176.109 373.641C176.117 372.508 175.289 371.758 174 371.75C172.789 371.758 171.688 372.422 171.625 373.531H170.266C170.336 371.734 172.008 370.531 174.016 370.531C176.172 370.531 177.484 371.945 177.469 373.562C177.484 374.852 176.734 375.789 175.547 376.125V376.203C177.023 376.43 177.914 377.484 177.906 378.922C177.914 380.781 176.227 382.156 173.969 382.156ZM183.481 382.156C180.973 382.156 179.52 380.047 179.528 376.344C179.52 372.672 180.988 370.531 183.481 370.531C185.965 370.531 187.434 372.672 187.434 376.344C187.434 380.047 185.988 382.156 183.481 382.156ZM180.887 376.344C180.895 379.273 181.84 380.906 183.481 380.906C185.113 380.906 186.067 379.273 186.059 376.344C186.067 373.414 185.106 371.758 183.481 371.75C181.856 371.758 180.895 373.414 180.887 376.344ZM200.524 369.375V383.266H199.352V375.984H197.305V382.547H196.18V369.688H197.305V374.969H199.352V369.375H200.524ZM189.164 379.828V371.078H194.368V372.094H190.383V378.781C192.297 378.773 193.618 378.703 195.164 378.391L195.274 379.422C193.602 379.766 192.188 379.82 190.055 379.828H189.164ZM209.907 370.453C211.18 370.461 212.219 371.203 212.821 372.484H216.469V369.375H217.688V383.297H216.469V377.906H212.907C212.329 379.312 211.251 380.133 209.907 380.125C207.852 380.133 206.415 378.258 206.423 375.297C206.415 372.344 207.852 370.461 209.907 370.453ZM207.594 375.297C207.602 377.555 208.54 379.039 209.907 379.031C211.266 379.039 212.219 377.555 212.219 375.297C212.219 373.039 211.266 371.555 209.907 371.547C208.54 371.555 207.602 373.039 207.594 375.297ZM213.173 373.516C213.305 374.055 213.376 374.648 213.376 375.297C213.376 375.867 213.321 376.406 213.219 376.891H216.469V373.516H213.173ZM224.622 371.562C224.606 373.547 226.02 375.289 228.059 375.984L227.372 376.938C225.841 376.367 224.638 375.234 224.036 373.773C223.442 375.438 222.177 376.727 220.497 377.359L219.825 376.359C221.966 375.609 223.388 373.766 223.403 371.609V370.172H224.622V371.562ZM222.091 380.641C222.083 378.969 223.856 378.008 226.747 378.016C229.63 378.008 231.403 378.969 231.403 380.641C231.403 382.297 229.63 383.234 226.747 383.234C223.856 383.234 222.083 382.297 222.091 380.641ZM223.309 380.641C223.302 381.648 224.614 382.258 226.747 382.25C228.872 382.258 230.184 381.648 230.184 380.641C230.184 379.602 228.872 378.984 226.747 378.984C224.614 378.984 223.302 379.602 223.309 380.641ZM227.028 373.375V372.359H230.122V369.375H231.356V377.609H230.122V373.375H227.028ZM245.161 370.438V371.453H243.739V375.898C244.38 375.852 245.013 375.797 245.614 375.719L245.677 376.656C242.966 377.07 239.81 377.117 237.552 377.109L237.396 376.078C237.95 376.078 238.552 376.078 239.192 376.07V371.453H237.786V370.438H245.161ZM239.614 380.734C239.607 379.148 241.364 378.242 244.271 378.25C247.177 378.242 248.927 379.148 248.927 380.734C248.927 382.32 247.177 383.234 244.271 383.234C241.364 383.234 239.607 382.32 239.614 380.734ZM240.38 376.047C241.091 376.031 241.825 376.008 242.552 375.969V371.453H240.38V376.047ZM240.833 380.734C240.825 381.703 242.13 382.266 244.271 382.266C246.403 382.266 247.708 381.703 247.708 380.734C247.708 379.781 246.403 379.203 244.271 379.203C242.13 379.203 240.825 379.781 240.833 380.734ZM245.302 375.375V374.359H247.646V372.891H245.302V371.875H247.646V369.375H248.88V377.953H247.646V375.375H245.302ZM262.079 370.141V371.188C262.079 372.305 262.079 373.609 261.751 375.344H263.751V376.359H260.189V379.719H259.001V376.359H256.454V379.719H255.251V376.359H251.033V375.344H260.533C260.868 373.586 260.868 372.305 260.861 371.188V371.141H252.642V370.141H262.079ZM252.595 382.969V378.625H253.814V381.938H262.454V382.969H252.595Z" fill="#999999"/>
<rect x="48" y="242" width="72" height="40" rx="12" fill="#ECECEC"/>
<rect x="124" y="242" width="73" height="40" rx="12" fill="#ECECEC"/>
<rect x="201" y="242" width="73" height="40" rx="12" fill="#ECECEC"/>
<rect x="278" y="242" width="72" height="40" rx="12" fill="#ECECEC"/>
<path d="M255 242V282" stroke="white" stroke-width="2" stroke-dasharray="5 5"/>
<path d="M52.2246 289.965C53.9268 289.985 55.8203 291.011 55.8203 294.654C55.8203 298.175 54.3779 300.137 52.0605 300.137C50.3174 300.137 49.0938 299.07 48.8477 297.498H50.0645C50.2832 298.387 50.96 299.043 52.0605 299.043C53.6738 299.043 54.6582 297.648 54.6719 295.242H54.5352C53.9678 296.062 53.0586 296.555 52.0059 296.555C50.2354 296.555 48.7656 295.194 48.7656 293.287C48.7656 291.441 50.1191 289.944 52.2246 289.965ZM49.9688 293.273C49.9619 294.497 50.8916 295.475 52.1836 295.475C53.4756 295.475 54.4805 294.408 54.4805 293.246C54.4805 292.111 53.5303 291.045 52.2246 291.045C50.9326 291.045 49.9551 292.05 49.9688 293.273ZM68.026 294.736V295.639H56.9381V294.736H68.026ZM58.278 298.893C58.2711 297.498 59.8502 296.705 62.4752 296.705C65.0797 296.705 66.6452 297.498 66.6588 298.893C66.6452 300.301 65.0797 301.08 62.4752 301.08C59.8502 301.08 58.2711 300.301 58.278 298.893ZM58.3463 293.574V289.445H66.6452V290.348H59.3991V292.699H66.7272V293.574H58.3463ZM59.3717 298.893C59.358 299.747 60.527 300.232 62.4752 300.232C64.403 300.232 65.5719 299.747 65.5787 298.893C65.5719 298.045 64.403 297.553 62.4752 297.539C60.527 297.553 59.358 298.045 59.3717 298.893ZM71.4134 295.912V297.525H77.4973V295.912H78.5637V300.943H70.347V295.912H71.4134ZM68.8977 294.818V293.93H77.1761C77.5042 292.419 77.5042 291.332 77.4973 290.402H70.3059V289.514H78.5637V290.402C78.5637 291.332 78.5637 292.412 78.2288 293.93H80.0266V294.818H68.8977ZM71.4134 300.068H77.4973V298.373H71.4134V300.068Z" fill="#999999"/>
<path d="M232.388 289.883V290.771H231.144V294.661C231.704 294.62 232.258 294.572 232.785 294.504L232.839 295.324C230.467 295.687 227.705 295.728 225.73 295.721L225.593 294.818C226.079 294.818 226.605 294.818 227.165 294.812V290.771H225.935V289.883H232.388ZM227.535 298.893C227.528 297.505 229.066 296.712 231.609 296.719C234.152 296.712 235.683 297.505 235.683 298.893C235.683 300.28 234.152 301.08 231.609 301.08C229.066 301.08 227.528 300.28 227.535 298.893ZM228.204 294.791C228.827 294.777 229.469 294.757 230.105 294.723V290.771H228.204V294.791ZM228.601 298.893C228.594 299.74 229.736 300.232 231.609 300.232C233.475 300.232 234.617 299.74 234.617 298.893C234.617 298.059 233.475 297.553 231.609 297.553C229.736 297.553 228.594 298.059 228.601 298.893ZM232.511 294.203V293.314H234.562V292.029H232.511V291.141H234.562V288.953H235.642V296.459H234.562V294.203H232.511ZM247.191 289.623V290.539C247.191 291.517 247.191 292.658 246.904 294.176H248.654V295.064H245.537V298.004H244.498V295.064H242.27V298.004H241.217V295.064H237.525V294.176H245.838C246.132 292.638 246.132 291.517 246.125 290.539V290.498H238.934V289.623H247.191ZM238.893 300.848V297.047H239.959V299.945H247.52V300.848H238.893ZM256.714 300.137C254.745 300.137 253.33 299.084 253.269 297.512H254.513C254.581 298.455 255.518 299.043 256.701 299.043C258.006 299.043 258.95 298.339 258.956 297.307C258.95 296.227 258.088 295.468 256.55 295.461H255.743V294.381H256.55C257.753 294.381 258.594 293.704 258.587 292.686C258.594 291.694 257.869 291.038 256.742 291.031C255.682 291.038 254.718 291.619 254.663 292.59H253.474C253.535 291.018 254.998 289.965 256.755 289.965C258.642 289.965 259.79 291.202 259.777 292.617C259.79 293.745 259.134 294.565 258.095 294.859V294.928C259.387 295.126 260.166 296.049 260.159 297.307C260.166 298.934 258.69 300.137 256.714 300.137ZM272.447 294.736V295.639H261.359V294.736H272.447ZM262.699 298.893C262.692 297.498 264.271 296.705 266.896 296.705C269.501 296.705 271.066 297.498 271.08 298.893C271.066 300.301 269.501 301.08 266.896 301.08C264.271 301.08 262.692 300.301 262.699 298.893ZM262.768 293.574V289.445H271.066V290.348H263.82V292.699H271.148V293.574H262.768ZM263.793 298.893C263.779 299.747 264.948 300.232 266.896 300.232C268.824 300.232 269.993 299.747 270 298.893C269.993 298.045 268.824 297.553 266.896 297.539C264.948 297.553 263.779 298.045 263.793 298.893ZM275.835 295.912V297.525H281.919V295.912H282.985V300.943H274.768V295.912H275.835ZM273.319 294.818V293.93H281.597C281.925 292.419 281.925 291.332 281.919 290.402H274.727V289.514H282.985V290.402C282.985 291.332 282.985 292.412 282.65 293.93H284.448V294.818H273.319ZM275.835 300.068H281.919V298.373H275.835V300.068Z" fill="#999999"/>
<path d="M324.372 290.102V300H323.128V291.387H323.073L320.667 292.986V291.742L323.128 290.102H324.372ZM337.521 294.736V295.639H326.433V294.736H337.521ZM327.773 298.893C327.766 297.498 329.345 296.705 331.97 296.705C334.575 296.705 336.14 297.498 336.154 298.893C336.14 300.301 334.575 301.08 331.97 301.08C329.345 301.08 327.766 300.301 327.773 298.893ZM327.841 293.574V289.445H336.14V290.348H328.894V292.699H336.222V293.574H327.841ZM328.867 298.893C328.853 299.747 330.022 300.232 331.97 300.232C333.898 300.232 335.067 299.747 335.074 298.893C335.067 298.045 333.898 297.553 331.97 297.539C330.022 297.553 328.853 298.045 328.867 298.893ZM340.908 295.912V297.525H346.992V295.912H348.059V300.943H339.842V295.912H340.908ZM338.393 294.818V293.93H346.671C346.999 292.419 346.999 291.332 346.992 290.402H339.801V289.514H348.059V290.402C348.059 291.332 348.059 292.412 347.724 293.93H349.521V294.818H338.393ZM340.908 300.068H346.992V298.373H340.908V300.068Z" fill="#999999"/>
<path d="M58.1014 231.573L63.1808 238.83C63.5789 239.398 64.4211 239.398 64.8192 238.83L69.8986 231.573C70.3625 230.911 69.8884 230 69.0793 230H58.9207C58.1116 230 57.6375 230.911 58.1014 231.573Z" fill="black"/>
<rect x="34" y="208" width="60" height="26" rx="13" fill="black"/>
<path d="M55.1016 214.816V227.258H53.4199V221.037H52.2578V226.656H50.6172V215.021H52.2578V219.629H53.4199V214.816H55.1016ZM44.875 224.223V216.197H46.625V222.698C47.623 222.671 48.7236 222.582 49.9199 222.35L50.0977 223.854C48.4297 224.141 47.0078 224.229 45.7227 224.223H44.875ZM70.7903 220.504V221.926H59.4153V220.504H70.7903ZM60.7141 224.961C60.7141 223.498 62.3548 222.671 65.0755 222.678C67.7757 222.671 69.3958 223.498 69.4095 224.961C69.3958 226.431 67.7757 227.265 65.0755 227.258C62.3548 227.265 60.7141 226.431 60.7141 224.961ZM60.7962 219.629V215.145H69.4231V216.553H62.5325V218.248H69.4915V219.629H60.7962ZM62.4915 224.961C62.4846 225.617 63.3528 225.932 65.0755 225.932C66.7639 225.932 67.6526 225.617 67.6595 224.961C67.6526 224.332 66.7639 224.004 65.0755 224.004C63.3528 224.004 62.4846 224.332 62.4915 224.961ZM74.4511 221.898V223.225H79.6327V221.898H81.3554V227.121H72.7421V221.898H74.4511ZM71.3749 221.078V219.684H79.3866C79.6259 218.48 79.6601 217.551 79.6737 216.717H72.7695V215.322H81.4101V216.32C81.4169 217.264 81.4169 218.269 81.1161 219.684H82.7636V221.078H71.3749ZM74.4511 225.713H79.6327V224.551H74.4511V225.713Z" fill="white"/>
</g>
<defs>
<filter id="filter0_d_2_4212" x="0" y="0" width="398" height="480" filterUnits="userSpaceOnUse" color-interpolation-filters="sRGB">
<feFlood flood-opacity="0" result="BackgroundImageFix"/>
<feColorMatrix in="SourceAlpha" type="matrix" values="0 0 0 0 0 0 0 0 0 0 0 0 0 0 0 0 0 0 127 0" result="hardAlpha"/>
<feOffset dy="4"/>
<feGaussianBlur stdDeviation="8"/>
<feComposite in2="hardAlpha" operator="out"/>
<feColorMatrix type="matrix" values="0 0 0 0 0.141176 0 0 0 0 0.176471 0 0 0 0 0.235294 0 0 0 0.08 0"/>
<feBlend mode="normal" in2="BackgroundImageFix" result="effect1_dropShadow_2_4212"/>
<feBlend mode="normal" in="SourceGraphic" in2="effect1_dropShadow_2_4212" result="shape"/>
</filter>
<clipPath id="clip0_2_4212">
<rect width="20" height="20" fill="white" transform="translate(234 114)"/>
</clipPath>
</defs>
</svg>
