<svg width="196" height="18" viewBox="0 0 196 18" fill="none" xmlns="http://www.w3.org/2000/svg">
<path d="M13.5508 0.0234375V6.625H16.168V8.65625H13.5508V17.8359H11.0508V0.0234375H13.5508ZM0.230469 13.5195V1.66406H8.57031V3.67578H2.71094V11.4688C5.28906 11.4492 7.41797 11.3125 9.78125 10.9023L10.0547 12.9922C7.29102 13.4609 4.86914 13.5293 1.73438 13.5195H0.230469ZM33.0187 2.23047V4.26172H30.7141V6.09766H33.0187V8.14844H30.7141V10.4141H28.2141V0.0234375H30.7141V2.23047H33.0187ZM16.7297 5.29688C16.7199 2.76758 18.8293 0.990234 21.6125 1C24.3664 0.990234 26.4562 2.76758 26.4562 5.29688C26.4562 7.80664 24.3664 9.60352 21.6125 9.59375C18.8293 9.60352 16.7199 7.80664 16.7297 5.29688ZM18.8 14.3008C18.7902 12.084 21.173 10.7754 24.8937 10.7656C28.5461 10.7754 30.8801 12.084 30.8898 14.3008C30.8801 16.4883 28.5461 17.8066 24.8937 17.7969C21.173 17.8066 18.7902 16.4883 18.8 14.3008ZM19.1906 5.29688C19.1711 6.68359 20.216 7.49414 21.6125 7.50391C22.9797 7.49414 24.0246 6.68359 24.0344 5.29688C24.0246 3.92969 22.9797 3.08008 21.6125 3.08984C20.216 3.08008 19.1711 3.92969 19.1906 5.29688ZM21.3 14.3008C21.2805 15.3457 22.5598 15.8242 24.8937 15.8242C27.1984 15.8242 28.4289 15.3457 28.4289 14.3008C28.4289 13.2656 27.1984 12.748 24.8937 12.7383C22.5598 12.748 21.2805 13.2656 21.3 14.3008ZM47.7992 0.0429688V5.49219H50.2016V7.52344H47.7992V13.3047H45.2992V0.0429688H47.7992ZM33.6977 3.87109V1.89844H37.7406V0.00390625H40.2211V1.89844H44.2445V3.87109H33.6977ZM34.557 7.93359C34.557 5.87305 36.3832 4.49609 38.9711 4.49609C41.5492 4.49609 43.3461 5.87305 43.3461 7.93359C43.3461 9.98438 41.5492 11.332 38.9711 11.332C36.3832 11.332 34.557 9.98438 34.557 7.93359ZM36.2758 17.4844V12.2891H38.7562V15.4922H48.4437V17.4844H36.2758ZM36.9984 7.93359C36.9887 8.91016 37.7797 9.4375 38.9711 9.4375C40.1723 9.4375 40.9828 8.91016 40.9828 7.93359C40.9828 6.94727 40.1723 6.40039 38.9711 6.39062C37.7797 6.40039 36.9887 6.94727 36.9984 7.93359ZM71.4617 13.6758V15.668H55.1922V13.6758H61.9891V9.65234H64.4695V13.6758H71.4617ZM55.5828 8.14844C59.6063 7.52344 61.8719 4.81836 61.8914 2.30859V1.03906H64.5477V2.30859C64.5379 4.84766 66.8328 7.52344 70.8953 8.14844L69.8406 10.2188C66.7156 9.65234 64.3914 7.98242 63.2195 5.76562C62.0574 7.97266 59.743 9.66211 56.6375 10.2188L55.5828 8.14844ZM79.0938 2.54297C79.0742 4.75977 80.3438 6.91797 83.2734 7.79688L82.0234 9.75C80.002 9.10547 78.5957 7.83594 77.8047 6.21484C77.0039 7.96289 75.5586 9.34961 73.4688 10.0234L72.2188 8.07031C75.1875 7.12305 76.4961 4.80859 76.4961 2.54297V0.84375H79.0938V2.54297ZM74.9336 13.3828V11.3906H87.1602V17.7969H84.6602V13.3828H74.9336ZM84.6602 10.6289V0.0234375H87.1602V10.6289H84.6602ZM97.468 0.277344C101.56 0.277344 103.923 1.35156 103.933 3.30469C103.923 5.28711 101.56 6.35156 97.468 6.35156C93.3664 6.35156 90.9836 5.28711 90.9836 3.30469C90.9836 1.35156 93.3664 0.277344 97.468 0.277344ZM89.3625 9.16406V7.19141H105.573V9.16406H89.3625ZM91.2375 12.0156V10.1992H103.601V14.7305H93.6984V15.8047H104.07V17.6797H91.257V12.9922H101.14V12.0156H91.2375ZM93.6008 3.30469C93.591 4.17383 94.8605 4.51562 97.468 4.51562C100.095 4.51562 101.355 4.17383 101.355 3.30469C101.355 2.51367 100.095 2.09375 97.468 2.09375C94.8605 2.09375 93.591 2.51367 93.6008 3.30469ZM125.838 0.0429688V13.0117H123.357V6.64453H120.447V4.63281H123.357V0.0429688H125.838ZM110.759 9.00781C113.699 8.08984 115.027 5.77539 115.037 3.5V3.22656H111.463V1.23438H121.111V3.22656H117.576V3.51953C117.566 5.58008 118.836 7.77734 121.658 8.69531L120.427 10.668C118.464 10.0234 117.107 8.73438 116.336 7.14258C115.545 8.91016 114.129 10.3457 112.029 11.0391L110.759 9.00781ZM114.041 17.4844V11.8789H116.541V15.4922H126.267V17.4844H114.041ZM136.516 2.73828V4.71094H127.923V2.73828H131.009V0.511719H133.47V2.73828H136.516ZM128.333 9.73047C128.333 7.25977 129.993 5.52148 132.259 5.51172C134.534 5.52148 136.155 7.25977 136.165 9.73047C136.155 12.2109 134.534 13.9688 132.259 13.9688C129.993 13.9688 128.333 12.2109 128.333 9.73047ZM130.52 9.73047C130.52 11.0879 131.223 11.8594 132.259 11.8594C133.255 11.8594 133.968 11.0879 133.977 9.73047C133.968 8.39258 133.255 7.58203 132.259 7.58203C131.223 7.58203 130.52 8.39258 130.52 9.73047ZM137.18 17.0352V0.375H139.505V7.25H140.95V0.0234375H143.313V17.7969H140.95V9.24219H139.505V17.0352H137.18ZM159.52 8.24609V10.2383H146.941V1.50781H159.383V3.51953H149.402V8.24609H159.52ZM145.027 15.6289V13.5781H161.297V15.6289H145.027ZM177.093 0.0234375V17.8359H174.613V10.668H171.566V8.61719H174.613V5.82422H171.624V3.79297H174.613V0.0234375H177.093ZM162.698 3.48047V1.50781H170.687V8.34375H165.218V11.8105C167.415 11.791 169.359 11.6934 171.605 11.3516L171.8 13.3828C169.144 13.8027 166.878 13.8613 164.144 13.8516H162.738V6.41016H168.245V3.48047H162.698ZM195.467 13.6758V15.7266H179.198V13.6758H182.83V9.32031C181.454 8.49023 180.623 7.23047 180.623 5.66797C180.623 2.78711 183.436 0.892578 187.303 0.882812C191.151 0.892578 193.993 2.78711 194.002 5.66797C193.993 7.20117 193.192 8.44141 191.854 9.27148V13.6758H195.467ZM183.084 5.66797C183.084 7.40625 184.754 8.48047 187.303 8.48047C189.813 8.48047 191.532 7.40625 191.541 5.66797C191.532 3.88086 189.813 2.8457 187.303 2.85547C184.754 2.8457 183.084 3.88086 183.084 5.66797ZM185.291 13.6758H189.334V10.2188C188.7 10.3457 188.016 10.4141 187.303 10.4141C186.59 10.4141 185.916 10.3457 185.291 10.2285V13.6758Z" fill="black"/>
</svg>
