<svg width="145" height="73" viewBox="0 0 145 73" fill="none" xmlns="http://www.w3.org/2000/svg">
<path d="M4.1875 3.65625V10.5312H10.9688V3.65625H12.7812V11.4688H17.375V1.53125H19.2812V27H17.375V13.1562H12.7812V21.375H2.3125V3.65625H4.1875ZM4.1875 19.6875H10.9688V12.1875H4.1875V19.6875ZM22.8438 28.4375V0.875H24.75V28.4375H22.8438ZM51.1175 0.875V28.4375H49.18V0.875H51.1175ZM30.43 21.2188V3.59375H32.3675V19.4688H32.6175C36.93 19.4688 41.2894 19.1406 46.0238 18.125L46.305 19.8438C41.3988 20.8594 37.0863 21.2188 32.6175 21.2188H30.43ZM78.5163 0.875V16.5625H76.5788V0.875H78.5163ZM57.6725 14.1875V2.5H59.6725V12.5H59.86C64.4538 12.4844 68.6569 12.1719 73.235 11.2188L73.5475 12.875C68.7663 13.8594 64.5631 14.1875 59.86 14.1875H57.6725ZM60.7663 28.0312V17.9062H78.5163V28.0312H60.7663ZM62.735 26.375H76.61V19.5H62.735V26.375ZM87.2588 24.0938L84.9775 32.1875H83.1338L84.8838 24.0938H87.2588ZM23.5938 44.4375V53.7812H27.2188V57.0625H23.5938V66.625H19.5938V44.4375H23.5938ZM0.53125 60.7812C2.57812 60.7812 4.95312 60.7656 7.4375 60.6875V59.0469C4.34375 58.6094 2.42188 57.0781 2.4375 54.8438C2.42188 52.0312 5.1875 50.3906 9.40625 50.4062C13.5938 50.3906 16.3594 52.0312 16.375 54.8438C16.3594 57.0625 14.4531 58.5938 11.4062 59.0469V60.5C13.7344 60.3594 16.0781 60.1406 18.2812 59.8125L18.5625 62.5625C12.5781 63.7188 5.84375 63.7969 0.9375 63.8438L0.53125 60.7812ZM1.28125 49.5938V46.75H7.4375V44.3438H11.4062V46.75H17.5625V49.5938H1.28125ZM4.53125 72.375V65.1562H8.53125V69.1875H24.5625V72.375H4.53125ZM6.25 54.8438C6.23438 55.9062 7.375 56.5156 9.40625 56.5C11.4062 56.5156 12.5469 55.9062 12.5625 54.8438C12.5469 53.6406 11.4062 53.0625 9.40625 53.0625C7.375 53.0625 6.23438 53.6406 6.25 54.8438ZM36.1175 45.9688C38.3831 45.9531 40.3675 46.7969 41.7269 48.1875H48.18V44.4375H52.1488V61.0938H48.18V57.6875H41.6956C40.3363 59.0625 38.3675 59.8906 36.1175 59.875C31.805 59.8906 28.5238 56.9531 28.555 52.9375C28.5238 48.875 31.805 45.9531 36.1175 45.9688ZM32.3363 52.9375C32.3206 55.125 33.8988 56.5156 36.1175 56.5C38.2581 56.5156 39.8206 55.125 39.8363 52.9375C39.8206 50.6719 38.2581 49.3594 36.1175 49.375C33.8988 49.3594 32.3206 50.6719 32.3363 52.9375ZM32.6488 67.2812C32.6488 63.75 36.4144 61.6719 42.43 61.6875C48.4456 61.6719 52.2269 63.75 52.2425 67.2812C52.2269 70.8125 48.4456 72.8906 42.43 72.875C36.4144 72.8906 32.6488 70.8125 32.6488 67.2812ZM36.555 67.2812C36.555 68.9375 38.6644 69.7812 42.43 69.7812C46.2738 69.7812 48.3206 68.9375 48.3363 67.2812C48.3206 65.5781 46.2738 64.7344 42.43 64.7188C38.6644 64.7344 36.555 65.5781 36.555 67.2812ZM43.43 51.3438C43.555 51.8438 43.6175 52.3906 43.6175 52.9375C43.6175 53.4844 43.555 54 43.4456 54.5H48.18V51.3438H43.43ZM78.0788 44.4375V51.2812H81.9225V54.5938H78.0788V61.0938H74.0788V44.4375H78.0788ZM55.5163 50.0625V46.9375H61.985V44.25H65.9538V46.9375H72.3913V50.0625H55.5163ZM56.8913 55.9062C56.8913 52.875 59.7663 50.875 63.9538 50.875C68.0944 50.875 70.9538 52.875 70.9538 55.9062C70.9538 58.9375 68.0944 60.9375 63.9538 60.9375C59.7663 60.9375 56.8913 58.9375 56.8913 55.9062ZM59.4538 72.5625V62.1875H63.4225V64.3438H74.0788V62.1875H78.0788V72.5625H59.4538ZM60.7975 55.9062C60.7819 57.2812 62.0475 58.0156 63.9538 58.0312C65.8756 58.0156 67.1725 57.2812 67.1725 55.9062C67.1725 54.5781 65.8756 53.7812 63.9538 53.8125C62.0475 53.7812 60.7819 54.5781 60.7975 55.9062ZM63.4225 69.4375H74.0788V67.4062H63.4225V69.4375ZM106.759 44.4375V72.875H102.79V44.4375H106.759ZM84.3838 65.8438V47.1562H88.3213V62.4531C92.165 62.3906 96.29 62.0312 100.478 61.2188L100.978 64.5C95.9931 65.5469 91.2744 65.8594 86.8838 65.8438H84.3838ZM132.626 44.4375V55H136.814V58.25H132.626V72.9375H128.626V44.4375H132.626ZM111.314 66.0312V47.0625H124.658V50.2812H115.283V62.75C119.408 62.7188 122.814 62.5 126.595 61.8438L127.033 65.1875C122.611 65.9375 118.736 66.0469 113.72 66.0312H111.314ZM143.994 47.375L143.587 63.2188H139.587L139.181 47.375H143.994ZM138.994 67.6562C138.962 66.2188 140.15 65.0469 141.619 65.0625C143.009 65.0469 144.212 66.2188 144.212 67.6562C144.212 69.1094 143.009 70.2812 141.619 70.2812C140.15 70.2812 138.962 69.1094 138.994 67.6562Z" fill="black"/>
</svg>
