<svg width="127" height="43" viewBox="0 0 127 43" fill="none" xmlns="http://www.w3.org/2000/svg">
<path d="M7.42188 4.86719C7.42188 7.73828 8.88672 10.8047 11.875 12.0547L10.5273 14.0078C8.42773 13.1191 6.98242 11.3516 6.19141 9.18359C5.38086 11.5371 3.90625 13.4902 1.81641 14.457L0.390625 12.4844C3.33984 11.1758 4.86328 7.875 4.86328 4.86719V3.77344H1.09375V1.74219H11.1328V3.77344H7.42188V4.86719ZM15.4102 0.0234375V17.7969H12.8906V0.0234375H15.4102ZM31.7484 0.824219V2.25C31.7484 3.63672 31.7484 5.17969 31.3383 7.21094H33.682V9.22266H17.4125V7.21094H28.8188C29.2094 5.43359 29.2582 4.05664 29.268 2.81641H19.4047V0.824219H31.7484ZM31.6898 11.0977V17.6016H19.3461V11.0977H31.6898ZM21.7875 13.0508V15.6094H29.2094V13.0508H21.7875ZM52.5305 0.0234375V6.83984H55.05V8.89062H52.5305V17.7578H50.0305V0.0234375H52.5305ZM47.7844 1.83984C47.7648 7.15234 45.6945 11.7617 39.718 14.6914L38.3117 12.7773C42.5207 10.668 44.7766 7.83594 45.2453 3.87109H39.3273V1.83984H47.7844ZM65.4898 1.21484V3.20703H61.9547C61.9742 5.27734 63.2145 7.2793 66.0563 8.10938L64.8648 10.0625C62.902 9.4668 61.5445 8.27539 60.7633 6.74219C59.9723 8.53906 58.527 9.96484 56.3883 10.668L55.1188 8.69531C58.068 7.76758 59.3961 5.46289 59.4352 3.20703H55.8023V1.21484H65.4898ZM69.4938 0.0234375V4.14453H71.8961V6.17578H69.4938V10.5703H66.9938V0.0234375H69.4938ZM63.6734 10.9219C67.3648 10.9023 69.6695 12.1719 69.6695 14.3398C69.6695 16.5078 67.3648 17.7969 63.6734 17.7969C59.9039 17.7969 57.5797 16.5078 57.5797 14.3398C57.5797 12.1719 59.9039 10.9023 63.6734 10.9219ZM63.6734 12.8555C61.3297 12.8555 60.0602 13.3438 60.0797 14.3398C60.0602 15.3555 61.3297 15.8633 63.6734 15.8633C65.9781 15.8633 67.2086 15.3555 67.2086 14.3398C67.2086 13.3438 65.9781 12.8555 63.6734 12.8555ZM91.5258 8.30469V10.2773H85.0414V1.70312H91.4672V3.71484H87.5414V8.30469H91.5258ZM92.6977 13.5391V15.5898H76.4867V13.5391H92.6977ZM84.182 1.70312V3.71484H80.3539V8.28516C81.7309 8.25586 82.9125 8.14844 84.2406 7.91406L84.4555 9.88672C82.6 10.2578 81.0766 10.2773 78.9477 10.2773H77.8344V1.70312H84.182ZM108.352 0.0234375V17.7969H105.872V8.89062H102.337V6.85938H105.872V0.0234375H108.352ZM102.434 1.87891C102.434 7.25 100.696 11.625 94.4852 14.7109L93.1961 12.7578C97.6883 10.541 99.5437 7.71875 99.9344 3.83203H94.0359V1.87891H102.434ZM126.507 8.67578V10.668H119.769V13.7539H117.249V10.668H110.238V8.67578H126.507ZM124.71 15.4727V17.4844H112.171V12.1719H114.691V15.4727H124.71ZM118.363 0.355469C122.21 0.375 124.769 1.80078 124.788 4.04688C124.769 6.3125 122.21 7.71875 118.363 7.71875C114.495 7.71875 111.917 6.3125 111.917 4.04688C111.917 1.80078 114.495 0.375 118.363 0.355469ZM118.363 2.32812C116.058 2.32812 114.593 2.91406 114.613 4.04688C114.593 5.14062 116.058 5.72656 118.363 5.72656C120.648 5.72656 122.113 5.14062 122.113 4.04688C122.113 2.91406 120.648 2.32812 118.363 2.32812ZM15.4102 25.043V37.8164H12.9102V25.043H15.4102ZM15.8789 40.4922V42.4844H3.49609V36.5273H6.01562V40.4922H15.8789ZM5.66406 26.1758C8.39844 26.1758 10.5273 28.0508 10.5273 30.6484C10.5273 33.3047 8.39844 35.1602 5.66406 35.1602C2.92969 35.1602 0.800781 33.3047 0.800781 30.6484C0.800781 28.0508 2.92969 26.1758 5.66406 26.1758ZM5.66406 28.3438C4.27734 28.3242 3.22266 29.2031 3.24219 30.6484C3.22266 32.1328 4.27734 32.9922 5.66406 32.9922C7.01172 32.9922 8.06641 32.1328 8.06641 30.6484C8.06641 29.2031 7.01172 28.3242 5.66406 28.3438ZM23.0961 28.1875C23.0961 30.1016 24.0922 32.0156 26.4555 32.9141L25.1273 34.8086C23.6137 34.2324 22.5688 33.1777 21.9242 31.8594C21.2797 33.4023 20.1664 34.6914 18.5063 35.375L17.1586 33.4609C19.6586 32.3672 20.6742 30.1797 20.6742 28.1875V26.0977H23.0961V28.1875ZM32.6859 25.043V35.9023H30.3227V31.3906H28.8383V35.3555H26.5141V25.3555H28.8383V29.3789H30.3227V25.043H32.6859ZM26.6117 36.1562C30.3617 36.1562 32.7641 37.4062 32.7836 39.4766C32.7641 41.5469 30.3617 42.7969 26.6117 42.7969C22.8422 42.7969 20.4594 41.5469 20.4594 39.4766C20.4594 37.4062 22.8422 36.1562 26.6117 36.1562ZM26.6117 38.0117C24.2875 38.0117 22.9398 38.5195 22.9594 39.4766C22.9398 40.4336 24.2875 40.9219 26.6117 40.9219C28.9164 40.9219 30.2641 40.4336 30.2641 39.4766C30.2641 38.5195 28.9164 38.0117 26.6117 38.0117ZM54.718 31.1953V33.1875H47.8625V34.6523H52.7062V39.5547H42.882V40.707H53.2141V42.6797H40.382V37.7188H50.2258V36.6055H40.343V34.6523H45.3625V33.1875H38.507V31.1953H42.8039C43.2824 29.6914 43.3996 28.5586 43.4289 27.582H39.9523V25.5898H45.8508V26.7422C45.8508 27.8652 45.8508 29.3496 45.343 31.1953H49.8352C50.2746 29.6914 50.3918 28.5293 50.4406 27.582H46.9445V25.5898H52.843V26.5469C52.843 27.6602 52.843 29.2129 52.3352 31.1953H54.718ZM64.982 25.9414V27.8945H58.8688V29.2617H64.4547V31.2148H58.8688V32.582C61.9938 32.5723 63.9762 32.4844 66.232 32.1133L66.4859 34.0664C63.9469 34.4766 61.7008 34.5547 57.8922 34.5352H56.3688V25.9414H64.982ZM70.275 25.0234V34.9453H67.775V25.0234H70.275ZM60.8414 35.668V37.1719H67.7945V35.668H70.275V42.6016H58.3805V35.668H60.8414ZM60.8414 40.6094H67.7945V39.1055H60.8414V40.6094ZM76.3203 26.8594L76.0664 36.7617H73.5664L73.3125 26.8594H76.3203ZM74.8359 41.1758C73.918 41.1758 73.1758 40.4336 73.1953 39.5352C73.1758 38.6367 73.918 37.9141 74.8359 37.9141C75.6953 37.9141 76.457 38.6367 76.457 39.5352C76.457 40.4336 75.6953 41.1758 74.8359 41.1758Z" fill="black"/>
</svg>
