<svg width="197" height="39" viewBox="0 0 197 39" fill="none" xmlns="http://www.w3.org/2000/svg">
<rect x="197" y="28" width="197" height="28" rx="14" transform="rotate(-180 197 28)" fill="#6A5ACD"/>
<path d="M15.9229 11.7889C15.9229 13.6805 16.6973 15.5848 18.2461 16.41L17.5352 17.3622C16.4624 16.7592 15.7324 15.6801 15.3389 14.3915C14.9136 15.8007 14.1328 17.0067 13.0283 17.6542L12.2666 16.7782C13.8916 15.826 14.7549 13.8075 14.7549 11.8651V9.745H15.9229V11.7889ZM22.207 8.70398V20.079H21.0518V14.2137H19.6807V19.5204H18.5254V8.9198H19.6807V13.2362H21.0518V8.70398H22.207ZM33.9218 14.4677V15.4452H23.5116V14.4677H28.12V13.5155H24.8446V10.7479H31.4081V9.85925H24.8192V8.9198H32.6141V11.6366H26.038V12.576H32.8427V13.5155H29.3134V14.4677H33.9218ZM26.0887 15.9657V16.9559H31.4335V15.9657H32.6268V19.9393H24.8827V15.9657H26.0887ZM26.0887 18.9872H31.4335V17.8827H26.0887V18.9872ZM44.405 8.70398V20.079H43.2625V8.70398H44.405ZM42.0056 8.99597V19.5204H40.863V14.2391H38.6414C37.9622 15.5594 36.8831 16.7147 35.2771 17.6542L34.5916 16.7909C37.0037 15.3563 38.1653 13.4457 38.3748 11.1034H35.1248V10.1132H39.5681C39.5618 11.224 39.4094 12.2841 39.0603 13.2743H40.863V8.99597H42.0056ZM59.1382 13.6932V14.5946H54.5552V15.5468H57.8433V18.1112H51.2163V19.0507H58.1607V19.9647H50.0357V17.2733H56.6499V16.4227H50.023V15.5468H53.3618V14.5946H48.7915V13.6932H59.1382ZM54.5552 8.6532V9.65613H58.1099V10.5829H54.6568C54.8853 11.5477 56.4278 12.2206 58.6304 12.3348L58.2622 13.2489C56.2818 13.1093 54.6695 12.5253 53.9585 11.5223C53.2476 12.5253 51.6353 13.1093 49.6421 13.2489L49.2993 12.3348C51.4829 12.2206 53.0191 11.5477 53.273 10.5829H49.8198V9.65613H53.3618V8.6532H54.5552ZM64.0609 11.5985C64.0482 13.6805 65.3051 15.7626 67.0697 16.5497L66.3461 17.5018C65.0385 16.8798 64.0038 15.6039 63.477 14.0487C62.9437 15.7118 61.8964 17.0892 60.5316 17.7557L59.7953 16.7401C61.5854 15.9403 62.8422 13.7694 62.8422 11.5985V9.65613H64.0609V11.5985ZM69.3041 8.70398V20.1044H68.098V8.70398H69.3041ZM77.6165 12.3475V13.3251H75.3948V14.7596C76.4041 14.7152 77.407 14.6454 78.3401 14.5438L78.429 15.4325C76.0042 15.7626 73.3382 15.826 71.2054 15.826L71.0403 14.8612C72.0115 14.8549 73.097 14.8422 74.2014 14.8104V13.3251H72.0559V9.42761H77.5149V10.4052H73.262V12.3475H77.6165ZM80.4221 8.70398V17.2352H79.2161V8.70398H80.4221ZM80.7776 18.8602V19.8378H72.9192V16.6259H74.1253V18.8602H80.7776ZM94.8379 8.71667V15.0516H93.6954V8.71667H94.8379ZM92.7305 8.89441V14.9628H91.5879V12.5887H90.4327V11.6366H91.5879V8.89441H92.7305ZM94.8379 15.5087V18.1239H88.4268V19.0507H95.2315V19.9647H87.2334V17.2733H93.6573V16.41H87.208V15.5087H94.8379ZM90.6993 9.745V10.6718H85.0752V9.745H87.2842V8.67859H88.4903V9.745H90.6993ZM87.8936 11.078C89.2774 11.078 90.2676 11.827 90.2676 12.9696C90.2676 14.0995 89.2774 14.8358 87.8936 14.8231C86.4844 14.8358 85.5069 14.0995 85.5069 12.9696C85.5069 11.827 86.4844 11.078 87.8936 11.078ZM87.8936 11.9413C87.0938 11.9286 86.5606 12.3475 86.5733 12.9696C86.5606 13.5917 87.0938 13.9852 87.8936 13.9852C88.668 13.9852 89.2012 13.5917 89.2012 12.9696C89.2012 12.3475 88.668 11.9286 87.8936 11.9413ZM102.02 10.3163C102.02 12.1698 104.001 13.9218 106.184 14.3153L105.626 15.3182C103.81 14.9247 102.135 13.7313 101.398 12.1317C100.649 13.7186 98.9799 14.912 97.1581 15.3182L96.6249 14.3153C98.7831 13.9091 100.751 12.1698 100.751 10.3163V9.453H102.02V10.3163ZM106.654 17.578V18.5809H96.2441V17.578H106.654ZM112.377 10.0243C112.377 11.1034 112.269 12.1508 111.971 13.1346H113.583V8.99597H114.725V19.5204H113.583V14.1122H111.602C110.968 15.5023 109.869 16.7401 108.073 17.743L107.387 16.9052C109.038 15.9847 110.034 14.8739 110.599 13.6044L107.553 13.9218L107.387 12.8807L110.942 12.6649C111.082 12.1381 111.164 11.5858 111.209 11.0145H107.946V10.0243H112.377ZM117.125 8.70398V20.079H115.982V8.70398H117.125ZM121.54 9.55457C123.082 9.55457 124.212 10.8622 124.396 12.9696H126.745V8.70398H127.938V20.1044H126.745V13.9471H124.409C124.276 16.1625 123.12 17.5399 121.54 17.5399C119.839 17.5399 118.645 15.9911 118.658 13.5409C118.645 11.1034 119.839 9.55457 121.54 9.55457ZM121.54 10.6337C120.511 10.6337 119.8 11.7509 119.8 13.5409C119.8 15.3436 120.511 16.4608 121.54 16.4608C122.568 16.4608 123.279 15.3436 123.279 13.5409C123.279 11.7509 122.568 10.6337 121.54 10.6337ZM136.705 11.5985C136.705 13.6805 137.872 15.7499 139.612 16.537L138.875 17.5018C137.581 16.8544 136.609 15.5658 136.108 14.0106C135.606 15.6483 134.61 17.0321 133.302 17.7177L132.54 16.7401C134.305 15.9022 135.486 13.7059 135.486 11.5985V9.65613H136.705V11.5985ZM142.087 8.70398V20.1044H140.894V13.4647H138.355V12.4872H140.894V8.70398H142.087ZM153.129 8.70398V20.1044H151.923V8.70398H153.129ZM145.55 9.65613V12.576H148.61V9.65613H149.803V17.3749H144.344V9.65613H145.55ZM145.55 16.3846H148.61V13.5282H145.55V16.3846ZM160.591 10.3163C160.591 12.1698 162.571 13.9218 164.755 14.3153L164.196 15.3182C162.381 14.9247 160.705 13.7313 159.969 12.1317C159.22 13.7186 157.55 14.912 155.729 15.3182L155.196 14.3153C157.354 13.9091 159.321 12.1698 159.321 10.3163V9.453H160.591V10.3163ZM165.225 17.578V18.5809H154.815V17.578H165.225ZM168.015 9.80847L167.9 16.3466H166.644L166.529 9.80847H168.015ZM167.278 19.0887C166.783 19.0887 166.364 18.6825 166.377 18.1874C166.364 17.6923 166.783 17.286 167.278 17.286C167.761 17.286 168.18 17.6923 168.18 18.1874C168.18 18.6825 167.761 19.0887 167.278 19.0887Z" fill="white"/>
<path fill-rule="evenodd" clip-rule="evenodd" d="M178.494 19.9999C168.777 15.0081 171.899 9.04624 175.478 8.99988C176.554 8.99988 177.679 9.53351 178.494 10.8399C179.317 9.53351 180.442 8.99988 181.517 8.99988H181.566C185.096 9.04624 188.218 15.0081 178.493 19.9999H178.494Z" fill="white"/>
<path d="M29.6883 36.3397C28.9027 37.5768 27.0973 37.5768 26.3117 36.3397L20.4248 27.0703C19.5792 25.7388 20.5358 23.9981 22.1131 23.9981L33.8869 23.9981C35.4642 23.9981 36.4208 25.7388 35.5752 27.0703L29.6883 36.3397Z" fill="#6A5ACD"/>
</svg>
