<svg width="75" height="20" viewBox="0 0 75 20" fill="none" xmlns="http://www.w3.org/2000/svg">
<path d="M2.78 0.699999H15.42V2.64H10.36V2.74C10.36 3.02 10.4533 3.28 10.64 3.52C10.8267 3.74667 11.1533 3.94 11.62 4.1C12.38 4.36667 13.1467 4.62 13.92 4.86C14.6933 5.08667 15.4467 5.30667 16.18 5.52L15.52 7.42C14.84 7.22 14.1067 7 13.32 6.76C12.5467 6.52 11.82 6.28667 11.14 6.06C10.54 5.86 10.0733 5.68667 9.74 5.54C9.40667 5.39333 9.20667 5.24667 9.14 5.1H9.12C8.98667 5.35333 8.30667 5.68667 7.08 6.1C6.4 6.32667 5.66667 6.56 4.88 6.8C4.10667 7.04 3.38 7.26 2.7 7.46L2.02 5.52C2.75333 5.30667 3.50667 5.08667 4.28 4.86C5.05333 4.62 5.82 4.36667 6.58 4.1C7.04667 3.94 7.37333 3.74667 7.56 3.52C7.74667 3.28 7.84 3.02 7.84 2.74V2.64H2.78V0.699999ZM9.1 19.4C8.35333 19.4 7.66667 19.3533 7.04 19.26C6.41333 19.1667 5.87333 19.0267 5.42 18.84C4.96667 18.6533 4.61333 18.4133 4.36 18.12C4.10667 17.8267 3.98 17.48 3.98 17.08V16.64C3.98 16.24 4.10667 15.8933 4.36 15.6C4.61333 15.3067 4.96667 15.0667 5.42 14.88C5.87333 14.6933 6.41333 14.5533 7.04 14.46C7.66667 14.3667 8.35333 14.32 9.1 14.32C9.84667 14.32 10.5333 14.3667 11.16 14.46C11.7867 14.5533 12.3267 14.6933 12.78 14.88C13.2333 15.0667 13.5867 15.3067 13.84 15.6C14.0933 15.8933 14.22 16.24 14.22 16.64V17.08C14.22 17.48 14.0933 17.8267 13.84 18.12C13.5867 18.4133 13.2333 18.6533 12.78 18.84C12.3267 19.0267 11.7867 19.1667 11.16 19.26C10.5333 19.3533 9.84667 19.4 9.1 19.4ZM7.84 8.14V6.58H10.36V8.14H17.62V10.08H0.58V8.14H7.84ZM7.82 11.88V10.6H10.38V11.88H15.96V13.74H2.48V11.88H7.82ZM9.1 16.12C8.26 16.12 7.60667 16.1667 7.14 16.26C6.67333 16.3533 6.44 16.54 6.44 16.82V16.9C6.44 17.18 6.67333 17.3667 7.14 17.46C7.60667 17.5533 8.26 17.6 9.1 17.6C9.94 17.6 10.5933 17.5533 11.06 17.46C11.5267 17.3667 11.76 17.18 11.76 16.9V16.82C11.76 16.54 11.5267 16.3533 11.06 16.26C10.5933 16.1667 9.94 16.12 9.1 16.12ZM23.3031 16.54H33.3831V18.68H20.7831V13.12H23.3031V16.54ZM35.4231 9.88V12H18.3831V9.88H35.4231ZM26.9031 8.74C26.0098 8.74 25.1898 8.66 24.4431 8.5C23.6965 8.32667 23.0498 8.08667 22.5031 7.78C21.9698 7.46 21.5498 7.07333 21.2431 6.62C20.9498 6.15333 20.8031 5.62667 20.8031 5.04V4.28C20.8031 3.69333 20.9498 3.17333 21.2431 2.72C21.5498 2.25333 21.9698 1.86667 22.5031 1.56C23.0498 1.24 23.6965 0.999999 24.4431 0.84C25.1898 0.666666 26.0098 0.579999 26.9031 0.579999C27.7965 0.579999 28.6165 0.666666 29.3631 0.84C30.1098 0.999999 30.7498 1.24 31.2831 1.56C31.8298 1.86667 32.2498 2.25333 32.5431 2.72C32.8498 3.17333 33.0031 3.69333 33.0031 4.28V5.04C33.0031 5.62667 32.8498 6.15333 32.5431 6.62C32.2498 7.07333 31.8298 7.46 31.2831 7.78C30.7498 8.08667 30.1098 8.32667 29.3631 8.5C28.6165 8.66 27.7965 8.74 26.9031 8.74ZM26.9031 2.62C26.3431 2.62 25.8365 2.67333 25.3831 2.78C24.9431 2.87333 24.5698 3 24.2631 3.16C23.9565 3.32 23.7165 3.50667 23.5431 3.72C23.3831 3.93333 23.3031 4.16 23.3031 4.4V4.92C23.3031 5.16 23.3831 5.38667 23.5431 5.6C23.7165 5.81333 23.9565 6 24.2631 6.16C24.5698 6.32 24.9431 6.45333 25.3831 6.56C25.8365 6.65333 26.3431 6.7 26.9031 6.7C27.4631 6.7 27.9631 6.65333 28.4031 6.56C28.8565 6.45333 29.2365 6.32 29.5431 6.16C29.8498 6 30.0831 5.81333 30.2431 5.6C30.4165 5.38667 30.5031 5.16 30.5031 4.92V4.4C30.5031 4.16 30.4165 3.93333 30.2431 3.72C30.0831 3.50667 29.8498 3.32 29.5431 3.16C29.2365 3 28.8565 2.87333 28.4031 2.78C27.9631 2.67333 27.4631 2.62 26.9031 2.62ZM50.5662 11.36V14.4H57.8263V16.54H40.7862V14.4H48.0462V11.36H43.0862V1.56H45.6062V4.54H53.0063V1.56H55.5262V11.36H50.5662ZM53.0063 9.24V6.68H45.6062V9.24H53.0063ZM62.2094 12.34H74.0294V18.9H62.2094V12.34ZM64.0694 11.36C63.3627 11.36 62.736 11.2867 62.1894 11.14C61.6427 10.98 61.1827 10.7667 60.8094 10.5C60.436 10.2333 60.1494 9.91333 59.9494 9.54C59.7494 9.16667 59.6494 8.76667 59.6494 8.34V7.74C59.6494 7.31333 59.7494 6.92 59.9494 6.56C60.1494 6.18667 60.436 5.86667 60.8094 5.6C61.1827 5.32 61.6427 5.10667 62.1894 4.96C62.736 4.8 63.3627 4.72 64.0694 4.72C64.7627 4.72 65.3827 4.8 65.9294 4.96C66.4894 5.10667 66.956 5.32 67.3294 5.6C67.7027 5.86667 67.9894 6.18667 68.1894 6.56C68.3894 6.92 68.4894 7.31333 68.4894 7.74V8.34C68.4894 8.76667 68.3894 9.16667 68.1894 9.54C67.9894 9.91333 67.7027 10.2333 67.3294 10.5C66.956 10.7667 66.4894 10.98 65.9294 11.14C65.3827 11.2867 64.7627 11.36 64.0694 11.36ZM71.5094 8.18H69.2694V6.02H71.5094V0.28H74.0294V11.5H71.5094V8.18ZM65.3094 2.04H69.4294V4.14H58.7094V2.04H62.7894V0.0399992H65.3094V2.04ZM64.7094 16.84H71.5294V14.4H64.7094V16.84ZM64.0694 6.68C63.3894 6.68 62.876 6.80667 62.5294 7.06C62.196 7.3 62.0294 7.56667 62.0294 7.86V8.22C62.0294 8.51333 62.196 8.78667 62.5294 9.04C62.876 9.28 63.3894 9.4 64.0694 9.4C64.7494 9.4 65.256 9.28 65.5894 9.04C65.936 8.78667 66.1094 8.51333 66.1094 8.22V7.86C66.1094 7.56667 65.936 7.3 65.5894 7.06C65.256 6.80667 64.7494 6.68 64.0694 6.68Z" fill="black"/>
</svg>
