<svg width="126" height="18" viewBox="0 0 126 18" fill="none" xmlns="http://www.w3.org/2000/svg">
<path d="M14.7461 1.66406V3.79297C14.7461 6.23438 14.7461 8.65625 14.1016 12.3281L11.582 12.1133C12.2461 8.69531 12.2461 6.15625 12.2656 3.79297V3.65625H2.20703V1.66406H14.7461ZM16.7383 13.4219V15.4727H0.527344V13.4219H16.7383ZM33.6625 8.61719V10.5898H26.7289V12.1328H24.268V10.5898H17.393V8.61719H33.6625ZM21.8852 11.3516V12.8164H29.2484V11.3516H31.7094V17.6016H19.4242V11.3516H21.8852ZM21.8852 15.707H29.2484V14.6328H21.8852V15.707ZM31.6898 0.277344V4.84766H21.9047V5.88281H32.0219V7.71875H19.4242V3.10938H29.1898V2.15234H19.3852V0.277344H31.6898ZM46.8469 1.70312V3.65625H44.1125C44.1906 5.0918 45.2648 6.53711 47.4133 7.23047L46.3586 9.04688C44.718 8.55859 43.5949 7.57227 42.9602 6.37109C42.3059 7.68945 41.1926 8.79297 39.5617 9.35938L38.468 7.50391C40.5773 6.71289 41.6711 5.12109 41.7492 3.65625H38.9953V1.70312H41.7492V0.0820312H44.1125V1.70312H46.8469ZM53.7805 0.0429688V9.35938H51.4172V5.6875H49.9914V9.24219H47.6477V0.355469H49.9914V3.71484H51.4172V0.0429688H53.7805ZM53.7805 10.0039V14.6523H44.1125V15.7656H54.3859V17.6016H41.632V12.8555H51.3195V11.8789H41.6125V10.0039H53.7805ZM70.2555 0.0429688V13.1289H67.775V0.0429688H70.2555ZM70.7242 15.4922V17.4844H58.3023V12.0352H60.7828V15.4922H70.7242ZM64.5523 1.19531V6.85938H58.7711V8.83203C61.9449 8.82227 63.9762 8.73438 66.2711 8.28516L66.5445 10.2773C63.9664 10.7656 61.6617 10.8633 57.8922 10.8633H56.3297V5.02344H62.0719V3.1875H56.3102V1.19531H64.5523ZM79.1719 4.86719C79.1719 7.73828 80.6367 10.8047 83.625 12.0547L82.2773 14.0078C80.1777 13.1191 78.7324 11.3516 77.9414 9.18359C77.1309 11.5371 75.6562 13.4902 73.5664 14.457L72.1406 12.4844C75.0898 11.1758 76.6133 7.875 76.6133 4.86719V3.77344H72.8438V1.74219H82.8828V3.77344H79.1719V4.86719ZM87.1602 0.0234375V17.7969H84.6406V0.0234375H87.1602ZM109.641 13.6758V15.7266H93.3719V13.6758H100.227V10.043H95.0906V1.33203H107.825V10.043H102.708V13.6758H109.641ZM97.5516 3.32422V8.08984H105.364V3.32422H97.5516ZM125.14 0.0429688V10.082H122.64V0.0429688H125.14ZM125.14 10.8828V17.6016H113.226V10.8828H125.14ZM115.687 12.8555V15.6094H122.698V12.8555H115.687ZM115.394 0.84375C118.167 0.84375 120.257 2.60156 120.257 5.14062C120.257 7.58203 118.167 9.37891 115.394 9.37891C112.62 9.37891 110.53 7.58203 110.53 5.14062C110.53 2.60156 112.62 0.84375 115.394 0.84375ZM115.394 2.93359C113.968 2.93359 112.952 3.75391 112.972 5.14062C112.952 6.46875 113.968 7.28906 115.394 7.28906C116.78 7.28906 117.796 6.46875 117.796 5.14062C117.796 3.75391 116.78 2.93359 115.394 2.93359Z" fill="black"/>
</svg>
