<svg width="112" height="19" viewBox="0 0 112 19" fill="none" xmlns="http://www.w3.org/2000/svg">
<path d="M17.62 14.4V16.54H0.58V14.4H17.62ZM9.16 7.66C9.05333 7.88667 8.82667 8.13333 8.48 8.4C8.14667 8.65333 7.72667 8.95333 7.22 9.3C6.67333 9.66 6.04 10.06 5.32 10.5C4.6 10.9267 3.76 11.4133 2.8 11.96L1.56 9.96C2.29333 9.54667 3.03333 9.12 3.78 8.68C4.52667 8.22667 5.19333 7.8 5.78 7.4C6.18 7.13333 6.50667 6.86667 6.76 6.6C7.02667 6.33333 7.23333 6.05333 7.38 5.76C7.54 5.45333 7.65333 5.12667 7.72 4.78C7.78667 4.43333 7.82 4.04 7.82 3.6V1.54H10.38V3.6C10.38 4.04 10.4133 4.43333 10.48 4.78C10.5467 5.12667 10.6533 5.45333 10.8 5.76C10.96 6.05333 11.1667 6.33333 11.42 6.6C11.6867 6.86667 12.02 7.13333 12.42 7.4C13.0067 7.8 13.6733 8.22667 14.42 8.68C15.1667 9.12 15.9067 9.54667 16.64 9.96L15.42 11.92C14.46 11.3733 13.62 10.8867 12.9 10.46C12.18 10.02 11.5467 9.62 11 9.26C10.4933 8.91333 10.0867 8.62 9.78 8.38C9.48667 8.12667 9.28667 7.88667 9.18 7.66H9.16ZM28.2631 1.9V14.04H19.2831V1.9H28.2631ZM25.7431 4.04H21.8031V11.9H25.7431V4.04ZM33.1431 6.82H35.7031V9.02H33.1431V18.88H30.6031V0.28H33.1431V6.82ZM53.2263 14.4V16.54H36.1863V14.4H53.2263ZM51.0463 11.86H38.3863V1.66H50.8463V3.78H40.8863V5.7H50.6863V7.82H40.8863V9.74H51.0463V11.86ZM73.3494 6.9H75.9094V9.1H73.3494V18.88H70.8094V0.28H73.3494V6.9ZM62.0494 12.3H63.7294C64.6494 12.3 65.6027 12.2733 66.5894 12.22C67.576 12.1533 68.536 12.06 69.4694 11.94L69.7494 14.06C68.8027 14.2067 67.7694 14.3067 66.6494 14.36C65.5294 14.4133 64.356 14.44 63.1294 14.44H59.5494V6.9H65.5094V3.86H59.5494V1.72H68.0094V8.96H62.0494V12.3ZM82.1325 14.5C81.2792 14.5 80.5458 14.3667 79.9325 14.1C79.3325 13.8333 78.8392 13.46 78.4525 12.98C78.0658 12.5 77.7792 11.9333 77.5925 11.28C77.4192 10.6267 77.3325 9.90667 77.3325 9.12V6.9C77.3325 6.12667 77.4192 5.41333 77.5925 4.76C77.7792 4.09333 78.0658 3.52 78.4525 3.04C78.8392 2.56 79.3325 2.18667 79.9325 1.92C80.5458 1.65333 81.2792 1.52 82.1325 1.52C82.9858 1.52 83.7125 1.65333 84.3125 1.92C84.9258 2.18667 85.4258 2.56 85.8125 3.04C86.1992 3.52 86.4792 4.09333 86.6525 4.76C86.8392 5.41333 86.9325 6.12667 86.9325 6.9V9.12C86.9325 9.90667 86.8392 10.6267 86.6525 11.28C86.4792 11.9333 86.1992 12.5 85.8125 12.98C85.4258 13.46 84.9258 13.8333 84.3125 14.1C83.7125 14.3667 82.9858 14.5 82.1325 14.5ZM82.1325 3.74C81.2792 3.74 80.6658 4.03333 80.2925 4.62C79.9325 5.20667 79.7525 6.06667 79.7525 7.2V8.82C79.7525 9.95333 79.9325 10.8133 80.2925 11.4C80.6658 11.9867 81.2792 12.28 82.1325 12.28C82.9858 12.28 83.5925 11.9867 83.9525 11.4C84.3258 10.8133 84.5125 9.95333 84.5125 8.82V7.2C84.5125 6.06667 84.3258 5.20667 83.9525 4.62C83.5925 4.03333 82.9858 3.74 82.1325 3.74ZM92.0525 18.88H89.5125V0.28H92.0525V18.88ZM95.9356 11.46V9.34H98.3156V3.94H96.0556V1.82H109.336V3.94H107.156V9.34H109.496V11.46H95.9356ZM100.836 9.34H104.636V3.94H100.836V9.34ZM111.236 14.4V16.54H94.1956V14.4H111.236Z" fill="black"/>
</svg>
