<svg width="105" height="18" viewBox="0 0 105 18" fill="none" xmlns="http://www.w3.org/2000/svg">
<path d="M9 1.625V13.5586H0.40625V1.625H9ZM2.90625 3.57812V11.5859H6.57812V3.57812H2.90625ZM14.4102 0.0234375V17.8359H11.8906V0.0234375H14.4102ZM23.6586 1.74219V8.59766H19.3031V11.7812C20.9926 11.7617 22.6039 11.6934 24.4203 11.4102L24.5961 13.4023C22.2719 13.793 20.3578 13.8516 18.1508 13.8516H16.9203V6.60547H21.2563V3.75391H16.9008V1.74219H23.6586ZM31.7836 0.0234375V17.7969H29.4203V8.75391H27.7016V16.9375H25.4164V0.316406H27.7016V6.74219H29.4203V0.0234375H31.7836ZM48.7078 0.0234375V17.7969H46.325V0.0234375H48.7078ZM44.9969 0.277344V16.9766H42.6531V8.57812H41.2273C40.993 12.0742 39.5086 14.1836 37.3211 14.1836C34.9773 14.1836 33.4539 11.7227 33.4539 7.71875C33.4539 3.73438 34.9773 1.29297 37.3211 1.29297C39.4598 1.29297 40.9246 3.28516 41.2078 6.60547H42.6531V0.277344H44.9969ZM37.3211 3.63672C36.325 3.63672 35.7391 5.00391 35.7586 7.71875C35.7391 10.4531 36.325 11.8008 37.3211 11.7812C38.3367 11.8008 38.9422 10.4531 38.9422 7.71875C38.9422 5.00391 38.3367 3.63672 37.3211 3.63672ZM65.4562 0.0234375V12.1133H63.093V0.0234375H65.4562ZM61.8625 0.375V10.4336H59.4992V5.66797H57.3312V3.67578H59.4992V0.375H61.8625ZM60.6711 11.5859C60.6711 13.4023 62.5852 15.3164 66.4328 15.8047L65.4758 17.7188C62.6047 17.3379 60.5246 16.1465 59.4406 14.5156C58.3273 16.1465 56.2375 17.3379 53.3469 17.7188L52.4289 15.8047C56.2766 15.3164 58.1906 13.4023 58.1906 11.5859V11.1758H60.6711V11.5859ZM55.7883 3.1875C55.7883 5.19922 56.6867 7.15234 58.9523 8.16797L57.6047 10.082C56.1398 9.4375 55.1633 8.32422 54.5773 6.95703C53.9328 8.44141 52.8488 9.67188 51.257 10.3359L49.9289 8.44141C52.3703 7.36719 53.3664 5.19922 53.3664 3.1875V1.13672H55.7883V3.1875ZM77.7617 2.81641C77.7617 4.96484 79.0117 7.03516 81.8242 7.91406L80.4961 9.84766C78.6113 9.22266 77.293 8.01172 76.5312 6.44922C75.7598 8.24609 74.3828 9.65234 72.3516 10.3359L71.0039 8.38281C73.9727 7.38672 75.2422 5.02344 75.2617 2.58203V0.960938H77.7617V2.81641ZM85.3789 0.0234375V4.18359H87.7812V6.25391H85.3789V10.5703H82.8789V0.0234375H85.3789ZM79.5586 10.9219C83.2305 10.9219 85.5547 12.1914 85.5547 14.3594C85.5547 16.5469 83.2305 17.7969 79.5586 17.7969C75.8086 17.7969 73.4648 16.5469 73.4648 14.3594C73.4648 12.1914 75.8086 10.9219 79.5586 10.9219ZM79.5586 12.875C77.2148 12.875 75.9453 13.3828 75.9648 14.3594C75.9453 15.375 77.2148 15.8438 79.5586 15.8438C81.8633 15.8438 83.0938 15.375 83.0938 14.3594C83.0938 13.3828 81.8633 12.875 79.5586 12.875ZM104.373 8.34375V10.3164H97.4984V11.8398H102.44V17.6016H90.0375V11.8398H95.018V10.3164H88.1625V8.34375H104.373ZM102.928 0.511719V2.50391H100.604V5.21875H102.811V7.21094H89.7055V5.21875H91.893V2.50391H89.5883V0.511719H102.928ZM92.4984 13.7734V15.6094H99.9984V13.7734H92.4984ZM94.393 5.21875H98.1039V2.50391H94.393V5.21875Z" fill="black"/>
</svg>
