<svg width="186" height="20" viewBox="0 0 186 20" fill="none" xmlns="http://www.w3.org/2000/svg">
<path d="M16.42 11.12V16.02H6.68V17.1H16.86V19.08H4.26V14.14H14V13.08H4.16V11.12H16.42ZM4.98 10.36C4.39333 10.36 3.86 10.2933 3.38 10.16C2.9 10.0267 2.48667 9.84667 2.14 9.62C1.79333 9.39333 1.52667 9.12 1.34 8.8C1.15333 8.48 1.06 8.14 1.06 7.78V7.06C1.06 6.7 1.15333 6.36 1.34 6.04C1.52667 5.72 1.79333 5.44667 2.14 5.22C2.48667 4.99333 2.9 4.81333 3.38 4.68C3.86 4.54667 4.39333 4.48 4.98 4.48C5.56667 4.48 6.1 4.54667 6.58 4.68C7.06 4.81333 7.47333 4.99333 7.82 5.22C8.16667 5.44667 8.43333 5.72 8.62 6.04C8.80667 6.36 8.9 6.7 8.9 7.06V7.78C8.9 8.14 8.80667 8.48 8.62 8.8C8.43333 9.12 8.16667 9.39333 7.82 9.62C7.47333 9.84667 7.06 10.0267 6.58 10.16C6.1 10.2933 5.56667 10.36 4.98 10.36ZM10.56 7.34H9.28V5.22H10.56V0.519999H12.92V10.24H10.56V7.34ZM16.42 10.28H14.04V0.28H16.42V10.28ZM3.76 1.96V0.0799987H6.2V1.96H9.16V4H0.46V1.96H3.76ZM4.98 6.3C4.42 6.3 3.99333 6.4 3.7 6.6C3.40667 6.8 3.26 7.02667 3.26 7.28V7.56C3.26 7.81333 3.40667 8.04 3.7 8.24C3.99333 8.44 4.42 8.54 4.98 8.54C5.54 8.54 5.96667 8.44 6.26 8.24C6.55333 8.04 6.7 7.81333 6.7 7.56V7.28C6.7 7.02667 6.55333 6.8 6.26 6.6C5.96667 6.4 5.54 6.3 4.98 6.3ZM35.4231 14.4V16.54H18.3831V14.4H35.4231ZM26.9631 7.66C26.8565 7.88667 26.6298 8.13333 26.2831 8.4C25.9498 8.65333 25.5298 8.95333 25.0231 9.3C24.4765 9.66 23.8431 10.06 23.1231 10.5C22.4031 10.9267 21.5631 11.4133 20.6031 11.96L19.3631 9.96C20.0965 9.54667 20.8365 9.12 21.5831 8.68C22.3298 8.22667 22.9965 7.8 23.5831 7.4C23.9831 7.13333 24.3098 6.86667 24.5631 6.6C24.8298 6.33333 25.0365 6.05333 25.1831 5.76C25.3431 5.45333 25.4565 5.12667 25.5231 4.78C25.5898 4.43333 25.6231 4.04 25.6231 3.6V1.54H28.1831V3.6C28.1831 4.04 28.2165 4.43333 28.2831 4.78C28.3498 5.12667 28.4565 5.45333 28.6031 5.76C28.7631 6.05333 28.9698 6.33333 29.2231 6.6C29.4898 6.86667 29.8231 7.13333 30.2231 7.4C30.8098 7.8 31.4765 8.22667 32.2231 8.68C32.9698 9.12 33.7098 9.54667 34.4431 9.96L33.2231 11.92C32.2631 11.3733 31.4231 10.8867 30.7031 10.46C29.9831 10.02 29.3498 9.62 28.8031 9.26C28.2965 8.91333 27.8898 8.62 27.5831 8.38C27.2898 8.12667 27.0898 7.88667 26.9831 7.66H26.9631ZM43.9063 6.8H46.0663V0.66H48.4863V17.98H46.0663V8.98H43.6663C43.5196 9.54 43.2996 10.0533 43.0063 10.52C42.7263 10.9867 42.3463 11.46 41.8663 11.94C41.3863 12.4067 40.7996 12.9 40.1063 13.42C39.4129 13.9267 38.5929 14.5 37.6463 15.14L36.2863 13.2C37.0863 12.6667 37.7729 12.1933 38.3463 11.78C38.9329 11.3533 39.4196 10.96 39.8063 10.6C40.2063 10.24 40.5196 9.90667 40.7463 9.6C40.9729 9.28 41.1463 8.96 41.2663 8.64L36.3863 8.8L36.2863 6.64L41.4863 6.54V4.2H36.7863V2.04H43.9063V6.8ZM52.3663 18.88H49.9463V0.28H52.3663V18.88ZM59.4694 14.5C58.616 14.5 57.8827 14.3667 57.2694 14.1C56.6694 13.8333 56.176 13.46 55.7894 12.98C55.4027 12.5 55.116 11.9333 54.9294 11.28C54.756 10.6267 54.6694 9.90667 54.6694 9.12V6.9C54.6694 6.12667 54.756 5.41333 54.9294 4.76C55.116 4.09333 55.4027 3.52 55.7894 3.04C56.176 2.56 56.6694 2.18667 57.2694 1.92C57.8827 1.65333 58.616 1.52 59.4694 1.52C60.296 1.52 61.0094 1.65333 61.6094 1.92C62.2094 2.17333 62.7027 2.53333 63.0894 3C63.476 3.45333 63.7627 4 63.9494 4.64C64.1494 5.26667 64.256 5.95333 64.2694 6.7H67.1494V0.28H69.6894V18.88H67.1494V8.88H64.2694V9.12C64.2694 9.90667 64.176 10.6267 63.9894 11.28C63.816 11.9333 63.536 12.5 63.1494 12.98C62.7627 13.46 62.2627 13.8333 61.6494 14.1C61.0494 14.3667 60.3227 14.5 59.4694 14.5ZM59.4694 3.74C58.616 3.74 58.0027 4.03333 57.6294 4.62C57.2694 5.20667 57.0894 6.06667 57.0894 7.2V8.82C57.0894 9.95333 57.2694 10.8133 57.6294 11.4C58.0027 11.9867 58.616 12.28 59.4694 12.28C60.3227 12.28 60.9294 11.9867 61.2894 11.4C61.6627 10.8133 61.8494 9.95333 61.8494 8.82V7.2C61.8494 6.06667 61.6627 5.20667 61.2894 4.62C60.9294 4.03333 60.3227 3.74 59.4694 3.74ZM92.0525 12.38V18.9H79.7325V12.38H82.2125V13.72H89.5725V12.38H92.0525ZM82.5925 4.76C82.5392 4.88 82.3592 5.06 82.0525 5.3C81.7458 5.52667 81.3392 5.77333 80.8325 6.04C80.4192 6.26667 79.9792 6.49333 79.5125 6.72C79.0592 6.94667 78.6192 7.16 78.1925 7.36L77.1325 5.48C77.6392 5.25333 78.1125 5.02667 78.5525 4.8C78.9925 4.57333 79.4458 4.32667 79.9125 4.06C80.1925 3.9 80.4192 3.75333 80.5925 3.62C80.7658 3.47333 80.8992 3.31333 80.9925 3.14C81.0858 2.96667 81.1458 2.77333 81.1725 2.56C81.2125 2.33333 81.2325 2.06 81.2325 1.74V0.56H83.7925V1.76C83.7925 2.04 83.8058 2.28 83.8325 2.48C83.8592 2.66667 83.9192 2.84 84.0125 3C84.1058 3.16 84.2325 3.31333 84.3925 3.46C84.5525 3.59333 84.7725 3.74 85.0525 3.9C85.4525 4.14 85.8658 4.38 86.2925 4.62C86.7192 4.84667 87.1792 5.08667 87.6725 5.34L86.6325 7.16C86.2725 6.97333 85.8858 6.77333 85.4725 6.56C85.0592 6.33333 84.6792 6.12667 84.3325 5.94C83.8925 5.7 83.5125 5.47333 83.1925 5.26C82.8725 5.04667 82.6792 4.88 82.6125 4.76H82.5925ZM76.6525 7.96C78.1858 7.96 79.5325 7.95333 80.6925 7.94C81.8658 7.92667 82.9125 7.90667 83.8325 7.88C84.7658 7.85333 85.5992 7.82 86.3325 7.78C87.0658 7.74 87.7592 7.68667 88.4125 7.62L88.5925 9.66C87.9925 9.74 87.2925 9.80667 86.4925 9.86C85.7058 9.9 84.7925 9.93333 83.7525 9.96V11.64H81.2525V10C80.5725 10.0133 79.8525 10.02 79.0925 10.02C78.3325 10.02 77.5192 10.02 76.6525 10.02V7.96ZM92.0525 11.54H89.5325V0.28H92.0525V11.54ZM89.5725 16.88V15.68H82.2125V16.88H89.5725ZM101.856 6.38C101.856 6.47333 101.856 6.56667 101.856 6.66C101.856 6.74 101.849 6.82 101.836 6.9H104.076V0.66H106.496V17.98H104.076V9.08H101.516C101.369 9.54667 101.149 10 100.856 10.44C100.576 10.8667 100.202 11.3133 99.7356 11.78C99.269 12.2333 98.6956 12.7267 98.0156 13.26C97.3356 13.78 96.529 14.36 95.5956 15L94.1556 13.08C95.3156 12.3067 96.2423 11.6467 96.9356 11.1C97.629 10.54 98.1556 10.0067 98.5156 9.5C98.8756 8.99333 99.109 8.46667 99.2156 7.92C99.3356 7.37333 99.3956 6.72667 99.3956 5.98V4.26H94.6556V2.08H101.856V6.38ZM110.376 18.88H107.956V0.28H110.376V18.88ZM122.339 14.5C121.485 14.5 120.752 14.3667 120.139 14.1C119.539 13.8333 119.045 13.46 118.659 12.98C118.272 12.5 117.985 11.9333 117.799 11.28C117.625 10.6267 117.539 9.90667 117.539 9.12V6.9C117.539 6.12667 117.625 5.41333 117.799 4.76C117.985 4.09333 118.272 3.52 118.659 3.04C119.045 2.56 119.539 2.18667 120.139 1.92C120.752 1.65333 121.485 1.52 122.339 1.52C123.192 1.52 123.919 1.65333 124.519 1.92C125.132 2.18667 125.632 2.56 126.019 3.04C126.405 3.52 126.685 4.09333 126.859 4.76C127.045 5.41333 127.139 6.12667 127.139 6.9V9.12C127.139 9.90667 127.045 10.6267 126.859 11.28C126.685 11.9333 126.405 12.5 126.019 12.98C125.632 13.46 125.132 13.8333 124.519 14.1C123.919 14.3667 123.192 14.5 122.339 14.5ZM122.339 3.74C121.485 3.74 120.872 4.03333 120.499 4.62C120.139 5.20667 119.959 6.06667 119.959 7.2V8.82C119.959 9.95333 120.139 10.8133 120.499 11.4C120.872 11.9867 121.485 12.28 122.339 12.28C123.192 12.28 123.799 11.9867 124.159 11.4C124.532 10.8133 124.719 9.95333 124.719 8.82V7.2C124.719 6.06667 124.532 5.20667 124.159 4.62C123.799 4.03333 123.192 3.74 122.339 3.74ZM132.259 18.88H129.719V0.28H132.259V18.88ZM146.762 7H148.342V0.28H150.742V18.88H148.342V9.18H146.762V17.98H144.362V0.66H146.762V7ZM139.082 14.28C138.415 14.28 137.822 14.18 137.302 13.98C136.782 13.7667 136.349 13.4933 136.002 13.16C135.655 12.8133 135.389 12.4267 135.202 12C135.029 11.56 134.942 11.1133 134.942 10.66V9.7C134.942 9.24667 135.029 8.80667 135.202 8.38C135.389 7.94 135.655 7.55333 136.002 7.22C136.349 6.87333 136.782 6.6 137.302 6.4C137.822 6.18667 138.415 6.08 139.082 6.08C139.749 6.08 140.335 6.18667 140.842 6.4C141.362 6.6 141.795 6.87333 142.142 7.22C142.502 7.55333 142.769 7.94 142.942 8.38C143.129 8.80667 143.222 9.24667 143.222 9.7V10.66C143.222 11.1133 143.129 11.56 142.942 12C142.769 12.4267 142.502 12.8133 142.142 13.16C141.795 13.4933 141.362 13.7667 140.842 13.98C140.335 14.18 139.749 14.28 139.082 14.28ZM137.822 3.28V0.799999H140.282V3.28H143.442V5.36H134.302V3.28H137.822ZM139.082 8.1C138.762 8.1 138.475 8.16 138.222 8.28C137.982 8.38667 137.782 8.52667 137.622 8.7C137.462 8.86 137.342 9.04667 137.262 9.26C137.182 9.46 137.142 9.65333 137.142 9.84V10.52C137.142 10.7067 137.182 10.9067 137.262 11.12C137.342 11.32 137.462 11.5067 137.622 11.68C137.782 11.84 137.982 11.98 138.222 12.1C138.475 12.2067 138.762 12.26 139.082 12.26C139.402 12.26 139.682 12.2067 139.922 12.1C140.175 11.98 140.382 11.84 140.542 11.68C140.702 11.5067 140.822 11.32 140.902 11.12C140.982 10.9067 141.022 10.7067 141.022 10.52V9.84C141.022 9.65333 140.982 9.46 140.902 9.26C140.822 9.04667 140.702 8.86 140.542 8.7C140.382 8.52667 140.175 8.38667 139.922 8.28C139.682 8.16 139.402 8.1 139.082 8.1ZM166.965 7.48H169.525V9.68H166.965V18.88H164.425V0.28H166.965V7.48ZM157.725 14.82C156.978 14.82 156.318 14.7133 155.745 14.5C155.185 14.2733 154.705 13.98 154.305 13.62C153.918 13.2467 153.625 12.8267 153.425 12.36C153.225 11.88 153.125 11.3933 153.125 10.9V9.72C153.125 9.22667 153.225 8.74667 153.425 8.28C153.625 7.8 153.918 7.38 154.305 7.02C154.705 6.64667 155.185 6.35333 155.745 6.14C156.318 5.91333 156.978 5.8 157.725 5.8C158.458 5.8 159.112 5.91333 159.685 6.14C160.258 6.35333 160.738 6.64667 161.125 7.02C161.525 7.38 161.825 7.8 162.025 8.28C162.225 8.74667 162.325 9.22667 162.325 9.72V10.9C162.325 11.3933 162.225 11.88 162.025 12.36C161.825 12.8267 161.525 13.2467 161.125 13.62C160.738 13.98 160.258 14.2733 159.685 14.5C159.112 14.7133 158.458 14.82 157.725 14.82ZM157.725 12.7C158.085 12.7 158.405 12.6467 158.685 12.54C158.965 12.42 159.198 12.2667 159.385 12.08C159.585 11.8933 159.732 11.68 159.825 11.44C159.932 11.2 159.985 10.9533 159.985 10.7V9.92C159.985 9.66667 159.932 9.42 159.825 9.18C159.732 8.94 159.585 8.72667 159.385 8.54C159.198 8.35333 158.965 8.20667 158.685 8.1C158.405 7.98 158.085 7.92 157.725 7.92C157.365 7.92 157.045 7.98 156.765 8.1C156.485 8.20667 156.245 8.35333 156.045 8.54C155.858 8.72667 155.712 8.94 155.605 9.18C155.512 9.42 155.465 9.66667 155.465 9.92V10.7C155.465 10.9533 155.512 11.2 155.605 11.44C155.712 11.68 155.858 11.8933 156.045 12.08C156.245 12.2667 156.485 12.42 156.765 12.54C157.045 12.6467 157.365 12.7 157.725 12.7ZM159.005 0.419999V2.82H163.005V4.96H152.265V2.82H156.445V0.419999H159.005ZM185.668 18.88H183.128V0.28H185.668V18.88ZM170.828 13.06C171.828 12.46 172.681 11.9267 173.388 11.46C174.095 10.9933 174.681 10.5667 175.148 10.18C175.628 9.78 176.001 9.40667 176.268 9.06C176.548 8.7 176.755 8.34 176.888 7.98C177.035 7.62 177.128 7.24 177.168 6.84C177.208 6.44 177.228 5.99333 177.228 5.5V4.12H171.168V1.94H179.768V5.62C179.768 6.28667 179.735 6.89333 179.668 7.44C179.601 7.98667 179.468 8.5 179.268 8.98C179.081 9.44667 178.808 9.9 178.448 10.34C178.101 10.78 177.648 11.24 177.088 11.72C176.528 12.1867 175.841 12.6933 175.028 13.24C174.228 13.7733 173.275 14.38 172.168 15.06L170.828 13.06Z" fill="black"/>
</svg>
