<svg width="139" height="32" viewBox="0 0 139 32" fill="none" xmlns="http://www.w3.org/2000/svg">
<path d="M16.42 17.12V22.02H6.68V23.1H16.86V25.08H4.26V20.14H14V19.08H4.16V17.12H16.42ZM4.98 16.36C4.39333 16.36 3.86 16.2933 3.38 16.16C2.9 16.0267 2.48667 15.8467 2.14 15.62C1.79333 15.3933 1.52667 15.12 1.34 14.8C1.15333 14.48 1.06 14.14 1.06 13.78V13.06C1.06 12.7 1.15333 12.36 1.34 12.04C1.52667 11.72 1.79333 11.4467 2.14 11.22C2.48667 10.9933 2.9 10.8133 3.38 10.68C3.86 10.5467 4.39333 10.48 4.98 10.48C5.56667 10.48 6.1 10.5467 6.58 10.68C7.06 10.8133 7.47333 10.9933 7.82 11.22C8.16667 11.4467 8.43333 11.72 8.62 12.04C8.80667 12.36 8.9 12.7 8.9 13.06V13.78C8.9 14.14 8.80667 14.48 8.62 14.8C8.43333 15.12 8.16667 15.3933 7.82 15.62C7.47333 15.8467 7.06 16.0267 6.58 16.16C6.1 16.2933 5.56667 16.36 4.98 16.36ZM10.56 13.34H9.28V11.22H10.56V6.52H12.92V16.24H10.56V13.34ZM16.42 16.28H14.04V6.28H16.42V16.28ZM3.76 7.96V6.08H6.2V7.96H9.16V10H0.46V7.96H3.76ZM4.98 12.3C4.42 12.3 3.99333 12.4 3.7 12.6C3.40667 12.8 3.26 13.0267 3.26 13.28V13.56C3.26 13.8133 3.40667 14.04 3.7 14.24C3.99333 14.44 4.42 14.54 4.98 14.54C5.54 14.54 5.96667 14.44 6.26 14.24C6.55333 14.04 6.7 13.8133 6.7 13.56V13.28C6.7 13.0267 6.55333 12.8 6.26 12.6C5.96667 12.4 5.54 12.3 4.98 12.3ZM35.4231 20.4V22.54H18.3831V20.4H35.4231ZM26.9631 13.66C26.8565 13.8867 26.6298 14.1333 26.2831 14.4C25.9498 14.6533 25.5298 14.9533 25.0231 15.3C24.4765 15.66 23.8431 16.06 23.1231 16.5C22.4031 16.9267 21.5631 17.4133 20.6031 17.96L19.3631 15.96C20.0965 15.5467 20.8365 15.12 21.5831 14.68C22.3298 14.2267 22.9965 13.8 23.5831 13.4C23.9831 13.1333 24.3098 12.8667 24.5631 12.6C24.8298 12.3333 25.0365 12.0533 25.1831 11.76C25.3431 11.4533 25.4565 11.1267 25.5231 10.78C25.5898 10.4333 25.6231 10.04 25.6231 9.6V7.54H28.1831V9.6C28.1831 10.04 28.2165 10.4333 28.2831 10.78C28.3498 11.1267 28.4565 11.4533 28.6031 11.76C28.7631 12.0533 28.9698 12.3333 29.2231 12.6C29.4898 12.8667 29.8231 13.1333 30.2231 13.4C30.8098 13.8 31.4765 14.2267 32.2231 14.68C32.9698 15.12 33.7098 15.5467 34.4431 15.96L33.2231 17.92C32.2631 17.3733 31.4231 16.8867 30.7031 16.46C29.9831 16.02 29.3498 15.62 28.8031 15.26C28.2965 14.9133 27.8898 14.62 27.5831 14.38C27.2898 14.1267 27.0898 13.8867 26.9831 13.66H26.9631Z" fill="#C9C9C9"/>
<path d="M59.18 10.66H61.58V6.66H63.96V23.98H61.58V17.82H59.12V15.7H61.58V12.76H59.18C59.1533 13.5867 59.0533 14.32 58.88 14.96C58.72 15.5867 58.4133 16.2 57.96 16.8C57.5067 17.4 56.8733 18.0333 56.06 18.7C55.26 19.3533 54.22 20.12 52.94 21L51.5 19.08C52.66 18.3067 53.5867 17.6467 54.28 17.1C54.9733 16.54 55.5 16.0067 55.86 15.5C56.22 14.9933 56.4533 14.4667 56.56 13.92C56.68 13.3733 56.74 12.7267 56.74 11.98V10.26H52V8.08H59.18V10.66ZM67.78 24.88H65.38V6.28H67.78V24.88ZM72.1231 17.96H83.9831V25.1H81.4631V20.1H72.1231V17.96ZM83.9831 8.58H86.3831V10.74H83.9831V12.42H86.3831V14.58H83.9831V17.12H81.4831V6.28H83.9831V8.58ZM74.3831 16.22C73.6365 16.22 72.9698 16.1 72.3831 15.86C71.7965 15.62 71.3031 15.3067 70.9031 14.92C70.5031 14.5333 70.1965 14.0867 69.9831 13.58C69.7698 13.0733 69.6631 12.5467 69.6631 12V11.12C69.6631 10.5867 69.7698 10.0667 69.9831 9.56C70.1965 9.04 70.5031 8.58667 70.9031 8.2C71.3031 7.81333 71.7965 7.5 72.3831 7.26C72.9698 7.02 73.6365 6.9 74.3831 6.9C75.1298 6.9 75.7965 7.02 76.3831 7.26C76.9698 7.5 77.4631 7.81333 77.8631 8.2C78.2631 8.58667 78.5698 9.04 78.7831 9.56C78.9965 10.0667 79.1031 10.5867 79.1031 11.12V12C79.1031 12.5467 78.9965 13.0733 78.7831 13.58C78.5698 14.0867 78.2631 14.5333 77.8631 14.92C77.4631 15.3067 76.9698 15.62 76.3831 15.86C75.7965 16.1 75.1298 16.22 74.3831 16.22ZM74.3831 9.06C74.0098 9.06 73.6765 9.12667 73.3831 9.26C73.1031 9.38 72.8631 9.54 72.6631 9.74C72.4631 9.94 72.3098 10.1667 72.2031 10.42C72.1098 10.6733 72.0631 10.9267 72.0631 11.18V11.94C72.0631 12.1933 72.1098 12.4467 72.2031 12.7C72.3098 12.9533 72.4631 13.18 72.6631 13.38C72.8631 13.58 73.1031 13.7467 73.3831 13.88C73.6765 14 74.0098 14.06 74.3831 14.06C74.7565 14.06 75.0831 14 75.3631 13.88C75.6565 13.7467 75.9031 13.58 76.1031 13.38C76.3031 13.18 76.4498 12.9533 76.5431 12.7C76.6498 12.4467 76.7031 12.1933 76.7031 11.94V11.18C76.7031 10.9267 76.6498 10.6733 76.5431 10.42C76.4498 10.1667 76.3031 9.94 76.1031 9.74C75.9031 9.54 75.6565 9.38 75.3631 9.26C75.0831 9.12667 74.7565 9.06 74.3831 9.06Z" fill="#C9C9C9"/>
<path d="M117.34 10.52H119.78V12.72H117.34V17.28H114.82V6.28H117.34V10.52ZM111.7 25.44C110.847 25.44 110.067 25.3533 109.36 25.18C108.667 25.0067 108.067 24.76 107.56 24.44C107.067 24.12 106.68 23.7333 106.4 23.28C106.133 22.84 106 22.3533 106 21.82V20.98C106 20.4467 106.133 19.96 106.4 19.52C106.68 19.0667 107.067 18.68 107.56 18.36C108.067 18.04 108.667 17.7933 109.36 17.62C110.067 17.4467 110.847 17.36 111.7 17.36C112.553 17.36 113.327 17.4467 114.02 17.62C114.727 17.7933 115.327 18.04 115.82 18.36C116.327 18.68 116.713 19.0667 116.98 19.52C117.26 19.96 117.4 20.4467 117.4 20.98V21.82C117.4 22.3533 117.26 22.84 116.98 23.28C116.713 23.7333 116.327 24.12 115.82 24.44C115.327 24.76 114.727 25.0067 114.02 25.18C113.327 25.3533 112.553 25.44 111.7 25.44ZM111.7 19.42C111.193 19.42 110.74 19.4733 110.34 19.58C109.94 19.6867 109.6 19.8267 109.32 20C109.053 20.16 108.847 20.34 108.7 20.54C108.553 20.74 108.48 20.94 108.48 21.14V21.66C108.48 21.86 108.553 22.06 108.7 22.26C108.847 22.46 109.053 22.64 109.32 22.8C109.6 22.9733 109.94 23.1133 110.34 23.22C110.74 23.3267 111.193 23.38 111.7 23.38C112.207 23.38 112.66 23.3267 113.06 23.22C113.46 23.1133 113.793 22.9733 114.06 22.8C114.34 22.64 114.553 22.46 114.7 22.26C114.847 22.06 114.92 21.86 114.92 21.66V21.14C114.92 20.94 114.847 20.74 114.7 20.54C114.553 20.34 114.34 20.16 114.06 20C113.793 19.8267 113.46 19.6867 113.06 19.58C112.66 19.4733 112.207 19.42 111.7 19.42ZM108.08 13.22C108.013 13.38 107.893 13.56 107.72 13.76C107.547 13.96 107.253 14.24 106.84 14.6C106.373 15 105.887 15.4067 105.38 15.82C104.887 16.22 104.36 16.6333 103.8 17.06L102.3 15.2C102.887 14.7733 103.42 14.3667 103.9 13.98C104.38 13.5933 104.86 13.18 105.34 12.74C105.753 12.3667 106.08 11.9333 106.32 11.44C106.573 10.9467 106.7 10.3733 106.7 9.72V7.04H109.26V9.64C109.26 9.97333 109.273 10.2733 109.3 10.54C109.34 10.7933 109.407 11.0333 109.5 11.26C109.607 11.4867 109.747 11.7067 109.92 11.92C110.093 12.12 110.313 12.3267 110.58 12.54C110.967 12.86 111.413 13.2067 111.92 13.58C112.44 13.9533 112.953 14.3133 113.46 14.66L112.06 16.42C111.593 16.1 111.147 15.7867 110.72 15.48C110.293 15.16 109.893 14.8533 109.52 14.56C109.173 14.2933 108.86 14.0467 108.58 13.82C108.313 13.58 108.153 13.38 108.1 13.22H108.08ZM122.763 18.46H127.643V16.96H120.383V14.92H137.423V16.96H130.163V18.46H135.043V24.88H122.763V18.46ZM135.363 6.88V8.86H133.223V11.72H135.483V13.7H122.323V11.72H124.583V8.86H122.443V6.88H135.363ZM125.263 22.86H132.543V20.48H125.263V22.86ZM127.063 11.72H130.743V8.86H127.063V11.72Z" fill="#C9C9C9"/>
</svg>
