<svg width="47" height="32" viewBox="0 0 47 32" fill="none" xmlns="http://www.w3.org/2000/svg">
<path d="M35.84 16.46V15.64C34.4667 15.5333 33.3867 15.2733 32.6 14.86C31.8267 14.4467 31.44 13.88 31.44 13.16V12.56C31.44 12.16 31.5733 11.8067 31.84 11.5C32.1067 11.18 32.48 10.9133 32.96 10.7C33.4533 10.4867 34.0467 10.3267 34.74 10.22C35.4467 10.1 36.2333 10.04 37.1 10.04C37.9667 10.04 38.7467 10.1 39.44 10.22C40.1467 10.3267 40.74 10.4867 41.22 10.7C41.7133 10.9133 42.0933 11.18 42.36 11.5C42.6267 11.8067 42.76 12.16 42.76 12.56V13.16C42.76 13.88 42.3667 14.4467 41.58 14.86C40.8067 15.2733 39.7333 15.5333 38.36 15.64V16.46H45.62V18.44H28.58V16.46H35.84ZM30.96 19.18H43.24V24.92H30.96V19.18ZM38.36 7.5H43.88V9.48H30.32V7.5H35.82V5.78H38.36V7.5ZM33.46 22.94H40.74V21.16H33.46V22.94ZM37.1 11.94C36.0333 11.94 35.24 12.0267 34.72 12.2C34.2 12.36 33.94 12.5533 33.94 12.78V12.94C33.94 13.1667 34.2 13.3667 34.72 13.54C35.24 13.7 36.0333 13.78 37.1 13.78C38.1667 13.78 38.96 13.7 39.48 13.54C40 13.3667 40.26 13.1667 40.26 12.94V12.78C40.26 12.5533 40 12.36 39.48 12.2C38.96 12.0267 38.1667 11.94 37.1 11.94Z" fill="#1C1C1C"/>
<path d="M22.0016 16.0018C22.0016 18.6542 20.948 21.1979 19.0724 23.0734C17.1969 24.9489 14.6532 26.0026 12.0008 26.0026C9.34843 26.0026 6.80468 24.9489 4.92917 23.0734C3.05365 21.1979 2 18.6542 2 16.0018C2 13.3494 3.05365 10.8057 4.92917 8.93014C6.80468 7.05463 9.34843 6.00098 12.0008 6.00098C14.6532 6.00098 17.1969 7.05463 19.0724 8.93014C20.948 10.8057 22.0016 13.3494 22.0016 16.0018Z" fill="#5CC3FF"/>
<path d="M12.0195 6C9.18189 6.00008 6.4775 7.20367 4.57812 9.31179C4.97444 9.9642 5.65016 10.5802 6.7011 10.9431C9.04054 11.7507 11.7472 11.6826 11.7472 12.8737C11.7472 13.5236 9.68095 14.2399 9.15405 14.8926C8.62715 15.5454 8.62889 16.4193 9.55282 17.5226C10.4767 18.626 12.4167 18.2916 12.2979 20.4164C12.2168 21.8677 13.9051 22.8765 14.9732 21.2443C16.3991 19.0653 16.848 15.7876 16.6114 14.5105C16.3747 13.2334 13.7342 13.3979 14.0978 12.292C14.576 10.8374 16.236 10.5491 17.8641 9.39493C18.2647 9.11091 18.4179 8.72852 18.422 8.31372C16.6234 6.81865 14.3583 6.0001 12.0195 6Z" fill="#57EA6C"/>
<path d="M2.08203 17.2734C2.28124 18.8485 2.85202 20.3537 3.74729 21.6649C4.64255 22.976 5.83667 24.0556 7.23117 24.8145C8.38357 23.1586 6.83297 22.469 6.23408 22.0062C5.58482 21.5045 6.05677 18.0811 3.84341 17.727C3.17433 17.6199 2.58491 17.4637 2.08203 17.2734Z" fill="#57EA6C"/>
<path d="M21.7368 13.5898C20.9823 13.8895 20.0323 14.444 19.5734 15.4275C18.7815 17.1244 19.7519 19.4702 21.4185 19.4811C21.827 18.3725 22.036 17.2004 22.0361 16.019C22.036 15.2001 21.9355 14.3843 21.7368 13.5898Z" fill="#57EA6C"/>
</svg>
