<svg width="245" height="32" viewBox="0 0 245 32" fill="none" xmlns="http://www.w3.org/2000/svg">
<path d="M42.8047 19.3867V24.6016H30.4023V19.3867H42.8047ZM32.8633 21.2422V22.7461H40.3633V21.2422H32.8633ZM43.8984 8.29297V10.168H29.3086V8.29297H35.3828V6.86719H37.8828V8.29297H43.8984ZM36.6328 10.6172C40.4805 10.6367 42.6094 11.4766 42.6094 13.1562C42.6094 14.6406 40.9395 15.4902 37.8828 15.6562V16.5352H44.7383V18.4883H28.5273V16.5352H35.3828V15.6562C32.3359 15.4902 30.6367 14.6406 30.6562 13.1562C30.6367 11.4766 32.8047 10.6367 36.6328 10.6172ZM36.6328 12.2969C34.3867 12.2969 33.3125 12.5312 33.3125 13.1562C33.3125 13.7617 34.3867 14.0156 36.6328 14.0156C38.8984 14.0156 39.9336 13.7617 39.9336 13.1562C39.9336 12.5312 38.8984 12.2969 36.6328 12.2969Z" fill="#1C1C1C"/>
<path d="M22.0016 16.0018C22.0016 18.6542 20.948 21.1979 19.0724 23.0734C17.1969 24.9489 14.6532 26.0026 12.0008 26.0026C9.34843 26.0026 6.80468 24.9489 4.92917 23.0734C3.05365 21.1979 2 18.6542 2 16.0018C2 13.3494 3.05365 10.8057 4.92917 8.93014C6.80468 7.05463 9.34843 6.00098 12.0008 6.00098C14.6532 6.00098 17.1969 7.05463 19.0724 8.93014C20.948 10.8057 22.0016 13.3494 22.0016 16.0018Z" fill="#5CC3FF"/>
<path d="M12.0195 6C9.18189 6.00008 6.4775 7.20367 4.57812 9.31179C4.97444 9.9642 5.65016 10.5802 6.7011 10.9431C9.04054 11.7507 11.7472 11.6826 11.7472 12.8737C11.7472 13.5236 9.68095 14.2399 9.15405 14.8926C8.62715 15.5454 8.62889 16.4193 9.55282 17.5226C10.4767 18.626 12.4167 18.2916 12.2979 20.4164C12.2168 21.8677 13.9051 22.8765 14.9732 21.2443C16.3991 19.0653 16.848 15.7876 16.6114 14.5105C16.3747 13.2334 13.7342 13.3979 14.0978 12.292C14.576 10.8374 16.236 10.5491 17.8641 9.39493C18.2647 9.11091 18.4179 8.72852 18.422 8.31372C16.6234 6.81865 14.3583 6.0001 12.0195 6Z" fill="#57EA6C"/>
<path d="M2.08203 17.2734C2.28124 18.8485 2.85202 20.3537 3.74729 21.6649C4.64255 22.976 5.83667 24.0556 7.23117 24.8145C8.38357 23.1586 6.83297 22.469 6.23408 22.0062C5.58482 21.5045 6.05677 18.0811 3.84341 17.727C3.17433 17.6199 2.58491 17.4637 2.08203 17.2734Z" fill="#57EA6C"/>
<path d="M21.7368 13.5898C20.9823 13.8895 20.0323 14.444 19.5734 15.4275C18.7815 17.1244 19.7519 19.4702 21.4185 19.4811C21.827 18.3725 22.036 17.2004 22.0361 16.019C22.036 15.2001 21.9355 14.3843 21.7368 13.5898Z" fill="#57EA6C"/>
<path d="M75.8008 7.04297V16.8672H73.4375V7.04297H75.8008ZM72.3633 7.31641V16.7305H70.0391V13.332H68.5742V11.3594H70.0391V7.31641H72.3633ZM75.8008 17.4727V21.8672H66.1328V22.8438H76.3086V24.6797H63.6523V20.1875H73.3398V19.25H63.6328V17.4727H75.8008ZM68.9453 8.42969V10.3047H60.4297V8.42969H63.457V6.98438H65.918V8.42969H68.9453ZM64.707 10.7344C66.8555 10.7148 68.4375 11.9062 68.4375 13.6836C68.4375 15.4414 66.8555 16.5938 64.707 16.5938C62.5391 16.5938 60.9766 15.4414 60.9766 13.6836C60.9766 11.9062 62.5391 10.7148 64.707 10.7344ZM64.707 12.4531C63.7695 12.4531 63.1445 12.9023 63.1445 13.6836C63.1445 14.4453 63.7695 14.8945 64.707 14.8945C65.625 14.8945 66.25 14.4453 66.2695 13.6836C66.25 12.9023 65.625 12.4531 64.707 12.4531ZM86.768 9.36719C86.768 11.9648 89.0727 14.7578 93.0961 15.4414L92.0023 17.5117C88.9066 16.8965 86.602 15.1582 85.4594 12.8633C84.2777 15.1387 81.973 16.8867 78.8969 17.5117L77.8227 15.4414C81.768 14.7383 84.0922 11.9453 84.1117 9.36719V8.07812H86.768V9.36719ZM93.682 20.5586V22.6094H77.4125V20.5586H93.682ZM102.208 9.01562C102.198 10.6855 102.061 12.2676 101.68 13.7422H103.595V7.41406H105.919V24.0156H103.595V15.7539H100.977C100.001 17.8633 98.3406 19.7188 95.6258 21.2617L94.2391 19.5625C96.4949 18.2539 97.9012 16.7793 98.7508 15.0508L94.6102 15.4805L94.3367 13.3711L99.4539 13.0977C99.6102 12.4336 99.7078 11.7402 99.7664 11.0078H95.2156V9.01562H102.208ZM109.708 7.02344V24.7969H107.364V7.02344H109.708ZM116.085 8.27344C118.487 8.27344 120.275 10.2559 120.636 13.4492H123.722V7.02344H126.183V24.8359H123.722V15.4414H120.655C120.392 18.8594 118.566 20.9492 116.085 20.9492C113.39 20.9492 111.456 18.5078 111.476 14.6016C111.456 10.7344 113.39 8.27344 116.085 8.27344ZM116.085 10.5195C114.757 10.5195 113.839 11.9648 113.859 14.6016C113.839 17.2578 114.757 18.6836 116.085 18.6836C117.433 18.6836 118.312 17.2578 118.312 14.6016C118.312 11.9648 117.433 10.5195 116.085 10.5195Z" fill="#C9C9C9"/>
<path d="M143.191 8.85938H146.824L150.75 18.4492H150.906L154.832 8.85938H158.465V23H155.613V13.7422H155.496L151.805 22.9414H149.852L146.16 13.7031H146.043V23H143.191V8.85938ZM166.971 16.0273V18.332H160.526V16.0273H166.971ZM171.864 8.85938V23H168.973V8.85938H171.864ZM173.71 23V12.3945H176.601V23H173.71ZM175.155 11.0078C174.277 11.0078 173.573 10.3438 173.573 9.54297C173.573 8.72266 174.277 8.05859 175.155 8.05859C176.015 8.05859 176.718 8.72266 176.718 9.54297C176.718 10.3438 176.015 11.0078 175.155 11.0078ZM184.091 12.3945V14.5625H181.982V23H179.091V14.5625H177.588V12.3945H179.091V11.5938C179.091 9.36719 180.439 8.19531 182.568 8.19531C183.232 8.19531 183.779 8.25391 184.287 8.37109V10.5586C183.877 10.5195 183.564 10.5 183.408 10.5C182.47 10.5 181.982 10.8711 181.982 11.75V12.3945H184.091ZM189.805 23.2148C186.562 23.2148 184.57 21.1055 184.57 17.7461C184.57 14.4648 186.582 12.2578 189.688 12.2578C192.48 12.2578 194.668 14.0156 194.668 17.6289V18.4492H187.422C187.422 20.0508 188.379 21.0469 189.863 21.0469C190.84 21.0469 191.543 20.6172 191.836 19.9727H194.59C194.18 21.9258 192.422 23.2148 189.805 23.2148ZM187.422 16.6328H191.934C191.934 15.3438 191.035 14.4258 189.746 14.4258C188.418 14.4258 187.471 15.4121 187.422 16.6328Z" fill="#C9C9C9"/>
<path d="M226.797 20.6953V22.7266H210.527V20.6953H217.383V17.4141H212.246V8.15625H214.746V10.9102H222.5V8.15625H224.98V17.4141H219.863V20.6953H226.797ZM214.746 15.4219H222.5V12.9023H214.746V15.4219ZM242.393 7.02344V17.7656H239.913V14.2695H237.608V12.2383H239.913V7.02344H242.393ZM242.393 18.5273V24.6016H230.44V18.5273H242.393ZM232.94 20.4805V22.6094H239.952V20.4805H232.94ZM237.92 8.56641V10.5586H227.452V8.56641H231.475V6.86719H233.936V8.56641H237.92ZM232.705 11.1445C235.205 11.1445 236.963 12.4727 236.963 14.3281C236.963 16.2617 235.205 17.5508 232.705 17.5508C230.225 17.5508 228.428 16.2617 228.428 14.3281C228.428 12.4727 230.225 11.1445 232.705 11.1445ZM232.705 13.0195C231.553 13.0195 230.811 13.4883 230.83 14.3281C230.811 15.2266 231.553 15.7148 232.705 15.7148C233.838 15.7148 234.58 15.2266 234.58 14.3281C234.58 13.4883 233.838 13.0195 232.705 13.0195Z" fill="#C9C9C9"/>
</svg>
