<svg width="37" height="32" viewBox="0 0 37 32" fill="none" xmlns="http://www.w3.org/2000/svg">
<path d="M16.42 17.12V22.02H6.68V23.1H16.86V25.08H4.26V20.14H14V19.08H4.16V17.12H16.42ZM4.98 16.36C4.39333 16.36 3.86 16.2933 3.38 16.16C2.9 16.0267 2.48667 15.8467 2.14 15.62C1.79333 15.3933 1.52667 15.12 1.34 14.8C1.15333 14.48 1.06 14.14 1.06 13.78V13.06C1.06 12.7 1.15333 12.36 1.34 12.04C1.52667 11.72 1.79333 11.4467 2.14 11.22C2.48667 10.9933 2.9 10.8133 3.38 10.68C3.86 10.5467 4.39333 10.48 4.98 10.48C5.56667 10.48 6.1 10.5467 6.58 10.68C7.06 10.8133 7.47333 10.9933 7.82 11.22C8.16667 11.4467 8.43333 11.72 8.62 12.04C8.80667 12.36 8.9 12.7 8.9 13.06V13.78C8.9 14.14 8.80667 14.48 8.62 14.8C8.43333 15.12 8.16667 15.3933 7.82 15.62C7.47333 15.8467 7.06 16.0267 6.58 16.16C6.1 16.2933 5.56667 16.36 4.98 16.36ZM10.56 13.34H9.28V11.22H10.56V6.52H12.92V16.24H10.56V13.34ZM16.42 16.28H14.04V6.28H16.42V16.28ZM3.76 7.96V6.08H6.2V7.96H9.16V10H0.46V7.96H3.76ZM4.98 12.3C4.42 12.3 3.99333 12.4 3.7 12.6C3.40667 12.8 3.26 13.0267 3.26 13.28V13.56C3.26 13.8133 3.40667 14.04 3.7 14.24C3.99333 14.44 4.42 14.54 4.98 14.54C5.54 14.54 5.96667 14.44 6.26 14.24C6.55333 14.04 6.7 13.8133 6.7 13.56V13.28C6.7 13.0267 6.55333 12.8 6.26 12.6C5.96667 12.4 5.54 12.3 4.98 12.3ZM35.4231 20.4V22.54H18.3831V20.4H35.4231ZM26.9631 13.66C26.8565 13.8867 26.6298 14.1333 26.2831 14.4C25.9498 14.6533 25.5298 14.9533 25.0231 15.3C24.4765 15.66 23.8431 16.06 23.1231 16.5C22.4031 16.9267 21.5631 17.4133 20.6031 17.96L19.3631 15.96C20.0965 15.5467 20.8365 15.12 21.5831 14.68C22.3298 14.2267 22.9965 13.8 23.5831 13.4C23.9831 13.1333 24.3098 12.8667 24.5631 12.6C24.8298 12.3333 25.0365 12.0533 25.1831 11.76C25.3431 11.4533 25.4565 11.1267 25.5231 10.78C25.5898 10.4333 25.6231 10.04 25.6231 9.6V7.54H28.1831V9.6C28.1831 10.04 28.2165 10.4333 28.2831 10.78C28.3498 11.1267 28.4565 11.4533 28.6031 11.76C28.7631 12.0533 28.9698 12.3333 29.2231 12.6C29.4898 12.8667 29.8231 13.1333 30.2231 13.4C30.8098 13.8 31.4765 14.2267 32.2231 14.68C32.9698 15.12 33.7098 15.5467 34.4431 15.96L33.2231 17.92C32.2631 17.3733 31.4231 16.8867 30.7031 16.46C29.9831 16.02 29.3498 15.62 28.8031 15.26C28.2965 14.9133 27.8898 14.62 27.5831 14.38C27.2898 14.1267 27.0898 13.8867 26.9831 13.66H26.9631Z" fill="#1C1C1C"/>
</svg>
