<svg width="18" height="20" viewBox="0 0 18 20" fill="none" xmlns="http://www.w3.org/2000/svg">
<path d="M7.84 11.46V10.64C6.46667 10.5333 5.38667 10.2733 4.6 9.86C3.82667 9.44667 3.44 8.88 3.44 8.16V7.56C3.44 7.16 3.57333 6.80667 3.84 6.5C4.10667 6.18 4.48 5.91333 4.96 5.7C5.45333 5.48667 6.04667 5.32667 6.74 5.22C7.44667 5.1 8.23333 5.04 9.1 5.04C9.96667 5.04 10.7467 5.1 11.44 5.22C12.1467 5.32667 12.74 5.48667 13.22 5.7C13.7133 5.91333 14.0933 6.18 14.36 6.5C14.6267 6.80667 14.76 7.16 14.76 7.56V8.16C14.76 8.88 14.3667 9.44667 13.58 9.86C12.8067 10.2733 11.7333 10.5333 10.36 10.64V11.46H17.62V13.44H0.58V11.46H7.84ZM2.96 14.18H15.24V19.92H2.96V14.18ZM10.36 2.5H15.88V4.48H2.32V2.5H7.82V0.779999H10.36V2.5ZM5.46 17.94H12.74V16.16H5.46V17.94ZM9.1 6.94C8.03333 6.94 7.24 7.02667 6.72 7.2C6.2 7.36 5.94 7.55333 5.94 7.78V7.94C5.94 8.16667 6.2 8.36667 6.72 8.54C7.24 8.7 8.03333 8.78 9.1 8.78C10.1667 8.78 10.96 8.7 11.48 8.54C12 8.36667 12.26 8.16667 12.26 7.94V7.78C12.26 7.55333 12 7.36 11.48 7.2C10.96 7.02667 10.1667 6.94 9.1 6.94Z" fill="#1C1C1C"/>
</svg>
